<?xml version="1.0" standalone="no"?>
<!DOCTYPE svg PUBLIC "-//W3C//DTD SVG 20010904//EN"
 "http://www.w3.org/TR/2001/REC-SVG-20010904/DTD/svg10.dtd">
<svg version="1.0" xmlns="http://www.w3.org/2000/svg"
 width="1249.000000pt" height="1280.000000pt" viewBox="0 0 1249.000000 1280.000000"
 preserveAspectRatio="xMidYMid meet">

<g transform="translate(0.000000,1280.000000) scale(0.100000,-0.100000)"
fill="#000000" stroke="none">
<path d="M5865 11194 c-49 -7 -167 -34 -216 -50 -26 -8 -54 -14 -64 -14 -9 0
-31 -6 -48 -14 -18 -8 -51 -20 -74 -26 -23 -6 -45 -15 -48 -20 -3 -6 -13 -10
-22 -10 -8 0 -31 -7 -51 -16 -64 -29 -267 -128 -277 -136 -5 -4 -47 -32 -92
-62 -193 -128 -368 -286 -486 -440 -83 -109 -167 -235 -167 -251 0 -8 -5 -17
-11 -20 -6 -4 -28 -46 -50 -94 -22 -47 -46 -99 -54 -116 -32 -70 -73 -184 -89
-251 -7 -27 -16 -56 -20 -63 -5 -7 -12 -38 -17 -69 -4 -32 -12 -77 -18 -102
-6 -25 -10 -125 -11 -224 0 -210 4 -220 105 -304 21 -17 145 -43 163 -34 9 5
36 12 60 15 54 7 119 58 149 118 15 32 26 86 38 199 27 253 34 286 106 475 13
33 29 69 36 80 7 11 13 25 13 31 0 10 33 70 93 169 24 39 142 191 187 239 164
177 491 373 710 426 19 4 49 13 65 18 111 39 486 55 645 27 140 -24 234 -48
276 -70 16 -8 36 -15 44 -15 24 0 266 -125 298 -153 10 -10 22 -17 26 -17 4 0
45 -29 91 -66 104 -81 259 -243 322 -338 26 -39 50 -73 54 -76 11 -9 104 -194
127 -255 13 -33 30 -76 38 -95 7 -19 16 -53 20 -75 4 -22 11 -48 15 -57 5 -9
14 -66 19 -125 19 -212 32 -287 56 -329 38 -65 85 -101 157 -120 61 -17 68
-17 130 0 78 21 135 69 166 140 18 41 21 68 21 170 0 113 -18 278 -41 371 -6
22 -16 65 -24 95 -13 56 -23 86 -57 175 -29 77 -32 82 -94 210 -55 111 -101
191 -139 240 -9 11 -33 43 -53 71 -153 209 -425 437 -677 568 -49 26 -94 51
-99 56 -6 6 -18 10 -28 10 -10 0 -35 9 -55 20 -21 11 -43 20 -50 20 -6 0 -24
6 -40 14 -45 22 -159 58 -243 77 -25 6 -70 17 -100 24 -30 7 -89 18 -130 23
-41 6 -86 13 -100 17 -30 7 -443 15 -485 9z"/>
<path d="M6005 9998 c-16 -5 -52 -15 -80 -23 -82 -22 -128 -41 -193 -82 -35
-21 -73 -44 -86 -50 -42 -23 -157 -142 -214 -221 -33 -47 -92 -162 -92 -181 0
-9 -7 -29 -16 -46 -15 -30 -31 -119 -41 -231 -6 -66 18 -230 44 -304 48 -138
123 -251 241 -362 63 -59 195 -148 220 -148 5 0 15 -7 22 -15 7 -8 21 -15 32
-15 10 0 32 -7 47 -15 29 -15 83 -26 222 -47 77 -11 95 -10 279 22 36 7 75 18
87 26 12 8 29 14 38 14 53 0 281 160 350 246 22 27 42 51 45 54 12 10 66 98
75 120 4 8 14 33 24 55 33 71 43 108 59 210 18 117 17 128 -1 260 -16 112 -25
138 -76 245 -65 134 -134 222 -246 308 -70 54 -81 62 -155 97 -160 78 -236 95
-412 94 -79 0 -156 -5 -173 -11z"/>
<path d="M4218 8041 c-49 -16 -98 -83 -98 -133 0 -13 -7 -51 -16 -83 -9 -33
-20 -80 -25 -105 -8 -48 -23 -117 -41 -190 -10 -42 -22 -97 -48 -215 -6 -27
-16 -70 -22 -95 -17 -74 -38 -171 -52 -240 -7 -36 -18 -81 -24 -100 -10 -35
-20 -81 -47 -215 -7 -38 -18 -86 -23 -105 -16 -52 -32 -128 -43 -194 -5 -32
-16 -78 -24 -103 -8 -24 -15 -54 -15 -67 0 -13 -7 -43 -15 -66 -8 -23 -15 -55
-15 -70 0 -15 -6 -50 -14 -76 -22 -75 -47 -183 -56 -241 -4 -28 -13 -66 -18
-85 -6 -18 -20 -78 -32 -133 -11 -55 -25 -118 -31 -140 -6 -22 -13 -53 -15
-70 -6 -37 -29 -138 -50 -225 -9 -36 -20 -88 -24 -116 -4 -28 -13 -61 -19 -72
-6 -11 -11 -32 -11 -46 0 -28 -34 -177 -56 -246 -8 -25 -14 -59 -14 -77 0 -17
-5 -44 -11 -60 -6 -15 -17 -57 -24 -93 -19 -91 -34 -157 -47 -210 -6 -25 -14
-65 -18 -90 -9 -52 -35 -163 -56 -236 -7 -28 -14 -63 -14 -78 0 -15 -7 -43
-15 -63 -22 -52 -20 -165 3 -186 45 -41 94 -48 366 -47 216 1 270 4 311 18 56
19 91 61 100 121 3 20 10 59 15 86 6 28 17 89 25 138 8 48 17 92 20 97 3 5 13
49 20 97 24 141 42 235 54 273 6 19 11 51 11 70 0 19 6 55 14 80 8 25 19 74
25 110 21 126 31 176 45 245 16 76 41 201 55 280 5 28 15 77 21 110 7 33 18
94 26 135 8 41 24 116 35 165 10 50 19 101 19 115 0 14 7 43 15 65 8 22 14 58
15 79 0 22 6 62 14 90 8 28 20 80 26 116 7 36 21 108 31 160 10 52 24 124 29
160 16 103 36 165 53 168 15 3 52 -67 165 -308 19 -41 39 -82 43 -90 5 -8 12
-22 15 -30 14 -34 76 -166 85 -180 5 -8 12 -22 15 -30 4 -8 28 -60 54 -115 26
-55 67 -140 90 -190 23 -49 64 -135 90 -190 26 -55 57 -121 70 -147 12 -27 26
-50 31 -54 5 -3 9 -13 9 -22 0 -10 13 -42 30 -72 16 -30 32 -62 36 -70 14 -37
46 -106 55 -120 5 -8 14 -25 19 -38 5 -13 21 -46 34 -75 14 -29 30 -63 35 -77
6 -14 15 -32 20 -40 4 -8 24 -49 44 -90 19 -41 58 -124 87 -185 57 -118 89
-188 170 -360 28 -60 56 -117 61 -125 5 -8 12 -22 15 -30 4 -8 28 -60 54 -115
26 -55 61 -129 78 -165 34 -74 52 -93 105 -110 51 -16 232 -9 270 10 32 17 45
39 113 185 25 55 71 152 101 215 30 63 64 135 75 160 11 25 24 52 29 60 5 8
14 26 19 40 13 30 40 89 51 110 13 24 49 99 86 180 19 41 50 109 70 150 20 41
52 109 71 150 19 41 39 82 43 90 5 8 14 26 20 40 5 14 21 48 35 77 13 29 29
62 34 75 5 13 14 30 19 38 6 8 29 56 52 105 52 113 120 258 166 355 67 143
103 220 140 297 20 43 40 85 44 93 5 8 12 22 15 30 7 21 45 102 56 120 4 8 11
22 14 30 3 8 10 22 15 30 5 8 14 26 19 40 6 14 15 34 20 45 5 11 14 31 20 45
5 14 14 32 19 40 18 28 81 166 81 177 0 6 7 16 15 23 28 23 53 -13 60 -88 3
-37 10 -75 16 -85 6 -10 14 -52 18 -92 5 -40 12 -79 17 -86 4 -8 14 -48 21
-89 14 -89 30 -168 45 -230 6 -25 14 -70 18 -101 4 -31 12 -71 19 -90 6 -19
15 -63 21 -99 5 -36 14 -83 19 -105 11 -45 25 -114 46 -225 21 -114 35 -180
47 -230 6 -25 14 -71 18 -103 5 -32 13 -70 19 -85 6 -15 15 -56 20 -92 10 -64
23 -131 42 -220 6 -25 16 -79 24 -120 18 -99 34 -176 46 -225 5 -22 14 -70 19
-108 5 -37 14 -75 18 -85 5 -9 13 -44 17 -77 3 -33 13 -79 21 -103 8 -23 14
-60 14 -80 0 -54 39 -103 98 -124 40 -15 88 -17 313 -18 286 0 342 8 374 53
18 25 20 94 4 134 -6 15 -15 51 -19 78 -9 52 -23 118 -42 195 -10 42 -22 97
-48 215 -6 28 -16 70 -22 95 -10 43 -23 106 -48 230 -6 30 -17 78 -25 105 -13
49 -22 93 -50 230 -7 39 -18 83 -24 98 -6 16 -11 40 -11 54 0 15 -6 49 -14 77
-8 28 -20 76 -26 106 -6 30 -18 84 -25 120 -8 36 -19 90 -25 120 -6 30 -18 78
-26 105 -13 48 -18 72 -49 233 -8 40 -17 77 -20 82 -3 5 -12 42 -20 82 -14 75
-35 169 -53 248 -6 25 -16 68 -22 95 -22 102 -39 182 -50 235 -7 30 -18 80
-25 110 -22 90 -36 151 -50 225 -17 88 -33 155 -51 225 -8 30 -18 80 -24 110
-5 30 -14 75 -20 100 -18 73 -31 131 -45 200 -19 92 -34 157 -51 216 -8 28
-14 65 -14 83 0 17 -6 47 -14 65 -7 18 -17 57 -21 87 -8 61 -32 115 -65 144
-20 18 -36 20 -149 20 -110 0 -129 -2 -153 -20 -27 -20 -79 -120 -356 -685
-165 -337 -232 -472 -242 -490 -5 -8 -27 -53 -50 -100 -23 -47 -45 -92 -49
-100 -20 -36 -51 -108 -51 -117 0 -6 -7 -16 -15 -23 -8 -7 -15 -20 -15 -30 0
-10 -6 -23 -14 -29 -8 -7 -18 -25 -21 -41 -3 -16 -13 -34 -21 -41 -8 -6 -14
-19 -14 -29 0 -10 -7 -23 -15 -30 -8 -7 -15 -20 -15 -30 0 -10 -6 -23 -14 -29
-8 -7 -18 -25 -21 -41 -3 -16 -13 -34 -21 -41 -8 -6 -14 -21 -14 -33 0 -12 -4
-26 -10 -32 -15 -15 -230 -451 -230 -467 0 -8 -6 -20 -14 -27 -8 -6 -16 -21
-18 -32 -3 -22 -33 -47 -43 -36 -4 3 -7 550 -8 1215 l-2 1208 -37 3 c-20 2
-47 -3 -60 -9 -33 -18 -175 -40 -293 -46 -100 -5 -224 11 -325 42 -25 7 -60
16 -77 20 l-33 7 0 -1199 c0 -1322 1 -1299 -55 -1177 -28 60 -169 346 -185
374 -4 8 -47 96 -95 195 -48 99 -156 320 -240 490 -84 171 -163 330 -175 355
-12 25 -28 56 -36 70 -7 14 -23 45 -34 70 -21 45 -27 59 -48 95 -7 11 -17 31
-22 45 -14 33 -18 42 -30 63 -5 9 -15 25 -20 35 -6 9 -15 28 -21 42 -10 25
-43 93 -58 120 -5 8 -18 38 -30 65 -12 28 -26 57 -31 65 -5 8 -27 53 -50 100
-22 47 -45 92 -50 100 -5 8 -19 36 -30 61 -35 76 -64 91 -189 95 -58 2 -118 0
-133 -5z"/>
<path d="M4335 2800 c-190 -39 -342 -182 -390 -365 -17 -68 -19 -189 -4 -255
15 -64 63 -157 109 -212 159 -185 453 -224 658 -87 180 120 261 341 204 560
-65 247 -326 410 -577 359z m195 -182 c79 -25 144 -84 191 -176 20 -39 24 -62
24 -137 0 -76 -4 -99 -26 -146 -115 -244 -452 -252 -574 -14 -27 53 -30 68
-30 154 0 114 21 170 88 239 86 89 203 117 327 80z"/>
<path d="M7910 2795 c-98 -31 -170 -129 -170 -230 0 -96 59 -173 274 -359 111
-97 132 -152 77 -207 -24 -24 -38 -29 -78 -29 -59 0 -103 25 -139 80 -15 22
-29 40 -31 40 -13 0 -143 -84 -143 -92 0 -18 60 -97 102 -132 50 -44 120 -66
202 -66 77 0 119 12 178 49 117 74 147 259 62 382 -16 23 -91 96 -166 161
-144 124 -158 140 -158 182 0 81 123 85 195 5 l34 -37 65 56 65 57 -47 48
c-88 90 -216 127 -322 92z"/>
<path d="M3220 2306 l0 -486 90 0 90 0 0 205 0 205 48 0 c67 0 160 18 202 40
48 25 104 88 121 136 7 22 13 68 13 104 0 82 -17 132 -62 182 -65 72 -107 83
-339 93 l-163 7 0 -486z m335 290 c41 -17 55 -42 55 -94 0 -33 -6 -45 -31 -66
-27 -23 -39 -26 -105 -26 l-74 0 0 100 0 100 60 0 c33 0 76 -6 95 -14z"/>
<path d="M5110 2305 l0 -485 90 0 90 0 2 212 3 212 149 -212 149 -212 103 0
c57 0 104 2 104 5 0 3 -81 123 -180 265 -99 142 -180 262 -180 265 0 3 74 100
165 216 91 115 165 212 165 214 0 3 -47 5 -105 5 l-105 0 -132 -166 -133 -166
-3 166 -2 166 -90 0 -90 0 0 -485z"/>
<path d="M5950 2305 l0 -485 90 0 90 0 2 210 3 210 144 -206 c80 -113 150
-208 156 -210 6 -3 55 -3 108 -2 l97 3 -176 255 c-97 140 -179 261 -181 267
-3 7 65 103 151 213 86 110 159 207 162 215 5 13 -10 15 -97 14 l-104 0 -130
-163 -130 -163 -5 161 -5 161 -87 3 -88 3 0 -486z"/>
<path d="M7061 2747 c-36 -85 -351 -907 -351 -918 0 -6 34 -9 91 -7 l91 3 38
95 38 95 202 0 202 0 36 -97 36 -98 94 0 c86 0 94 2 88 18 -4 9 -63 161 -131
337 -68 176 -148 385 -178 465 l-55 145 -91 3 -91 3 -19 -44z m176 -384 c34
-86 61 -158 59 -160 -2 -2 -60 -2 -129 -1 l-126 3 62 157 c34 87 64 158 67
158 3 0 33 -71 67 -157z"/>
<path d="M8478 2785 c-8 -9 -11 -927 -2 -948 5 -14 21 -17 95 -17 l89 0 0 210
0 210 165 0 165 0 0 -210 0 -210 90 0 90 0 0 485 0 485 -90 0 -90 0 0 -185 0
-185 -165 0 -165 0 -2 183 -3 182 -85 3 c-47 1 -89 0 -92 -3z"/>
</g>
</svg>
