<svg width="27" height="28" viewBox="0 0 27 28" fill="none" xmlns="http://www.w3.org/2000/svg">
<path d="M25.5582 16.6207L23.5462 14.5348C23.6134 13.8327 23.6134 13.1259 23.5462 12.4238L25.554 10.3629C25.7972 10.1158 25.9519 9.79625 25.9944 9.45331C26.0369 9.11036 25.9648 8.76308 25.7892 8.46479L23.773 4.99381C23.6004 4.695 23.3343 4.46036 23.0151 4.32557C22.6959 4.19077 22.3411 4.16323 22.0047 4.24709L19.1989 4.93957C18.6152 4.53823 17.9934 4.19452 17.3424 3.91332L16.5611 1.15993C16.4642 0.827781 16.2625 0.535305 15.9856 0.325572C15.7083 0.118229 15.3709 0.00553565 15.0238 0.0043335H10.9705C10.6229 0.00434847 10.285 0.117323 10.0082 0.325979C9.73134 0.534635 9.53087 0.827516 9.43734 1.15993L8.65188 3.91332C8.00409 4.203 7.38648 4.55513 6.80794 4.96463L4.00212 4.26792C3.66434 4.18821 3.30978 4.21746 2.98985 4.35139C2.67146 4.48632 2.40604 4.72064 2.23379 5.01887L0.217635 8.48562C0.0422056 8.78367 -0.0301796 9.13057 0.0115351 9.47332C0.0532498 9.81607 0.20677 10.1359 0.448651 10.3838L2.46061 12.4697C2.38921 13.1716 2.38921 13.8788 2.46061 14.5806L0.452852 16.6415C0.210256 16.8889 0.0555955 17.2081 0.0123811 17.5507C-0.0308333 17.8933 0.0397615 18.2406 0.213434 18.5397L2.23379 22.0107C2.40699 22.3081 2.67212 22.5422 2.98985 22.6781C3.30929 22.8145 3.66511 22.8424 4.00212 22.7574L6.80794 22.0649C7.38648 22.4744 8.00409 22.8265 8.65188 23.1162L9.43734 25.8696C9.53106 26.2027 9.73216 26.4961 10.0098 26.7048C10.2875 26.9136 10.6264 27.0261 10.9747 27.0252H15.0238C15.3709 27.024 15.7083 26.9113 15.9856 26.704C16.2625 26.4942 16.4642 26.2018 16.5611 25.8696L17.3424 23.1037C17.9915 22.814 18.6105 22.4619 19.1905 22.0524L21.9963 22.7491C22.3332 22.8312 22.6878 22.8023 23.0067 22.6669C23.3256 22.5315 23.5916 22.2967 23.7646 21.9981L25.7808 18.5314C25.9549 18.2325 26.0271 17.8857 25.9866 17.5427C25.9498 17.1969 25.7992 16.8728 25.5582 16.6207V16.6207ZM24.9701 18.0474L22.954 21.5184C22.8819 21.6391 22.7732 21.7341 22.6434 21.7895C22.5135 21.845 22.3693 21.8582 22.2315 21.8271L19.2157 21.0762C19.1444 21.0552 19.0691 21.0514 18.996 21.0652C18.9229 21.079 18.8542 21.1099 18.7957 21.1554C18.1645 21.623 17.4791 22.0138 16.7543 22.3194C16.6892 22.3466 16.6312 22.3882 16.5846 22.4409C16.538 22.4937 16.5041 22.5562 16.4855 22.6239L15.6454 25.5859C15.6045 25.7213 15.5223 25.8409 15.4102 25.928C15.2969 26.0143 15.1582 26.0612 15.0154 26.0615H10.9663C10.8243 26.0602 10.6865 26.0137 10.5731 25.9289C10.4597 25.844 10.3766 25.7252 10.3362 25.5901L9.49615 22.6239C9.47667 22.5566 9.44248 22.4944 9.39601 22.4418C9.34954 22.3892 9.29194 22.3474 9.22733 22.3194C8.50164 22.0129 7.81501 21.6222 7.18177 21.1554C7.10133 21.0932 7.00229 21.0595 6.90035 21.0595C6.86265 21.0554 6.82463 21.0554 6.78694 21.0595L3.77111 21.8063C3.63139 21.8433 3.48308 21.8316 3.35108 21.7729C3.21835 21.7182 3.10758 21.6213 3.03605 21.4975L1.0199 18.0266C0.948141 17.9053 0.918712 17.764 0.936182 17.6244C0.953651 17.4848 1.01704 17.3549 1.1165 17.2548L3.27967 15.0312C3.32923 14.9812 3.3667 14.9207 3.38926 14.8542C3.41182 14.7877 3.41887 14.717 3.40988 14.6474C3.31749 13.8728 3.31749 13.09 3.40988 12.3154C3.41852 12.2464 3.41129 12.1764 3.38874 12.1106C3.36618 12.0449 3.32889 11.9851 3.27967 11.9357L1.1123 9.71216C1.0144 9.61019 0.952467 9.47941 0.935804 9.33949C0.91914 9.19956 0.94865 9.05805 1.0199 8.93621L3.04025 5.46523C3.1101 5.34417 3.21773 5.24897 3.34687 5.19405C3.47928 5.13738 3.62645 5.12424 3.76691 5.15652L6.78274 5.90746C6.85028 5.92503 6.92097 5.92701 6.9894 5.91327C7.05784 5.89953 7.1222 5.87041 7.17757 5.82817C7.81023 5.36053 8.49696 4.9698 9.22313 4.66427C9.28774 4.63629 9.34534 4.59449 9.39181 4.54185C9.43828 4.4892 9.47247 4.42697 9.49195 4.35969L10.332 1.39771C10.3711 1.2614 10.4536 1.14139 10.5672 1.05564C10.6808 0.969887 10.8194 0.923013 10.9621 0.922113H15.0112C15.154 0.922405 15.2927 0.969341 15.406 1.05564C15.5172 1.14187 15.5993 1.25974 15.6412 1.39353L16.4813 4.35969C16.4999 4.42736 16.5338 4.48995 16.5804 4.54271C16.627 4.59547 16.685 4.63705 16.7501 4.66427C17.4749 4.96985 18.1603 5.36058 18.7915 5.82817C18.8497 5.87433 18.9184 5.90567 18.9916 5.91948C19.0648 5.9333 19.1403 5.9292 19.2115 5.90746L22.2231 5.16069C22.3627 5.12256 22.5114 5.13435 22.6432 5.19405C22.7745 5.24928 22.8838 5.3461 22.954 5.4694L24.9743 8.94038C25.0461 9.06163 25.0755 9.20298 25.058 9.34254C25.0406 9.48211 24.9772 9.61206 24.8777 9.71216L22.7146 11.9357C22.6656 11.9853 22.6285 12.0451 22.6059 12.1108C22.5834 12.1765 22.576 12.2464 22.5844 12.3154C22.6767 13.09 22.6767 13.8728 22.5844 14.6474C22.5757 14.717 22.5829 14.7876 22.6054 14.8541C22.628 14.9205 22.6653 14.9811 22.7146 15.0312L24.8777 17.259C24.9784 17.3572 25.0422 17.4868 25.0583 17.6261C25.0797 17.7725 25.0484 17.9216 24.9701 18.0474Z" fill="black"/>
<path d="M13.0074 9.68275C12.1182 9.68275 11.2566 9.98895 10.5692 10.5492C9.88188 11.1094 9.41139 11.8891 9.23792 12.7552C9.06445 13.6214 9.19872 14.5205 9.61787 15.2994C10.037 16.0782 10.7151 16.6887 11.5366 17.0266C12.3581 17.3646 13.2721 17.4092 14.123 17.1528C14.9739 16.8965 15.7089 16.355 16.2029 15.6207C16.6969 14.8864 16.9193 14.0047 16.8322 13.1258C16.745 12.2469 16.3537 11.4253 15.725 10.8008C15.3689 10.4452 14.9454 10.1634 14.4789 9.97145C14.0125 9.77954 13.5123 9.68138 13.0074 9.68275ZM15.0571 15.5233C14.585 15.9963 13.9622 16.2921 13.2951 16.3602C12.6279 16.4282 11.9577 16.2643 11.3985 15.8965C10.8394 15.5286 10.426 14.9796 10.2289 14.3429C10.0317 13.7063 10.0629 13.0214 10.3173 12.405C10.5716 11.7887 11.0333 11.279 11.6236 10.9629C12.2139 10.6468 12.8963 10.5438 13.5546 10.6715C14.2128 10.7992 14.806 11.1496 15.2332 11.6631C15.6604 12.1766 15.8951 12.8213 15.8972 13.4874C15.9008 13.8671 15.8283 14.2437 15.6841 14.5954C15.5399 14.947 15.3268 15.2667 15.0571 15.5358V15.5233Z" fill="black"/>
</svg>
