<svg width="20" height="28" viewBox="0 0 20 28" fill="none" xmlns="http://www.w3.org/2000/svg">
<path d="M1.44646 8.02717C1.50691 5.14717 3.14335 2.51201 5.74698 1.09276C8.3506 -0.330643 11.5415 -0.330643 14.1494 1.09276C16.753 2.51616 18.3895 5.15132 18.4499 8.02717V12.7995H19.456C19.7582 12.7995 20 13.0319 20 13.3224V26.5023C20 26.7928 19.7582 27.0252 19.456 27.0252H0.544041C0.241795 27.0252 0 26.7928 0 26.5023V13.3182C0 13.0277 0.241795 12.7953 0.544041 12.7953L2.53886 12.7995H17.3661V8.02717C17.31 5.52066 15.8808 3.22579 13.614 1.98498C11.3428 0.748324 8.56218 0.748324 6.29534 1.98498C4.02418 3.22164 2.59931 5.51651 2.54318 8.02717H1.44646ZM1.08808 25.9836H18.9119V13.8453H1.08808V25.9836Z" fill="black"/>
</svg>
