<svg width="75" height="76" fill="none" xmlns="http://www.w3.org/2000/svg"><path d="M14 .126c-2.626.255-5.025 1.182-7.091 2.739C5.194 4.157 4.124 5.446 3.245 7.28c-.665 1.387-.97 2.511-1.127 4.158-.088.924-.118 9.861-.093 27.25l.038 25.875.329 1.188c.646 2.337 1.663 4.052 3.374 5.687 2.049 1.957 4.495 3.154 7.414 3.627.967.157 4.565.184 24.655.184 16.06.001 23.828-.042 24.486-.133 2.297-.32 4.828-1.358 6.635-2.721 2.214-1.672 3.658-3.773 4.441-6.461l.291-.996.038-26.688c.028-19.873 0-26.927-.108-27.625-.62-3.984-3.085-7.224-6.93-9.109a14.235 14.235 0 0 0-5-1.389C60.102-.019 15.505-.02 14 .126m48.756 4.063c2.68.564 5.148 2.377 6.235 4.582.954 1.934.891-.21.854 29.323l-.032 26.469-.293.812c-.811 2.253-2.365 3.902-4.763 5.051-1.99.953.042.887-26.944.887H13.688l-1-.289c-2.747-.793-4.837-2.411-5.917-4.583-.818-1.643-.767.274-.769-28.821C6 8.316 5.934 10.606 6.833 8.75c.786-1.625 2.681-3.28 4.678-4.086 1.664-.673.489-.643 26.325-.654 20.976-.009 24.137.014 24.92.179M14.708 20.491c-.275.056-.646.265-.869.487-.338.338-.396.495-.44 1.19-.062.965.169 1.543.759 1.9.376.227.652.245 3.905.245 3.808 0 3.969-.026 4.48-.718.165-.223.269-.592.3-1.062.056-.885-.214-1.476-.843-1.841-.406-.236-.669-.256-3.625-.277-1.753-.012-3.403.022-3.667.076m17.042-.001c-1.007.205-1.425.757-1.425 1.885 0 .835.282 1.415.833 1.717.38.207 1.292.221 15.217.221s14.837-.014 15.217-.221c.551-.302.833-.882.833-1.717 0-.835-.282-1.415-.833-1.717-.38-.207-1.298-.222-14.904-.239-7.976-.01-14.697.022-14.938.071M14.162 35.995c-.532.325-.787.854-.787 1.636 0 .808.295 1.443.798 1.718.342.187.831.214 3.974.214 3.429 0 3.6-.012 3.938-.259 1.043-.766 1.053-2.669.016-3.301-.389-.237-.623-.252-3.976-.252-3.313 0-3.59.017-3.963.244m17.019-.051c-1.17.578-1.162 2.834.013 3.431.321.164 2.262.188 15.181.188 16.389 0 15.299.056 15.805-.813.33-.568.332-1.668.002-2.226-.485-.821.479-.774-15.826-.771-12.92.002-14.842.027-15.175.191M14.284 51.185c-.594.258-.908.856-.909 1.727 0 .944.252 1.419.915 1.72.471.214.851.238 3.835.24 3.629.003 3.881-.041 4.415-.769.365-.498.417-1.445.116-2.125-.418-.946-.574-.979-4.55-.973-2.651.004-3.509.044-3.822.18m16.879.059c-.605.369-.827.797-.834 1.608-.007.815.207 1.326.711 1.699l.353.262h29.964l.353-.262c.504-.373.718-.884.711-1.699-.007-.811-.229-1.239-.834-1.608-.39-.237-.75-.243-15.212-.243s-14.822.006-15.212.243" fill-rule="evenodd" fill="#000"/></svg>