<svg width="27" height="27" viewBox="0 0 27 27" fill="none" xmlns="http://www.w3.org/2000/svg">
<path d="M13.8213 0C18.0662 0 21.9966 1.88325 24.603 5.0544C24.6772 5.14429 24.7326 5.2482 24.7659 5.35995C24.7992 5.4717 24.8097 5.589 24.7967 5.70488C24.7837 5.82075 24.7476 5.93284 24.6904 6.03446C24.6333 6.13608 24.5562 6.22516 24.4639 6.2964C24.2761 6.44369 24.0382 6.51197 23.8009 6.48677C23.5635 6.46157 23.3453 6.34486 23.1925 6.1614C22.0528 4.78065 20.6209 3.67015 19.0001 2.91002C17.3793 2.14989 15.6101 1.75908 13.8199 1.7658C7.18599 1.7658 1.8073 7.02 1.8073 13.5C1.8073 19.98 7.18599 25.2342 13.8199 25.2342C15.6358 25.2411 17.43 24.8391 19.0694 24.0578C20.7087 23.2765 22.1511 22.1361 23.2897 20.7211C23.4399 20.5358 23.6563 20.4162 23.8932 20.3878C24.13 20.3593 24.3686 20.4241 24.5584 20.5686C24.6515 20.6386 24.7296 20.7267 24.788 20.8275C24.8464 20.9283 24.884 21.0398 24.8985 21.1554C24.9129 21.271 24.904 21.3883 24.8723 21.5004C24.8405 21.6125 24.7866 21.7171 24.7136 21.8079C22.1114 25.0614 18.1283 27 13.8213 27C6.18584 27 0 20.9561 0 13.5C0 6.04395 6.18718 0 13.8213 0ZM23.0778 9.666L26.7302 13.3204C27.0838 13.6728 27.0905 14.2385 26.7463 14.5841L23.1777 18.1521C23.0083 18.3178 22.7801 18.4095 22.5432 18.407C22.3063 18.4045 22.0801 18.3079 21.9143 18.1386C21.8302 18.0566 21.7631 17.9588 21.7168 17.8508C21.6705 17.7428 21.646 17.6267 21.6446 17.5092C21.6432 17.3917 21.665 17.2751 21.7088 17.166C21.7525 17.057 21.8173 16.9576 21.8995 16.8736L23.9875 14.7852H10.0717C9.95438 14.7866 9.83791 14.7649 9.72895 14.7213C9.62 14.6777 9.5207 14.6131 9.43672 14.5311C9.35275 14.4491 9.28574 14.3514 9.23953 14.2435C9.19332 14.1356 9.16881 14.0197 9.1674 13.9023C9.1674 13.4136 9.57232 13.0181 10.0717 13.0181H23.9322L21.8293 10.9148C21.6598 10.7491 21.563 10.523 21.5602 10.286C21.5575 10.0491 21.6489 9.8207 21.8144 9.65115C21.9839 9.48559 22.2123 9.39415 22.4492 9.39693C22.6861 9.39972 22.9122 9.4965 23.0778 9.666Z" fill="black"/>
</svg>
