<svg width="20" height="27" viewBox="0 0 20 27" fill="none" xmlns="http://www.w3.org/2000/svg">
<path d="M18.78 0.0253761H1.22C1.06074 0.0226911 0.90254 0.052108 0.754633 0.111897C0.606726 0.171686 0.472072 0.260666 0.358514 0.373633C0.244957 0.486601 0.154771 0.621309 0.093219 0.769892C0.0316665 0.918474 -2.21127e-05 1.07794 1.15769e-08 1.23904V25.7753C0.00626944 26.0987 0.137441 26.4068 0.365448 26.6336C0.593455 26.8604 0.900185 26.988 1.22 26.989H18.78C19.0998 26.988 19.4065 26.8604 19.6346 26.6336C19.8626 26.4068 19.9937 26.0987 20 25.7753V1.23904C20 1.07794 19.9683 0.918474 19.9068 0.769892C19.8452 0.621309 19.755 0.486601 19.6415 0.373633C19.5279 0.260666 19.3933 0.171686 19.2454 0.111897C19.0975 0.052108 18.9393 0.0226911 18.78 0.0253761V0.0253761ZM18.78 25.9533H1.22C1.17757 25.9533 1.13687 25.9363 1.10686 25.9059C1.07685 25.8756 1.06 25.8344 1.06 25.7915V1.25524C1.06104 1.21303 1.07836 1.17286 1.10825 1.14338C1.13815 1.11391 1.17825 1.09744 1.22 1.09746H18.78C18.8217 1.09744 18.8618 1.11391 18.8917 1.14338C18.9216 1.17286 18.939 1.21303 18.94 1.25524V25.7915C18.94 25.8344 18.9231 25.8756 18.8931 25.9059C18.8631 25.9363 18.8224 25.9533 18.78 25.9533V25.9533Z" fill="black"/>
<path d="M16.6483 4.80712H3.41229C3.32124 4.78885 3.22731 4.79123 3.13727 4.81408C3.04723 4.83693 2.96332 4.87969 2.89158 4.93927C2.81984 4.99885 2.76205 5.07381 2.72237 5.15868C2.68269 5.24356 2.66211 5.33626 2.66211 5.43015C2.66211 5.52404 2.68269 5.61679 2.72237 5.70166C2.76205 5.78654 2.81984 5.86145 2.89158 5.92103C2.96332 5.98061 3.04723 6.02337 3.13727 6.04622C3.22731 6.06907 3.32124 6.07145 3.41229 6.05318H16.6483C16.8303 6.07027 17.0117 6.01463 17.1538 5.89821C17.2958 5.78179 17.3871 5.6138 17.4083 5.43015C17.4088 5.35474 17.3941 5.28002 17.3652 5.21049C17.3364 5.14096 17.2939 5.07806 17.2403 5.02559C17.0785 4.87783 16.8662 4.79948 16.6483 4.80712Z" fill="black"/>
<path d="M16.6483 7.59447H3.41229C3.32124 7.57621 3.22731 7.57859 3.13727 7.60144C3.04723 7.62429 2.96332 7.66704 2.89158 7.72662C2.81984 7.78621 2.76205 7.86116 2.72237 7.94604C2.68269 8.03092 2.66211 8.12362 2.66211 8.2175C2.66211 8.31139 2.68269 8.40409 2.72237 8.48897C2.76205 8.57385 2.81984 8.6488 2.89158 8.70838C2.96332 8.76796 3.04723 8.81072 3.13727 8.83357C3.22731 8.85642 3.32124 8.8588 3.41229 8.84053H16.6483C16.8303 8.85762 17.0117 8.80199 17.1538 8.68557C17.2958 8.56914 17.3871 8.40116 17.4083 8.2175C17.409 8.14206 17.3945 8.06726 17.3656 7.99769C17.3367 7.92813 17.294 7.86526 17.2403 7.81295C17.1607 7.73885 17.0675 7.6814 16.9659 7.64391C16.8643 7.60641 16.7563 7.5896 16.6483 7.59447Z" fill="black"/>
<path d="M16.6483 10.3779H3.41229C3.32124 10.3597 3.22731 10.362 3.13727 10.3849C3.04723 10.4077 2.96332 10.4505 2.89158 10.5101C2.81984 10.5697 2.76205 10.6446 2.72237 10.7295C2.68269 10.8144 2.66211 10.9071 2.66211 11.001C2.66211 11.0948 2.68269 11.1875 2.72237 11.2724C2.76205 11.3573 2.81984 11.4322 2.89158 11.4918C2.96332 11.5514 3.04723 11.5942 3.13727 11.617C3.22731 11.6399 3.32124 11.6422 3.41229 11.624H16.6483C16.8303 11.6411 17.0117 11.5854 17.1538 11.469C17.2958 11.3526 17.3871 11.1846 17.4083 11.001C17.4088 10.9255 17.3941 10.8508 17.3652 10.7813C17.3364 10.7118 17.2939 10.6489 17.2403 10.5964C17.0785 10.4486 16.8662 10.3703 16.6483 10.3779Z" fill="black"/>
</svg>
