<svg width="26" height="25" viewBox="0 0 26 25" fill="none" xmlns="http://www.w3.org/2000/svg">
<path d="M18.6652 0.988953C17.5642 1.00688 16.4819 1.27086 15.5006 1.76079C14.5193 2.25073 13.6648 2.95372 13.0023 3.81628C12.3338 2.95115 11.473 2.24684 10.4853 1.75692C9.49759 1.26701 8.40902 1.00437 7.30229 0.988953C5.2943 1.07718 3.40254 1.93751 2.03663 3.38366C0.670724 4.82981 -0.0594066 6.7454 0.0043373 8.71565C0.0043373 15.7032 10.8154 23.4541 12.0468 24.3144L13.0023 24.9768L13.9536 24.3144C14.4437 23.9752 25.9961 15.8769 25.9961 8.73988C26.063 6.76101 25.3303 4.8363 23.9573 3.38467C22.5844 1.93304 20.6823 1.072 18.6652 0.988953ZM13.0023 23.5026L12.7634 23.341C12.2939 23.0098 1.23164 15.2225 1.23164 8.70352C1.17001 7.05292 1.77385 5.44495 2.91239 4.22783C4.05093 3.01071 5.63252 2.28241 7.31465 2.20067C8.36802 2.21734 9.39836 2.5057 10.3021 3.03675C11.2058 3.5678 11.951 4.32282 12.4628 5.22591L13.0064 6.18316L13.5459 5.22591C14.0549 4.32665 14.7956 3.57405 15.6938 3.04321C16.5921 2.51237 17.6167 2.22186 18.6652 2.20067C20.3498 2.28447 21.9333 3.01467 23.0737 4.2336C24.2141 5.45253 24.82 7.06239 24.7606 8.71565C24.7606 15.2589 13.7107 22.9977 13.2288 23.3249L13.0023 23.5026Z" fill="#0D0D0D"/>
</svg>
