<svg width="26" height="27" viewBox="0 0 26 27" fill="none" xmlns="http://www.w3.org/2000/svg">
<path d="M13 0C10.4288 0 7.91543 0.791761 5.77759 2.27516C3.63975 3.75856 1.97351 5.86697 0.989572 8.33377C0.00563265 10.8006 -0.251811 13.515 0.249797 16.1337C0.751405 18.7525 1.98953 21.1579 3.80762 23.0459C5.6257 24.9339 7.94208 26.2197 10.4638 26.7406C12.9856 27.2615 15.5994 26.9942 17.9749 25.9724C20.3503 24.9506 22.3807 23.2203 23.8091 21.0002C25.2376 18.7801 26 16.17 26 13.5C26 9.91958 24.6304 6.4858 22.1924 3.95406C19.7544 1.42232 16.4478 0 13 0V0ZM13 25.3125C10.7502 25.3125 8.551 24.6197 6.68039 23.3217C4.80978 22.0238 3.35182 20.1789 2.49088 18.0204C1.62993 15.862 1.40467 13.4869 1.84357 11.1955C2.28248 8.90409 3.36584 6.79931 4.95667 5.1473C6.54749 3.49529 8.57432 2.37026 10.7809 1.91447C12.9874 1.45869 15.2745 1.69261 17.353 2.58667C19.4315 3.48073 21.2081 4.99477 22.458 6.93732C23.7079 8.87988 24.375 11.1637 24.375 13.5C24.375 16.6329 23.1766 19.6374 21.0433 21.8527C18.9101 24.068 16.0168 25.3125 13 25.3125Z" fill="black"/>
<path d="M13.2356 5.83868C12.3552 5.82357 11.4823 6.01002 10.6791 6.3848C9.87583 6.75957 9.16194 7.31347 8.58812 8.00712C8.50841 8.08384 8.44432 8.17638 8.39966 8.27928C8.355 8.38218 8.33068 8.49334 8.32813 8.60618C8.32807 8.71028 8.34818 8.81333 8.38726 8.9092C8.42634 9.00507 8.4836 9.09179 8.55561 9.16422C8.62762 9.23664 8.71293 9.29328 8.80645 9.33077C8.89998 9.36825 8.9998 9.38582 9.1 9.38243C9.31464 9.3769 9.51989 9.28985 9.67687 9.13774C10.1111 8.60928 10.6505 8.1848 11.2578 7.89349C11.8651 7.60218 12.526 7.45096 13.195 7.45024C15.1125 7.45024 16.3069 8.73274 16.3069 10.3274V10.3696C16.3069 12.2343 14.8769 13.2721 12.6181 13.4493C12.5267 13.453 12.437 13.4767 12.3549 13.5188C12.2729 13.561 12.2004 13.6206 12.1421 13.6939C12.0838 13.7672 12.041 13.8524 12.0167 13.944C11.9923 14.0357 11.9868 14.1316 12.0006 14.2256C12.0006 14.2256 12.0006 16.1831 12.0006 16.5459C12.0208 16.7547 12.1153 16.9482 12.2655 17.0887C12.4158 17.2291 12.611 17.3063 12.8131 17.3052H12.9025C13.1036 17.2843 13.29 17.1862 13.4252 17.0302C13.5604 16.8741 13.6348 16.6714 13.6337 16.4615V14.7234C16.0712 14.369 18.0456 13.0359 18.0456 10.2684V10.2262C18.0212 7.69493 16.12 5.83868 13.2356 5.83868Z" fill="black"/>
<path d="M12.8213 21.4734C13.3822 21.4734 13.8369 21.0012 13.8369 20.4187C13.8369 19.8362 13.3822 19.364 12.8213 19.364C12.2604 19.364 11.8057 19.8362 11.8057 20.4187C11.8057 21.0012 12.2604 21.4734 12.8213 21.4734Z" fill="black"/>
</svg>
