<svg width="26" height="26" fill="none" xmlns="http://www.w3.org/2000/svg"><path d="M11.919.046a13.056 13.056 0 0 0-9.306 5.143C1.301 6.918.479 8.906.118 11.223c-.135.869-.132 2.702.006 3.597.546 3.533 2.3 6.483 5.113 8.603 3.889 2.931 9.216 3.4 13.597 1.198 2.783-1.399 5.024-3.816 6.19-6.675.654-1.606.975-3.233.975-4.946 0-4.359-2.165-8.394-5.806-10.821A12.946 12.946 0 0 0 14.625.105c-.602-.079-2.112-.112-2.706-.059m2.641 6.676c.748.1 1.625.417 2.146.775.671.462 1.228 1.156 1.476 1.839l.1.276-.964.437c-.53.241-.983.438-1.008.438-.024 0-.077-.103-.116-.228-.233-.735-.792-1.268-1.612-1.535-.301-.098-.424-.114-.932-.117-.686-.004-.962.056-1.514.326-.658.323-1.203.98-1.472 1.776a6.665 6.665 0 0 0-.154.504l-.03.14h2.261c1.791 0 2.257.012 2.242.055-.011.029-.103.302-.204.606l-.183.553H10.313v1.343h1.95c1.073 0 1.95.013 1.95.028 0 .016-.081.299-.181.629l-.182.6h-3.316l.057.184c.281.903.826 1.623 1.464 1.935.609.298 1.506.419 2.16.29.979-.192 1.69-.817 2.01-1.767.056-.165.113-.312.128-.327.015-.014.486.118 1.046.295l1.019.321-.027.126c-.051.234-.316.842-.496 1.139-.799 1.315-2.087 2.044-3.848 2.178-2.68.204-4.799-1.062-5.654-3.378a9.68 9.68 0 0 1-.23-.704l-.078-.292H6.413V13.91h1.474v-1.343H6.413v-1.214h1.6l.046-.184c.109-.444.408-1.295.565-1.606.723-1.433 1.939-2.393 3.507-2.767.667-.159 1.584-.187 2.429-.074" fill="#0092FF" fill-rule="evenodd"/></svg>