<svg width="39" height="39" fill="none" xmlns="http://www.w3.org/2000/svg"><path d="M18.2.041C12.475.468 7.37 3.236 3.92 7.783c-1.972 2.6-3.2 5.568-3.743 9.051-.198 1.274-.198 4.058 0 5.332.834 5.349 3.42 9.738 7.611 12.918 2.589 1.964 5.573 3.197 9.046 3.739 1.274.198 4.058.198 5.332 0 4.739-.739 8.767-2.875 11.79-6.253 2.679-2.995 4.228-6.305 4.867-10.404.198-1.274.198-4.058 0-5.332-.542-3.473-1.775-6.457-3.739-9.046C31.859 3.539 27.251.865 21.938.161c-.761-.1-3.023-.173-3.738-.12m11.993 11.675c.257.135.526.425.617.666.047.125.1 1.403.147 3.597l.074 3.404-.144.27c-.513.963-1.918.737-2.151-.346-.039-.183-.071-.807-.071-1.386-.001-.58-.02-1.341-.043-1.693l-.042-.639-4.914 4.906c-2.702 2.699-5.007 4.954-5.122 5.011-.256.128-.669.134-.947.013-.116-.05-1.128-1.014-2.257-2.149-1.126-1.133-2.156-2.115-2.289-2.184-.269-.141-.636-.163-.852-.053-.078.04-1.238 1.163-2.579 2.495-2.514 2.5-2.598 2.569-3.087 2.565-.423-.003-1.013-.507-1.138-.972-.16-.594-.234-.502 3.272-4.02 1.757-1.763 3.304-3.262 3.437-3.331a1.08 1.08 0 0 1 .914-.036c.115.048 1.192 1.055 2.392 2.236 2.38 2.342 2.42 2.372 2.925 2.198.193-.067 1.181-1.009 4.407-4.205 2.287-2.266 4.146-4.132 4.132-4.146-.015-.014-.851-.05-1.859-.08s-1.925-.085-2.037-.122a1.239 1.239 0 0 1-.407-.277c-.66-.685-.342-1.782.559-1.929.121-.02 1.716-.005 3.544.034 2.798.06 3.354.087 3.519.173" fill="#0092FF" fill-rule="evenodd"/></svg>