<svg width="52" height="52" fill="none" xmlns="http://www.w3.org/2000/svg"><path d="M23.097.14c-2.416.258-4.881.832-6.717 1.565C9.944 4.273 5.124 8.823 2.3 14.995c-3.672 8.023-2.901 17.306 2.056 24.742 1.708 2.562 4.46 5.292 7.05 6.993 3.187 2.092 6.693 3.435 10.521 4.03 1.421.22 5.572.219 7.063-.002 5.328-.792 9.813-2.908 13.665-6.445 4.353-3.996 6.979-8.821 8.01-14.717.191-1.09.235-1.652.273-3.488.059-2.883-.121-4.529-.761-6.997-.866-3.333-2.435-6.485-4.681-9.404-.792-1.03-2.976-3.226-4.081-4.105C38.499 3.282 34.621 1.406 31.2.66c-2.739-.597-5.639-.784-8.103-.52" fill="#0092FF" fill-rule="evenodd"/></svg>