<svg width="33" height="24" viewBox="0 0 33 24" fill="none" xmlns="http://www.w3.org/2000/svg">
<path d="M32.0106 4.08956L26.4158 0.332736C26.0833 0.112202 25.7012 0 25.3152 0C24.9292 0 24.5471 0.112202 24.2146 0.332736L17.523 4.82468C17.1905 5.04521 16.8083 5.15741 16.4223 5.15741C16.0364 5.15741 15.6542 5.04521 15.3217 4.82468L8.63011 0.332736C8.29763 0.112202 7.91547 0 7.52949 0C7.14351 0 6.76135 0.112202 6.42887 0.332736L0.834063 4.08956C-0.278021 4.83628 -0.278021 6.43419 0.834063 7.18091L13.6058 15.7508C14.4542 16.3196 15.4402 16.6059 16.4223 16.6059C17.4045 16.6059 18.3905 16.3196 19.2389 15.7508L32.0068 7.18091C33.1227 6.43419 33.1227 4.83628 32.0106 4.08956Z" fill="#0092FF"/>
<path d="M32.0108 10.6902L30.6694 9.7887L20.0645 16.9077C18.9906 17.6273 17.7295 18.0104 16.4263 18.0104C15.1232 18.0104 13.8621 17.6273 12.7882 16.9077L2.18326 9.7887L0.841876 10.6902C-0.270208 11.4369 -0.270208 13.0348 0.841876 13.7815L14.5767 23.0014C15.6888 23.7481 17.1639 23.7481 18.276 23.0014L32.0108 13.7815C33.1229 13.0348 33.1229 11.4369 32.0108 10.6902Z" fill="#0092FF"/>
</svg>
