<svg width="28" height="29" fill="none" xmlns="http://www.w3.org/2000/svg"><path d="M12.785.582c-.925.134-1.604.34-2.404.729-2.056.998-3.518 2.846-3.997 5.05-.15.689-.15 2.082 0 2.771.479 2.206 1.888 3.995 3.968 5.038 1.083.543 2.239.81 3.508.81 1.251 0 2.339-.246 3.432-.774 2.103-1.017 3.565-2.852 4.043-5.074.138-.641.15-2.032.022-2.666-.702-3.499-3.839-5.972-7.544-5.947a9.558 9.558 0 0 0-1.028.063m2.303 1.026c.905.162 2.002.616 2.717 1.124.393.278 1.07.921 1.375 1.305a6.018 6.018 0 0 1 1.237 2.893c.49 3.374-2.051 6.526-5.644 7.002-2.458.326-4.888-.675-6.333-2.608A5.894 5.894 0 0 1 7.303 6.93a6 6 0 0 1 .776-2.222C9.117 3 10.877 1.853 12.907 1.563c.566-.081 1.599-.06 2.181.045M6.907 16.171a8.194 8.194 0 0 0-1.697.4c-2.396.813-4.064 2.491-4.59 4.616-.065.261-.077.788-.093 3.815l-.019 3.511h26.983l-.017-3.511c-.02-3.85-.008-3.678-.314-4.523-.692-1.913-2.608-3.49-4.979-4.097-1.048-.268-.562-.252-7.994-.263-5.507-.009-6.923.002-7.28.052m14.01.977c1.714.229 3.216.948 4.263 2.041a4.807 4.807 0 0 1 1.196 2.068c.101.364.104.445.12 3.301l.016 2.929H1.493v-2.65c0-1.514.021-2.811.048-3.027.173-1.382.984-2.598 2.328-3.492.916-.611 2.085-1.029 3.318-1.187.166-.022 3.212-.041 6.766-.044 5.353-.004 6.55.006 6.964.061" fill-rule="evenodd" fill="#000"/></svg>