<svg width="26" height="28" viewBox="0 0 26 28" fill="none" xmlns="http://www.w3.org/2000/svg">
<path d="M17.6749 10.6825C17.9573 10.9394 17.9573 11.3486 17.6749 11.5817L12.3097 16.4393C12.1685 16.5678 12.0012 16.6201 11.8025 16.6201C11.6037 16.6201 11.4364 16.544 11.2952 16.4393L8.71719 14.0985C8.43481 13.8416 8.43481 13.4324 8.71719 13.1993C8.99957 12.9424 9.44929 12.9424 9.70552 13.1993L11.7815 15.0786L16.6709 10.6825C16.9742 10.4256 17.4239 10.4256 17.6749 10.6825ZM13.0157 27.0252C7.06997 27.0252 0 22.6148 0 17.2053V4.4927C0 4.23578 0.167337 4.00741 0.423571 3.90274L12.7333 0.0823C12.9006 0.00617668 13.0993 0.00617668 13.2667 0.0823L25.5764 3.90274C25.8274 4.00741 25.9999 4.23578 25.9999 4.4927V17.2053C26.0261 22.6148 18.9613 27.0252 13.0157 27.0252ZM24.6194 17.2053V4.92565L13.0157 1.36212L1.4119 4.92565V17.2053C1.4119 21.8964 7.83345 25.7406 13.0157 25.7406C18.1979 25.7406 24.6194 21.9249 24.6194 17.2053Z" fill="black"/>
</svg>
