<svg version="1.1" id="Layer_1" xmlns="http://www.w3.org/2000/svg" xmlns:xlink="http://www.w3.org/1999/xlink" x="0px" y="0px"
	 width="100%" viewBox="0 0 1920 3127" enable-background="new 0 0 1920 3127" xml:space="preserve">
<path fill="#FFFFFF" opacity="1.000000" stroke="none" 
	d="
M1922.000000,1596.000000 
	C1922.000000,1661.381470 1922.000000,1726.763062 1921.247803,1793.075684 
	C1916.895020,1795.214111 1913.294434,1796.421387 1909.848633,1796.959106 
	C1912.429810,1791.625732 1917.301880,1788.173584 1918.414062,1780.109497 
	C1913.130981,1783.063354 1909.716919,1784.881226 1906.389404,1786.845581 
	C1723.556274,1894.782104 1540.728760,2002.728027 1357.904663,2110.679688 
	C1226.421143,2188.316162 1094.943237,2265.962402 962.888916,2343.310059 
	C912.376465,2313.608398 862.411255,2284.246582 812.505249,2254.784668 
	C710.392090,2194.502441 608.303650,2134.178223 506.218079,2073.849365 
	C343.339752,1977.593994 180.473190,1881.318604 17.593075,1785.066406 
	C13.778252,1782.812012 9.861641,1780.730103 5.992477,1778.567749 
	C32.701534,1818.250610 60.126587,1856.787476 87.501228,1895.360229 
	C186.802460,2035.282715 286.082794,2175.219971 385.378296,2315.146729 
	C491.421661,2464.582520 597.476196,2614.010254 703.520752,2763.445068 
	C787.970398,2882.449463 872.419983,3001.453857 956.812500,3120.498535 
	C958.885010,3123.422119 960.285889,3126.822266 962.000000,3130.000000 
	C642.109680,3130.000000 322.219391,3130.000000 2.000000,3130.000000 
	C2.000000,2619.285156 2.000000,2108.570312 2.489398,1596.927490 
	C3.631772,1595.989136 4.283767,1596.009766 5.619098,1596.333984 
	C279.285736,1757.974609 552.268494,1919.341919 825.250000,2080.711426 
	C868.217102,2106.110840 911.163513,2131.545654 954.175903,2156.868164 
	C957.121704,2158.602539 959.851196,2161.960449 964.772339,2159.868408 
	C968.149109,2158.729980 970.922424,2157.663086 973.445312,2156.172119 
	C1256.108276,1989.135620 1538.745972,1822.056030 1821.406860,1655.015991 
	C1854.875000,1635.237549 1888.465942,1615.666870 1922.000000,1596.000000 
z"/>
<path fill="#FFFFFF" opacity="1.000000" stroke="none" 
	d="
M4.934781,1596.061401 
	C4.283767,1596.009766 3.631772,1595.989136 2.489398,1595.999756 
	C2.000000,1064.841187 2.000000,533.682373 2.000000,2.000000 
	C321.386871,2.000000 640.774048,2.000000 961.053772,2.708352 
	C961.173889,4.886684 960.474182,6.400486 959.618652,7.820450 
	C898.426941,109.379715 837.211609,210.924728 776.022583,312.485596 
	C692.145935,451.703217 608.316345,590.949219 524.415161,730.152039 
	C430.370178,886.184814 336.252777,1042.173950 242.195358,1198.199219 
	C167.739960,1321.708008 93.310364,1445.232300 18.936335,1568.790161 
	C14.166872,1576.713745 9.975243,1584.985107 4.887359,1593.741943 
	C4.484852,1594.946533 4.709816,1595.503906 4.934781,1596.061401 
z"/>
<path fill="#FFFFFF" opacity="1.000000" stroke="none" 
	d="
M964.000000,2.000002 
	C1283.228149,2.000000 1602.456299,2.000000 1922.000000,2.000000 
	C1922.000000,531.387024 1922.000000,1060.774048 1921.505615,1591.261230 
	C1920.686035,1592.229492 1920.360840,1592.097656 1920.025146,1591.248169 
	C1918.273682,1587.329102 1916.652588,1584.055298 1914.774170,1580.936646 
	C1864.619629,1497.669800 1814.436768,1414.419922 1764.262085,1331.165039 
	C1498.095703,889.515869 1231.930176,447.866028 965.728882,5.627357 
	C965.128845,4.025530 964.564453,3.012767 964.000000,2.000002 
z"/>
<path fill="#FFFFFF" opacity="1.000000" stroke="none" 
	d="
M1909.693848,1797.628662 
	C1913.294434,1796.421387 1916.895020,1795.214111 1921.247803,1794.003418 
	C1922.000000,2239.166992 1922.000000,2684.334229 1922.000000,3130.000000 
	C1603.285400,3130.000000 1284.570435,3130.000000 965.157471,3129.468994 
	C964.909729,3127.903809 965.360107,3126.869385 966.182739,3125.273438 
	C966.965393,3124.187744 967.398193,3123.680176 967.782959,3123.138428 
	C1275.552368,2689.687744 1583.317261,2256.233887 1891.104370,1822.795776 
	C1893.779053,1819.029175 1896.751343,1815.473633 1900.324951,1811.814331 
	C1907.651733,1809.356934 1911.001099,1804.929443 1909.734985,1797.667969 
	C1909.772339,1797.673340 1909.693848,1797.628784 1909.693848,1797.628662 
z"/>
<path fill="#8C8C8C" opacity="1.000000" stroke="none" 
	d="
M963.500000,2.000002 
	C964.564453,3.012767 965.128845,4.025530 965.054077,6.124966 
	C964.163147,11.503892 963.691772,15.796120 963.691284,20.088404 
	C963.656311,314.887848 963.659180,609.687317 963.658813,904.486755 
	C963.658691,985.431702 963.689758,1066.376587 963.570129,1147.321411 
	C963.563965,1151.497314 962.269653,1155.671265 960.868774,1159.954590 
	C955.269958,1162.158325 950.335754,1164.161865 945.491272,1166.363037 
	C894.584900,1189.491821 843.698608,1212.664673 792.795593,1235.800903 
	C726.439636,1265.960571 660.070068,1296.090210 593.712952,1326.247192 
	C535.234375,1352.823853 476.766724,1379.424561 418.290497,1406.006348 
	C352.239105,1436.031738 286.169220,1466.016479 220.133972,1496.077148 
	C157.428711,1524.621826 94.770134,1553.269043 32.057693,1581.797974 
	C23.307819,1585.778442 14.367178,1589.339600 5.514836,1593.094727 
	C9.975243,1584.985107 14.166872,1576.713745 18.936335,1568.790161 
	C93.310364,1445.232300 167.739960,1321.708008 242.195358,1198.199219 
	C336.252777,1042.173950 430.370178,886.184814 524.415161,730.152039 
	C608.316345,590.949219 692.145935,451.703217 776.022583,312.485596 
	C837.211609,210.924728 898.426941,109.379715 959.618652,7.820450 
	C960.474182,6.400486 961.173889,4.886684 961.973145,2.708352 
	C962.000000,2.000000 963.000000,2.000000 963.500000,2.000002 
z"/>
<path fill="#141414" opacity="1.000000" stroke="none" 
	d="
M1920.035522,1591.965820 
	C1920.360840,1592.097656 1920.686035,1592.229492 1921.505615,1592.180664 
	C1922.000000,1592.888916 1922.000000,1593.777832 1922.000000,1595.333374 
	C1888.465942,1615.666870 1854.875000,1635.237549 1821.406860,1655.015991 
	C1538.745972,1822.056030 1256.108276,1989.135620 973.445312,2156.172119 
	C970.922424,2157.663086 968.149109,2158.729980 964.728271,2158.948486 
	C963.951355,1979.252075 963.928467,1800.602173 963.929810,1621.952148 
	C963.931030,1467.966675 963.959778,1313.981079 964.719482,1160.060303 
	C968.286621,1161.100342 971.212463,1161.852173 973.919128,1163.084961 
	C1005.986084,1177.691528 1038.025391,1192.358765 1070.060913,1207.033936 
	C1087.592163,1215.065063 1105.066162,1223.221924 1122.630371,1231.180298 
	C1155.624634,1246.130493 1188.695190,1260.912842 1221.677368,1275.889282 
	C1247.104492,1287.434937 1272.417480,1299.231934 1297.830933,1310.807861 
	C1333.218750,1326.927368 1368.659546,1342.930542 1404.064697,1359.012451 
	C1420.105957,1366.298828 1436.099365,1373.691162 1452.143188,1380.972290 
	C1487.250732,1396.905151 1522.385498,1412.777588 1557.490723,1428.715576 
	C1573.836670,1436.136597 1590.119385,1443.696777 1606.466431,1451.115234 
	C1633.400635,1463.337891 1660.377686,1475.465820 1687.309448,1487.693604 
	C1704.261475,1495.390381 1721.129150,1503.273438 1738.095825,1510.937378 
	C1770.501343,1525.575439 1802.989380,1540.031128 1835.369385,1554.725342 
	C1861.101807,1566.402832 1886.707886,1578.358765 1912.423096,1590.074463 
	C1914.762329,1591.140137 1917.488892,1591.355469 1920.035522,1591.965820 
z"/>
<path fill="#8C8C8C" opacity="1.000000" stroke="none" 
	d="
M965.810425,3125.835205 
	C965.360107,3126.869385 964.909729,3127.903809 964.229675,3129.468994 
	C964.000000,3130.000000 963.000000,3130.000000 962.500000,3130.000000 
	C960.285889,3126.822266 958.885010,3123.422119 956.812500,3120.498535 
	C872.419983,3001.453857 787.970398,2882.449463 703.520752,2763.445068 
	C597.476196,2614.010254 491.421661,2464.582520 385.378296,2315.146729 
	C286.082794,2175.219971 186.802460,2035.282715 87.501228,1895.360229 
	C60.126587,1856.787476 32.701534,1818.250610 5.992477,1778.567749 
	C9.861641,1780.730103 13.778252,1782.812012 17.593075,1785.066406 
	C180.473190,1881.318604 343.339752,1977.593994 506.218079,2073.849365 
	C608.303650,2134.178223 710.392090,2194.502441 812.505249,2254.784668 
	C862.411255,2284.246582 912.376465,2313.608398 962.942871,2344.270508 
	C963.598755,2349.854248 963.651062,2354.182617 963.651123,2358.510986 
	C963.655396,2609.574463 963.655273,2860.637939 963.657166,3111.701416 
	C963.657166,3115.031006 963.472351,3118.380127 963.785950,3121.681152 
	C963.922363,3123.116943 965.103638,3124.453613 965.810425,3125.835205 
z"/>
<path fill="#383838" opacity="1.000000" stroke="none" 
	d="
M963.976379,1159.995605 
	C963.959778,1313.981079 963.931030,1467.966675 963.929810,1621.952148 
	C963.928467,1800.602173 963.951355,1979.252075 964.007874,2158.822021 
	C959.851196,2161.960449 957.121704,2158.602539 954.175903,2156.868164 
	C911.163513,2131.545654 868.217102,2106.110840 825.250000,2080.711426 
	C552.268494,1919.341919 279.285736,1757.974609 5.619098,1596.333984 
	C4.709816,1595.503906 4.484852,1594.946533 4.887366,1593.741943 
	C14.367178,1589.339600 23.307819,1585.778442 32.057693,1581.797974 
	C94.770134,1553.269043 157.428711,1524.621826 220.133972,1496.077148 
	C286.169220,1466.016479 352.239105,1436.031738 418.290497,1406.006348 
	C476.766724,1379.424561 535.234375,1352.823853 593.712952,1326.247192 
	C660.070068,1296.090210 726.439636,1265.960571 792.795593,1235.800903 
	C843.698608,1212.664673 894.584900,1189.491821 945.491272,1166.363037 
	C950.335754,1164.161865 955.269958,1162.158325 961.469299,1160.003662 
	C963.176147,1159.961304 963.576294,1159.978394 963.976379,1159.995605 
z"/>
<path fill="#333333" opacity="1.000000" stroke="none" 
	d="
M966.182739,3125.273438 
	C965.103638,3124.453613 963.922363,3123.116943 963.785950,3121.681152 
	C963.472351,3118.380127 963.657166,3115.031006 963.657166,3111.701416 
	C963.655273,2860.637939 963.655396,2609.574463 963.651123,2358.510986 
	C963.651062,2354.182617 963.598755,2349.854248 963.516846,2344.565186 
	C1094.943237,2265.962402 1226.421143,2188.316162 1357.904663,2110.679688 
	C1540.728760,2002.728027 1723.556274,1894.782104 1906.389404,1786.845581 
	C1909.716919,1784.881226 1913.130981,1783.063354 1918.414062,1780.109497 
	C1917.301880,1788.173584 1912.429810,1791.625732 1909.848633,1796.959229 
	C1909.693848,1797.628784 1909.772339,1797.673340 1909.144531,1797.982910 
	C1905.539185,1802.801514 1902.561890,1807.310547 1899.584595,1811.819580 
	C1896.751343,1815.473633 1893.779053,1819.029175 1891.104370,1822.795776 
	C1583.317261,2256.233887 1275.552368,2689.687744 967.782959,3123.138428 
	C967.398193,3123.680176 966.965393,3124.187744 966.182739,3125.273438 
z"/>
<path fill="#333333" opacity="1.000000" stroke="none" 
	d="
M964.719482,1160.060303 
	C963.576294,1159.978394 963.176147,1159.961304 962.175537,1159.895264 
	C962.269653,1155.671265 963.563965,1151.497314 963.570129,1147.321411 
	C963.689758,1066.376587 963.658691,985.431702 963.658813,904.486755 
	C963.659180,609.687317 963.656311,314.887848 963.691284,20.088404 
	C963.691772,15.796120 964.163147,11.503892 965.089600,6.714029 
	C1231.930176,447.866028 1498.095703,889.515869 1764.262085,1331.165039 
	C1814.436768,1414.419922 1864.619629,1497.669800 1914.774170,1580.936646 
	C1916.652588,1584.055298 1918.273682,1587.329102 1920.025146,1591.248047 
	C1917.488892,1591.355469 1914.762329,1591.140137 1912.423096,1590.074463 
	C1886.707886,1578.358765 1861.101807,1566.402832 1835.369385,1554.725342 
	C1802.989380,1540.031128 1770.501343,1525.575439 1738.095825,1510.937378 
	C1721.129150,1503.273438 1704.261475,1495.390381 1687.309448,1487.693604 
	C1660.377686,1475.465820 1633.400635,1463.337891 1606.466431,1451.115234 
	C1590.119385,1443.696777 1573.836670,1436.136597 1557.490723,1428.715576 
	C1522.385498,1412.777588 1487.250732,1396.905151 1452.143188,1380.972290 
	C1436.099365,1373.691162 1420.105957,1366.298828 1404.064697,1359.012451 
	C1368.659546,1342.930542 1333.218750,1326.927368 1297.830933,1310.807861 
	C1272.417480,1299.231934 1247.104492,1287.434937 1221.677368,1275.889282 
	C1188.695190,1260.912842 1155.624634,1246.130493 1122.630371,1231.180298 
	C1105.066162,1223.221924 1087.592163,1215.065063 1070.060913,1207.033936 
	C1038.025391,1192.358765 1005.986084,1177.691528 973.919128,1163.084961 
	C971.212463,1161.852173 968.286621,1161.100342 964.719482,1160.060303 
z"/>
<path fill="#FFFFFF" opacity="1.000000" stroke="none" 
	d="
M1900.324951,1811.814331 
	C1902.561890,1807.310547 1905.539185,1802.801514 1909.107178,1797.977661 
	C1911.001099,1804.929443 1907.651733,1809.356934 1900.324951,1811.814331 
z"/>
</svg>