<svg width="125" height="147" viewBox="0 0 125 147" fill="none" xmlns="http://www.w3.org/2000/svg">
<g clip-path="url(#clip0_223_7846)">
<path d="M114.806 14.4405L94.7832 1.17822C93.6157 0.409341 92.2481 -0.000488281 90.8497 -0.000488281C89.4513 -0.000488281 88.0836 0.409341 86.9161 1.17822L62.9546 17.0437C61.7871 17.8126 60.4195 18.2224 59.0211 18.2224C57.6227 18.2224 56.255 17.8126 55.0875 17.0437L31.126 1.17822C29.9585 0.409341 28.5909 -0.000488281 27.1925 -0.000488281C25.7941 -0.000488281 24.4264 0.409341 23.2589 1.17822L3.23096 14.4405C2.31499 15.0272 1.56137 15.8345 1.03941 16.7882C0.51745 17.7419 0.243896 18.8114 0.243896 19.8983C0.243896 20.9852 0.51745 22.0547 1.03941 23.0084C1.56137 23.9621 2.31499 24.7694 3.23096 25.3561L48.9331 55.6228C51.9285 57.5913 55.4355 58.6404 59.0211 58.6404C62.6066 58.6404 66.1137 57.5913 69.1091 55.6228L114.806 25.3561C115.722 24.7694 116.476 23.9621 116.998 23.0084C117.52 22.0547 117.793 20.9852 117.793 19.8983C117.793 18.8114 117.52 17.7419 116.998 16.7882C116.476 15.8345 115.722 15.0272 114.806 14.4405Z" fill="#0092FF"/>
<g opacity="0.75">
<path d="M114.806 37.7508L110.004 34.5659L72.0508 59.7101C68.1814 62.2511 63.652 63.6051 59.0213 63.6051C54.3907 63.6051 49.8612 62.2511 45.9918 59.7101L8.03831 34.5659L3.2312 37.7508C2.31523 38.3375 1.56162 39.1448 1.03966 40.0985C0.517694 41.0522 0.244141 42.1217 0.244141 43.2086C0.244141 44.2955 0.517694 45.365 1.03966 46.3187C1.56162 47.2724 2.31523 48.0797 3.2312 48.6664L52.398 81.2306C54.3644 82.5212 56.6659 83.209 59.0189 83.209C61.3718 83.209 63.6733 82.5212 65.6397 81.2306L114.806 48.6664C115.722 48.0797 116.476 47.2724 116.998 46.3187C117.52 45.365 117.794 44.2955 117.794 43.2086C117.794 42.1217 117.52 41.0522 116.998 40.0985C116.476 39.1448 115.722 38.3375 114.806 37.7508Z" fill="#0092FF"/>
</g>
</g>
<g clip-path="url(#clip1_223_7846)">
<path d="M37.4224 105.552V105.64L22.6523 137.036H21.6242L6.84912 105.64V105.552H10.0773L20.4074 127.612C21.2021 129.312 21.7186 130.415 22.1358 131.567C22.6026 130.278 23.3525 128.672 23.9137 127.476L34.1048 105.552H37.4224Z" fill="#151515"/>
<path d="M47.4099 105.552H50.4941V136.802H47.4099V105.552Z" fill="#151515"/>
<path d="M64.5391 105.552H67.6232V136.802H64.5391V105.552Z" fill="#151515"/>
<path d="M79.637 121.133C79.637 111.855 86.3267 105.02 95.7232 105.02C105.259 105.02 111.849 111.855 111.849 121.133C111.849 130.049 105.259 137.358 95.7232 137.358C86.3267 137.358 79.637 130.049 79.637 121.133ZM108.765 121.133C108.765 113.408 103.53 107.803 95.7232 107.803C88.0054 107.803 82.7261 113.408 82.7261 121.133C82.7261 128.53 88.0054 134.556 95.7232 134.556C103.53 134.556 108.765 128.53 108.765 121.133Z" fill="#151515"/>
</g>
<path d="M117.791 146.974C116.471 146.974 115.311 146.68 114.311 146.094C113.311 145.494 112.531 144.68 111.971 143.654C111.424 142.627 111.151 141.467 111.151 140.174C111.151 138.88 111.424 137.72 111.971 136.694C112.531 135.667 113.311 134.86 114.311 134.274C115.311 133.674 116.471 133.374 117.791 133.374C119.124 133.374 120.284 133.674 121.271 134.274C122.271 134.86 123.044 135.667 123.591 136.694C124.151 137.72 124.431 138.88 124.431 140.174C124.431 141.467 124.151 142.627 123.591 143.654C123.044 144.68 122.271 145.494 121.271 146.094C120.284 146.68 119.124 146.974 117.791 146.974ZM120.691 143.914L118.471 140.454L118.751 140.334L121.051 143.914H120.691ZM117.791 146.694C119.057 146.694 120.164 146.407 121.111 145.834C122.057 145.26 122.791 144.487 123.311 143.514C123.844 142.527 124.111 141.414 124.111 140.174C124.111 138.934 123.844 137.827 123.311 136.854C122.777 135.867 122.037 135.087 121.091 134.514C120.144 133.94 119.044 133.654 117.791 133.654C116.537 133.654 115.431 133.94 114.471 134.514C113.524 135.087 112.784 135.867 112.251 136.854C111.731 137.827 111.471 138.934 111.471 140.174C111.471 141.414 111.731 142.527 112.251 143.514C112.784 144.487 113.524 145.26 114.471 145.834C115.431 146.407 116.537 146.694 117.791 146.694ZM115.451 143.914V136.514H118.551C119.084 136.514 119.524 136.594 119.871 136.754C120.217 136.9 120.477 137.12 120.651 137.414C120.837 137.707 120.931 138.08 120.931 138.534C120.931 139.187 120.731 139.687 120.331 140.034C119.931 140.38 119.337 140.554 118.551 140.554H115.771V143.914H115.451ZM115.771 140.294H118.551C119.244 140.294 119.764 140.147 120.111 139.854C120.457 139.547 120.631 139.107 120.631 138.534C120.631 137.947 120.457 137.514 120.111 137.234C119.764 136.94 119.244 136.794 118.551 136.794H115.771V140.294Z" fill="black"/>
<defs>
<clipPath id="clip0_223_7846">
<rect width="117.547" height="83.2076" fill="white" transform="translate(0.245361)"/>
</clipPath>
<clipPath id="clip1_223_7846">
<rect width="105" height="32.3585" fill="white" transform="translate(6.84912 105)"/>
</clipPath>
</defs>
</svg>
