<svg width="75" height="76" viewBox="0 0 75 76" fill="none" xmlns="http://www.w3.org/2000/svg">
<path d="M21.3001 34.17H18.6001V26.56H21.3201C22.014 26.5387 22.7021 26.6935 23.3201 27.01C23.8637 27.3114 24.3057 27.7673 24.5901 28.32C24.9015 28.9402 25.0593 29.6261 25.0501 30.32C25.0641 31.0144 24.906 31.7015 24.5901 32.32C24.3077 32.8775 23.8609 33.3348 23.3101 33.63C22.6919 33.9457 22.004 34.1005 21.3101 34.08L21.3001 34.17ZM20.2101 32.79H21.2101C21.624 32.7998 22.0346 32.7143 22.4101 32.54C22.7348 32.3656 22.9918 32.0875 23.1401 31.75C23.324 31.3105 23.4093 30.8361 23.3901 30.36C23.4095 29.8872 23.3241 29.416 23.1401 28.98C22.9913 28.6454 22.7341 28.3707 22.4101 28.2C22.0365 28.02 21.6245 27.9342 21.2101 27.95H20.2101V32.8V32.79Z" fill="#0092FF"/>
<path d="M28.7801 34.2701C28.2553 34.2823 27.7359 34.1619 27.2701 33.9201C26.8484 33.6886 26.5016 33.3417 26.2701 32.9201C26.0327 32.4351 25.916 31.8999 25.9301 31.3601C25.9161 30.8235 26.0327 30.2915 26.2701 29.8101C26.5037 29.3901 26.8501 29.0438 27.2701 28.8101C27.7126 28.5517 28.2177 28.4203 28.7301 28.4301C29.0923 28.4255 29.452 28.49 29.7901 28.6201C30.1118 28.7309 30.403 28.9159 30.6401 29.1601C30.894 29.4164 31.0915 29.723 31.2201 30.0601C31.3592 30.4688 31.4268 30.8984 31.4201 31.3301V31.7701H26.6001V30.7701H29.9301C29.9279 30.5611 29.8765 30.3555 29.7801 30.1701C29.6807 30.0006 29.5395 29.8595 29.3701 29.7601C29.1855 29.6624 28.9788 29.6142 28.7701 29.6201C28.5462 29.6146 28.325 29.6699 28.13 29.7801C27.9464 29.8855 27.7971 30.0418 27.7 30.2301C27.5989 30.4137 27.5473 30.6205 27.5501 30.8301V31.7701C27.5445 32.0216 27.5957 32.2711 27.7 32.5001C27.8013 32.7029 27.9617 32.8703 28.1601 32.9801C28.5215 33.1556 28.9359 33.1877 29.32 33.0701C29.4587 33.0153 29.5872 32.9375 29.7 32.8401C29.803 32.7351 29.8815 32.6088 29.9301 32.4701L31.4001 32.5701C31.3264 32.9085 31.172 33.2241 30.95 33.4901C30.7055 33.7561 30.4049 33.9644 30.07 34.1001C29.6706 34.2503 29.2467 34.3249 28.82 34.3201L28.7801 34.2701Z" fill="#0092FF"/>
<path d="M35.98 30.41V31.67H32.51V30.41H35.98Z" fill="#0092FF"/>
<path d="M37.3601 34.1701V26.5601H42.3601V27.89H38.9401V29.7001H42.0301V31.0201H38.9401V34.1701H37.3601Z" fill="#0092FF"/>
<path d="M43.4501 34.17V28.46H45.0302V34.17H43.4501ZM44.2402 27.73C44.129 27.7333 44.0184 27.7137 43.9152 27.6724C43.8119 27.6311 43.7183 27.569 43.6401 27.49C43.5585 27.4213 43.493 27.3356 43.4481 27.2388C43.4031 27.1421 43.3799 27.0367 43.3801 26.93C43.3806 26.8234 43.4041 26.7182 43.449 26.6216C43.4938 26.5249 43.559 26.4391 43.6401 26.37C43.7183 26.291 43.8119 26.2289 43.9152 26.1876C44.0184 26.1463 44.129 26.1267 44.2402 26.13C44.464 26.1279 44.6795 26.2141 44.8402 26.37C44.9199 26.4396 44.9836 26.5258 45.0268 26.6225C45.07 26.7192 45.0916 26.8241 45.0902 26.93C45.0923 27.036 45.071 27.1412 45.0278 27.238C44.9846 27.3348 44.9205 27.4208 44.8402 27.49C44.6795 27.6459 44.464 27.7321 44.2402 27.73Z" fill="#0092FF"/>
<path d="M38.4 66.48C38.4 66.48 8 67.25 8 66.48V2H41.59L56.59 17V26.1M64.99 39.28H52.2599C51.3735 39.2826 50.4964 39.4598 49.6784 39.8015C48.8605 40.1431 48.1178 40.6425 47.4929 41.2712C46.8679 41.8998 46.3729 42.6454 46.0361 43.4654C45.6993 44.2853 45.5273 45.1636 45.53 46.05V46.05C45.5273 46.9364 45.6993 47.8147 46.0361 48.6346C46.3729 49.4546 46.8679 50.2002 47.4929 50.8288C48.1178 51.4575 48.8605 51.9569 49.6784 52.2986C50.4964 52.6402 51.3735 52.8174 52.2599 52.82H60.84C62.6355 52.82 64.3575 53.5333 65.6271 54.8029C66.8967 56.0725 67.61 57.7945 67.61 59.59C67.61 61.3855 66.8967 63.1075 65.6271 64.3771C64.3575 65.6467 62.6355 66.36 60.84 66.36H46.66M56.58 39.25V34.25M56.58 73.13V66.63" stroke="#0092FF" stroke-width="4" stroke-linecap="round" stroke-linejoin="round"/>
</svg>
