<svg width="76" height="75" viewBox="0 0 76 75" fill="none" xmlns="http://www.w3.org/2000/svg">
<path d="M66.52 43.5293V66.7993C66.45 68.2399 65.8118 69.594 64.7453 70.565C63.6788 71.5359 62.2708 72.0445 60.83 71.9793H7.69C6.24986 72.0418 4.84341 71.5323 3.77747 70.5619C2.71152 69.5915 2.07257 68.239 2 66.7993V27.7993C2.07257 26.3596 2.71152 25.007 3.77747 24.0366C4.84341 23.0662 6.24986 22.5567 7.69 22.6193H32.28M2.07001 27.5293L34.07 49.7093M40.78 45.1793L34.24 49.7093" stroke="#0092FF" stroke-width="4" stroke-linecap="round" stroke-linejoin="round"/>
<path d="M55.9501 40.0893C51.6619 39.9437 47.5568 38.316 44.3339 35.4834C41.1111 32.6509 38.9698 28.7888 38.2748 24.5547C37.5798 20.3207 38.3741 15.9767 40.5223 12.2625C42.6705 8.54834 46.0398 5.69372 50.0565 4.18485C54.0731 2.67597 58.4887 2.60616 62.551 3.98729C66.6133 5.36843 70.0712 8.1151 72.3358 11.7595C74.6003 15.4039 75.5316 19.7206 74.9708 23.9745C74.41 28.2284 72.3918 32.1563 69.2601 35.0893C67.4796 36.7575 65.3875 38.0579 63.1035 38.9159C60.8194 39.7739 58.3886 40.1727 55.9501 40.0893ZM57.1002 7.22931C54.9807 7.15531 52.8712 7.55234 50.9237 8.39177C48.9761 9.23121 47.239 10.4922 45.8375 12.0838C44.4359 13.6754 43.4049 15.5581 42.8186 17.5962C42.2323 19.6343 42.1054 21.777 42.447 23.8701C42.7885 25.9631 43.59 27.9544 44.7938 29.7004C45.9976 31.4464 47.5737 32.9036 49.4085 33.9671C51.2433 35.0306 53.2911 35.6739 55.4045 35.8507C57.5178 36.0274 59.6441 35.7332 61.6301 34.9893C64.7362 33.8258 67.3429 31.6215 69.0063 28.7518C70.6696 25.8822 71.2867 22.5246 70.7525 19.2511C70.2183 15.9775 68.5658 12.9903 66.0765 10.7983C63.5872 8.60633 60.415 7.34505 57.1002 7.22931Z" fill="#0092FF"/>
<path d="M54.5401 29.3993C54.107 29.3883 53.6907 29.2295 53.3602 28.9493L47.5601 23.9493C47.3711 23.7834 47.215 23.5832 47.1001 23.3593C46.9806 23.1373 46.9122 22.8913 46.9001 22.6393C46.8799 22.3891 46.9105 22.1374 46.9901 21.8993C47.0674 21.6595 47.1934 21.4382 47.3602 21.2493C47.5202 21.0555 47.7173 20.8957 47.9401 20.7793C48.1685 20.6668 48.4163 20.5989 48.6701 20.5793C48.9208 20.5675 49.1715 20.6014 49.4101 20.6793C49.6493 20.7531 49.8707 20.8757 50.0601 21.0393L54.4001 24.7693L63.1401 14.6393C63.4785 14.2783 63.9432 14.0618 64.4373 14.035C64.9315 14.0083 65.4169 14.1734 65.7923 14.4959C66.1677 14.8184 66.4039 15.2733 66.452 15.7658C66.5 16.2583 66.3561 16.7504 66.0501 17.1393L56.0501 28.7393C55.8596 28.959 55.6197 29.1303 55.3502 29.2393C55.0964 29.3554 54.8189 29.4102 54.5401 29.3993Z" fill="#0092FF"/>
</svg>
