<svg width="75" height="75" viewBox="0 0 75 75" fill="none" xmlns="http://www.w3.org/2000/svg">
<path d="M66.0599 22.07C66.2251 15.9229 68.3678 9.99291 72.17 5.16L62.53 2.08C61.22 3.08 57.07 9.08 50.92 9.28C44.08 9.47 38.16 5.11 38.16 5.08C34.5026 7.86395 30.005 9.31728 25.41 9.2C19.27 9.03 15.11 3.02 13.8 2L4.16003 5.08C8.14087 10.081 10.295 16.2913 10.2659 22.6832C10.2368 29.075 8.0262 35.2654 4 40.23C5.14218 47.3586 8.26019 54.0242 13 59.47C22.33 70.12 34.67 72.47 38.14 73C38.14 73 53.96 70.21 63.28 59.55C68.0158 54.1016 71.1332 47.4372 72.28 40.31C68.1513 35.1376 65.9364 28.6977 66.01 22.08L66.0599 22.07Z" stroke="#0092FF" stroke-width="4" stroke-linecap="round" stroke-linejoin="round"/>
<path d="M39.51 23.6001L42.4499 32.45C42.5119 32.6231 42.6259 32.7727 42.7763 32.8783C42.9267 32.984 43.1062 33.0405 43.29 33.04H52.8099C52.9939 33.0356 53.1746 33.0903 53.3251 33.1961C53.4757 33.3019 53.5884 33.4532 53.6466 33.6278C53.7048 33.8024 53.7054 33.9911 53.6484 34.1661C53.5914 34.3411 53.4798 34.4932 53.3299 34.6001L45.63 40.06C45.4723 40.1668 45.3551 40.3234 45.2971 40.5047C45.239 40.6861 45.2435 40.8816 45.3099 41.06L48.25 49.91C48.3199 50.0881 48.3292 50.2842 48.2764 50.4681C48.2237 50.652 48.1117 50.8133 47.958 50.9272C47.8042 51.041 47.6174 51.1011 47.4261 51.098C47.2348 51.0949 47.0499 51.0288 46.9 50.91L39.1999 45.45C39.0519 45.3512 38.8779 45.2984 38.6999 45.2984C38.5219 45.2984 38.3479 45.3512 38.1999 45.45L30.51 50.91C30.3587 51.025 30.1744 51.0879 29.9844 51.0894C29.7945 51.0909 29.6092 51.0309 29.4561 50.9184C29.3031 50.8059 29.1906 50.6469 29.1354 50.4651C29.0803 50.2834 29.0854 50.0887 29.15 49.91L32.0899 41.06C32.16 40.882 32.1664 40.6852 32.1081 40.503C32.0498 40.3208 31.9304 40.1643 31.77 40.06L24.0699 34.6001C23.9192 34.4928 23.8071 34.3397 23.7503 34.1637C23.6935 33.9877 23.695 33.798 23.7545 33.6228C23.814 33.4477 23.9283 33.2964 24.0806 33.1914C24.2329 33.0864 24.4151 33.0333 24.5999 33.04H34.1099C34.2937 33.0405 34.4732 32.984 34.6236 32.8783C34.774 32.7727 34.8879 32.6231 34.9499 32.45L37.89 23.6001C37.9509 23.4259 38.0646 23.275 38.215 23.1683C38.3655 23.0615 38.5454 23.0042 38.7299 23.0042C38.9144 23.0042 39.0945 23.0615 39.2449 23.1683C39.3954 23.275 39.5089 23.4259 39.5699 23.6001H39.51Z" fill="#0092FF"/>
</svg>
