<svg width="75" height="76" viewBox="0 0 75 76" fill="none" xmlns="http://www.w3.org/2000/svg">
<path d="M32.24 22.3801H60.51M15.28 22.3801H20.93M32.24 37.6502H60.51M15.28 37.6502H20.93M32.24 52.9201H60.51M15.28 52.9201H20.93M71.82 63.1001V12.2001C71.8062 10.8346 71.5042 9.48745 70.9338 8.24671C70.3634 7.00598 69.5375 5.89968 68.51 5.00016C66.3017 3.05255 63.4544 1.98481 60.51 2.00016H15.31C12.3656 1.98481 9.5183 3.05255 7.31 5.00016C6.28255 5.89968 5.45662 7.00598 4.88623 8.24671C4.31584 9.48745 4.01383 10.8346 4 12.2001V63.1001C4.01271 64.4644 4.31425 65.8104 4.88477 67.0497C5.45528 68.289 6.28183 69.3934 7.31 70.2901C9.5183 72.2378 12.3656 73.3055 15.31 73.2901H60.51C63.4544 73.3055 66.3017 72.2378 68.51 70.2901C69.5382 69.3934 70.3647 68.289 70.9352 67.0497C71.5058 65.8104 71.8073 64.4644 71.82 63.1001V63.1001Z" stroke="#0092FF" stroke-width="4" stroke-linecap="round" stroke-linejoin="round"/>
</svg>
