<svg width="75" height="75" viewBox="0 0 75 75" fill="none" xmlns="http://www.w3.org/2000/svg">
<path d="M20.72 20.53L54.51 54.31M20.72 54.31L54.51 20.53M72.84 37.42C72.84 44.4254 70.7627 51.2735 66.8707 57.0983C62.9787 62.9231 57.4468 67.463 50.9747 70.1438C44.5025 72.8247 37.3807 73.5261 30.5099 72.1594C23.6391 70.7927 17.3279 67.4193 12.3743 62.4657C7.42071 57.5122 4.04728 51.2009 2.6806 44.3301C1.31391 37.4593 2.01536 30.3375 4.69622 23.8654C7.37708 17.3932 11.9169 11.8614 17.7417 7.96936C23.5665 4.07736 30.4146 2 37.42 2C42.0718 1.99869 46.6783 2.91396 50.9762 4.69351C55.2742 6.47307 59.1794 9.08203 62.4687 12.3713C65.758 15.6607 68.367 19.5659 70.1465 23.8638C71.9261 28.1617 72.8413 32.7682 72.84 37.42V37.42Z" stroke="#0092FF" stroke-width="4" stroke-linecap="round" stroke-linejoin="round"/>
</svg>
