<svg width="76" height="75" viewBox="0 0 76 75" fill="none" xmlns="http://www.w3.org/2000/svg">
<path d="M73.33 41.35V21.81C73.3304 20.7818 73.1254 19.7638 72.727 18.8159C72.3286 17.868 71.7448 17.0092 71.01 16.29C69.5151 14.823 67.5045 14.0008 65.41 14H9.92999C7.83206 13.9982 5.8174 14.8206 4.32001 16.29C3.58743 17.0109 3.00514 17.87 2.6069 18.8175C2.20867 19.7651 2.0024 20.7822 2 21.81V45.26C2.00218 46.2893 2.20833 47.308 2.60654 48.2572C3.00475 49.2064 3.58713 50.0672 4.32001 50.79C5.8174 52.2594 7.83206 53.0818 9.92999 53.08H37.67M37.67 33.58V33.53M53.48 33.58V33.53M21.73 33.58V33.53M49.33 61.53L57.92 53.07M57.92 53.07L66.5 44.61M57.92 53.07L49.33 44.6M57.91 53.07L66.49 61.53" stroke="#0092FF" stroke-width="4" stroke-linecap="round" stroke-linejoin="round"/>
</svg>
