<svg width="230" height="249" viewBox="0 0 230 249" fill="none" xmlns="http://www.w3.org/2000/svg">
<g clip-path="url(#clip0_753_6820)">
<path d="M57.6037 217.059V247.354H12.8039C10.7545 241.52 10.6947 235.171 12.634 229.3C14.5733 223.428 18.4022 218.365 23.522 214.903C28.6417 211.441 34.7636 209.774 40.9302 210.165C47.0968 210.555 52.9603 212.979 57.6037 217.059Z" fill="#EBCB41"/>
<path d="M19.4473 224.391C22.967 224.391 25.8204 221.535 25.8204 218.013C25.8204 214.49 22.967 211.634 19.4473 211.634C15.9275 211.634 13.0742 214.49 13.0742 218.013C13.0742 221.535 15.9275 224.391 19.4473 224.391Z" fill="#1E254B"/>
<path d="M39.0095 247.354H38.7879V226.243C38.7879 213.894 31.0719 204.413 24.6058 198.634C20.3075 194.808 15.5359 191.552 10.4082 188.944L10.5013 188.744C15.6488 191.361 20.439 194.629 24.7543 198.467C31.2603 204.278 39.0161 213.812 39.0161 226.243L39.0095 247.354Z" fill="#1E254B"/>
<path d="M10.4482 191.472C11.8984 191.472 13.0741 190.296 13.0741 188.844C13.0741 187.393 11.8984 186.216 10.4482 186.216C8.99792 186.216 7.82227 187.393 7.82227 188.844C7.82227 190.296 8.99792 191.472 10.4482 191.472Z" fill="#1E254B"/>
<path d="M173.05 212.074H173.001H172.762H172.724C172.607 212.074 172.607 212.036 172.607 211.965C172.607 211.894 172.607 211.867 172.727 211.858H173.079L173.114 211.892L173.048 211.954L173.05 212.074Z" fill="#272425"/>
<path d="M67.9566 83.241V227.139H35.4243V219.359V209.075C35.4256 209.066 35.4256 209.057 35.4243 209.048V208.96C35.4139 208.831 35.4051 208.7 35.3977 208.567C35.3977 208.538 35.3977 208.505 35.3977 208.476C35.3977 208.345 35.3977 208.219 35.3977 208.09C35.3785 203.872 35.3615 199.652 35.3467 195.431C35.2728 174.464 35.2522 153.497 35.2847 132.53V132.175C35.2847 126.369 35.2913 120.563 35.3046 114.758V110.179C35.3046 109.622 35.3046 109.07 35.3046 108.502C35.3044 107.724 35.3458 106.947 35.4287 106.173C35.4287 106.142 35.4287 106.113 35.4287 106.08C36.4059 97.2088 42.666 90.2249 51.4677 88.1268C51.877 88.0293 52.2921 87.9413 52.7131 87.8629C53.0898 87.7942 53.4621 87.6833 53.9563 87.5613V83.241H67.9566Z" fill="#F6ECDE"/>
<path d="M35.1938 227.37V208.986C35.1819 208.858 35.1731 208.725 35.1672 208.587V208.503C35.1672 208.359 35.1672 208.23 35.1672 208.099C35.148 203.881 35.131 199.661 35.1162 195.44C35.0519 177.287 35.0342 157.294 35.0541 132.538V132.184C35.0541 126.377 35.0608 120.572 35.0741 114.767V108.511C35.0738 107.725 35.116 106.939 35.2004 106.158V106.073C36.1821 97.1511 42.5485 90.0253 51.4167 87.9117C51.8444 87.8097 52.2676 87.7187 52.6732 87.6433C52.9213 87.599 53.1695 87.5347 53.4554 87.4593L53.728 87.3905V83.0103H68.187V227.37H35.1938ZM44.8885 226.906H67.7261V83.4716H54.1933V87.7609L54.016 87.803L53.5728 87.9161C53.2759 87.9938 53.0211 88.0603 52.7574 88.1091C52.3585 88.1823 51.9441 88.2688 51.5231 88.3686C42.8476 90.4378 36.6208 97.4061 35.6613 106.111C35.6613 106.111 35.6613 106.142 35.6613 106.162V106.195C35.5798 106.964 35.5391 107.736 35.5394 108.508V114.765C35.5306 120.57 35.5239 126.375 35.5195 132.181V132.536C35.4973 157.296 35.5195 177.285 35.5815 195.438C35.5948 199.659 35.6118 203.879 35.6325 208.097C35.6325 208.223 35.6325 208.348 35.6325 208.474V208.556C35.6325 208.694 35.648 208.82 35.6591 208.946V209.024C35.6609 209.043 35.6609 209.062 35.6591 209.082V219.587V226.906H44.8885Z" fill="#272425"/>
<path d="M138.018 83.241V227.137L67.9565 227.139V83.241H138.018Z" fill="#272425"/>
<path d="M67.8457 227.261V83.1301H138.129V227.248L67.8457 227.261ZM68.0673 83.3608V227.039H137.907V83.3519L68.0673 83.3608Z" fill="#272425"/>
<path d="M138.018 193.637V220.663C133.418 220.663 128.863 219.757 124.612 217.995C120.362 216.233 116.5 213.651 113.247 210.395C109.994 207.14 107.414 203.275 105.653 199.021C103.892 194.767 102.986 190.208 102.986 185.604V164.601C108.137 168.145 114.242 170.039 120.492 170.03C123.085 170.03 123.745 166.826 126.154 166.225C132.35 172.548 138.018 184.089 138.018 193.637Z" fill="#F6ECDE"/>
<path d="M138.251 220.894H138.029C133.399 220.894 128.813 219.981 124.535 218.208C120.257 216.435 116.37 213.835 113.095 210.558C109.821 207.281 107.223 203.391 105.451 199.109C103.679 194.828 102.767 190.238 102.767 185.604V164.162L103.128 164.411C108.242 167.931 114.305 169.811 120.512 169.8C121.811 169.8 122.597 168.913 123.433 167.983C124.175 167.154 124.942 166.293 126.116 166.001L126.245 165.967L126.338 166.063C132.117 171.971 138.262 183.641 138.262 193.637L138.251 220.894ZM103.219 165.038V185.604C103.219 194.8 106.854 203.623 113.33 210.147C119.807 216.671 128.599 220.365 137.788 220.424V193.637C137.788 183.819 131.78 172.346 126.092 166.484C125.124 166.773 124.463 167.511 123.765 168.292C122.901 169.261 122.006 170.261 120.501 170.261C114.351 170.272 108.335 168.454 103.219 165.038Z" fill="#272425"/>
<path d="M171.279 103.909V227.137C164.429 227.137 157.58 227.137 150.731 227.137H138.018V83.241H153.002V87.4681C153.567 87.619 154.137 87.8141 154.722 87.9228C163.038 89.4797 169.591 95.867 171.279 103.909Z" fill="#5894B7"/>
<path d="M150.731 227.261H137.79L137.907 227.137V83.1301H153.102V87.3839C153.257 87.426 153.415 87.4704 153.57 87.5169C153.949 87.6278 154.341 87.7387 154.731 87.8141C158.813 88.5705 162.58 90.5154 165.563 93.4052C168.514 96.2339 170.546 99.8861 171.395 103.887V227.248H171.284C164.431 227.246 157.58 227.251 150.731 227.261ZM138.129 227.039H150.731C157.546 227.039 164.359 227.039 171.169 227.039V103.92C169.489 95.9357 162.87 89.5618 154.691 88.0315C154.29 87.9561 153.891 87.8407 153.508 87.7298C153.326 87.6766 153.144 87.6234 152.963 87.5746L152.881 87.5524V83.3519H138.129V227.039Z" fill="#272425"/>
<path d="M173.05 212.074H173.001H172.762H172.724C172.607 212.074 172.607 212.036 172.607 211.965C172.607 211.894 172.607 211.867 172.727 211.858H173.079L173.114 211.892L173.048 211.954L173.05 212.074Z" fill="#272425"/>
<path d="M137.345 33.4113C137.355 41.1323 134.663 48.613 129.735 54.5537H126.121H78.6352C73.8494 48.7795 71.1703 41.5467 71.0389 34.0456C71.0389 33.8349 71.0389 33.622 71.0389 33.4113C71.0032 29.0313 71.8342 24.6875 73.4842 20.6305C75.1342 16.5736 77.5705 12.8838 80.6524 9.77387C83.7344 6.66399 87.4011 4.19561 91.441 2.51113C95.481 0.826641 99.8142 -0.0406113 104.191 -0.0406113C108.567 -0.0406113 112.9 0.826641 116.94 2.51113C120.98 4.19561 124.647 6.66399 127.729 9.77387C130.811 12.8838 133.247 16.5736 134.897 20.6305C136.547 24.6875 137.378 29.0313 137.342 33.4113H137.345Z" fill="#5793B7"/>
<path d="M78.5465 54.7865L78.4778 54.7022C73.6418 48.8962 70.9418 41.6058 70.8283 34.0478C70.8283 33.8371 70.8283 33.6242 70.8283 33.4113C70.8033 26.2099 73.1239 19.1964 77.4385 13.4333C80.5005 9.34069 84.4522 5.99849 88.9947 3.65939C93.6973 1.23844 98.9122 -0.016558 104.201 1.55333e-06C122.606 1.55333e-06 137.582 14.988 137.582 33.4113C137.578 41.1832 134.87 48.7113 129.923 54.7022L129.855 54.7865H125.573H78.5465ZM126.712 54.323H129.642C134.476 48.4277 137.121 41.038 137.125 33.4113C137.125 15.243 122.356 0.463523 104.205 0.463523C99.8806 0.461483 95.5983 1.31221 91.6025 2.96711C87.6068 4.622 83.976 7.04863 80.9177 10.1083C77.8593 13.1681 75.4332 16.8009 73.7781 20.7993C72.123 24.7977 71.2712 29.0833 71.2715 33.4113C71.2715 33.622 71.2715 33.8305 71.2715 34.0389C71.3853 41.4543 74.0218 48.6093 78.7459 54.323H126.699H126.712Z" fill="#272425"/>
<path d="M67.9565 215.507V227.135H35.4242V227.297H35.0674C35.162 227.297 35.2528 227.259 35.3197 227.192C35.3866 227.125 35.4242 227.034 35.4242 226.939V219.355V209.075C35.4255 209.066 35.4255 209.057 35.4242 209.048V208.96C35.4138 208.831 35.405 208.7 35.3976 208.567C35.3976 208.538 35.3976 208.505 35.3976 208.476C35.3976 208.345 35.3976 208.219 35.3976 208.09C35.3784 203.872 35.3614 199.652 35.3466 195.431C35.2727 174.464 35.2521 153.497 35.2846 132.53C35.2846 132.483 35.2938 132.436 35.3118 132.393C35.3297 132.35 35.356 132.311 35.3892 132.278C35.4223 132.245 35.4617 132.219 35.505 132.201C35.5482 132.183 35.5946 132.174 35.6413 132.175C37.2928 132.174 38.9282 132.5 40.4541 133.132C41.98 133.765 43.3664 134.692 44.5342 135.86C45.702 137.029 46.6283 138.417 47.2602 139.944C47.892 141.471 48.2171 143.108 48.2168 144.761V164.992C48.205 173.659 51.4807 182.007 57.382 188.35C64.2052 195.742 67.9828 205.443 67.9565 215.507Z" fill="#C6C5C2"/>
<path d="M35.6546 227.532H35.0674V227.068C35.089 227.068 35.1102 227.062 35.1291 227.052C35.148 227.041 35.1641 227.026 35.176 227.008C35.1876 226.988 35.1937 226.965 35.1937 226.942V219.128V208.986C35.1826 208.855 35.1738 208.722 35.1671 208.589V208.474C35.1671 208.35 35.1671 208.223 35.1671 208.099C35.1479 203.881 35.1309 199.662 35.1162 195.442C35.0519 177.287 35.032 157.296 35.0541 132.538C35.0541 132.461 35.0693 132.385 35.0988 132.314C35.1283 132.242 35.1716 132.177 35.2261 132.123C35.2806 132.068 35.3454 132.025 35.4166 131.995C35.4879 131.966 35.5642 131.951 35.6413 131.951C39.0339 131.954 42.2864 133.305 44.6848 135.706C47.0833 138.108 48.4317 141.363 48.434 144.759V164.992C48.4222 173.6 51.6766 181.893 57.5394 188.192C64.4129 195.619 68.2143 205.379 68.1759 215.502V227.363H35.6546V227.532ZM44.8863 226.906H67.7261V215.507C67.7604 205.499 63.9985 195.851 57.2003 188.512C51.2609 182.128 47.9632 173.726 47.9731 165.003V144.759C47.9731 143.136 47.6538 141.53 47.0333 140.031C46.4129 138.532 45.5036 137.17 44.3572 136.023C43.2108 134.876 41.8499 133.966 40.3521 133.345C38.8544 132.724 37.2491 132.405 35.6281 132.405C35.5949 132.405 35.5631 132.418 35.5395 132.442C35.5159 132.465 35.5023 132.496 35.5017 132.53C35.4818 157.291 35.5017 177.278 35.5638 195.431C35.5771 199.649 35.5941 203.868 35.6148 208.088C35.6148 208.21 35.6148 208.33 35.6148 208.45C35.6148 208.476 35.6148 208.496 35.6148 208.516V208.552C35.6148 208.685 35.6303 208.813 35.6413 208.942V209.017C35.6432 209.037 35.6432 209.056 35.6413 209.075V219.583V226.902L44.8863 226.906Z" fill="#272425"/>
<path d="M67.9565 98.8189V87.1909H82.5353C89.2954 87.1909 96.0555 87.1909 102.816 87.1909V87.0313H103.197C103.135 87.0311 103.074 87.0454 103.018 87.0732C102.963 87.1009 102.915 87.1412 102.878 87.1909C102.837 87.2486 102.815 87.3176 102.816 87.3883V94.971V105.248C102.815 105.257 102.815 105.266 102.816 105.275C102.816 105.304 102.816 105.333 102.816 105.361C102.827 105.492 102.836 105.623 102.844 105.754C102.844 105.785 102.844 105.816 102.844 105.847C102.844 105.976 102.844 106.104 102.844 106.233C102.867 110.451 102.885 114.67 102.9 118.89C102.977 139.857 102.999 160.824 102.966 181.792C102.962 181.89 102.92 181.982 102.848 182.049C102.776 182.116 102.681 182.152 102.583 182.149C99.055 182.172 95.6498 180.854 93.0544 178.463C91.8187 177.332 90.8302 175.957 90.151 174.426C89.4718 172.894 89.1166 171.238 89.1078 169.563V149.329C89.1078 140.307 85.3806 132.099 79.2867 125.974C71.9696 118.602 67.9565 108.879 67.9565 98.8189Z" fill="#C6C5C2"/>
<path d="M102.596 182.379C99.009 182.407 95.5458 181.067 92.9103 178.631C91.6488 177.481 90.64 176.081 89.948 174.52C89.2561 172.959 88.8959 171.27 88.8906 169.563V149.329C88.8906 140.696 85.427 132.459 79.1404 126.136C71.7834 118.737 67.7305 109.036 67.7305 98.8189V86.9603H102.587V86.8006H103.201V87.2619C103.175 87.2621 103.149 87.2685 103.126 87.2804C103.102 87.2923 103.082 87.3095 103.066 87.3306C103.055 87.3479 103.05 87.368 103.05 87.3883V105.353C103.062 105.483 103.07 105.616 103.079 105.752V105.838C103.079 105.98 103.079 106.111 103.079 106.242C103.101 110.46 103.12 114.679 103.135 118.899C103.201 137.049 103.223 157.045 103.201 181.8C103.195 181.957 103.129 182.105 103.016 182.213C102.903 182.321 102.752 182.381 102.596 182.379ZM68.187 87.4216V98.8189C68.187 108.914 72.1934 118.5 79.4639 125.81C85.8414 132.219 89.3537 140.574 89.3537 149.318V169.551C89.3593 171.196 89.7064 172.821 90.3728 174.324C91.0392 175.827 92.0105 177.175 93.225 178.283C95.7751 180.639 99.1258 181.935 102.596 181.907C102.633 181.91 102.669 181.898 102.698 181.875C102.726 181.851 102.744 181.817 102.747 181.78C102.769 157.019 102.747 137.032 102.68 118.881C102.667 114.663 102.649 110.444 102.627 106.224C102.627 106.096 102.627 105.971 102.627 105.845V105.761C102.627 105.628 102.61 105.499 102.598 105.373V105.297C102.597 105.277 102.597 105.257 102.598 105.237V94.7403V87.4216H68.187Z" fill="#272425"/>
<path d="M157.634 76.5388C157.634 80.6307 156.869 81.7129 152.98 83.1013V83.241H53.9606V83.1279C50.0472 81.5754 49.4001 80.6351 49.4001 76.3813C49.4001 74.1473 49.4001 71.9139 49.4001 69.6813C49.4001 66.6548 49.4001 63.6297 49.4001 60.6061C49.4001 56.1438 51.0134 54.5625 55.5494 54.5581C61.8412 54.5581 68.1331 54.5581 74.4249 54.5581H126.13H133.965C139.948 54.5581 145.909 54.5448 151.883 54.5581C155.901 54.5714 157.62 56.2924 157.645 60.2933C157.645 61.8769 157.645 63.4596 157.645 65.0417C157.652 68.877 157.649 72.7094 157.634 76.5388Z" fill="#5894B7"/>
<path d="M153.102 83.3519H53.8497V83.2011C49.9297 81.6464 49.2959 80.6639 49.2959 76.3813C49.2959 74.1472 49.2959 71.9139 49.2959 69.6813C49.2959 66.6547 49.2959 63.6297 49.2959 60.606C49.2959 56.0618 50.9401 54.4516 55.556 54.4472C61.8478 54.4472 68.1396 54.4472 74.4314 54.4472H126.413H137.98C142.539 54.4472 147.252 54.4472 151.89 54.4472C155.985 54.4605 157.738 56.2081 157.751 60.2911C157.751 61.8746 157.751 63.4581 157.751 65.0417C157.751 67.771 157.751 70.5004 157.751 73.2298V76.5366C157.751 80.6506 156.964 81.7817 153.098 83.1745L153.102 83.3519ZM54.0713 83.1301H152.88V83.0214L152.954 82.9948C156.794 81.6198 157.521 80.5952 157.523 76.5388V73.2343C157.523 70.5063 157.523 67.7777 157.523 65.0483C157.523 63.4648 157.523 61.8813 157.523 60.2978C157.51 56.3678 155.823 54.6845 151.883 54.6734C147.245 54.6579 142.532 54.6601 137.974 54.6734H125.857H74.4203C68.13 54.6734 61.8382 54.6734 55.5449 54.6734C51.093 54.6734 49.5131 56.2259 49.5064 60.6127C49.5064 63.6363 49.5064 66.6599 49.5064 69.6835C49.5064 71.9161 49.5064 74.1495 49.5064 76.3835C49.5064 80.5708 50.1357 81.5022 53.9959 83.037L54.0668 83.0636L54.0713 83.1301Z" fill="#272425"/>
<path d="M49.3957 114.153C43.18 116.477 38.5376 113.871 35.2979 110.196C35.2979 109.64 35.2979 109.087 35.2979 108.52C35.2976 107.742 35.339 106.964 35.4219 106.191C35.4219 106.16 35.4219 106.131 35.4219 106.098C36.3992 97.2265 42.6592 90.2426 51.461 88.1446C58.9066 93.8732 61.0804 109.782 49.3957 114.153Z" fill="#5894B7"/>
<path d="M44.7954 115.144C41.2964 115.144 38.0877 113.512 35.2158 110.265L35.187 110.232V108.513C35.1878 107.73 35.23 106.947 35.3133 106.169V106.082C36.2906 97.211 42.6259 90.1317 51.4366 88.027L51.4897 88.0137L51.5296 88.047C55.9017 91.4225 58.4235 98.189 57.526 104.139C56.7947 108.981 53.9184 112.567 49.4245 114.248C47.9475 114.822 46.3796 115.125 44.7954 115.144ZM35.4086 110.147C39.435 114.683 44.1284 115.994 49.3558 114.042C53.77 112.392 56.5975 108.863 57.3155 104.106C58.2019 98.2511 55.7311 91.5955 51.4454 88.2555C42.7456 90.3513 36.5055 97.3485 35.5438 106.102V106.189C35.4613 106.96 35.4199 107.735 35.4197 108.511L35.4086 110.147Z" fill="#272425"/>
<path d="M180.988 237.365C180.988 242.355 177.555 246.494 173.05 247.29C172.53 247.381 172.003 247.427 171.475 247.428H164.995C164.667 247.428 164.341 247.405 164.014 247.374C163.519 247.326 163.016 247.303 162.507 247.303C154.343 247.29 146.18 247.279 138.018 247.27V247.428H35.0674C33.8044 247.423 32.5558 247.158 31.3989 246.651C30.2421 246.144 29.2016 245.404 28.342 244.478C26.5379 242.551 25.5409 240.006 25.5566 237.365C25.5566 231.805 29.8156 227.301 35.0674 227.301H35.4242V227.139H150.731C157.581 227.139 164.431 227.139 171.28 227.139V227.303H171.475C172.003 227.302 172.53 227.348 173.05 227.441C175.024 227.798 176.831 228.783 178.202 230.248C180.006 232.177 181.002 234.724 180.988 237.365Z" fill="#F6ECDE"/>
<path d="M171.475 247.665H164.995C164.701 247.665 164.381 247.647 163.991 247.609C163.499 247.563 162.999 247.541 162.507 247.541C154.421 247.527 146.335 247.517 138.249 247.51V247.665H35.0675C33.7728 247.662 32.4925 247.392 31.3065 246.873C30.1205 246.353 29.0541 245.594 28.1737 244.644C26.3268 242.676 25.3072 240.072 25.3262 237.372C25.3262 231.694 29.696 227.075 35.0764 227.075H35.2027V226.915H139.042H154.775C160.281 226.915 165.788 226.915 171.295 226.915H171.517V227.077C172.047 227.078 172.575 227.126 173.097 227.219C175.122 227.583 176.975 228.595 178.377 230.102C180.225 232.072 181.244 234.677 181.225 237.379C181.225 242.431 177.808 246.694 173.097 247.53C172.561 247.622 172.018 247.667 171.475 247.665ZM137.792 247.046H138.014C146.174 247.046 154.337 247.056 162.502 247.077C163.01 247.077 163.524 247.102 164.031 247.15C164.406 247.186 164.712 247.201 164.991 247.201H171.47C171.985 247.202 172.499 247.157 173.006 247.068C177.493 246.277 180.762 242.189 180.762 237.372C180.78 234.788 179.805 232.297 178.038 230.413C176.703 228.98 174.941 228.019 173.015 227.671C172.508 227.582 171.994 227.538 171.479 227.538H171.054V227.376C165.623 227.376 160.193 227.376 154.764 227.376H137.48H35.6547V227.536H35.0675C29.9509 227.536 25.7871 231.947 25.7871 237.37C25.7696 239.952 26.7446 242.442 28.5105 244.325C29.347 245.23 30.3609 245.954 31.489 246.45C32.6172 246.946 33.8353 247.204 35.0675 247.208H137.788L137.792 247.046Z" fill="#272425"/>
<path d="M137.345 237.365C137.345 242.355 133.912 246.494 129.407 247.29C128.887 247.381 128.36 247.427 127.831 247.428H121.352C121.024 247.428 120.687 247.405 120.37 247.374C119.876 247.326 119.373 247.303 118.864 247.303C110.7 247.29 102.537 247.279 94.3751 247.27V247.428H35.0674C33.8044 247.423 32.5558 247.158 31.3989 246.651C30.2421 246.144 29.2016 245.404 28.342 244.478C26.5379 242.551 25.5409 240.006 25.5566 237.365C25.5566 231.805 29.8156 227.301 35.0674 227.301H35.4242V227.139H127.636V227.303H127.831C128.36 227.302 128.887 227.348 129.407 227.441C131.381 227.798 133.188 228.783 134.559 230.248C136.362 232.177 137.359 234.724 137.345 237.365Z" fill="#F7EDDE"/>
<path d="M127.832 247.536H121.352C121.062 247.536 120.745 247.521 120.359 247.483C119.863 247.436 119.36 247.414 118.864 247.414C110.738 247.401 102.613 247.391 94.4881 247.383V247.536H35.0675C33.7898 247.534 32.5262 247.269 31.3554 246.757C30.1846 246.245 29.1317 245.497 28.2623 244.56C26.4355 242.614 25.427 240.04 25.4458 237.37C25.4458 231.759 29.7625 227.192 35.0675 227.192H35.3134V227.039H107.088C110.397 227.039 113.706 227.039 117.013 227.039C120.559 227.039 124.1 227.039 127.637 227.039H127.747V227.199H127.832C128.366 227.2 128.9 227.246 129.427 227.339C131.425 227.698 133.254 228.696 134.639 230.182C136.466 232.129 137.475 234.705 137.455 237.376C137.455 242.369 134.078 246.589 129.427 247.41C128.9 247.498 128.366 247.54 127.832 247.536ZM94.2643 247.159H94.3751C102.537 247.159 110.7 247.17 118.864 247.19C119.367 247.19 119.878 247.212 120.382 247.261C120.76 247.297 121.068 247.312 121.352 247.312H127.832C128.352 247.313 128.871 247.268 129.383 247.177C133.93 246.376 137.229 242.249 137.229 237.363C137.248 234.749 136.262 232.228 134.475 230.322C133.121 228.869 131.332 227.895 129.378 227.545C128.866 227.454 128.347 227.408 127.827 227.407H127.519V227.246C124.016 227.246 120.512 227.246 117.007 227.246C113.699 227.246 110.391 227.246 107.081 227.246H94.4039H35.535V227.403H35.0675C29.8844 227.403 25.6674 231.87 25.6674 237.359C25.6497 239.971 26.6358 242.491 28.4218 244.396C29.2705 245.312 30.2989 246.044 31.4427 246.545C32.5864 247.046 33.8211 247.306 35.0697 247.308H94.2643V247.159Z" fill="#272425"/>
<path d="M102.7 215.522V227.137H67.9565V156.801H69.7648C71.7904 156.8 73.7964 157.198 75.6682 157.973C77.5401 158.748 79.241 159.885 80.6739 161.318C82.1067 162.751 83.2434 164.452 84.0191 166.325C84.7947 168.198 85.1941 170.205 85.1944 172.233V172.898C85.1944 180.736 88.3721 188.201 93.8499 193.79C99.5341 199.592 102.713 207.397 102.7 215.522Z" fill="#5894B7"/>
<path d="M102.811 227.248H67.8457V156.69H69.7647C73.8823 156.695 77.8301 158.333 80.7419 161.247C83.6537 164.161 85.2916 168.112 85.2963 172.233V172.898C85.2963 180.636 88.3587 188.028 93.9208 193.712C99.6347 199.53 102.829 207.367 102.811 215.524V227.248ZM68.0673 227.026H102.59V215.522C102.608 207.422 99.437 199.641 93.7634 193.865C88.1615 188.139 85.0747 180.692 85.0747 172.896V172.231C85.07 168.168 83.4554 164.274 80.5852 161.402C77.715 158.529 73.8235 156.914 69.7647 156.91H68.0673V227.026Z" fill="#272425"/>
<path d="M171.279 115.645V227.137C164.429 227.137 157.58 227.137 150.731 227.137H138.018V217.846C138.018 208.758 140.05 199.784 143.966 191.583C149.742 179.484 154.904 167.125 159.451 154.506C163.998 141.887 167.905 129.075 171.173 116.071L171.279 115.645Z" fill="#F6ECDE"/>
<path d="M150.731 227.372H137.471L137.788 227.068V217.844C137.799 208.724 139.839 199.72 143.758 191.486C149.504 179.447 154.711 166.981 159.234 154.428C163.757 141.875 167.699 128.946 170.947 116.016L171.51 113.798V227.374H171.289C165.783 227.374 160.276 227.374 154.769 227.374L150.731 227.372ZM139.024 226.908H154.758C160.187 226.908 165.616 226.908 171.047 226.908V117.499C167.863 129.986 164.036 142.454 159.666 154.586C155.139 167.152 149.916 179.634 144.172 191.683C140.282 199.859 138.258 208.798 138.247 217.853V226.913H139.042L139.024 226.908Z" fill="#272425"/>
<path d="M152.991 83.0991H53.9604V87.5702H152.991V83.0991Z" fill="#272425"/>
<path d="M153.102 87.6833H53.8499V82.9882H153.102V87.6833ZM54.0714 87.4615H152.881V83.2099H54.0714V87.4615Z" fill="#272425"/>
<path d="M109.045 87.5702H153.002V83.1035H109.045C108.751 83.1032 108.461 83.1608 108.19 83.2729C107.919 83.385 107.673 83.5494 107.465 83.7569C107.258 83.9643 107.093 84.2106 106.981 84.4817C106.869 84.7528 106.811 85.0434 106.811 85.3368C106.811 85.6303 106.869 85.9209 106.981 86.192C107.093 86.4631 107.258 86.7094 107.465 86.9168C107.673 87.1242 107.919 87.2887 108.19 87.4008C108.461 87.5129 108.751 87.5705 109.045 87.5702Z" fill="#C6C5C2"/>
<path d="M153.224 87.803H109.045C108.715 87.8129 108.386 87.7564 108.078 87.6369C107.771 87.5174 107.49 87.3372 107.253 87.1071C107.016 86.877 106.828 86.6017 106.699 86.2974C106.571 85.9931 106.504 85.6661 106.504 85.3357C106.504 85.0053 106.571 84.6783 106.699 84.374C106.828 84.0698 107.016 83.7944 107.253 83.5643C107.49 83.3342 107.771 83.1541 108.078 83.0346C108.386 82.915 108.715 82.8585 109.045 82.8684H153.224V87.803ZM109.045 83.3253C108.514 83.3253 108.004 83.5364 107.629 83.9122C107.253 84.288 107.043 84.7976 107.043 85.3291C107.043 85.8605 107.253 86.3702 107.629 86.746C108.004 87.1218 108.514 87.3329 109.045 87.3329H152.761V83.3253H109.045Z" fill="#272425"/>
<path d="M82.6461 22.9011C82.6455 25.8599 81.4707 28.6974 79.38 30.7894C77.2894 32.8814 74.454 34.0567 71.4977 34.0567C71.347 34.0567 71.1963 34.0567 71.0545 34.0456C71.0545 33.8349 71.0545 33.622 71.0545 33.4113C71.042 26.2601 73.3501 19.2982 77.6314 13.573C79.1751 14.5892 80.4417 15.974 81.3171 17.6025C82.1926 19.231 82.6493 21.0519 82.6461 22.9011Z" fill="#5894B7"/>
<path d="M71.4975 34.1675C71.3446 34.1675 71.1917 34.1675 71.0411 34.1542H70.9391V34.0522C70.9391 33.8305 70.9391 33.6286 70.9391 33.4157C70.9175 26.2391 73.2342 19.251 77.5382 13.5109L77.6003 13.4266L77.6867 13.4843C79.7121 14.8155 81.2543 16.7652 82.0842 19.0437C82.9142 21.3222 82.9875 23.8078 82.2934 26.1313C81.5992 28.4549 80.1747 30.4923 78.2313 31.9409C76.288 33.3894 73.9295 34.1719 71.5064 34.172L71.4975 34.1675ZM71.1563 33.9458C71.2693 33.9458 71.3779 33.9458 71.4975 33.9458C73.8638 33.9449 76.1671 33.1831 78.068 31.7727C79.9689 30.3623 81.3667 28.378 82.0553 26.1123C82.744 23.8466 82.687 21.4194 81.8929 19.1885C81.0988 16.9576 79.6095 15.0411 77.6446 13.7216C73.4087 19.4088 71.1304 26.3178 71.1519 33.4113C71.1519 33.5865 71.1541 33.7639 71.1563 33.9391V33.9458Z" fill="#272425"/>
<path d="M171.28 173.83V221.311C166.761 219.206 162.938 215.854 160.258 211.648C157.579 207.442 156.156 202.558 156.156 197.57C156.156 192.582 157.579 187.698 160.258 183.492C162.938 179.287 166.761 175.934 171.28 173.83Z" fill="#C6C5C2"/>
<path d="M171.51 221.672L171.182 221.519C166.623 219.396 162.765 216.014 160.062 211.771C157.358 207.527 155.922 202.599 155.922 197.567C155.922 192.534 157.358 187.606 160.062 183.363C162.765 179.12 166.623 175.738 171.182 173.615L171.51 173.461V221.672ZM171.049 174.193C166.654 176.313 162.945 179.631 160.35 183.767C157.755 187.902 156.378 192.686 156.378 197.569C156.378 202.452 157.755 207.236 160.35 211.372C162.945 215.507 166.654 218.825 171.049 220.945V174.193Z" fill="#272425"/>
<path d="M157.638 65.0461C150.326 66.8758 141.143 67.3149 129.901 64.7622C93.4887 56.4898 94.3684 77.182 69.993 76.8936C59.9702 76.7739 53.5174 73.5026 49.3979 69.6902C49.3979 66.6636 49.3979 63.6385 49.3979 60.6149C49.3979 56.1527 51.0112 54.5714 55.5472 54.567C61.839 54.567 68.1308 54.567 74.4227 54.567H126.127H133.963C139.946 54.567 145.907 54.5537 151.881 54.567C155.899 54.5803 157.618 56.3013 157.643 60.3022C157.641 61.8828 157.64 63.4641 157.638 65.0461Z" fill="#F6ECDE"/>
<path d="M70.496 77.1154H69.9908C61.3175 77.009 54.3373 74.5649 49.2406 69.8477L49.1675 69.7789V69.6791C49.1675 66.6525 49.1675 63.6274 49.1675 60.6038C49.1675 56.0307 50.9026 54.3274 55.5472 54.323C61.839 54.323 68.1308 54.323 74.4227 54.323H126.704H137.972C142.53 54.323 147.243 54.323 151.881 54.323C156.005 54.3363 157.849 56.1771 157.864 60.2889C157.864 61.8724 157.864 63.4559 157.864 65.0394V65.2213L157.689 65.2657C149.288 67.3659 139.919 67.2617 129.846 64.9796C108.573 60.1425 100.041 65.2635 91.7957 70.218C86.1561 73.6157 80.3193 77.1154 70.496 77.1154ZM49.6284 69.5749C54.632 74.1657 61.4837 76.5477 69.9952 76.6497C80.0024 76.7761 85.6154 73.3962 91.563 69.8233C99.8839 64.8221 108.491 59.6502 129.952 64.5316C139.884 66.7893 149.12 66.9002 157.408 64.862C157.408 63.3377 157.408 61.8148 157.408 60.2933C157.394 56.3967 155.795 54.8021 151.886 54.7887C147.25 54.7732 142.536 54.7754 137.978 54.7887H125.569H74.4227C68.1323 54.7887 61.8405 54.7887 55.5472 54.7887C51.1286 54.7887 49.635 56.2614 49.6284 60.6083C49.6254 63.5949 49.6254 66.5838 49.6284 69.5749Z" fill="#272425"/>
<path d="M106.035 49.6567H103.296V45.6225L92.9856 42.1761L95.7976 36.5739L103.664 39.6788C103.664 38.0066 103.813 36.7691 103.607 35.5936C103.42 34.8597 102.96 34.225 102.321 33.8194C101.473 33.3026 100.413 33.1407 99.4672 32.7726C96.4602 31.6038 94.3706 29.6676 94.3351 26.199C94.3085 22.6083 95.8154 19.8139 99.1038 18.2149C100.283 17.636 101.597 17.341 103.119 16.8243C103.172 15.7864 103.234 14.571 103.305 13.1915L105.829 13.0363C105.916 14.367 105.993 15.5956 106.051 16.6336L114.646 19.7917C113.592 21.7878 112.734 23.4267 111.892 25.0235L105.659 22.5595V27.9688C106.904 28.3813 108.234 28.7805 109.537 29.2595C113.769 30.812 115.584 33.3337 115.378 37.2902C115.176 41.1869 112.763 43.8682 108.537 44.8552C107.786 45.0304 107.015 45.1169 106.029 45.2832L106.035 49.6567ZM105.614 39.233L106.157 39.7254C106.913 38.9913 108.152 38.3526 108.32 37.5076C108.661 35.7333 107.095 35.3652 105.614 35.0148V39.233ZM103.587 22.9033C101.834 22.8346 100.77 23.6086 101.036 25.0413C101.205 25.9284 102.337 26.6603 103.03 27.4609L103.587 26.9929V22.9033Z" fill="white"/>
<path d="M102.986 180.853C117.163 180.853 128.656 169.351 128.656 155.162C128.656 140.974 117.163 129.471 102.986 129.471C88.8093 129.471 77.3167 140.974 77.3167 155.162C77.3167 169.351 88.8093 180.853 102.986 180.853Z" fill="#5793B7"/>
<path d="M102.988 181.086C97.8654 181.087 92.8572 179.567 88.5973 176.718C84.3374 173.87 81.0171 169.821 79.0563 165.085C77.0955 160.348 76.5822 155.135 77.5814 150.106C78.5806 145.077 81.0474 140.458 84.6698 136.832C88.2922 133.206 92.9075 130.737 97.9321 129.737C102.957 128.736 108.165 129.249 112.898 131.211C117.631 133.174 121.677 136.496 124.523 140.76C127.369 145.023 128.888 150.035 128.888 155.162C128.882 162.035 126.151 168.625 121.296 173.485C116.44 178.346 109.856 181.079 102.988 181.086ZM102.988 129.702C97.957 129.701 93.0384 131.194 88.8546 133.992C84.6709 136.789 81.41 140.765 79.4842 145.418C77.5584 150.07 77.0543 155.189 78.0357 160.128C79.017 165.067 81.4397 169.604 84.9973 173.165C88.5549 176.726 93.0877 179.151 98.0225 180.133C102.957 181.116 108.072 180.612 112.721 178.685C117.369 176.758 121.343 173.495 124.138 169.308C126.933 165.121 128.425 160.198 128.425 155.162C128.418 148.413 125.735 141.941 120.967 137.168C116.198 132.395 109.733 129.71 102.988 129.702Z" fill="#272425"/>
<path d="M104.252 172.353H101.719V168.631L92.2168 165.455L94.8072 160.294L102.058 163.151C102.058 161.598 102.195 160.47 102.005 159.381C101.833 158.703 101.409 158.117 100.819 157.742C100.037 157.267 99.0619 157.118 98.191 156.779C95.4188 155.701 93.4843 153.909 93.4599 150.722C93.4378 147.413 94.825 144.838 97.8564 143.352C98.94 142.822 100.152 142.547 101.557 142.073C101.606 141.117 101.661 139.997 101.725 138.724L104.052 138.582C104.132 139.817 104.203 140.94 104.263 141.909L112.185 144.816C111.212 146.666 110.412 148.167 109.645 149.638L103.901 147.369V152.355C105.049 152.734 106.275 153.102 107.474 153.543C111.374 154.978 113.047 157.296 112.858 160.944C112.672 164.533 110.447 167.003 106.554 167.913C105.863 168.074 105.151 168.156 104.243 168.307L104.252 172.353ZM103.864 162.741L104.365 163.184C105.06 162.519 106.208 161.92 106.359 161.139C106.674 159.494 105.229 159.165 103.866 158.842L103.864 162.741ZM102.002 147.699C100.387 147.637 99.4076 148.349 99.6535 149.669C99.8064 150.498 100.852 151.161 101.497 151.887L102.002 151.456V147.699Z" fill="white"/>
<path d="M162.682 175.136H161.379V234.351H162.682V175.136Z" fill="#5894B7"/>
<path d="M162.792 234.464H161.268V175.027H162.792V234.464ZM161.489 234.243H162.571V175.249H161.489V234.243Z" fill="#272425"/>
<path d="M185.872 218.463V248.774H141.072C139.018 242.939 138.955 236.588 140.893 230.713C142.83 224.839 146.659 219.773 151.78 216.309C156.901 212.845 163.025 211.177 169.194 211.568C175.362 211.959 181.228 214.385 185.872 218.467V218.463Z" fill="#A1CDE2"/>
<path d="M186.104 248.996H140.899L140.843 248.84C138.774 242.957 138.711 236.553 140.666 230.63C142.62 224.707 146.482 219.6 151.646 216.107C156.81 212.615 162.985 210.935 169.204 211.329C175.424 211.724 181.338 214.171 186.02 218.288L186.1 218.357L186.104 248.996ZM141.238 248.532H185.641V218.567C181.036 214.556 175.238 212.179 169.145 211.804C163.052 211.429 157.006 213.077 151.945 216.493C146.884 219.909 143.092 224.901 141.155 230.695C139.219 236.489 139.248 242.761 141.238 248.536V248.532Z" fill="#272425"/>
<path d="M185.847 157.371L197.512 145.697C201.779 141.427 207.566 139.028 213.6 139.028C219.634 139.028 225.421 141.427 229.688 145.697L218.021 157.371C215.908 159.486 213.4 161.163 210.64 162.308C207.88 163.452 204.922 164.042 201.934 164.042C198.946 164.042 195.988 163.452 193.228 162.308C190.467 161.163 187.959 159.486 185.847 157.371Z" fill="#EBCB3F"/>
<path d="M201.935 164.253C198.918 164.258 195.93 163.667 193.142 162.513C190.354 161.359 187.822 159.665 185.69 157.529L185.535 157.371L197.357 145.539C201.668 141.234 207.509 138.816 213.6 138.816C219.69 138.816 225.531 141.234 229.843 145.539L230 145.697L218.178 157.529C216.046 159.665 213.514 161.359 210.727 162.513C207.939 163.667 204.951 164.258 201.935 164.253ZM186.162 157.378C190.404 161.531 196.111 163.844 202.045 163.815C207.98 163.786 213.664 161.417 217.865 157.223L229.373 145.703C225.13 141.55 219.423 139.238 213.489 139.267C207.554 139.297 201.87 141.666 197.669 145.861L186.162 157.378Z" fill="#272425"/>
<path d="M185.872 157.4L180.655 141.733C178.748 136.004 179.193 129.752 181.892 124.351C184.59 118.95 189.322 114.843 195.046 112.933L200.262 128.6C201.207 131.436 201.584 134.432 201.372 137.414C201.16 140.397 200.363 143.309 199.027 145.983C197.691 148.657 195.841 151.042 193.584 153.001C191.327 154.96 188.706 156.455 185.872 157.4Z" fill="#70A7B8"/>
<path d="M185.798 157.546L180.547 141.776C178.637 136.019 179.086 129.739 181.797 124.313C184.508 118.888 189.258 114.76 195.006 112.835L195.112 112.8L200.364 128.571C202.273 134.328 201.823 140.608 199.112 146.033C196.401 151.459 191.65 155.586 185.903 157.511L185.798 157.546ZM194.973 113.082C189.308 115.009 184.634 119.1 181.971 124.462C179.308 129.825 178.872 136.024 180.757 141.707L185.938 157.265C191.603 155.337 196.276 151.246 198.939 145.884C201.602 140.521 202.038 134.323 200.153 128.64L194.973 113.082Z" fill="#272425"/>
<path d="M185.982 157.405H185.761V248.767H185.982V157.405Z" fill="#272425"/>
<path d="M163.716 246.645C163.717 247.354 163.681 248.063 163.61 248.769H146.082L127.297 232.95C129.246 230.717 131.65 228.929 134.348 227.704C137.045 226.48 139.973 225.849 142.935 225.853H143.026C148.521 225.876 153.783 228.076 157.661 231.973C161.539 235.87 163.716 241.145 163.716 246.645Z" fill="#70A7B8"/>
<path d="M163.712 248.88H146.042L146.011 248.854L127.14 232.961L127.215 232.877C129.177 230.634 131.594 228.837 134.305 227.606C137.017 226.374 139.96 225.737 142.938 225.737H143.035C148.555 225.773 153.838 227.989 157.732 231.905C161.627 235.82 163.818 241.118 163.827 246.642C163.828 247.356 163.792 248.069 163.721 248.778L163.712 248.88ZM146.124 248.658H163.511C163.575 247.993 163.606 247.328 163.606 246.645C163.595 241.177 161.427 235.936 157.572 232.061C153.717 228.187 148.489 225.995 143.026 225.961H142.938C140.011 225.962 137.117 226.584 134.449 227.786C131.78 228.989 129.397 230.745 127.457 232.939L146.124 248.658Z" fill="#272425"/>
<path d="M162.682 203.444C162.682 198.667 164.578 194.086 167.952 190.708C171.327 187.331 175.905 185.433 180.677 185.433C180.678 187.798 180.212 190.141 179.308 192.326C178.404 194.511 177.078 196.497 175.407 198.169C173.736 199.842 171.752 201.169 169.569 202.074C167.385 202.979 165.045 203.444 162.682 203.444Z" fill="#EBCB3F"/>
<path d="M162.682 203.666H162.46V203.444C162.465 198.61 164.386 193.976 167.802 190.557C171.217 187.139 175.848 185.217 180.678 185.211H180.899V185.433C180.894 190.267 178.973 194.902 175.558 198.32C172.142 201.738 167.512 203.661 162.682 203.666ZM180.456 185.657C175.821 185.72 171.394 187.59 168.116 190.87C164.838 194.15 162.969 198.581 162.906 203.22C167.54 203.157 171.967 201.286 175.245 198.006C178.523 194.726 180.392 190.296 180.456 185.657Z" fill="#272425"/>
<path d="M28.6721 147.923H28.4505V129.278C28.4505 116.93 20.7346 106.776 14.2684 100.436C9.98171 96.245 5.21369 92.5778 0.064209 89.5108L0.172795 89.3178C5.33852 92.3921 10.1215 96.0691 14.4213 100.272C20.9252 106.646 28.6788 116.85 28.6788 129.278L28.6721 147.923Z" fill="#272425"/>
<path d="M24.4774 115.927C17.9752 115.909 11.7458 113.31 7.15661 108.7C2.56742 104.09 -0.00646917 97.8458 1.22111e-05 91.3382V89.1382H3.10234C9.08867 89.1469 14.8284 91.5258 19.0682 95.7554C23.308 99.9851 25.7035 105.722 25.7316 111.713C25.7316 114.712 25.7671 115.561 25.7892 115.719L25.818 115.747L25.7914 115.818C25.7604 115.896 25.7427 115.905 25.2219 115.92C24.976 115.927 24.73 115.927 24.4774 115.927ZM0.221607 89.3599V91.3382C0.219479 94.5928 0.869477 97.8148 2.13316 100.814C3.39684 103.813 5.24855 106.527 7.57877 108.797C9.90899 111.068 12.6704 112.847 15.6997 114.03C18.729 115.214 21.9646 115.777 25.2153 115.688L25.5676 115.672C25.5388 115.368 25.5189 114.477 25.51 111.704C25.4796 105.775 23.1077 100.098 18.9116 95.9123C14.7155 91.7263 9.03569 89.371 3.1112 89.3599H0.221607Z" fill="#272425"/>
<path d="M19.948 159.953V147.438C19.9504 143.374 21.5651 139.477 24.4373 136.604C27.3094 133.731 31.204 132.117 35.2646 132.117V189.266C35.2669 186.788 34.668 184.346 33.5193 182.151C32.3706 179.956 30.7065 178.073 28.67 176.664C25.9761 174.79 23.7756 172.291 22.2567 169.381C20.7378 166.471 19.9457 163.236 19.948 159.953Z" fill="#A1CDE2"/>
<path d="M35.4951 189.259H35.0342C35.0338 186.818 34.4429 184.413 33.3118 182.25C32.1808 180.087 30.5432 178.231 28.5392 176.839C25.8154 174.945 23.5903 172.42 22.0541 169.478C20.5178 166.536 19.7161 163.266 19.7175 159.946V147.431C19.7222 143.306 21.3617 139.351 24.2763 136.434C27.191 133.516 31.1427 131.876 35.2646 131.871H35.4862L35.4951 189.259ZM35.0342 132.339C31.0767 132.406 27.3037 134.025 24.527 136.848C21.7503 139.671 20.192 143.472 20.1873 147.433V159.948C20.1833 163.194 20.9649 166.393 22.4653 169.271C23.9657 172.149 26.1402 174.62 28.8029 176.473C31.9045 178.628 34.1189 181.836 35.0342 185.502V132.339Z" fill="#272425"/>
</g>
<defs>
<clipPath id="clip0_753_6820">
<rect width="230" height="249" fill="white"/>
</clipPath>
</defs>
</svg>
