<svg width="137" height="256" viewBox="0 0 137 256" fill="none" xmlns="http://www.w3.org/2000/svg">
<g clip-path="url(#clip0_753_6683)">
<path d="M116.921 28.1198C120.136 28.1198 122.743 25.5047 122.743 22.2788C122.743 19.0529 120.136 16.4379 116.921 16.4379C113.706 16.4379 111.1 19.0529 111.1 22.2788C111.1 25.5047 113.706 28.1198 116.921 28.1198Z" fill="#C6C5C2" stroke="#272425" stroke-width="0.25" stroke-miterlimit="10"/>
<path d="M93.4379 103.641C93.4379 105.95 94.3519 108.164 95.9789 109.796C97.6058 111.428 99.8124 112.346 102.113 112.346H102.216C102.43 112.346 102.646 112.328 102.851 112.311V209.286L84.5592 191.079L74.599 184.025C74.4883 184.025 69.4476 183.725 68.5143 183.663C68.6055 183.663 68.6962 183.649 68.7835 183.623C70.6008 183.557 72.3215 182.785 73.583 181.471C74.8444 180.157 75.5481 178.403 75.5458 176.578V152.602C78.4398 151.275 80.9033 149.157 82.6545 146.491C84.4057 143.826 85.374 140.719 85.4487 137.527C85.5234 134.336 84.7016 131.187 83.0771 128.442C81.4526 125.696 79.091 123.465 76.2623 122.003C73.9499 120.799 71.3883 120.157 68.7835 120.129C68.6893 120.119 68.595 120.119 68.5008 120.119C68.3812 120.119 68.269 120.119 68.1493 120.129V89.6225H96.229C96.8144 89.6231 97.3941 89.5079 97.9351 89.2834C98.476 89.059 98.9676 88.7297 99.3816 88.3145C99.7956 87.8992 100.124 87.4061 100.348 86.8634C100.572 86.3207 100.687 85.7391 100.686 85.1517V72.1987C100.686 58.2071 91.7642 46.261 79.327 41.7977C78.9142 41.6476 78.4954 41.4976 78.0751 41.376C77.6548 41.2544 77.2345 41.1179 76.8067 41.0068C76.7881 41.005 76.7702 40.9988 76.7543 40.9888C76.361 40.8853 75.9571 40.7832 75.5578 40.6962C75.5342 40.694 75.511 40.6884 75.489 40.6797C75.1375 40.6016 74.786 40.5296 74.4345 40.465C74.3148 40.447 74.1951 40.4215 74.0665 40.4035C73.6716 40.327 73.2782 40.2669 72.8699 40.2144C72.4212 40.1454 71.9724 40.0944 71.5237 40.0643C71.1632 40.0223 70.7953 39.9953 70.4258 39.9788L70.0055 39.9533C69.5942 39.9353 69.1919 39.9188 68.7805 39.9188H68.1463V39.9098C68.1463 28.2128 55.8976 20.6025 45.4663 25.7801C52.5125 22.2526 60.2719 20.396 68.1463 20.3533C68.266 20.3443 68.3692 20.3443 68.4978 20.3443H68.7835C69.9143 20.3533 71.0371 20.3964 72.1519 20.4734C72.4182 20.4899 72.6754 20.5079 72.9402 20.5334L73.5385 20.5845L74.6872 20.7135C75.0716 20.757 75.4575 20.8081 75.8434 20.8636C76.1187 20.8981 76.3924 20.9401 76.6661 20.9837C76.9144 21.0257 77.1642 21.0602 77.4035 21.1127C77.8403 21.1818 78.2696 21.2628 78.6973 21.3528C79.0144 21.4129 79.3241 21.4819 79.6322 21.5509C80.1288 21.662 80.6268 21.7746 81.1144 21.9036C81.3642 21.9637 81.6215 22.0327 81.8623 22.1017C82.2048 22.1963 82.5564 22.2908 82.8989 22.3944C83.2414 22.4979 83.5929 22.591 83.928 22.7035C84.613 22.9181 85.2996 23.1538 85.9682 23.3909V23.4029C91.9184 25.5518 97.4251 28.7778 102.215 32.9207C102.438 33.0918 102.635 33.2824 102.849 33.4715V94.9727C102.639 94.9483 102.427 94.9367 102.215 94.9382H102.112C99.8114 94.9386 97.6054 95.8557 95.9789 97.4877C94.3523 99.1197 93.4383 101.333 93.4379 103.641Z" fill="#5793B7" stroke="#272425" stroke-width="0.25" stroke-miterlimit="10"/>
<path d="M34.7179 32.9732V209.286H7.22455C6.27832 209.286 5.34132 209.099 4.46708 208.736C3.59283 208.373 2.79848 207.84 2.1294 207.169C1.46031 206.498 0.9296 205.7 0.567584 204.823C0.205568 203.946 0.0193362 203.006 0.0195327 202.057V96.7436C0.0189429 95.8084 0.20207 94.8823 0.558441 94.0181C0.914812 93.154 1.43744 92.3688 2.09645 91.7074C2.75545 91.0461 3.53791 90.5215 4.39909 90.1638C5.26027 89.806 6.18329 89.6221 7.11536 89.6225H16.8078V72.1957C16.8078 56.8504 23.4923 43.0419 34.0822 33.5465C34.2946 33.3469 34.501 33.1593 34.7179 32.9732Z" fill="#5793B7" stroke="#272425" stroke-width="0.25" stroke-miterlimit="10"/>
<path d="M68.1479 183.623C68.2064 183.631 68.2654 183.635 68.3244 183.633C68.2655 183.641 68.2055 183.638 68.1479 183.623Z" fill="black" stroke="#272425" stroke-width="0.25" stroke-miterlimit="10"/>
<path d="M44.063 110.112C47.2213 113.292 50.9747 115.813 55.1074 117.533C59.2402 119.252 63.6707 120.134 68.1446 120.13C65.5684 120.17 63.0365 120.809 60.7481 121.997C57.9173 123.458 55.5535 125.688 53.9269 128.434C52.3003 131.179 51.4768 134.328 51.5504 137.521C51.6241 140.714 52.592 143.822 54.3434 146.489C56.0948 149.156 58.559 151.274 61.4541 152.602V176.58C61.4519 178.391 62.1445 180.134 63.3884 181.448C64.6324 182.761 66.3322 183.543 68.1356 183.633H68.1461V209.296H56.9863C51.3932 209.296 45.9936 211.351 41.8074 215.073C37.6213 218.794 34.9385 223.925 34.2659 229.497H34.0894V85.9577C34.0822 90.4448 34.9597 94.8891 36.6715 99.0347C38.3832 103.18 40.8952 106.945 44.063 110.112Z" fill="black" stroke="#272425" stroke-width="0.25" stroke-miterlimit="10"/>
<path d="M136.915 95.8192V202.998C136.691 204.737 135.844 206.334 134.531 207.491C133.217 208.648 131.529 209.284 129.781 209.281H102.218V32.9207C102.439 33.0963 102.637 33.2839 102.846 33.473C113.479 42.9818 120.197 56.8204 120.197 72.1927V89.624H129.895C131.616 89.6235 133.278 90.2522 134.57 91.3926C135.862 92.5329 136.696 94.1066 136.915 95.8192Z" fill="black" stroke="#272425" stroke-width="0.25" stroke-miterlimit="10"/>
<path d="M40.7832 89.624H68.1553V120.13C59.1235 120.127 50.4625 116.526 44.0761 110.118C37.6896 103.71 34.1003 95.0197 34.0972 85.9576V33.5465C34.0972 33.5345 34.0972 33.5345 34.1076 33.5345C34.2079 33.446 34.3066 33.3574 34.4068 33.2809C34.6715 33.0378 34.9348 32.8052 35.1995 32.5845C35.7066 32.1538 36.2122 31.7351 36.7297 31.3374C37.1784 30.9832 37.6271 30.6305 38.0953 30.2989C38.2045 30.2103 38.3256 30.1323 38.4363 30.0558C38.6667 29.8787 38.8985 29.7136 39.1289 29.559C41.1289 28.1585 43.2286 26.907 45.411 25.8146L45.4768 25.7816C55.9112 20.601 68.1524 28.2113 68.1524 39.9068C64.9335 39.938 61.738 40.4597 58.6753 41.454C57.3455 41.88 56.0461 42.3965 54.7864 42.9998L49.1025 46.4516C48.2873 47.0699 47.5065 47.7212 46.7467 48.4176C46.3728 48.7703 46.0093 49.1244 45.6458 49.4876C44.8334 50.3045 44.0688 51.1679 43.3558 52.0734C41.8206 53.9953 40.5102 56.0875 39.4505 58.3091C39.2306 58.7728 39.0212 59.2486 38.8118 59.7228C38.4154 60.6848 38.0519 61.6738 37.7438 62.6718C36.796 65.7596 36.314 68.9723 36.3139 72.2032V85.1472C36.3145 85.8952 36.4995 86.6314 36.8523 87.2903C37.2739 88.045 37.8951 88.6682 38.6472 89.0912C39.3046 89.4427 40.0383 89.6257 40.7832 89.624Z" fill="#C6C5C2" stroke="#272425" stroke-width="0.25" stroke-miterlimit="10"/>
<path d="M102.218 153.671V209.286H68.1973L68.1479 183.633C68.1973 183.642 68.4471 183.642 68.5024 183.642C68.5976 183.646 68.6929 183.639 68.7866 183.623C70.5567 183.568 72.2383 182.833 73.4848 181.571C74.1408 180.918 74.6612 180.14 75.0158 179.284C75.3704 178.427 75.5521 177.509 75.5504 176.581V152.605C78.4463 151.279 80.9116 149.161 82.664 146.494C84.4164 143.828 85.3852 140.72 85.4595 137.527C85.5338 134.334 84.7105 131.184 83.084 128.438C81.4575 125.693 79.0935 123.462 76.2624 122.001C73.9481 120.803 71.3876 120.162 68.7836 120.128C87.2501 120.128 102.218 135.148 102.218 153.671Z" fill="#00415A" stroke="#272425" stroke-width="0.25" stroke-miterlimit="10"/>
<path d="M76.9981 136.973C76.9997 138.947 76.3312 140.863 75.1025 142.405C73.8739 143.947 72.1584 145.023 70.2388 145.455C69.6112 145.602 68.9688 145.676 68.3243 145.676C66.0234 145.676 63.8168 144.759 62.1899 143.127C60.5629 141.494 59.6489 139.28 59.6489 136.972C59.6489 134.663 60.5629 132.449 62.1899 130.817C63.8168 129.184 66.0234 128.267 68.3243 128.267C68.8415 128.266 69.3576 128.316 69.8649 128.417C71.8642 128.78 73.6733 129.834 74.9769 131.398C76.2805 132.962 76.9958 134.935 76.9981 136.973Z" fill="#5793B7" stroke="#272425" stroke-width="0.25" stroke-miterlimit="10"/>
<path d="M136.915 95.8192V97.6291L110.485 135.037C108.437 137.943 104.399 137.368 102.846 134.75C102.426 134.039 102.208 133.226 102.218 132.399V112.337C102.428 112.337 102.638 112.326 102.846 112.304C105.005 112.11 107.013 111.113 108.476 109.508C109.939 107.904 110.75 105.808 110.75 103.634C110.75 101.459 109.939 99.3634 108.476 97.7588C107.013 96.1543 105.005 95.1572 102.846 94.9637C102.638 94.9412 102.428 94.9302 102.218 94.9307V32.9207C102.439 33.0963 102.637 33.2839 102.846 33.473C113.48 42.9818 120.197 56.8204 120.197 72.1927V89.624H129.895C131.616 89.6235 133.278 90.2522 134.57 91.3926C135.862 92.5329 136.696 94.1066 136.915 95.8192Z" fill="#A1CDE2" stroke="#272425" stroke-width="0.25" stroke-miterlimit="10"/>
<path d="M110.782 103.64C110.782 105.819 109.966 107.919 108.496 109.525C107.027 111.13 105.011 112.124 102.846 112.31C102.637 112.332 102.428 112.343 102.218 112.343V94.9337C102.428 94.9332 102.637 94.9442 102.846 94.9667C105.011 95.1524 107.028 96.1466 108.497 97.7525C109.967 99.3585 110.782 101.459 110.782 103.64Z" fill="#5793B7" stroke="#272425" stroke-width="0.25" stroke-miterlimit="10"/>
<path d="M102.218 94.9367V112.337H102.109C99.8081 112.337 97.6015 111.419 95.9745 109.787C94.3476 108.155 93.4336 105.941 93.4336 103.632C93.4336 101.324 94.3476 99.1096 95.9745 97.4772C97.6015 95.8448 99.8081 94.9277 102.109 94.9277L102.218 94.9367Z" fill="white" stroke="#272425" stroke-width="0.25" stroke-miterlimit="10"/>
<path d="M34.0911 33.5465C28.6529 38.3982 24.301 44.3511 21.3222 51.0129C18.3434 57.6747 16.8053 64.8941 16.8092 72.1957V89.624H7.11081C5.23086 89.624 3.42791 90.3733 2.09859 91.7071C0.769268 93.0409 0.0224609 94.8499 0.0224609 96.7361V147.612C0.0235803 151.403 1.28115 155.085 3.5972 158.08C5.91324 161.075 9.15623 163.212 12.8156 164.155C18.2167 165.543 22.1206 170.228 22.1206 175.822V176.722C22.1206 181.225 27.3408 183.402 30.3981 180.341C31.5527 179.185 32.4686 177.812 33.0936 176.301C33.7186 174.789 34.0403 173.169 34.0402 171.533V155.881C34.0567 155.862 34.0746 155.845 34.0911 155.826V33.5465Z" fill="#A1CDE2" stroke="#272425" stroke-width="0.25" stroke-miterlimit="10"/>
<path d="M12.7034 137.911C7.76744 137.503 3.52251 134.278 0.0224609 130.107V97.2404C2.52185 102.059 7.7824 107.534 17.3701 112.337C33.2879 120.316 27.9929 139.2 12.7034 137.911Z" fill="#00415A" stroke="#272425" stroke-width="0.25" stroke-miterlimit="10"/>
<path d="M136.98 103.695V202.058C136.986 202.373 136.964 202.687 136.915 202.998C136.691 204.737 135.844 206.334 134.531 207.491C133.217 208.648 131.529 209.284 129.781 209.281H105.13C105.158 204.611 105.163 197.199 105.157 189.192C105.138 163.952 112.726 139.296 126.924 118.461L136.921 103.794L136.98 103.695Z" fill="#F6ECDE" stroke="#272425" stroke-width="0.25" stroke-miterlimit="10"/>
<path d="M136.915 163.17V203.391C136.915 204.165 136.763 204.932 136.467 205.648C136.172 206.364 135.739 207.014 135.193 207.562C134.647 208.109 133.999 208.544 133.286 208.84C132.573 209.137 131.808 209.289 131.036 209.289H112.19C111.586 197.607 113.282 172.912 136.915 163.17Z" fill="#C6C5C2" stroke="#272425" stroke-width="0.25" stroke-miterlimit="10"/>
<path d="M58.6724 41.445C61.7353 40.4482 64.9325 39.9289 68.1524 39.9053V39.9143C64.9341 39.9483 61.7388 40.4642 58.6724 41.445Z" fill="#5793B7" stroke="#272425" stroke-width="0.25" stroke-miterlimit="10"/>
<path d="M76.998 136.973C76.9996 138.947 76.331 140.863 75.1024 142.405C73.8737 143.947 72.1583 145.023 70.2387 145.455C70.0293 142.727 67.0034 140.408 66.8703 135.792C66.7611 131.683 68.6427 129.43 69.8618 128.414C71.8621 128.776 73.6724 129.831 74.9766 131.395C76.2808 132.96 76.9962 134.934 76.998 136.973Z" fill="#C6C5C2" stroke="#272425" stroke-width="0.25" stroke-miterlimit="10"/>
<path d="M68.1854 201.509H56.5739C44.1592 201.509 34.0913 191.295 34.0913 178.697V136.934L54.4649 152.044C55.4827 152.802 56.3092 153.789 56.8781 154.925C57.4469 156.062 57.7423 157.317 57.7406 158.589V178.312C57.7406 182.682 61.2316 186.225 65.5394 186.225H68.148" fill="#C6C5C2"/>
<path d="M68.1854 201.509H56.5739C44.1592 201.509 34.0913 191.295 34.0913 178.697V136.934L54.4649 152.044C55.4827 152.802 56.3092 153.789 56.8781 154.925C57.4469 156.062 57.7423 157.317 57.7406 158.589V178.312C57.7406 182.682 61.2316 186.225 65.5394 186.225H68.148" stroke="#272425" stroke-width="0.25" stroke-miterlimit="10"/>
<path d="M13.5278 131.648C17.0237 131.648 19.8578 128.805 19.8578 125.297C19.8578 121.789 17.0237 118.946 13.5278 118.946C10.0318 118.946 7.19775 121.789 7.19775 125.297C7.19775 128.805 10.0318 131.648 13.5278 131.648Z" fill="#C6C5C2" stroke="#272425" stroke-width="0.25" stroke-miterlimit="10"/>
<path d="M34.3576 245.736H33.9731V223.498L34.359 223.887L34.3576 245.736Z" fill="#212C47"/>
<path d="M37.63 254.291C36.8265 255.099 35.8019 255.649 34.6862 255.873C33.5704 256.096 32.4137 255.982 31.3625 255.545C30.3113 255.109 29.4131 254.369 28.7815 253.419C28.15 252.469 27.8136 251.353 27.8149 250.212V239.706C27.8154 238.93 27.9718 238.163 28.2747 237.449C28.5777 236.735 29.021 236.09 29.5781 235.552C30.1353 235.015 30.7948 234.595 31.5173 234.319C32.2398 234.042 33.0104 233.915 33.783 233.945C35.2696 234 36.6769 234.632 37.7089 235.707C38.741 236.782 39.3175 238.217 39.3172 239.709V250.215C39.318 250.972 39.1693 251.722 38.8797 252.422C38.5901 253.121 38.1654 253.756 37.63 254.291Z" fill="#A1CDE2"/>
<path d="M37.63 254.291C36.8265 255.099 35.8019 255.649 34.6862 255.873C33.5704 256.096 32.4137 255.982 31.3625 255.545C30.3113 255.109 29.4131 254.369 28.7815 253.419C28.15 252.469 27.8136 251.353 27.8149 250.212V239.706C27.8154 238.93 27.9718 238.163 28.2747 237.449C28.5777 236.735 29.021 236.09 29.5781 235.552C30.1353 235.015 30.7948 234.595 31.5173 234.319C32.2398 234.042 33.0104 233.915 33.783 233.945V233.945C35.2696 234 36.6769 234.632 37.7089 235.707C38.741 236.782 39.3175 238.217 39.3172 239.709V250.215C39.318 250.972 39.1693 251.722 38.8797 252.422C38.5901 253.121 38.1654 253.756 37.63 254.291V254.291Z" stroke="#272425" stroke-width="0.25" stroke-miterlimit="10"/>
<path d="M124.798 33.8872C124.798 35.3635 124.508 36.8253 123.945 38.1893C123.382 39.5533 122.557 40.7926 121.517 41.8366C120.477 42.8805 119.241 43.7086 117.882 44.2736C116.523 44.8386 115.066 45.1294 113.595 45.1294C110.439 45.1294 104.49 45.7042 102.39 54.5182C102.453 49.8553 102.39 36.9307 102.39 33.8872C102.373 32.4 102.65 30.9242 103.205 29.5453C103.761 28.1663 104.583 26.9117 105.625 25.8539C106.667 24.7962 107.908 23.9565 109.276 23.3833C110.644 22.8102 112.111 22.5151 113.594 22.5151C115.076 22.5151 116.544 22.8102 117.912 23.3833C119.279 23.9565 120.52 24.7962 121.562 25.8539C122.604 26.9117 123.427 28.1663 123.982 29.5453C124.538 30.9242 124.815 32.4 124.798 33.8872Z" fill="black" stroke="#272425" stroke-width="0.25" stroke-miterlimit="10"/>
<path d="M45.3838 34.2245C45.3842 34.963 45.2396 35.6944 44.9582 36.3768C44.6768 37.0592 44.2641 37.6793 43.7438 38.2017C43.2235 38.724 42.6057 39.1384 41.9257 39.4211C41.2457 39.7038 40.5168 39.8493 39.7808 39.8493C38.2042 39.8493 35.2292 40.1375 34.1792 44.5437C34.2076 42.5057 34.1867 37.3071 34.1792 35.0169C34.1792 34.6882 34.1792 30.1454 34.1792 29.9548V11.2598C34.1792 9.78355 34.469 8.32173 35.0321 6.95785C35.5952 5.59396 36.4206 4.35473 37.4611 3.31091C38.5015 2.2671 39.7367 1.43915 41.0961 0.874336C42.4555 0.309526 43.9125 0.0189223 45.3838 0.0191194V34.2245Z" fill="black" stroke="#272425" stroke-width="0.25" stroke-miterlimit="10"/>
<path d="M36.2014 33.6621C35.3323 34.5372 34.2238 35.1337 33.0164 35.3758C31.8091 35.618 30.5572 35.495 29.4196 35.0223C28.282 34.5497 27.31 33.7488 26.6267 32.7211C25.9434 31.6934 25.5796 30.4852 25.5816 29.2499V17.8921C25.5815 17.0526 25.7504 16.2217 26.078 15.4493C26.4056 14.6768 26.8852 13.9786 27.4881 13.3965C28.091 12.8144 28.8048 12.3604 29.5867 12.0617C30.3687 11.7629 31.2026 11.6256 32.0387 11.6579C33.646 11.7189 35.1671 12.4024 36.2828 13.5648C37.3984 14.7273 38.0217 16.2783 38.0217 17.8921V29.2499C38.0234 30.0694 37.8634 30.8812 37.551 31.6385C37.2386 32.3958 36.7799 33.0835 36.2014 33.6621Z" fill="#F6ECDE"/>
<path d="M36.2014 33.6621C35.3323 34.5372 34.2238 35.1337 33.0164 35.3758C31.8091 35.618 30.5572 35.495 29.4196 35.0223C28.282 34.5497 27.31 33.7488 26.6267 32.7211C25.9434 31.6934 25.5796 30.4852 25.5816 29.2499V17.8921C25.5815 17.0526 25.7504 16.2217 26.078 15.4493C26.4056 14.6768 26.8852 13.9786 27.4881 13.3965C28.091 12.8144 28.8048 12.3604 29.5867 12.0617C30.3687 11.7629 31.2026 11.6256 32.0387 11.6579V11.6579C33.646 11.7189 35.1671 12.4024 36.2828 13.5648C37.3984 14.7273 38.0217 16.2783 38.0217 17.8921V29.2499C38.0234 30.0694 37.8634 30.8812 37.551 31.6385C37.2386 32.3958 36.7799 33.0835 36.2014 33.6621V33.6621Z" stroke="#272425" stroke-width="0.25" stroke-miterlimit="10"/>
<path d="M107.148 221.711C106.298 222.565 105.215 223.147 104.035 223.383C102.855 223.619 101.632 223.499 100.521 223.037C99.4093 222.575 98.4595 221.793 97.7916 220.789C97.1237 219.785 96.7678 218.604 96.769 217.397V197.463C96.769 196.642 96.9342 195.83 97.2545 195.074C97.5748 194.319 98.0437 193.636 98.6332 193.067C99.2227 192.498 99.9206 192.054 100.685 191.762C101.45 191.47 102.265 191.335 103.083 191.367C104.654 191.427 106.14 192.096 107.23 193.233C108.321 194.369 108.929 195.885 108.929 197.463V217.397C108.931 218.199 108.775 218.993 108.469 219.733C108.163 220.473 107.714 221.145 107.148 221.711Z" fill="#A1CDE2"/>
<path d="M107.148 221.711C106.298 222.565 105.215 223.147 104.035 223.383C102.855 223.619 101.632 223.499 100.521 223.037C99.4093 222.575 98.4595 221.793 97.7916 220.789C97.1237 219.785 96.7678 218.604 96.769 217.397V197.463C96.769 196.642 96.9342 195.83 97.2545 195.074C97.5748 194.319 98.0437 193.636 98.6332 193.067C99.2227 192.498 99.9206 192.054 100.685 191.762C101.45 191.47 102.265 191.335 103.083 191.367V191.367C104.654 191.427 106.14 192.096 107.23 193.233C108.321 194.369 108.929 195.885 108.929 197.463V217.397C108.931 218.199 108.775 218.993 108.469 219.733C108.163 220.473 107.714 221.145 107.148 221.711V221.711Z" stroke="#272425" stroke-width="0.25" stroke-miterlimit="10"/>
<path d="M23.1914 75.3593C21.8015 76.7562 19.9787 77.6363 18.0235 77.8545C16.0683 78.0728 14.0974 77.6161 12.4355 76.5599C11.8877 76.2191 11.3808 75.8163 10.9248 75.3593C10.0869 74.5586 9.41711 73.5979 8.95485 72.5336C8.49258 71.4693 8.24717 70.323 8.23307 69.1622C8.21896 68.0013 8.43644 66.8494 8.8727 65.7741C9.30897 64.6988 9.9552 63.722 10.7734 62.9011C11.5915 62.0802 12.5651 61.4318 13.6368 60.9941C14.7084 60.5563 15.8565 60.3381 17.0135 60.3523C18.1705 60.3664 19.313 60.6127 20.3737 61.0765C21.4344 61.5403 22.3919 62.2123 23.1899 63.053C23.5586 63.4191 23.8898 63.8213 24.1786 64.2536C25.3354 65.928 25.8702 67.9565 25.6898 69.9858C25.5094 72.0152 24.6253 73.9167 23.1914 75.3593Z" fill="#5793B7" stroke="#272425" stroke-width="0.25" stroke-miterlimit="10"/>
<path d="M23.1915 75.3593C21.8016 76.7562 19.9788 77.6363 18.0236 77.8545C16.0684 78.0728 14.0974 77.6161 12.4355 76.5599C14.2095 74.4828 13.7039 70.6949 16.8645 67.3377C19.6809 64.3542 22.6006 64.096 24.1801 64.2446C25.3392 65.92 25.8751 67.9505 25.6944 69.9818C25.5137 72.0131 24.6279 73.9163 23.1915 75.3593Z" fill="#231F20"/>
<path d="M112.619 117.456C110.406 119.68 107.503 121.082 104.39 121.431C101.276 121.779 98.1373 121.053 95.4899 119.372C94.6178 118.828 93.8108 118.185 93.0847 117.456C90.4945 114.857 89.0394 111.331 89.0396 107.656C89.0397 103.98 90.4951 100.455 93.0855 97.8564C95.6759 95.2575 99.1892 93.7975 102.853 93.7977C106.516 93.7978 110.029 95.2581 112.619 97.8572C113.205 98.4378 113.732 99.0752 114.193 99.7602C116.04 102.427 116.895 105.66 116.607 108.894C116.319 112.129 114.908 115.159 112.619 117.456Z" fill="#5793B7" stroke="#272425" stroke-width="0.25" stroke-miterlimit="10"/>
<path d="M112.62 117.456C110.406 119.68 107.504 121.082 104.39 121.431C101.277 121.779 98.1376 121.053 95.4902 119.372C98.3157 116.07 97.511 110.031 102.543 104.684C107.03 99.9343 111.677 99.5231 114.193 99.7602C116.04 102.427 116.895 105.66 116.607 108.894C116.32 112.129 114.908 115.159 112.62 117.456Z" fill="#231F20"/>
<path d="M107.141 238.956C106.161 239.941 104.875 240.562 103.497 240.716C102.118 240.871 100.728 240.549 99.5556 239.805C99.169 239.564 98.8117 239.279 98.4907 238.956C97.9227 238.386 97.4722 237.709 97.1648 236.965C96.8574 236.22 96.6992 235.422 96.6992 234.616C96.6992 233.81 96.8574 233.012 97.1648 232.268C97.4722 231.523 97.9227 230.847 98.4907 230.277C99.0586 229.707 99.7329 229.255 100.475 228.947C101.217 228.638 102.012 228.479 102.816 228.479C103.619 228.479 104.414 228.638 105.156 228.947C105.898 229.255 106.573 229.707 107.141 230.277C107.4 230.534 107.633 230.816 107.838 231.119C108.656 232.3 109.034 233.732 108.907 235.164C108.78 236.597 108.154 237.939 107.141 238.956Z" fill="#A1CDE2" stroke="#272425" stroke-width="0.25" stroke-miterlimit="10"/>
<path d="M107.141 238.956C106.161 239.941 104.875 240.562 103.497 240.716C102.118 240.871 100.728 240.549 99.5557 239.805C100.806 238.339 100.453 235.668 102.679 233.299C104.665 231.198 106.717 231.014 107.838 231.119C108.656 232.3 109.034 233.732 108.907 235.164C108.78 236.597 108.154 237.939 107.141 238.956Z" fill="#231F20"/>
</g>
<defs>
<clipPath id="clip0_753_6683">
<rect width="137" height="256" fill="white"/>
</clipPath>
</defs>
</svg>
