<?xml version="1.0" encoding="utf-8"?>
<!-- Generator: Adobe Illustrator 23.0.1, SVG Export Plug-In . SVG Version: 6.00 Build 0)  -->
<svg version="1.1" id="Capa_1" xmlns="http://www.w3.org/2000/svg" xmlns:xlink="http://www.w3.org/1999/xlink" x="0px" y="0px"
	 viewBox="0 0 582.6 774.9" style="enable-background:new 0 0 582.6 774.9;" xml:space="preserve">
<style type="text/css">
	.st0{fill:#FFFFFF;}
	.st1{opacity:0.3;clip-path:url(#XMLID_2_);fill-opacity:0.7;}
	.st2{opacity:0.3;clip-path:url(#XMLID_3_);fill:#0092FF;fill-opacity:0.7;stroke:#000000;stroke-miterlimit:10;}
	.st3{fill:none;stroke:#1A2E35;stroke-linecap:round;stroke-linejoin:round;stroke-miterlimit:10;}
	.st4{fill:#0092FF;}
	.st5{opacity:0.3;clip-path:url(#XMLID_4_);fill-opacity:0.7;}
	.st6{fill:#FFFFFF;stroke:#1A2E35;stroke-linecap:round;stroke-linejoin:round;stroke-miterlimit:10;}
	.st7{fill:#1A2E35;}
	.st8{opacity:0.2;}
	.st9{fill:none;stroke:#FFFFFF;stroke-linecap:round;stroke-linejoin:round;stroke-miterlimit:10;}
	.st10{fill:#757575;stroke:#1A2E35;stroke-linecap:round;stroke-linejoin:round;stroke-miterlimit:10;}
	.st11{opacity:0.5;clip-path:url(#XMLID_5_);fill-opacity:0.7;}
	.st12{opacity:0.5;clip-path:url(#XMLID_6_);fill-opacity:0.7;}
	.st13{fill:#999999;stroke:#1A2E35;stroke-linecap:round;stroke-linejoin:round;stroke-miterlimit:10;}
	.st14{fill:#BFBFBF;stroke:#1A2E35;stroke-linecap:round;stroke-linejoin:round;stroke-miterlimit:10;}
	.st15{opacity:0.5;fill-opacity:0.7;}
	.st16{opacity:0.5;clip-path:url(#XMLID_7_);fill-opacity:0.7;}
	.st17{fill:#0092FF;stroke:#000000;stroke-miterlimit:10;}
</style>
<path class="st0" d="M493.8,771.9H88.9c-47.7,0-86.3-38.6-86.3-86.3V280.6c0-47.7,38.6-86.3,86.3-86.3h404.9
	c47.7,0,86.3,38.6,86.3,86.3v404.9C580.1,733.2,541.4,771.9,493.8,771.9z"/>
<g>
	<g>
		<defs>
			<path id="XMLID_24_" d="M179.5,448.6c-8.8-14.5-50.8-14.2-54.6-7.8c0,0,20.8,67.3,44,60.4C192.1,494.2,179.5,448.6,179.5,448.6z"
				/>
		</defs>
		<use xlink:href="#XMLID_24_"  style="overflow:visible;fill:#0092FF;"/>
		<clipPath id="XMLID_2_">
			<use xlink:href="#XMLID_24_"  style="overflow:visible;"/>
		</clipPath>
		<path class="st1" d="M179.5,448.6c-8.8-14.5-50.8-14.2-54.6-7.8c0,0,20.8,67.3,44,60.4C192.1,494.2,179.5,448.6,179.5,448.6z"/>
	</g>
	<g>
		<defs>
			<path id="XMLID_23_" d="M129.3,482.9c0,0-4.5,5.1-4.5,12.7c0,6.3,12,131.7,49,175.4c7.7,9.2,16.6,14.7,26.7,14.8
				c31.3,0.3,46.5-24.5,66.4-82.1c2.5-7.2,5.1-14.9,7.7-23.1c19.4-59.5,43.2-183.5,43.2-183.5s-42.2,9.8-67.3,34.6
				c-10.9,10.9-22.4,41.6-29.6,64.3c-3.6,11.1-6.2,20.2-7.3,24.1c-0.3,1.3-0.5,2-0.5,2c-1-3.7-2.6-7.5-4.4-11.2c0,0,0-0.1,0-0.1
				c-0.1-0.1-0.1-0.2-0.1-0.3c-7.6-14.5-19.8-27.3-19.8-27.3l-9.1-34.6c0,0-3.2,6.3-17.8,8.5c-14.6,2.2-36.8-16.3-36.8-16.3
				L129.3,482.9z"/>
		</defs>
		<use xlink:href="#XMLID_23_"  style="overflow:visible;fill:#0092FF;"/>
		<clipPath id="XMLID_3_">
			<use xlink:href="#XMLID_23_"  style="overflow:visible;"/>
		</clipPath>
		<path class="st2" d="M173.8,671c7.7,9.2,16.6,14.7,26.7,14.8c31.3,0.3,46.5-24.5,66.4-82.1l-0.4-133.9c0,0-23.5,4.6-45.6,26.2
			c-3.6,11.1-6.2,20.2-7.3,24.1c8.8,18.3,24.2,60.5,6.5,105.4C208.7,654.7,190,666.5,173.8,671z"/>
		<use xlink:href="#XMLID_23_"  style="overflow:visible;fill:none;stroke:#000000;stroke-miterlimit:10;"/>
	</g>
	<path class="st3" d="M228.9,563c2.2,11.8,2.3,24.5-3.1,35.4"/>
	<path class="st3" d="M213.1,522.1c6.2,10.4,11,21.9,14.1,33.6"/>
	<path class="st3" d="M233,536.9c0,0-4.4-12.1-16.3-14.8"/>
	<path class="st3" d="M172.2,492.7c2.9-1.5,5.5-3.5,8-5.6"/>
	<path class="st3" d="M129.3,482.9c9.3,10,23.9,16.5,37.4,12.1"/>
	<path class="st4" d="M208.4,510.5c0,0,0,0.1,0.2,0.3C208.5,510.7,208.5,510.6,208.4,510.5C208.4,510.5,208.4,510.5,208.4,510.5z"/>
</g>
<g>
	<defs>
		<path id="XMLID_22_" d="M484.2,766.3c0,0,5.3-42,8.6-55.8c14.6-61.8,66.1-204.9,57.8-247.3c-8.5-43.5-60.7-81.6-145-85.8
			c-78.1-3.9-142.5,23.8-157.9,56c-14.7,30.7-14.1,242.8-10.4,338.5c0,0,161,0,214.6,0C468.9,771.9,484.2,766.3,484.2,766.3z"/>
	</defs>
	<use xlink:href="#XMLID_22_"  style="overflow:visible;fill:#0092FF;"/>
	<clipPath id="XMLID_4_">
		<use xlink:href="#XMLID_22_"  style="overflow:visible;"/>
	</clipPath>
	<path class="st5" d="M467.4,510.8c-40.5,55.5-84.6,138.5-84.6,138.5L262.3,499.1c0,0,27.6,190.8,42.7,211.4
		c15.1,20.7,14.4,30.1,14.4,30.1s38.2,41.1,66.9,35.6c24.3-4.7,111.7-102.3,139-215.3L467.4,510.8z"/>
	<use xlink:href="#XMLID_22_"  style="overflow:visible;fill:none;stroke:#000000;stroke-miterlimit:10;"/>
</g>
<g>
	<path class="st6" d="M439.6,385.9c0,0-42,18-87.5,3.1c0,0,5.9-14.2,5.9-26c0-5.9-1.5-11.2-5.9-13.7c0,0,2.1-2.3,5.5-5.8
		c0,0,0,0,0,0c17.2-17.5,69.5-66.8,86.5-37.4C444.3,306.1,426.4,307.8,439.6,385.9z"/>
	<path class="st7" d="M392.1,331.5c0,0-6.9,25.3-34.1,31.6c0-5.9-1.5-11.2-5.9-13.7c0,0,2.1-2.3,5.5-5.8c0,0,0,0,0,0
		C374.4,337,392.1,331.5,392.1,331.5z"/>
	<path class="st6" d="M456.1,264.7c18-71.9-20.8-96.5-45.3-105.9c-39.2-15.1-88.7,2.1-100.3,42c-11.6,39.9-1.1,49-1.7,65.4
		c-0.4,11.5-8,17.1,0.4,45.9c5.5,19,15.8,40.7,27.8,41.4c32.4,1.9,63.1-16.6,61.4-25.2"/>
	<path class="st3" d="M354.3,229.5c0,0,14.5-5,22.3,10.8"/>
	<path class="st3" d="M305,227.1c0,0,10.8-9.2,21.6,3.8"/>
	<ellipse class="st7" cx="360.8" cy="259.9" rx="3.6" ry="6"/>
	<path class="st7" d="M315.8,256.6c0,3.3,1.6,6,3.6,6s3.6-2.7,3.6-6c0-3.3-1.6-6.1-3.6-6.1S315.8,253.3,315.8,256.6z"/>
	<path class="st6" d="M326.6,242.8c0,0,2.2,16.6,1.2,19.9c-1,3.3-12.3,13.4-12.7,17.9s9.4,9.1,9.4,9.1"/>
	<path class="st7" d="M319.4,299.3c0,0,22.5,5.6,41.4,0c0,0-8.9,27.9-26.5,25.1c-11.7-1.9-8.7-20.2-8.7-20.2L319.4,299.3z"/>
	<path class="st7" d="M381.4,189.2c0,0-9.3-6.4-22.2-3.4c-12.9,3-15,30.2-15,30.2s-6.9-6.1-8.1-13.7l-4.1,11.7l-10.8-10.2l-3.6,12.1
		l-4.3-8.8l-8.3,16.2c0,0-12.5-16.1-10.5-28.5c5.3-33.9,32.2-61.7,88.4-58.7c28.3,1.5,38.9,20.9,38.9,20.9s27.7-3.7,40,10.6
		c41.8,48.9,15.6,102-24.1,152.4l-13.6-48l-13.2-1.5c0,0,0.5-7.2,0.1-14.8c-0.4-7.5-4.9-18.6-4.9-18.6l-4.9,2.2l2-9.2L392,236
		c0,0,4.7-37.8,0-44.2C387.3,185.4,381.4,189.2,381.4,189.2z"/>
	<path class="st6" d="M415.7,277.3c0,0,13.2-24.6,27-18.6c13.8,6,4.2,35.3-7.8,44.9c-12,9.6-19.2,0-19.2,0"/>
	<g class="st8">
		<path class="st9" d="M393.3,179.1c0,0-4.9-13.8-21-14.8c-16.1-1.1-27.7,16.4-28.1,28.6"/>
		<path class="st9" d="M404.2,178.6c0,0,11.1-8.5,17.5,0c10.8,14.3,1.9,48.9,1.9,48.9"/>
		<path class="st9" d="M419.3,168.4c0,0,11.5-7.1,21.4,6.6c9.9,13.6,8.8,46.7,8.8,46.7"/>
		<path class="st9" d="M451.9,166.6c0,0,19.9,8.4,21,48.5"/>
		<path class="st9" d="M405.6,168.4c0,0-11.2-19-44.4-12.7c-33.2,6.4-38.1,40.3-38.1,40.3"/>
		<path class="st9" d="M413.8,162.7c0,0-13.4-18.5-54-14.8c-40.6,3.7-56.9,39.2-52.8,56.1"/>
	</g>
</g>
<g>
	<g>
		<path class="st10" d="M81.2,400.4c0,0,48.3-37.2,69.3-40.9c21-3.8,93.5,12,93.5,12v85.8c0,0-45.3,5-65.6,19.9
			C158,492,87.9,494.4,87.9,494.4L81.2,400.4z"/>
		<path class="st6" d="M126.5,373.8c0,0,1.1-10.9,2.8-16.9c1.7-6,13.4-5.4,16-3.3c2.6,2.1,5.2,5.8,5.2,5.8s-4.1,1.2-5.2,1.6
			C144.2,361.4,143.1,383.2,126.5,373.8z"/>
		<g>
			<defs>
				
					<rect id="XMLID_21_" x="124.9" y="288" transform="matrix(0.3261 -0.9453 0.9453 0.3261 -172.9243 406.462)" width="147.5" height="73.1"/>
			</defs>
			<use xlink:href="#XMLID_21_"  style="overflow:visible;fill:#0092FF;"/>
			<clipPath id="XMLID_5_">
				<use xlink:href="#XMLID_21_"  style="overflow:visible;"/>
			</clipPath>
			<path class="st11" d="M140,382.3l69.1,23.8l48.1-139.5l-69.1-23.8L140,382.3z M250,270.2l-44.4,128.7l-58.3-20.1l44.4-128.7
				L250,270.2z"/>
			<path class="st11" d="M198.4,261l-5.9,17.2c-0.7,1.9-2.8,3-4.7,2.3l0,0c-1.9-0.7-3-2.8-2.3-4.7l5.9-17.2c0.7-1.9,2.8-3,4.7-2.3
				l0,0C198,257,199.1,259.1,198.4,261z"/>
			<path class="st11" d="M211.8,373.2l-5.9,17.2c-0.7,1.9-2.8,3-4.7,2.3h0c-1.9-0.7-3-2.8-2.3-4.7l5.9-17.2c0.7-1.9,2.8-3,4.7-2.3
				l0,0C211.4,369.2,212.4,371.3,211.8,373.2z"/>
			<path class="st11" d="M177,317.1c-4.1,11.9,2.2,25,14.2,29.1c11.9,4.1,25-2.2,29.1-14.2c4.1-11.9-2.2-25-14.2-29.1
				S181.1,305.1,177,317.1z M210.6,327l1.7,0.6l-1,3l-1.7-0.6c-1.4,2.5-4,3.1-7.1,2l-1.6-0.6l1.2-3.5l1.8,0.6c1.7,0.6,2.5,0,2.9-1.1
				c0.4-1.2,0.1-2.1-1.6-2.7c-1.7-0.6-3.1-0.3-5.9,1.5c-3.4,2.2-5.6,2.6-8.3,1.7c-3.1-1.1-4.7-3.1-4.4-5.9l-1.7-0.6l1-3l1.7,0.6
				c1.4-2.4,3.9-3.1,7.1-2l0.7,0.3l-1.2,3.5l-1-0.3c-1.7-0.6-2.5-0.1-2.9,1c-0.4,1.2,0,2.1,1.7,2.6c1.7,0.6,3.1,0.3,5.9-1.5
				c3.5-2.2,5.6-2.6,8.3-1.7C209.4,322.1,211,324.2,210.6,327z"/>
		</g>
		<g>
			<defs>
				
					<rect id="XMLID_20_" x="64.7" y="64.9" transform="matrix(0.2569 0.9664 -0.9664 0.2569 200.9733 -58.4524)" width="147.5" height="73.1"/>
			</defs>
			<use xlink:href="#XMLID_20_"  style="overflow:visible;fill:#0092FF;"/>
			<clipPath id="XMLID_6_">
				<use xlink:href="#XMLID_20_"  style="overflow:visible;"/>
			</clipPath>
			<path class="st12" d="M154.9,20.8L84.2,39.5l37.9,142.6l70.6-18.8L154.9,20.8z M126.2,175.1l-35-131.5l59.6-15.8l35,131.5
				L126.2,175.1z"/>
			<path class="st12" d="M174.1,154l-4.7-17.6c-0.5-2,0.6-4,2.6-4.5l0,0c2-0.5,4,0.6,4.5,2.6l4.7,17.6c0.5,2-0.6,4-2.6,4.5l0,0
				C176.6,157.2,174.6,156,174.1,154z"/>
			<path class="st12" d="M100.4,68.4l-4.7-17.6c-0.5-2,0.6-4,2.6-4.5l0,0c2-0.5,4,0.6,4.5,2.6l4.7,17.6c0.5,2-0.6,4-2.6,4.5l0,0
				C103,71.5,101,70.4,100.4,68.4z"/>
			<path class="st12" d="M160.6,95.6c-3.2-12.2-15.8-19.5-28-16.2s-19.5,15.8-16.2,28s15.8,19.5,28,16.2
				C156.6,120.3,163.9,107.8,160.6,95.6z M127.1,106.1l-1.7,0.5l-0.8-3.1l1.7-0.5c-0.2-2.8,1.6-4.8,4.8-5.6l1.6-0.4l0.9,3.6
				l-1.9,0.5c-1.7,0.5-2.1,1.4-1.8,2.6c0.3,1.2,1.1,1.8,2.8,1.3c1.7-0.5,2.8-1.5,4.1-4.5c1.6-3.7,3.2-5.3,6-6
				c3.2-0.9,5.6-0.1,6.9,2.4l1.8-0.5l0.8,3.1l-1.8,0.5c0.2,2.8-1.5,4.7-4.8,5.6l-0.8,0.2l-0.9-3.6l1-0.3c1.7-0.5,2.2-1.3,1.9-2.5
				c-0.3-1.2-1.2-1.7-2.9-1.3c-1.7,0.5-2.7,1.5-4.1,4.5c-1.6,3.7-3.2,5.3-6,6C130.9,109.5,128.4,108.6,127.1,106.1z"/>
		</g>
		<path class="st13" d="M81.2,400.4c0,0,70-23.6,88.9-27c18.8-3.4,73.9-1.9,73.9-1.9v85.8c0,0-57.5,17.5-66.4,24.4
			c-8.9,7-89.6,12.7-89.6,12.7L81.2,400.4z"/>
		<path class="st3" d="M176.8,410.6c-3.7,19.9-1,46.5-14.2,62.6"/>
		<path class="st3" d="M182.9,380.5c-1.4,6.5-2.8,13-4.1,19.5"/>
		<g>
			<path class="st14" d="M252.6,96c0,8.7-7,15.7-15.7,15.7c-8.7,0-15.7-7-15.7-15.7c0-8.7,7-15.7,15.7-15.7
				C245.5,80.3,252.6,87.3,252.6,96z"/>
			<path class="st15" d="M245.6,105.8c5.4-4.8,5.8-13.1,1-18.5s-13.1-5.8-18.5-1c-5.4,4.8-5.8,13.1-1,18.5S240.2,110.6,245.6,105.8z
				 M231.5,91.4l-0.7-0.8l1.4-1.2l0.7,0.8c1.4-0.8,2.8-0.4,4.1,1l0.7,0.7l-1.6,1.4l-0.7-0.8c-0.7-0.8-1.3-0.7-1.8-0.3
				c-0.5,0.5-0.6,1,0.1,1.8c0.7,0.8,1.5,1,3.4,0.9c2.3-0.1,3.6,0.3,4.6,1.5c1.3,1.4,1.5,2.9,0.6,4.2l0.7,0.8l-1.4,1.2l-0.7-0.8
				c-1.4,0.8-2.8,0.5-4.1-1l-0.3-0.3l1.6-1.4l0.4,0.4c0.7,0.8,1.2,0.8,1.8,0.3c0.5-0.5,0.6-1-0.1-1.8c-0.7-0.8-1.5-1-3.4-0.9
				c-2.3,0.1-3.6-0.3-4.6-1.5C230.8,94.2,230.6,92.7,231.5,91.4z"/>
		</g>
		<g>
			<path class="st14" d="M70.2,89.4c0,8.7-7,15.7-15.7,15.7c-8.7,0-15.7-7-15.7-15.7s7-15.7,15.7-15.7
				C63.1,73.7,70.2,80.8,70.2,89.4z"/>
			<path class="st15" d="M63.2,99.2c5.4-4.8,5.8-13.1,1-18.5c-4.8-5.4-13.1-5.8-18.5-1c-5.4,4.8-5.8,13.1-1,18.5
				C49.5,103.6,57.8,104,63.2,99.2z M49.1,84.9l-0.7-0.8l1.4-1.2l0.7,0.8c1.4-0.8,2.8-0.4,4.1,1l0.7,0.7l-1.6,1.4L53,85.9
				c-0.7-0.8-1.3-0.7-1.8-0.3c-0.5,0.5-0.6,1,0.1,1.8c0.7,0.8,1.5,1,3.4,0.9c2.3-0.1,3.6,0.3,4.6,1.5c1.3,1.4,1.5,2.9,0.6,4.2
				l0.7,0.8L59.2,96l-0.7-0.8c-1.4,0.8-2.8,0.5-4.1-1L54,93.9l1.6-1.4l0.4,0.4c0.7,0.8,1.2,0.8,1.8,0.3c0.5-0.5,0.6-1-0.1-1.8
				c-0.7-0.8-1.5-1-3.4-0.9c-2.3,0.1-3.6-0.3-4.6-1.5C48.4,87.6,48.2,86.2,49.1,84.9z"/>
		</g>
		<g>
			<path class="st14" d="M105.4,275.2c-8.4-2.1-13.6-10.6-11.5-19c2.1-8.4,10.6-13.6,19-11.5c8.4,2.1,13.6,10.6,11.5,19
				C122.3,272.1,113.8,277.2,105.4,275.2z"/>
			<path class="st15" d="M97.6,266.1c3.4,6.4,11.4,8.8,17.8,5.4c6.4-3.4,8.8-11.4,5.4-17.8c-3.4-6.4-11.4-8.8-17.8-5.4
				C96.6,251.8,94.2,259.7,97.6,266.1z M114.9,255.8l0.9-0.5l0.9,1.6l-0.9,0.5c0.5,1.6-0.2,2.9-1.9,3.8l-0.9,0.5l-1-1.9l1-0.5
				c0.9-0.5,1-1,0.7-1.7c-0.3-0.6-0.9-0.8-1.8-0.4c-0.9,0.5-1.3,1.2-1.7,3.1c-0.4,2.3-1.1,3.4-2.6,4.1c-1.7,0.9-3.1,0.8-4.2-0.4
				l-0.9,0.5l-0.9-1.6l0.9-0.5c-0.5-1.6,0.2-2.8,1.9-3.7l0.4-0.2l1,1.9l-0.5,0.3c-0.9,0.5-1,1-0.7,1.6c0.3,0.6,0.9,0.8,1.8,0.3
				c0.9-0.5,1.3-1.2,1.7-3.1c0.4-2.3,1.1-3.4,2.6-4.1C112.4,254.5,113.9,254.6,114.9,255.8z"/>
		</g>
	</g>
	<g>
		<defs>
			<path id="XMLID_19_" d="M293.5,414.6c-4-7.2-15.4-3.8-28.7,17.2c-13.3,20.9-18.8,45.4-15.5,54.3c3.2,8.9,46.3,19.7,46.3,19.7
				l8.9-22.5L293.5,414.6z"/>
		</defs>
		<use xlink:href="#XMLID_19_"  style="overflow:visible;fill:#0092FF;"/>
		<clipPath id="XMLID_7_">
			<use xlink:href="#XMLID_19_"  style="overflow:visible;"/>
		</clipPath>
		<path class="st16" d="M293.5,414.6c-4-7.2-15.4-3.8-28.7,17.2c-13.3,20.9-18.8,45.4-15.5,54.3c3.2,8.9,46.3,19.7,46.3,19.7
			l8.9-22.5L293.5,414.6z"/>
	</g>
	<g>
		<path class="st6" d="M311.8,458.4L287,404.3c0,0-16.1-23.1-19.3-31.8c-3.2-8.8-38.6-15.6-46.6-15.6c-8,0-16.5,14.3-16.5,14.3
			l16.6,0c0,0,6.2,6.5,7,10.4c0.8,3.9-22,23.3-25.3,25.2c-3.3,1.8-11.8,4.7-20.9,11.4c-9.1,6.7-29.5,11.9-33.3,18
			c-3.8,6-1.1,7.1,1.6,8.5c2.7,1.4,7.3,1.7,7.3,1.7s-1.6,6.8,0,10.4c1.6,3.6,11.1,3.3,11.1,3.3s0.4,5,5.1,5.7
			c4.6,0.8,8.2,2.2,8.2,2.2s19.6,3.3,28.4,1.5c8.8-1.9,35.5-16.1,42-15.5c6.5,0.6,24.6,42.4,24.6,42.4S307.8,491.2,311.8,458.4z"/>
		<path class="st3" d="M157.8,446.4c0,0,25.6-5.5,27.3-7.5c1.7-2,19.6-7.5,19.6-7.5"/>
		<path class="st3" d="M168.9,460.1c0,0,14.4-2.9,19.4-3.6c5-0.7,25.5-10.1,25.5-10.1"/>
		<path class="st3" d="M182.1,468c0,0,20.2-1.7,24.5-3.7c4.2-2,16.6-5.9,16.6-5.9"/>
	</g>
	<path class="st17" d="M481.3,434.6c-30,19.8-48.2,67.6-48.2,67.6l-46.9,87.2c0,0-39.4-97.1-50.6-98.3l-42.1-76.5
		c0,0,5,44.8-12.6,63.9c-17.5,19-31.7,7.6-31.7,7.6l13.1,36.2l3.3,17.2c0,0,55.3,166,73.4,176.2c18.1,10.3,59.2,14.9,94.1-10.7
		c34.9-25.5,94.6-122.2,100.2-153.8"/>
	<path class="st3" d="M318.7,502.6c1.5-2.3,2.9-4.6,4.2-7"/>
	<path class="st3" d="M283.2,525.3c12-1.3,23.3-7.6,31-16.8"/>
	<path class="st3" d="M262.3,522.2c4.7,2,9.7,3.1,14.7,3.3"/>
	<path class="st3" d="M398.5,627.9c0.2,4-0.1,8-1,11.9"/>
	<path class="st3" d="M386.2,589.5c5.5,9.6,9.6,20.4,11.5,31.3"/>
	<path class="st3" d="M412.2,605.1c0,0-8.5-10.7-18.2-15.6"/>
	<path class="st3" d="M486.3,478.5c0,0-26.4-3.5-47.3,20.6"/>
	<path class="st3" d="M514.2,552.3c-5.1,0.7-10.2-0.1-14.8-2.4"/>
	<path class="st3" d="M545.9,516.9c-4.2,20-15.3,30.2-25.1,33.7"/>
</g>
<path class="st3" d="M421.5,403.1c0,0-43.8,10.2-68.2-6.1"/>
<path class="st3" d="M264.4,671.1c0,0,23.9,67.4,79.1,78.8"/>
<path class="st3" d="M423.9,764.5c-2.8,2.1-5.8,4.1-8.8,6"/>
<g>
	<g>
		<line class="st3" x1="149" y1="245" x2="149" y2="304.3"/>
		<line class="st3" x1="149" y1="209.5" x2="149" y2="233.2"/>
		<line class="st3" x1="149" y1="187.3" x2="149" y2="200"/>
		<polyline class="st3" points="137.8,297.3 149,311.2 160.2,297.3 		"/>
	</g>
	<g>
		<line class="st3" x1="207.5" y1="66.7" x2="207.5" y2="126"/>
		<line class="st3" x1="207.5" y1="31.2" x2="207.5" y2="54.9"/>
		<line class="st3" x1="207.5" y1="9" x2="207.5" y2="21.7"/>
		<polyline class="st3" points="196.3,119.1 207.5,132.9 218.7,119.1 		"/>
	</g>
</g>
</svg>
