<svg width="52" height="52" fill="none" xmlns="http://www.w3.org/2000/svg"><path d="M23.92.056c-1.697.16-2.39.254-3.48.472-2.287.457-3.933 1.016-6.097 2.071C9.21 5.103 5.19 9.093 2.687 14.17.95 17.692.15 20.874.027 24.743a25.41 25.41 0 0 0 14.125 23.571c3.712 1.839 7.271 2.669 11.415 2.663 6.839-.01 13.096-2.612 17.947-7.463 4.139-4.139 6.634-9.29 7.327-15.13.159-1.344.179-4.133.039-5.417-.352-3.218-1.148-5.951-2.566-8.815C44.639 6.734 37.472 1.498 29.368.308 27.585.047 25.194-.064 23.92.056" fill="#0092FF" fill-rule="evenodd"/></svg>