<svg width="26" height="26" fill="none" xmlns="http://www.w3.org/2000/svg"><path d="M11.919.046a13.056 13.056 0 0 0-9.306 5.143C1.301 6.918.479 8.906.118 11.223c-.135.869-.132 2.702.006 3.597.546 3.533 2.3 6.483 5.113 8.603 3.889 2.931 9.216 3.4 13.597 1.198 2.783-1.399 5.024-3.816 6.19-6.675.654-1.606.975-3.233.975-4.946 0-4.359-2.165-8.394-5.806-10.821A12.946 12.946 0 0 0 14.625.105c-.602-.079-2.112-.112-2.706-.059m2.251 5.392v1.32l.119.025c1.073.218 1.931.621 2.621 1.231l.205.182-.567.636c-.312.35-.583.642-.603.65-.019.007-.158-.086-.308-.207-.322-.26-.947-.577-1.326-.672-.407-.103-1.069-.154-1.418-.11-.688.088-1.122.353-1.377.84-.074.141-.094.256-.096.547-.001.32.015.402.122.62.247.503.865.837 2.428 1.31.927.28 1.663.652 2.367 1.194.517.398.82.863 1.003 1.539.074.275.093.473.096 1.014.005.728-.038.963-.278 1.501-.433.973-1.429 1.752-2.598 2.03a40.77 40.77 0 0 0-.379.092c-.042.011-.054.328-.054 1.403v1.389l-.878-.012-.877-.012-.012-1.329-.011-1.33-.249-.027c-1.295-.144-2.491-.651-3.313-1.405l-.249-.228.612-.669c.542-.592.621-.663.687-.614.041.031.189.148.33.262.688.557 1.709.899 2.675.898.518-.001.874-.076 1.269-.269.378-.184.639-.443.809-.804.125-.267.137-.328.136-.725 0-.373-.015-.466-.111-.671-.281-.603-.715-.864-2.313-1.389-1.258-.414-1.887-.714-2.458-1.172-.503-.403-.777-.801-.998-1.448-.12-.351-.134-.443-.136-.931-.003-.635.063-.934.317-1.452.446-.907 1.518-1.638 2.701-1.843l.292-.051V4.117h1.82v1.321" fill="#0092FF" fill-rule="evenodd"/></svg>