<svg width="41" height="42" fill="none" xmlns="http://www.w3.org/2000/svg"><path d="M19.146.074a19.545 19.545 0 0 0-5.035.983C11.059 2.06 8.414 3.688 6.113 5.979 2.85 9.228.912 13.09.197 17.767c-.125.819-.152 1.297-.157 2.767-.006 1.929.051 2.571.377 4.213a20.567 20.567 0 0 0 3.569 8.121c2.021 2.75 4.778 5.038 7.769 6.446 1.875.883 3.641 1.42 5.807 1.765.867.138 1.234.158 2.938.158 1.705 0 2.071-.02 2.938-.158 3.716-.593 6.741-1.897 9.704-4.184.848-.654 2.634-2.436 3.352-3.343a20.84 20.84 0 0 0 4.12-8.952c.295-1.512.352-2.188.346-4.066-.005-1.905-.11-2.894-.473-4.476a20.648 20.648 0 0 0-9.918-13.374C27.876 1.143 24.935.276 21.696.07c-1.191-.076-1.306-.076-2.55.004m11.537 9.869c.292.151.34.295.34 1.013v.647l.575.024c.508.021.61.048.872.23.173.12.36.332.45.51l.153.304v8.112c0 4.855-.025 8.18-.063 8.281-.1.261-.49.67-.756.791-.201.091-.64.115-2.685.143l-2.444.034-.225.517c-.752 1.731-2.176 3.124-3.872 3.788-.94.369-1.533.475-2.631.47-.872-.005-1.122-.031-1.682-.18-1.586-.421-2.926-1.314-3.888-2.591-.405-.538-.821-1.28-.989-1.764l-.082-.24-2.488-.034c-2.741-.037-2.673-.027-3.115-.489a1.57 1.57 0 0 1-.29-.421c-.05-.131-.073-2.75-.073-8.305v-8.112l.154-.304c.235-.466.63-.706 1.216-.739l.475-.027v-.648c0-.646.001-.649.232-.881l.233-.232h10.192c8.956 0 10.216.013 10.391.103M10.318 11.07v.547H30.34v-1.094H10.318v.547M8.91 12.367a.91.91 0 0 0-.291.244l-.146.186v8.005c0 7.289.01 8.018.112 8.163.229.327.408.35 2.764.35h2.196l-.042-.166c-.114-.455-.164-1.446-.104-2.078a6.99 6.99 0 0 1 2.141-4.44c.935-.897 1.868-1.43 3.101-1.774.602-.168.767-.184 1.791-.18.988.004 1.209.027 1.788.182.747.2 1.711.654 2.335 1.1.946.676 1.9 1.869 2.361 2.953.41.966.516 1.524.518 2.729.001.601-.024 1.224-.055 1.384l-.058.29h2.142c1.292-.001 2.244-.029 2.401-.073a.639.639 0 0 0 .393-.29c.128-.21.132-.38.133-4.571v-4.354l-2.923-.02-2.923-.02-.456-.224a2.284 2.284 0 0 1 0-4.129l.456-.225 2.923-.022 2.923-.022V12.78l-.199-.223-.2-.223-11.468-.013c-6.308-.007-11.534.013-11.613.046m17.501 3.889a1.58 1.58 0 0 0-.921 1.457c.002.617.327 1.127.92 1.444.266.143.359.148 3.127.168l2.853.02v-3.218l-2.853.001c-2.633.002-2.874.011-3.126.128m1.198.438c.348.184.613.618.611.998-.002.347-.217.778-.481.966-.331.236-.899.259-1.255.051-.319-.186-.586-.647-.586-1.011 0-.594.568-1.161 1.162-1.161.139 0 .386.07.549.157m-.86.694c-.092.092-.167.232-.167.31 0 .079.075.219.167.311.093.092.232.168.311.168.079 0 .218-.076.311-.168.092-.092.167-.232.167-.311 0-.184-.294-.478-.478-.478-.079 0-.218.075-.311.168m-7.069 3.978c-.6.094-1.256.272-1.707.462-1.819.767-3.174 2.335-3.706 4.286-.132.487-.154.73-.15 1.663.004.983.023 1.155.187 1.694.787 2.579 2.85 4.324 5.481 4.635 1.385.163 3.004-.243 4.2-1.054.169-.115.534-.426.81-.692 1.23-1.18 1.884-2.61 1.97-4.309.165-3.272-2.068-6.066-5.3-6.631-.53-.092-1.379-.118-1.785-.054m2.265 4.379c.737.742 1.372 1.409 1.41 1.481.07.135-.019.449-.127.449a.616.616 0 0 0-.163.043c-.081.031-.413-.256-1.202-1.039l-1.09-1.083v2.787c0 1.79-.025 2.833-.07 2.918-.081.15-.401.18-.531.05-.061-.061-.082-.8-.082-2.904 0-1.552-.02-2.822-.045-2.822-.025 0-.509.477-1.076 1.061-.569.586-1.085 1.06-1.151 1.059-.154-.002-.393-.241-.393-.391 0-.064.637-.755 1.416-1.537 1.101-1.106 1.454-1.422 1.589-1.422s.473.302 1.515 1.35" fill="#0092FF" fill-rule="evenodd"/></svg>