<svg width="41" height="41" fill="none" xmlns="http://www.w3.org/2000/svg"><path d="M19.133.043C13.115.492 7.748 3.402 4.121 8.182 2.047 10.916.757 14.036.186 17.697c-.208 1.34-.208 4.266 0 5.606.877 5.623 3.595 10.237 8.002 13.58 2.721 2.065 5.858 3.361 9.509 3.931 1.34.208 4.266.208 5.606 0 4.981-.777 9.216-3.023 12.394-6.574 2.817-3.148 4.445-6.628 5.117-10.937.208-1.34.208-4.266 0-5.606-.57-3.651-1.866-6.788-3.931-9.509C33.493 3.72 28.648.909 23.063.17c-.8-.106-3.178-.183-3.93-.127m-1.23 10.65v.717l-3.126.018-3.126.018-.018 3.126-.018 3.126H10.182l.001-3.228c.002-2.984.011-3.25.127-3.505.158-.348.687-.818 1.019-.907.147-.039 1.576-.07 3.414-.074l3.16-.007v.716m11.993-.534c.15.081.372.25.492.375.435.455.43.408.43 3.95v3.214H29.385l-.018-3.126-.018-3.126-3.126-.018-3.126-.018V9.972l3.263.019c3.195.019 3.268.023 3.536.168m-11.667 6.497-.018 1.35-1.384.018-1.384.019v-2.736H18.248l-.019 1.349m7.328.019v1.368l-1.384-.019-1.384-.018-.018-1.35-.019-1.349H25.557v1.368m-3.69 3.654v1.401h-2.734v-2.802h2.734v1.401m-3.622 3.656v1.367h-2.802v-2.734h2.802v1.367m7.312 0v1.367h-2.802v-2.734h2.802v1.367m-13.94 2.077c0 2.765.011 3.106.108 3.143.059.023 1.475.042 3.145.042h3.038l-.019.7-.02.7h-3.212c-3.541 0-3.433.013-3.946-.438a1.92 1.92 0 0 1-.388-.509c-.137-.282-.141-.396-.141-3.516V22.96h1.435v3.102m19.201.05c0 2.299-.022 3.229-.084 3.434-.048.162-.214.415-.393.599-.518.536-.561.541-4.138.52l-3.072-.018-.02-.7-.019-.7h3.064c2.291 0 3.084-.021 3.145-.082.062-.062.082-.854.082-3.144V22.96h1.435v3.152" fill="#0092FF" fill-rule="evenodd"/></svg>