<svg width="41" height="41" fill="none" xmlns="http://www.w3.org/2000/svg"><path d="M19.133.043C13.115.492 7.748 3.402 4.121 8.182 2.047 10.916.757 14.036.186 17.697c-.208 1.34-.208 4.266 0 5.606.877 5.623 3.595 10.237 8.002 13.58 2.721 2.065 5.858 3.361 9.509 3.931 1.34.208 4.266.208 5.606 0 4.981-.777 9.216-3.023 12.394-6.574 2.817-3.148 4.445-6.628 5.117-10.937.208-1.34.208-4.266 0-5.606-.57-3.651-1.866-6.788-3.931-9.509C33.493 3.72 28.648.909 23.063.17c-.8-.106-3.178-.183-3.93-.127m2.002 4.747c.179.093 2.937 2.213 6.128 4.711l5.802 4.541.004 8.766c.004 7.777-.008 8.795-.102 9.02a1.502 1.502 0 0 1-.748.774c-.263.122-.734.127-12.163.127-11.37 0-11.902-.006-12.164-.125a2.014 2.014 0 0 1-.497-.355c-.444-.457-.425-.023-.425-9.525v-8.615l5.766-4.524c3.171-2.488 5.879-4.59 6.018-4.672.479-.282.724-.337 1.404-.314.529.018.71.053.977.191m-1.817.622c-.18.086-2.861 2.141-5.958 4.565l-5.63 4.407-.002.82-.002.82 3.591 2.631a444.43 444.43 0 0 0 3.677 2.68c.048.027-.032-.179-.177-.456-.483-.921-.691-2.143-.541-3.17.447-3.056 3.144-5.119 6.34-4.851a5.549 5.549 0 0 1 2.801 1.006c2.314 1.61 3.089 4.514 1.868 6.999-.2.408-.232.512-.132.444.072-.049 1.728-1.258 3.68-2.686l3.549-2.597.004-.796.004-.797-5.552-4.359c-3.054-2.397-5.698-4.449-5.877-4.561-.457-.284-1.167-.327-1.643-.099m.553 9.327-.02.457-.366.093c-1.044.263-1.586 1.093-1.376 2.105.137.659.559 1.032 1.7 1.502 1.011.417 1.338.852 1.068 1.421-.362.763-1.58.498-1.719-.374l-.042-.263h-1.3l.045.381c.098.834.623 1.373 1.563 1.605l.324.08v.872h.684v-.877l.345-.074c.634-.136 1.053-.431 1.315-.928.221-.421.202-1.208-.041-1.622-.22-.376-.711-.716-1.569-1.088-.802-.348-.987-.485-1.072-.793-.198-.717.447-1.271 1.092-.937.226.116.374.361.444.735l.048.254h1.214v-.324c-.002-.701-.545-1.406-1.258-1.63l-.382-.121v-.931h-.677l-.02.457M7.722 24.16c0 6.269.013 7.273.097 7.225.199-.112 9.803-7.162 9.807-7.2.002-.021-1.817-1.374-4.043-3.006l-4.955-3.634-.906-.666v7.281m19.714-3.66c-2.706 1.984-4.92 3.64-4.92 3.678 0 .081 9.797 7.287 9.843 7.24.018-.017.024-3.292.014-7.278l-.017-7.248-4.92 3.608m-8.206 3.787a4.272 4.272 0 0 0-.82.301c-.413.211-10.089 7.273-10.13 7.394-.027.079 23.47.094 23.518.015.031-.05-9.121-6.805-9.808-7.24-.756-.479-1.884-.671-2.76-.47" fill="#0092FF" fill-rule="evenodd"/></svg>