<?xml version="1.0" encoding="utf-8"?>
<!-- Generator: Adobe Illustrator 23.0.5, SVG Export Plug-In . SVG Version: 6.00 Build 0)  -->
<svg version="1.1" id="Layer_1" xmlns="http://www.w3.org/2000/svg" xmlns:xlink="http://www.w3.org/1999/xlink" x="0px" y="0px"
	 viewBox="0 0 32 32" style="enable-background:new 0 0 32 32;" xml:space="preserve">
<style type="text/css">
	.st0{fill:#A4A6A8;}
</style>
<path id="XMLID_4_" class="st0" d="M16,0.8c-8.8,0-16,7-16,15.6C0,23.2,4.6,29,10.9,31.1c0.8,0.1,1.1-0.3,1.1-0.7c0-0.4,0-1.3,0-2.6
	c-4.5,0.9-5.4-2.1-5.4-2.1c-0.7-1.8-1.8-2.3-1.8-2.3c-1.4-1,0.1-0.9,0.1-0.9c1.7,0,2.5,1.5,2.5,1.5c1.4,2.4,3.7,1.7,4.7,1.3
	c0.1-1,0.6-1.7,1-2.1c-3.6-0.4-7.3-1.7-7.3-7.7c0-1.7,0.6-3.1,1.6-4.2c-0.2-0.4-0.7-2,0.1-4.1c0,0,1.3-0.4,4.4,1.6
	c1.3-0.3,2.6-0.5,4-0.5s2.7,0.2,4,0.5c3-2,4.4-1.6,4.4-1.6c0.9,2.1,0.3,3.7,0.2,4.1c1,1.1,1.6,2.5,1.6,4.2c0,6-3.7,7.3-7.3,7.7
	c0.6,0.5,1.1,1.4,1.1,2.9c0,2.1,0,3.8,0,4.3c0,0.4,0.3,0.9,1.1,0.7c6.4-2,11-7.9,11-14.8C32,7.7,24.8,0.8,16,0.8z"/>
</svg>
