<?xml version="1.0" encoding="utf-8"?>
<!-- Generator: Adobe Illustrator 23.0.5, SVG Export Plug-In . SVG Version: 6.00 Build 0)  -->
<svg version="1.1" id="Layer_1" xmlns="http://www.w3.org/2000/svg" xmlns:xlink="http://www.w3.org/1999/xlink" x="0px" y="0px"
	 viewBox="0 0 32 32" style="enable-background:new 0 0 32 32;" xml:space="preserve">
<style type="text/css">
	.st0{fill:#A4A6A8;}
</style>
<g id="XMLID_5_">
	<g id="XMLID_6_">
		<path id="XMLID_3_" class="st0" d="M1,31h4.2c0.6,0,1-0.5,1-1V11.8c0-0.6-0.5-1-1-1H1c-0.6,0-1,0.5-1,1V30C0,30.5,0.5,31,1,31z"/>
		<path id="XMLID_2_" class="st0" d="M1,7.5h4.2c0.6,0,1-0.5,1-1V2.8c0-0.6-0.5-1-1-1H1c-0.6,0-1,0.5-1,1v3.7C0,7.1,0.5,7.5,1,7.5z"
			/>
		<path id="XMLID_1_" class="st0" d="M30.4,12.8c-0.6-0.8-1.4-1.4-2.6-1.9c-1.1-0.5-2.4-0.7-3.8-0.7c-2.8,0-5.2,1.1-7.1,3.2
			c-0.4,0.4-0.7,0.3-0.7-0.2v-1.4c0-0.6-0.5-1-1-1h-3.7c-0.6,0-1,0.5-1,1V30c0,0.6,0.5,1,1,1h4.2c0.6,0,1-0.5,1-1v-6.3
			c0-2.6,0.2-4.4,0.5-5.4s0.9-1.8,1.8-2.4c0.9-0.6,1.8-0.9,2.9-0.9c0.8,0,1.6,0.2,2.2,0.6c0.6,0.4,1,1,1.3,1.7s0.4,2.4,0.4,4.9V30
			c0,0.6,0.5,1,1,1H31c0.6,0,1-0.5,1-1V19.7c0-1.8-0.1-3.2-0.3-4.2S31,13.6,30.4,12.8z"/>
	</g>
</g>
</svg>
