<?xml version="1.0" encoding="utf-8"?>
<!-- Generator: Adobe Illustrator 23.0.1, SVG Export Plug-In . SVG Version: 6.00 Build 0)  -->
<svg version="1.1" id="Capa_1" xmlns="http://www.w3.org/2000/svg" xmlns:xlink="http://www.w3.org/1999/xlink" x="0px" y="0px"
	 viewBox="0 0 60 40" style="enable-background:new 0 0 60 40;" xml:space="preserve">
<style type="text/css">
	.st0{fill:#D80027;}
	.st1{fill:#0052B4;}
	.st2{fill:#FFFFFF;}
</style>
<path class="st0" d="M56.9,40H3.1C1.4,40,0,38.6,0,36.9v0h60v0C60,38.6,58.6,40,56.9,40z"/>
<rect y="30.8" class="st0" width="60" height="3.1"/>
<rect y="24.6" class="st0" width="60" height="3.1"/>
<rect x="30" y="18.5" class="st0" width="30" height="3.1"/>
<rect x="30" y="12.3" class="st0" width="30" height="3.1"/>
<rect x="30" y="6.2" class="st0" width="30" height="3.1"/>
<path class="st0" d="M60,3.1H30V0h26.9C58.6,0,60,1.4,60,3.1L60,3.1z"/>
<path class="st1" d="M30,21.5H0V2.8C0,1.3,1.3,0,2.8,0H30V21.5z"/>
<polygon class="st2" points="4.7,6.1 3.7,6.7 3.9,5.5 3,4.7 4.2,4.5 4.7,3.5 5.2,4.5 6.4,4.7 5.6,5.5 5.8,6.7 "/>
<polygon class="st2" points="9.8,6.1 8.7,6.7 8.9,5.5 8.1,4.7 9.2,4.5 9.8,3.5 10.3,4.5 11.4,4.7 10.6,5.5 10.8,6.7 "/>
<polygon class="st2" points="14.8,6.1 13.8,6.7 14,5.5 13.1,4.7 14.3,4.5 14.8,3.5 15.3,4.5 16.5,4.7 15.6,5.5 15.8,6.7 "/>
<polygon class="st2" points="19.9,6.1 18.8,6.7 19,5.5 18.2,4.7 19.3,4.5 19.9,3.5 20.4,4.5 21.5,4.7 20.7,5.5 20.9,6.7 "/>
<polygon class="st2" points="24.9,6.1 23.9,6.7 24.1,5.5 23.2,4.7 24.4,4.5 24.9,3.5 25.4,4.5 26.6,4.7 25.7,5.5 25.9,6.7 "/>
<polygon class="st2" points="4.7,11.5 3.7,12 3.9,10.8 3,10 4.2,9.9 4.7,8.8 5.2,9.9 6.4,10 5.6,10.8 5.8,12 "/>
<polygon class="st2" points="9.8,11.5 8.7,12 8.9,10.8 8.1,10 9.2,9.9 9.8,8.8 10.3,9.9 11.4,10 10.6,10.8 10.8,12 "/>
<polygon class="st2" points="14.8,11.5 13.8,12 14,10.8 13.1,10 14.3,9.9 14.8,8.8 15.3,9.9 16.5,10 15.6,10.8 15.8,12 "/>
<polygon class="st2" points="19.9,11.5 18.8,12 19,10.8 18.2,10 19.3,9.9 19.9,8.8 20.4,9.9 21.5,10 20.7,10.8 20.9,12 "/>
<polygon class="st2" points="24.9,11.5 23.9,12 24.1,10.8 23.2,10 24.4,9.9 24.9,8.8 25.4,9.9 26.6,10 25.7,10.8 25.9,12 "/>
<polygon class="st2" points="4.7,16.8 3.7,17.4 3.9,16.2 3,15.4 4.2,15.2 4.7,14.2 5.2,15.2 6.4,15.4 5.6,16.2 5.8,17.4 "/>
<polygon class="st2" points="9.8,16.8 8.7,17.4 8.9,16.2 8.1,15.4 9.2,15.2 9.8,14.2 10.3,15.2 11.4,15.4 10.6,16.2 10.8,17.4 "/>
<polygon class="st2" points="14.8,16.8 13.8,17.4 14,16.2 13.1,15.4 14.3,15.2 14.8,14.2 15.3,15.2 16.5,15.4 15.6,16.2 15.8,17.4 
	"/>
<polygon class="st2" points="19.9,16.8 18.8,17.4 19,16.2 18.2,15.4 19.3,15.2 19.9,14.2 20.4,15.2 21.5,15.4 20.7,16.2 20.9,17.4 
	"/>
<polygon class="st2" points="24.9,16.8 23.9,17.4 24.1,16.2 23.2,15.4 24.4,15.2 24.9,14.2 25.4,15.2 26.6,15.4 25.7,16.2 
	25.9,17.4 "/>
</svg>
