<?xml version="1.0" encoding="utf-8"?>
<!-- Generator: Adobe Illustrator 19.0.0, SVG Export Plug-In . SVG Version: 6.00 Build 0)  -->
<svg version="1.1" id="Layer_1" xmlns="http://www.w3.org/2000/svg" xmlns:xlink="http://www.w3.org/1999/xlink" x="0px" y="0px"
	 viewBox="0 0 181.8 50" style="enable-background:new 0 0 181.8 50;" xml:space="preserve">
<style type="text/css">
	.st0{fill:#595252;}
</style>
<g id="XMLID_27_">
	<rect id="XMLID_28_" x="10" y="12.4" class="st0" width="3" height="13.3"/>
	<path id="XMLID_29_" class="st0" d="M18.4,21.7c0-2.2,0-4-0.1-5.7h0.1c0.6,1.5,1.5,3.2,2.3,4.7l2.8,5.1h3.2V12.4h-2.8v3.9
		c0,2,0.1,3.8,0.2,5.5h-0.1c-0.6-1.5-1.4-3.2-2.2-4.5l-2.8-4.9h-3.5v13.3h2.8V21.7z"/>
	<polygon id="XMLID_151_" class="st0" points="28.2,14.9 31.7,14.9 31.7,25.7 34.8,25.7 34.8,14.9 38.4,14.9 38.4,12.4 28.2,12.4 	
		"/>
	<polygon id="XMLID_152_" class="st0" points="48.5,23.2 43,23.2 43,20.1 47.9,20.1 47.9,17.6 43,17.6 43,14.8 48.2,14.8 48.2,12.4 
		40,12.4 40,25.7 48.5,25.7 	"/>
	<polygon id="XMLID_153_" class="st0" points="53.5,12.4 50.5,12.4 50.5,25.7 58.8,25.7 58.8,23.2 53.5,23.2 	"/>
	<polygon id="XMLID_154_" class="st0" points="68.8,23.2 63.6,23.2 63.6,12.4 60.6,12.4 60.6,25.7 68.8,25.7 	"/>
	<rect id="XMLID_155_" x="70.6" y="12.4" class="st0" width="3" height="13.3"/>
	<path id="XMLID_156_" class="st0" d="M82.4,20.4h2v2.8c-0.2,0.1-0.8,0.2-1.5,0.2c-2.4,0-4.2-1.6-4.2-4.4c0-2.8,1.9-4.3,4.4-4.3
		c1.5,0,2.3,0.2,3.1,0.6l0.6-2.4c-0.6-0.3-1.9-0.6-3.6-0.6c-4.4,0-7.5,2.5-7.6,7c0,1.9,0.6,3.6,1.9,4.9c1.2,1.2,3,1.8,5.4,1.8
		c1.8,0,3.5-0.4,4.5-0.7v-7h-4.9C82.4,18.1,82.4,20.4,82.4,20.4z"/>
	<polygon id="XMLID_157_" class="st0" points="98.1,23.2 92.6,23.2 92.6,20.1 97.6,20.1 97.6,17.6 92.6,17.6 92.6,14.8 97.8,14.8 
		97.8,12.4 89.6,12.4 89.6,25.7 98.1,25.7 	"/>
	<path id="XMLID_224_" class="st0" d="M111.1,12.4h-2.8v3.9c0,2,0.1,3.8,0.2,5.5h-0.1c-0.6-1.5-1.4-3.2-2.2-4.5l-2.8-4.9h-3.5v13.3
		h2.8v-4c0-2.2,0-4-0.1-5.7h0.1c0.6,1.5,1.5,3.2,2.3,4.7l2.8,5.1h3.2V12.4z"/>
	<polygon id="XMLID_225_" class="st0" points="112.7,12.4 112.7,14.9 116.3,14.9 116.3,25.7 119.3,25.7 119.3,14.9 122.9,14.9 
		122.9,12.4 	"/>
	<polygon id="XMLID_226_" class="st0" points="8.7,32.9 11.2,32.9 11.2,40.1 12.2,40.1 12.2,32.9 14.7,32.9 14.7,32 8.7,32 	"/>
	<path id="XMLID_229_" class="st0" d="M19.7,36.2L19.7,36.2c0.9-0.3,1.5-1.1,1.5-2.1c0-0.6-0.2-1.2-0.6-1.5
		c-0.5-0.5-1.2-0.6-2.3-0.6c-0.7,0-1.5,0.1-2,0.2v8h1.1v-3.5h1c1,0,1.4,0.5,1.6,1.5c0.2,1,0.4,1.7,0.6,1.9h1.1
		c-0.2-0.3-0.3-1.1-0.6-2.2C20.7,37,20.3,36.4,19.7,36.2z M18.4,35.8h-1.1v-3c0.2-0.1,0.6-0.1,1.1-0.1c1.1,0,1.9,0.5,1.9,1.5
		C20.2,35.1,19.4,35.8,18.4,35.8z"/>
	<path id="XMLID_232_" class="st0" d="M25.5,32l-2.8,8.1h1.1l0.8-2.5h2.8l0.9,2.5h1.1L26.7,32H25.5z M24.9,36.7l0.8-2.3
		c0.2-0.5,0.3-1,0.4-1.5l0,0c0.1,0.5,0.2,1,0.4,1.5l0.8,2.3H24.9z"/>
	<path id="XMLID_235_" class="st0" d="M33.5,31.9c-0.8,0-1.6,0.1-2.2,0.2V40c0.6,0.1,1.1,0.1,1.9,0.1c1.5,0,2.8-0.4,3.6-1.1
		c0.7-0.7,1.1-1.9,1.1-3.2s-0.4-2.3-1.1-2.9C36.1,32.3,35.1,31.9,33.5,31.9z M33.4,39.4c-0.4,0-0.8,0-1.1-0.1v-6.4
		c0.2-0.1,0.6-0.1,1.2-0.1c2.2,0,3.3,1.2,3.3,3.2C36.8,38.1,35.6,39.4,33.4,39.4z"/>
	<rect id="XMLID_236_" x="39.9" y="32" class="st0" width="1.1" height="8.1"/>
	<path id="XMLID_237_" class="st0" d="M48.5,35.4c0,1.3,0,2.3,0.1,3.3l0,0c-0.4-0.8-0.9-1.7-1.5-2.7l-2.6-4.1h-1.1V40h1v-3.5
		c0-1.4,0-2.3-0.1-3.3l0,0c0.4,0.9,1,1.8,1.5,2.7l2.6,4.1h1.1v-8.1h-1V35.4z"/>
	<path id="XMLID_238_" class="st0" d="M55.4,36.7H57v2.4c-0.2,0.1-0.7,0.2-1.4,0.2c-1.9,0-3.2-1.2-3.2-3.2s1.3-3.2,3.2-3.2
		c0.8,0,1.4,0.2,1.8,0.3l0.2-0.9c-0.3-0.2-1.1-0.4-2-0.4c-2.8,0-4.4,1.8-4.4,4.2c0,1.3,0.4,2.3,1.1,3c0.8,0.7,1.8,1.1,3,1.1
		c1.1,0,2-0.2,2.5-0.4v-3.9h-2.7L55.4,36.7L55.4,36.7z"/>
	<path id="XMLID_239_" class="st0" d="M69.6,32l-1.5,3.9c-0.3,1.1-0.6,1.9-0.9,2.8l0,0c-0.2-0.8-0.5-1.7-0.8-2.8L65.1,32h-1.3
		l-0.6,8.1h1l0.2-3.5c0.1-1.2,0.2-2.6,0.2-3.6l0,0c0.2,1,0.6,2,1,3.2l1.3,3.9h0.8l1.5-4c0.4-1.1,0.7-2.1,1.1-3.1l0,0
		c0,1,0.1,2.3,0.1,3.5l0.2,3.6h1L71,32H69.6z"/>
	<path id="XMLID_242_" class="st0" d="M75.7,32L73,40.1H74l0.8-2.5h2.8l0.9,2.5h1.1L76.9,32H75.7z M75.1,36.7l0.8-2.3
		c0.2-0.5,0.3-1,0.4-1.5l0,0c0.1,0.5,0.2,1,0.4,1.5l0.8,2.3H75.1z"/>
	<path id="XMLID_243_" class="st0" d="M85.2,32.7c0.6,0,1.2,0.2,1.6,0.3l0.2-0.9c-0.2-0.2-0.9-0.3-1.9-0.3c-2.5,0-4.2,1.7-4.2,4.3
		c0,2.7,1.7,4.1,4,4.1c1,0,1.8-0.2,2.1-0.4L86.7,39c-0.4,0.2-1.1,0.3-1.7,0.3c-1.9,0-3.1-1.3-3.1-3.2C82,33.9,83.2,32.7,85.2,32.7z"
		/>
	<polygon id="XMLID_244_" class="st0" points="93.9,35.4 90,35.4 90,32 88.9,32 88.9,40.1 90,40.1 90,36.3 93.9,36.3 93.9,40.1 
		95,40.1 95,32 93.9,32 	"/>
	<rect id="XMLID_245_" x="97.4" y="32" class="st0" width="1.1" height="8.1"/>
	<path id="XMLID_246_" class="st0" d="M105.9,35.4c0,1.3,0,2.3,0.1,3.3l0,0c-0.4-0.8-0.9-1.7-1.5-2.7l-2.6-4.1h-1.1V40h1v-3.5
		c0-1.4,0-2.3-0.1-3.3l0,0c0.4,0.9,1,1.8,1.5,2.7l2.6,4.1h1.1v-8.1h-1V35.4z"/>
	<polygon id="XMLID_247_" class="st0" points="110.4,36.3 113.5,36.3 113.5,35.4 110.4,35.4 110.4,32.9 113.8,32.9 113.8,32 
		109.4,32 109.4,40.1 113.9,40.1 113.9,39.2 110.4,39.2 	"/>
	<path id="XMLID_248_" class="st0" d="M118.3,35.5c-1.1-0.4-1.6-0.8-1.6-1.5c0-0.6,0.4-1.2,1.5-1.2c0.7,0,1.3,0.2,1.5,0.4l0.3-0.9
		c-0.3-0.2-1-0.4-1.8-0.4c-1.5,0-2.6,1-2.6,2.2c0,1.1,0.8,1.9,2.1,2.3c1.1,0.4,1.5,0.9,1.5,1.6c0,0.8-0.6,1.4-1.7,1.4
		c-0.7,0-1.4-0.2-1.9-0.6l-0.2,0.9c0.4,0.3,1.3,0.5,2.1,0.5c1.9,0,2.8-1.1,2.8-2.3C120.4,36.7,119.7,36,118.3,35.5z"/>
</g>
<path id="XMLID_463_" class="st0" d="M152.8,13.2c0,3.1,2.6,5.7,5.8,5.7c3.1,0,5.8-2.6,5.8-5.7s-2.6-5.7-5.8-5.7
	C155.4,7.6,152.8,10.1,152.8,13.2z"/>
<path id="XMLID_464_" class="st0" d="M146.3,14.9c1.1,0,1.8-0.7,1.9-1.8c0.1-0.8,0.1-1.5,0.3-2.2c1.3-5.4,6.5-8.5,12-7.5
	c4.6,0.9,8.1,4.9,8.3,9.5c0,0.3,0.1,0.8,0.2,1.1c0.3,0.7,1.1,1,1.9,0.8c0.7-0.2,1.2-0.8,1.2-1.6c0-1.3-0.2-2.7-0.6-4
	c-1.9-5.5-7.2-9.2-14.1-9.2c-1,0-2.8,0.3-4.6,1.1c-3.6,1.7-6.2,4.3-7.4,8c-0.4,1.5-0.8,2.9-0.7,4.4
	C144.9,14.3,145.5,14.9,146.3,14.9z"/>
<path id="XMLID_468_" class="st0" d="M140.2,49.7h3.3c0.4,0,0.9-0.3,0.9-0.6l3.6-18.6c0,0,0.1,0,0.2,0l9.1,19.1
	c0.1,0.2,0.4,0.4,0.9,0.4h0.9c0.4,0,0.8-0.2,0.9-0.4l9-19.1h0.1l3.7,18.6c0.1,0.3,0.4,0.6,0.9,0.6h3.4c0.7,0,1-0.3,0.9-1l-6.2-27.9
	c-0.1-0.3-0.4-0.7-0.9-0.7h-0.9c-0.3,0-0.8,0.2-0.9,0.4l-7.8,16V20.6c-0.8,0.3-1.7,0.4-2.7,0.4c-0.9,0-1.8-0.2-2.7-0.4v16l-7.8-15.9
	c-0.1-0.2-0.6-0.4-0.9-0.4h-0.8c-0.4,0-0.8,0.3-0.9,0.7l-6.2,27.9C139.1,49.3,139.5,49.7,140.2,49.7z"/>
</svg>
