<svg width="209" height="340" viewBox="0 0 209 340" fill="none" xmlns="http://www.w3.org/2000/svg">
<g clip-path="url(#clip0_980_6746)">
<path d="M201.418 0H200.239C200.618 0.00394206 200.996 0.0308994 201.372 0.08072L201.418 0Z" fill="#616161"/>
<path d="M144.497 316.123L139.228 307.042H139.132L144.462 316.188L144.497 316.123Z" fill="#1A1A1A"/>
<path d="M139.132 31.2681H139.228L144.543 22.1066L144.507 22.041L139.132 31.2681Z" fill="#1A1A1A"/>
<path d="M155.455 222.419L185.674 170.381L155.359 222.419H155.455Z" fill="#1A1A1A"/>
<path d="M185.674 170.381L155.37 118.197L155.284 118.338L185.674 170.381Z" fill="#1A1A1A"/>
<path d="M171.577 69.0292L166.302 59.8677L160.962 68.9737L160.992 69.0292H160.927L160.836 69.1907L160.745 69.0292H121.715V74.5483C121.709 76.1443 121.073 77.6731 119.946 78.8021C118.82 79.9311 117.294 80.569 115.7 80.577H110.465V69.0292H109.458V80.577H98.7164V69.0292H97.7087V80.577H93.3004C92.51 80.577 91.7274 80.421 90.9972 80.118C90.2671 79.8149 89.6037 79.3708 89.0451 78.8109C88.4864 78.251 88.0434 77.5864 87.7414 76.855C87.4394 76.1236 87.2843 75.3398 87.285 74.5483V69.0292H86.0859L79.5364 57.769L72.9163 69.0544L72.9466 69.1099H72.8861L72.7904 69.2663L72.6997 69.1099H40.4257L40.335 69.2663L40.2393 69.1099H0.00512695V83.1801H25.8354L39.3022 102.154L50.2349 83.1801H109.578L121.277 99.6466L132.003 80.577H177.23L209.01 134.825V69.0292H171.577Z" fill="#1A1A1A"/>
<path d="M122.456 202.406L141.157 170.381H141.082L122.441 138.376L103.855 170.381L122.456 202.406Z" fill="#1A1A1A"/>
<path d="M177.22 260.185H177.154L177.064 260.341L176.968 260.185H132.703L121.468 240.843L109.578 257.581H94.5397H65.2735H50.2398L39.3072 238.608L25.8303 257.581H0V269.714H28.44H40.2392L40.3299 269.558L40.4256 269.714H40.4911H72.7097L72.8004 269.558L72.891 269.714H72.9565L72.9263 269.775L79.3952 280.798L86.0858 269.276H160.74L160.836 269.119L160.927 269.276H160.992L160.962 269.331L166.257 278.356L171.577 269.119H209V205.892L177.19 260.129L177.22 260.185Z" fill="#1A1A1A"/>
<path d="M201.372 0.0805664L188.732 21.6273L209 57.0171V8.7729C208.999 6.64365 208.225 4.58737 206.821 2.98788C205.418 1.38839 203.481 0.354993 201.372 0.0805664Z" fill="#616161"/>
<path d="M188.732 21.6323L166.302 59.8675L171.577 69.029H209V57.0171L188.732 21.6323Z" fill="#2F2F2F"/>
<path d="M144.507 22.0411L144.543 22.1067L157.38 0H157.344L144.507 22.0411Z" fill="#2F2F2F"/>
<path d="M177.063 260.341L177.154 260.185H176.968L177.063 260.341Z" fill="#616161"/>
<path d="M155.37 118.196L185.674 170.381L155.455 222.419H155.994L177.19 260.129L209 205.892V134.824L177.22 80.5767L155.37 118.196Z" fill="#616161"/>
<path d="M134.079 118.338H155.284L155.37 118.196L155.284 118.05L177.22 80.5767H131.993L121.277 99.6463L134.295 117.969L134.079 118.338Z" fill="#363636"/>
<path d="M155.37 118.196L177.22 80.5767L155.284 118.05L155.37 118.196Z" fill="#363636"/>
<path d="M134.079 222.419L134.295 222.792L121.468 240.843L132.703 260.185H176.968L155.284 222.707L155.455 222.419H155.359H134.079Z" fill="#333333"/>
<path d="M177.22 260.185L177.19 260.129L177.154 260.185H177.22Z" fill="#333333"/>
<path d="M176.968 260.185H177.154L177.19 260.129L155.994 222.419H155.455L155.284 222.707L176.968 260.185Z" fill="#333333"/>
<path d="M134.079 118.338L122.441 138.376L141.082 170.381H141.157H185.674L155.284 118.338H134.079Z" fill="#404040"/>
<path d="M122.456 202.406L134.079 222.419H155.36L185.674 170.381H141.157L122.456 202.406Z" fill="#3D3D3D"/>
<path d="M160.836 69.1907L160.927 69.0293H160.74L160.836 69.1907Z" fill="#616161"/>
<path d="M139.228 31.268H139.767L160.962 68.9734L166.302 59.8674L144.543 22.1064L139.228 31.268Z" fill="#616161"/>
<path d="M201.372 0.08072C200.997 0.0308994 200.618 0.00394206 200.239 0H176.338L188.727 21.6274L201.372 0.08072Z" fill="#616161"/>
<path d="M176.338 0H157.38L144.543 22.1067L166.302 59.8676L188.732 21.6325L176.338 0Z" fill="#616161"/>
<path d="M139.228 31.2681H95.089L93.2904 34.3303H97.7138V56.9566H94.2174L87.2799 49.7071V44.5664L79.5364 57.7688L86.0859 69.029H87.285V65.0536L94.2174 57.9605H97.7088V69.029H98.7164V64.2061H107.407C107.954 64.2061 108.478 64.4235 108.864 64.8105C109.251 65.1974 109.468 65.7222 109.468 66.2695V69.029H110.475V66.2695C110.475 65.4568 110.153 64.6774 109.58 64.1024C109.007 63.5273 108.229 63.2035 107.417 63.2022H98.7164V51.4426H109.694V55.9829C109.694 56.5877 109.934 57.1677 110.361 57.5954C110.788 58.023 111.368 58.2632 111.972 58.2632H113.866L121.71 66.1181V69.0189H160.74L139.076 31.5455L139.228 31.2681ZM87.29 63.6461V51.155L93.3357 57.4561L87.29 63.6461ZM109.694 50.4638H98.7164V34.3303H109.694V50.4638ZM121.715 64.7409L114.788 57.7991L121.715 50.8624V64.7409ZM121.715 49.4448L113.866 57.2744H111.967C111.627 57.2744 111.302 57.1394 111.062 56.8991C110.822 56.6588 110.687 56.3329 110.687 55.993V34.3303H115.695C117.293 34.3383 118.823 34.9797 119.95 36.1141C121.077 37.2486 121.71 38.7838 121.71 40.3842L121.715 49.4448Z" fill="#333333"/>
<path d="M160.993 69.0297L160.962 68.9736L160.927 69.0297H160.993Z" fill="#333333"/>
<path d="M139.227 31.2681L139.056 31.5556L160.74 69.029H160.926L160.962 68.9735L139.767 31.2681H139.227Z" fill="#333333"/>
<path d="M131.806 0H113.428L95.0889 31.2682H139.132L144.507 22.0411L131.806 0Z" fill="#3D3D3D"/>
<path d="M144.507 22.0411L157.344 0H131.806L144.507 22.0411Z" fill="#3D3D3D"/>
<path d="M0 212.491L25.8303 257.582L39.3072 238.608L0 170.381V212.491Z" fill="#616161"/>
<path d="M0 170.381L39.3072 102.154L25.8303 83.1802L0 128.271V170.381Z" fill="#616161"/>
<path d="M25.8303 83.1802H0V128.271L25.8303 83.1802Z" fill="#454545"/>
<path d="M0 212.491V257.582H25.8303L0 212.491Z" fill="#2F2F2F"/>
<path d="M65.2734 83.1802H50.2398L39.3071 102.154L47.6099 113.838L65.2734 83.1802Z" fill="#2D2D2D"/>
<path d="M15.0387 170.381L47.6099 113.838L39.3072 102.154L0 170.381H15.0387Z" fill="#2D2D2D"/>
<path d="M39.3071 238.608L50.2398 257.582H65.2734L47.6099 226.919L39.3071 238.608Z" fill="#2A2A2A"/>
<path d="M15.0387 170.381H0L39.3072 238.608L47.6099 226.919L15.0387 170.381Z" fill="#2A2A2A"/>
<path d="M40.3299 69.2663L40.4257 69.1099H40.2393L40.3299 69.2663Z" fill="#616161"/>
<path d="M51.1013 31.3439H51.192L69.3946 0H69.3593L51.1013 31.3439Z" fill="#616161"/>
<path d="M6.50921 31.3438H0V69.1098H28.44L6.50921 31.3438Z" fill="#404040"/>
<path d="M8.76636 0C6.44315 0.0013366 4.21547 0.92607 2.57271 2.57105C0.929945 4.21602 0.00646175 6.44671 0.00512695 8.77305V31.359H6.5093L24.8127 0.0151379L8.76636 0Z" fill="#2C2C2C"/>
<path d="M88.8215 170.381L114.914 215.321L122.456 202.406L103.855 170.381L122.441 138.376L114.914 125.451L88.8215 170.381Z" fill="#616161"/>
<path d="M114.637 111.462L121.277 99.6467L109.578 83.1802L102.868 94.8994L114.637 111.462Z" fill="#616161"/>
<path d="M102.868 245.862L109.578 257.582L121.468 240.843L114.707 229.199L102.868 245.862Z" fill="#616161"/>
<path d="M119.257 117.97L119.04 118.338H134.079L134.295 117.97L121.277 99.6465L114.637 111.462L119.257 117.97Z" fill="#616161"/>
<path d="M134.078 222.419H119.04L119.256 222.792L114.707 229.199L121.468 240.843L134.295 222.792L134.078 222.419Z" fill="#616161"/>
<path d="M122.441 138.376L134.079 118.338H119.04L114.914 125.451L122.441 138.376Z" fill="#616161"/>
<path d="M119.04 222.419H134.079L122.456 202.406L114.914 215.321L119.04 222.419Z" fill="#616161"/>
<path d="M114.707 229.199L110.767 222.419L114.914 215.321L88.8215 170.381L114.914 125.451L110.767 118.338L114.637 111.462L102.868 94.8994L59.6309 170.381L102.868 245.863L114.707 229.199Z" fill="#616161"/>
<path d="M119.04 118.338L119.257 117.97L114.637 111.462L110.767 118.338H119.04Z" fill="#616161"/>
<path d="M114.707 229.199L119.257 222.792L119.04 222.419H110.767L114.707 229.199Z" fill="#616161"/>
<path d="M114.914 125.451L119.04 118.338H110.767L114.914 125.451Z" fill="#616161"/>
<path d="M110.767 222.419H119.04L114.914 215.321L110.767 222.419Z" fill="#616161"/>
<path d="M109.578 83.1802H94.5398L102.868 94.8994L109.578 83.1802Z" fill="#454545"/>
<path d="M59.6307 170.381L102.868 94.8994L94.5396 83.1802L44.592 170.381H59.6307Z" fill="#454545"/>
<path d="M50.542 117.97L20.1069 170.381H44.592L94.5396 83.1802H65.2734L47.6099 113.838L50.542 117.97Z" fill="#454545"/>
<path d="M50.542 117.97L47.6098 113.838L15.0386 170.381H20.1069L50.542 117.97Z" fill="#454545"/>
<path d="M94.5398 257.582H109.578L102.868 245.862L94.5398 257.582Z" fill="#2F2F2F"/>
<path d="M59.6307 170.381H44.592L94.5396 257.582L102.868 245.862L59.6307 170.381Z" fill="#2F2F2F"/>
<path d="M20.1069 170.381L50.542 222.792L47.6099 226.919L65.2734 257.582H94.5396L44.592 170.381H20.1069Z" fill="#2F2F2F"/>
<path d="M50.542 222.792L20.1069 170.381H15.0386L47.6098 226.919L50.542 222.792Z" fill="#2F2F2F"/>
<path d="M82.4131 0H80.9621L57.0413 40.7828L72.9263 69.0544L79.5464 57.769L64.155 31.2682L82.4131 0Z" fill="#616161"/>
<path d="M72.8004 69.2663L72.8911 69.1099H72.7097L72.8004 69.2663Z" fill="#616161"/>
<path d="M87.2899 40.3593C87.2899 38.7615 87.9206 37.2285 89.0446 36.0945C90.1686 34.9605 91.6947 34.3174 93.2903 34.3054L95.0889 31.2432H64.155L79.5464 57.7439L87.2899 44.5415V40.3593Z" fill="#616161"/>
<path d="M95.0889 31.2682L113.428 0H82.4131L64.155 31.2682H95.0889Z" fill="#616161"/>
<path d="M51.1919 31.3439H51.736L57.0411 40.7829L80.9619 0H69.3945L51.1919 31.3439Z" fill="#616161"/>
<path d="M40.4609 69.0543L40.4912 69.1098H72.7097L56.6785 41.4033L40.4609 69.0543Z" fill="#333333"/>
<path d="M72.9572 69.1103L72.9267 69.0542L72.8911 69.1103H72.9572Z" fill="#333333"/>
<path d="M51.192 31.3438H51.1013H19.2656L40.4609 69.0543L56.6785 41.4032L51.0257 31.6313L51.192 31.3438Z" fill="#333333"/>
<path d="M18.7216 31.3438H18.6309H6.50928L28.4401 69.1098H40.2393L18.5553 31.6313L18.7216 31.3438Z" fill="#333333"/>
<path d="M40.4255 69.1103H40.4916L40.4611 69.0542L40.4255 69.1103Z" fill="#333333"/>
<path d="M19.2655 31.3438H18.7214L18.5552 31.6313L40.2391 69.1098H40.4255L40.4608 69.0543L19.2655 31.3438Z" fill="#333333"/>
<path d="M56.6785 41.4032L72.7097 69.1097H72.891L72.9263 69.0542L57.0412 40.7827L56.6785 41.4032Z" fill="#333333"/>
<path d="M51.1919 31.3438L51.0256 31.6313L56.6784 41.4032L57.0411 40.7827L51.736 31.3438H51.1919Z" fill="#333333"/>
<path d="M36.8889 0L18.6309 31.3439H18.7215L36.9242 0H36.8889Z" fill="#3D3D3D"/>
<path d="M69.3592 0H36.924L18.7214 31.3439H19.2655H51.1012L69.3592 0Z" fill="#3D3D3D"/>
<path d="M36.8889 0H24.8126L6.50928 31.3439H18.6309L36.8889 0Z" fill="#3D3D3D"/>
<path d="M209 331.222V281.126L188.687 316.597L202.289 339.753C204.202 339.292 205.904 338.199 207.121 336.652C208.339 335.104 209 333.192 209 331.222Z" fill="#616161"/>
<path d="M158.332 340H158.367L144.497 316.123L144.462 316.188L158.332 340Z" fill="#2F2F2F"/>
<path d="M166.257 278.356L188.681 316.597L209 281.131V269.119H171.577L166.257 278.356Z" fill="#2F2F2F"/>
<path d="M147.621 310.674L153.793 299.964C153.213 299.095 152.423 298.388 151.496 297.908C150.569 297.429 149.535 297.194 148.493 297.224C147.08 297.202 145.699 297.645 144.563 298.486L142.134 302.809C142.08 303.185 142.051 303.564 142.049 303.944C142.049 307.385 144.261 310.255 147.621 310.674Z" fill="#616161"/>
<path d="M148.493 295.817C149.653 295.787 150.806 296.017 151.866 296.491C152.926 296.965 153.867 297.671 154.619 298.556L166.257 278.377L160.962 269.352L145.848 296.261C146.7 295.972 147.593 295.822 148.493 295.817Z" fill="#616161"/>
<path d="M146.88 311.986C145.303 311.664 143.861 310.868 142.748 309.703C141.635 308.538 140.904 307.06 140.653 305.468L139.767 307.042H139.228L144.497 316.123L146.88 311.986Z" fill="#616161"/>
<path d="M160.836 269.119L160.74 269.276H160.927L160.836 269.119Z" fill="#616161"/>
<path d="M200.239 340C200.918 339.996 201.594 339.913 202.254 339.753L188.651 316.597L175.28 340H200.239Z" fill="#616161"/>
<path d="M156.468 303.964C156.468 308.459 153.193 312.157 148.493 312.157C147.951 312.152 147.411 312.095 146.88 311.986L144.497 316.122L158.367 340H175.28L188.686 316.597L166.262 278.356L154.624 298.536C155.861 300.07 156.515 301.993 156.468 303.964ZM158.201 310.018C158.333 309.766 158.534 309.556 158.78 309.413C159.047 309.267 159.346 309.191 159.649 309.191C159.953 309.191 160.252 309.267 160.518 309.413C160.765 309.556 160.965 309.766 161.098 310.018C161.234 310.285 161.304 310.581 161.304 310.881C161.304 311.181 161.234 311.476 161.098 311.744C160.965 311.996 160.765 312.206 160.518 312.349C160.252 312.495 159.953 312.571 159.649 312.571C159.346 312.571 159.047 312.495 158.78 312.349C158.534 312.206 158.333 311.996 158.201 311.744C158.065 311.476 157.994 311.181 157.994 310.881C157.994 310.581 158.065 310.285 158.201 310.018Z" fill="#616161"/>
<path d="M158.851 312.258C159.095 312.394 159.37 312.465 159.649 312.465C159.929 312.465 160.203 312.394 160.448 312.258C160.675 312.126 160.86 311.932 160.982 311.698C161.114 311.452 161.179 311.175 161.173 310.896C161.177 310.617 161.111 310.341 160.982 310.094C160.857 309.863 160.673 309.669 160.448 309.534C160.205 309.392 159.928 309.32 159.647 309.327C159.367 309.321 159.092 309.393 158.851 309.534C158.623 309.666 158.438 309.86 158.317 310.094C158.191 310.343 158.125 310.617 158.125 310.896C158.125 311.175 158.191 311.45 158.317 311.698C158.438 311.932 158.623 312.126 158.851 312.258ZM159.047 309.988H159.813C159.927 309.984 160.04 310.005 160.146 310.049C160.231 310.083 160.303 310.143 160.352 310.22C160.401 310.306 160.425 310.404 160.423 310.503C160.425 310.574 160.413 310.645 160.386 310.711C160.359 310.777 160.318 310.837 160.266 310.886C160.166 310.959 160.047 311.001 159.924 311.007L160.458 311.824H160.312L159.808 311.022H159.188V311.824H159.062L159.047 309.988Z" fill="#616161"/>
<path d="M148.493 310.73C152.347 310.73 154.936 307.662 154.936 303.964C154.961 302.549 154.569 301.157 153.808 299.964L147.621 310.674C147.91 310.711 148.201 310.73 148.493 310.73Z" fill="#616161"/>
<path d="M160.176 310.815C160.218 310.776 160.251 310.727 160.272 310.673C160.293 310.619 160.301 310.56 160.297 310.503C160.301 310.445 160.293 310.388 160.272 310.335C160.251 310.281 160.218 310.234 160.176 310.195C160.072 310.117 159.943 310.079 159.813 310.089H159.173V310.921H159.813C159.943 310.931 160.072 310.893 160.176 310.815Z" fill="#616161"/>
<path d="M160.993 269.276H160.927L160.962 269.332L160.993 269.276Z" fill="#333333"/>
<path d="M87.0229 292.644L92.9376 296.559C93.2039 296.729 93.4231 296.963 93.575 297.24C93.7269 297.518 93.8065 297.829 93.8065 298.145C93.8065 298.462 93.7269 298.773 93.575 299.05C93.4231 299.327 93.2039 299.562 92.9376 299.732L91.1945 300.897L92.5094 303.142L92.9477 303.435C93.2552 303.631 93.4984 303.914 93.647 304.247C93.7957 304.581 93.8433 304.951 93.784 305.312L94.7917 307.042H109.568L104.53 296.135V296.084H106.117L111.155 307.042H113.009L117.982 296.084H119.675L114.637 307.042H124.582V296.084H126.093V307.042H133.061V296.084H134.572V307.042H139.197L139.031 306.749L140.497 304.227C140.497 304.141 140.497 304.06 140.497 303.98C140.497 300.635 142.22 297.901 144.911 296.624L160.725 269.291H86.0909L79.3953 280.814L86.1564 292.296C86.4694 292.339 86.767 292.458 87.0229 292.644Z" fill="#333333"/>
<path d="M142.135 302.829L144.563 298.506C143.892 299.029 143.331 299.681 142.914 300.423C142.497 301.165 142.232 301.983 142.135 302.829Z" fill="#333333"/>
<path d="M145.838 296.241L160.952 269.331L160.917 269.276H160.735L144.921 296.609C145.217 296.465 145.524 296.342 145.838 296.241Z" fill="#333333"/>
<path d="M140.653 305.468C140.583 305.052 140.541 304.633 140.527 304.211L139.061 306.734L139.228 307.026H139.767L140.653 305.468Z" fill="#333333"/>
<path d="M112.052 309.196C112.299 308.488 112.599 307.8 112.949 307.138L112.994 307.042H111.14L111.211 307.188C111.578 308.036 111.851 308.616 112.052 309.196Z" fill="#3D3D3D"/>
<path d="M130.743 340L144.462 316.188L139.132 307.042H134.603V311.845H133.071V307.042H126.098V311.845H124.567V307.042H114.622L112.37 311.951H111.841L109.563 307.042H94.7866L114.118 340H130.743Z" fill="#3D3D3D"/>
<path d="M144.462 316.188L130.743 340H158.332L144.462 316.188Z" fill="#3D3D3D"/>
<path d="M51.1013 307.48L70.0445 340H70.0748L51.192 307.48H51.1013Z" fill="#616161"/>
<path d="M40.3299 269.558L40.2393 269.714H40.4257L40.3299 269.558Z" fill="#616161"/>
<path d="M6.50921 307.481L28.44 269.715H0V307.481H6.50921Z" fill="#404040"/>
<path d="M0.00512695 307.48V331.222C0.00512695 333.55 0.928715 335.783 2.57271 337.429C4.2167 339.075 6.44644 340 8.7714 340H25.4979L6.5093 307.48H0.00512695Z" fill="#2C2C2C"/>
<path d="M72.8004 269.558L72.7097 269.714H72.8911L72.8004 269.558Z" fill="#616161"/>
<path d="M60.1699 303.379L61.5151 302.481L65.3289 305.004L66.0746 303.717L60.0893 299.772C59.8211 299.597 59.6008 299.358 59.4482 299.076C59.2957 298.794 59.2158 298.478 59.2158 298.158C59.2158 297.837 59.2957 297.522 59.4482 297.24C59.6008 296.958 59.8211 296.719 60.0893 296.543L66.004 292.644C66.3439 292.404 66.7495 292.275 67.1653 292.275C67.5811 292.275 67.9868 292.404 68.3266 292.644L71.3494 294.662L79.4104 280.808L72.9415 269.78L57.0564 298.032L60.1699 303.379Z" fill="#616161"/>
<path d="M63.3792 308.848L81.6523 340H83.4005L66.3718 310.84L63.3792 308.848Z" fill="#616161"/>
<path d="M92.9376 306.658L92.3633 307.042H94.7866L93.779 305.312C93.7412 305.583 93.6467 305.843 93.5017 306.075C93.3568 306.307 93.1645 306.506 92.9376 306.658Z" fill="#616161"/>
<path d="M84.6499 307.042L91.5068 302.481L92.4993 303.142L91.1843 300.897L81.9243 307.042H84.6499Z" fill="#616161"/>
<path d="M71.0824 307.042L66.0745 303.732L65.3289 305.019L68.3719 307.042H71.0824Z" fill="#616161"/>
<path d="M75.3496 297.3C75.6873 297.546 76.0958 297.676 76.5134 297.669C76.9257 297.652 77.3259 297.525 77.6721 297.3L84.6952 292.644C85.033 292.398 85.4415 292.269 85.859 292.276C85.9513 292.27 86.0438 292.27 86.1361 292.276L79.3952 280.778L71.3342 294.632L75.3496 297.3Z" fill="#616161"/>
<path d="M76.5134 311.048C77.8834 311.044 79.2226 310.641 80.3675 309.887L84.6499 307.042H81.9243L79.4707 308.671C78.5928 309.252 77.5653 309.564 76.5134 309.569C75.4625 309.557 74.4368 309.246 73.556 308.671L71.0823 307.042H68.3718L72.6592 309.887C73.8073 310.634 75.1445 311.036 76.5134 311.048Z" fill="#616161"/>
<path d="M78.4683 316.284C77.8893 316.67 77.2092 316.876 76.5135 316.876C75.8178 316.876 75.1377 316.67 74.5587 316.284L66.3718 310.846L83.4006 340.005H114.133L94.8018 307.047H92.3784L78.4683 316.284Z" fill="#616161"/>
<path d="M51.1919 307.481L70.0797 340H81.6673L63.379 308.828L60.0892 306.638C59.8209 306.464 59.6005 306.225 59.4479 305.943C59.2953 305.662 59.2153 305.347 59.2153 305.026C59.2153 304.706 59.2953 304.391 59.4479 304.109C59.6005 303.828 59.8209 303.589 60.0892 303.414L60.1698 303.359L57.0411 298.021L51.736 307.46L51.1919 307.481Z" fill="#616161"/>
<path d="M72.9572 269.715H72.8911L72.9267 269.776L72.9572 269.715Z" fill="#333333"/>
<path d="M56.6785 297.421L72.7097 269.715H40.4912L40.4609 269.775L56.6785 297.421Z" fill="#333333"/>
<path d="M51.192 307.481L51.0257 307.193L56.6785 297.421L40.4609 269.775L19.2656 307.481H51.1013H51.192Z" fill="#333333"/>
<path d="M18.6309 307.481H18.7216L18.5553 307.193L40.2393 269.715H28.4401L6.50928 307.481H18.6309Z" fill="#333333"/>
<path d="M40.4916 269.715H40.4255L40.4611 269.776L40.4916 269.715Z" fill="#333333"/>
<path d="M18.7214 307.481H19.2655L40.4608 269.775L40.4255 269.715H40.2391L18.5552 307.193L18.7214 307.481Z" fill="#333333"/>
<path d="M57.0412 298.042L72.9263 269.775L72.891 269.715H72.7097L56.6785 297.421L57.0412 298.042Z" fill="#333333"/>
<path d="M51.1919 307.481H51.736L57.0411 298.042L56.6784 297.421L51.0256 307.193L51.1919 307.481Z" fill="#333333"/>
<path d="M37.6093 340L18.7215 307.48H18.6309L37.5741 340H37.6093Z" fill="#3D3D3D"/>
<path d="M70.0444 340L51.1012 307.48H19.2655H18.7214L37.6092 340H70.0444Z" fill="#3D3D3D"/>
<path d="M18.6309 307.48H6.50928L25.4978 340H37.5741L18.6309 307.48Z" fill="#3D3D3D"/>
<path d="M121.715 64.7159V50.8374L114.783 57.7741L121.715 64.7159Z" fill="#EFC241"/>
<path d="M110.465 80.577H115.7C117.293 80.5691 118.82 79.9312 119.946 78.8022C121.073 77.6732 121.709 76.1444 121.715 74.5484V69.0293H110.465V80.577Z" fill="#EFC241"/>
<path d="M113.866 58.2733H111.966C111.667 58.2733 111.371 58.2143 111.095 58.0997C110.819 57.9851 110.568 57.8172 110.356 57.6054C110.145 57.3937 109.977 57.1423 109.863 56.8657C109.748 56.589 109.689 56.2925 109.689 55.993V51.4526H98.7163V63.2123H107.407C108.219 63.2136 108.996 63.5373 109.57 64.1124C110.143 64.6875 110.465 65.4669 110.465 66.2796V69.0391H121.715V66.1383L113.866 58.2733Z" fill="#EFC241"/>
<path d="M109.468 69.0293H98.7163V80.577H109.468V69.0293Z" fill="#EFC241"/>
<path d="M107.407 64.2061H98.7163V69.029H109.468V66.2694C109.468 65.7222 109.25 65.1974 108.864 64.8104C108.478 64.4234 107.954 64.2061 107.407 64.2061Z" fill="#EFC241"/>
<path d="M109.694 34.3306H98.7163V50.4389H109.694V34.3306Z" fill="#EFC241"/>
<path d="M87.2849 63.6262L93.3155 57.4563L87.2849 51.1553V63.6262Z" fill="#EFC241"/>
<path d="M115.7 34.3306H110.692V55.9933C110.692 56.3332 110.827 56.6591 111.067 56.8994C111.307 57.1397 111.632 57.2747 111.972 57.2747H113.866L121.71 49.4198V40.339C121.698 38.7474 121.061 37.2245 119.936 36.1C118.811 34.9755 117.289 34.3398 115.7 34.3306Z" fill="#EFC241"/>
<path d="M87.2898 74.5484C87.2891 75.3398 87.4442 76.1237 87.7463 76.8551C88.0483 77.5865 88.4913 78.2511 89.0499 78.811C89.6086 79.3709 90.2719 79.815 91.0021 80.118C91.7322 80.4211 92.5149 80.577 93.3053 80.577H97.7136V69.0293H87.2898V74.5484Z" fill="#EFC241"/>
<path d="M94.2224 57.9604L87.2849 65.0536V69.0289H97.7138V57.9604H94.2224Z" fill="#EFC241"/>
<path d="M87.2899 49.7074L94.2172 56.9569H97.7036V34.3306H93.2802L87.2798 44.5666L87.2899 49.7074Z" fill="#EFC241"/>
<path d="M87.2898 40.3592V44.5666L93.2902 34.3306C91.699 34.3425 90.1766 34.9821 89.0533 36.1107C87.93 37.2393 87.2964 38.7658 87.2898 40.3592Z" fill="#EFC241"/>
<path d="M106.087 296.084H104.5V296.135L109.563 307.042H111.14L106.087 296.084Z" fill="white"/>
<path d="M119.654 296.084H117.967L112.994 307.042H114.621L119.654 296.084Z" fill="white"/>
<path d="M112.354 311.945L114.611 307.042H112.979L112.934 307.138C112.584 307.8 112.284 308.488 112.037 309.196C111.825 308.616 111.563 308.036 111.196 307.178L111.125 307.032H109.548L111.825 311.935L112.354 311.945Z" fill="white"/>
<path d="M126.098 296.084H124.567V307.042H126.098V296.084Z" fill="white"/>
<path d="M126.098 307.042H124.567V311.845H126.098V307.042Z" fill="white"/>
<path d="M134.603 296.084H133.071V307.042H134.603V296.084Z" fill="white"/>
<path d="M134.603 307.042H133.071V311.845H134.603V307.042Z" fill="white"/>
<path d="M148.493 297.224C149.536 297.189 150.572 297.42 151.501 297.896C152.431 298.371 153.225 299.076 153.808 299.943L154.619 298.536C153.867 297.65 152.926 296.945 151.866 296.471C150.806 295.997 149.653 295.766 148.493 295.797C147.591 295.794 146.694 295.937 145.838 296.22L144.563 298.485C145.7 297.645 147.08 297.202 148.493 297.224Z" fill="white"/>
<path d="M142.049 303.964C142.051 303.584 142.08 303.205 142.135 302.829L140.653 305.468C140.904 307.06 141.635 308.538 142.748 309.702C143.861 310.867 145.303 311.664 146.88 311.986L147.636 310.674C144.261 310.255 142.049 307.385 142.049 303.964Z" fill="white"/>
<path d="M154.936 303.964C154.936 307.662 152.347 310.729 148.493 310.729C148.206 310.729 147.92 310.71 147.636 310.674L146.88 311.986C147.411 312.095 147.951 312.152 148.493 312.157C153.193 312.157 156.468 308.459 156.468 303.964C156.508 302 155.853 300.084 154.619 298.556L153.808 299.964C154.569 301.157 154.961 302.549 154.936 303.964Z" fill="white"/>
<path d="M140.517 303.964C140.517 304.045 140.517 304.126 140.517 304.212L144.921 296.609C142.24 297.885 140.517 300.62 140.517 303.964Z" fill="white"/>
<path d="M142.134 302.829C142.232 301.983 142.497 301.165 142.914 300.423C143.331 299.681 143.892 299.029 144.563 298.506L145.837 296.241C145.527 296.342 145.224 296.466 144.931 296.609L140.527 304.212C140.541 304.633 140.583 305.052 140.653 305.468L142.134 302.829Z" fill="white"/>
<path d="M158.78 312.359C159.047 312.505 159.346 312.581 159.649 312.581C159.953 312.581 160.252 312.505 160.519 312.359C160.765 312.216 160.966 312.006 161.098 311.753C161.234 311.486 161.305 311.191 161.305 310.891C161.305 310.591 161.234 310.295 161.098 310.028C160.966 309.776 160.765 309.566 160.519 309.423C160.252 309.277 159.953 309.201 159.649 309.201C159.346 309.201 159.047 309.277 158.78 309.423C158.534 309.566 158.333 309.776 158.201 310.028C158.065 310.295 157.994 310.591 157.994 310.891C157.994 311.191 158.065 311.486 158.201 311.753C158.333 312.006 158.534 312.216 158.78 312.359ZM158.317 310.089C158.438 309.855 158.624 309.661 158.851 309.529C159.092 309.387 159.368 309.316 159.647 309.322C159.928 309.315 160.205 309.387 160.448 309.529C160.673 309.664 160.857 309.857 160.982 310.089C161.111 310.336 161.177 310.612 161.173 310.891C161.18 311.17 161.114 311.447 160.982 311.693C160.86 311.926 160.675 312.121 160.448 312.253C160.204 312.389 159.929 312.46 159.649 312.46C159.37 312.46 159.095 312.389 158.851 312.253C158.624 312.121 158.438 311.926 158.317 311.693C158.191 311.444 158.126 311.17 158.126 310.891C158.126 310.612 158.191 310.337 158.317 310.089Z" fill="white"/>
<path d="M159.773 310.987V311.022C159.81 311.025 159.847 311.025 159.884 311.022L159.838 310.957L159.773 310.987Z" fill="white"/>
<path d="M159.173 311.022H159.793V310.987L159.899 310.941L159.944 311.007C160.068 311.001 160.187 310.959 160.287 310.886C160.338 310.837 160.379 310.777 160.406 310.711C160.433 310.645 160.446 310.574 160.443 310.502C160.446 310.403 160.421 310.306 160.372 310.22C160.323 310.142 160.251 310.082 160.166 310.048C160.061 310.005 159.947 309.984 159.833 309.988H159.068V311.824H159.194L159.173 311.022ZM159.173 310.089H159.813C159.943 310.079 160.072 310.117 160.176 310.195C160.218 310.233 160.251 310.281 160.272 310.335C160.293 310.388 160.301 310.445 160.297 310.502C160.301 310.56 160.293 310.618 160.272 310.672C160.251 310.727 160.218 310.775 160.176 310.815C160.072 310.893 159.943 310.931 159.813 310.921H159.173V310.089Z" fill="white"/>
<path d="M159.793 311.022L160.297 311.824H160.443L159.909 311.007C159.872 311.009 159.835 311.009 159.798 311.007L159.793 311.022Z" fill="white"/>
<path d="M92.9376 299.747C93.2039 299.577 93.4232 299.342 93.575 299.065C93.7269 298.788 93.8065 298.476 93.8065 298.16C93.8065 297.844 93.7269 297.533 93.575 297.255C93.4232 296.978 93.2039 296.744 92.9376 296.573L87.0229 292.659C86.7612 292.47 86.4563 292.35 86.1362 292.311L91.1743 300.887L92.9376 299.747Z" fill="white"/>
<path d="M68.3266 292.644C67.9867 292.404 67.5811 292.275 67.1653 292.275C66.7495 292.275 66.3438 292.404 66.004 292.644L60.0893 296.558C59.8211 296.734 59.6007 296.973 59.4482 297.255C59.2957 297.537 59.2158 297.852 59.2158 298.173C59.2158 298.493 59.2957 298.809 59.4482 299.091C59.6007 299.373 59.8211 299.612 60.0893 299.787L66.0745 303.732L71.3494 294.652L68.3266 292.644Z" fill="white"/>
<path d="M81.9244 307.042L91.1945 300.897L86.1564 292.321C86.0641 292.316 85.9716 292.316 85.8793 292.321C85.4617 292.314 85.0533 292.443 84.7155 292.689L77.6924 297.345C77.3462 297.57 76.9459 297.697 76.5336 297.714C76.1161 297.721 75.7076 297.591 75.3698 297.345L71.3696 294.697L66.0947 303.778L71.1026 307.087L81.9244 307.042Z" fill="white"/>
<path d="M76.5133 309.569C77.5652 309.564 78.5928 309.252 79.4707 308.671L81.9242 307.042H71.0823L73.556 308.671C74.4368 309.246 75.4625 309.557 76.5133 309.569Z" fill="white"/>
<path d="M92.9376 303.435L92.4993 303.142L93.7739 305.311C93.8332 304.951 93.7855 304.581 93.6369 304.247C93.4882 303.914 93.2451 303.631 92.9376 303.435Z" fill="white"/>
<path d="M66.3718 310.84L64.155 307.042L65.3289 305.019L61.5151 302.481L60.1699 303.379L63.3792 308.848L66.3718 310.84Z" fill="white"/>
<path d="M84.645 307.042H92.3583L92.9327 306.658C93.1587 306.505 93.3499 306.306 93.494 306.074C93.6381 305.842 93.7318 305.582 93.769 305.311L92.4944 303.142L91.4867 302.481L84.645 307.042Z" fill="white"/>
<path d="M68.3719 307.042L65.3289 305.019L64.155 307.042H68.3719Z" fill="white"/>
<path d="M78.4681 316.284L92.3632 307.042H84.6448L80.3625 309.887C79.2175 310.641 77.8783 311.044 76.5083 311.048C75.1395 311.036 73.8023 310.634 72.6542 309.887L68.3668 307.042H64.1499L66.3667 310.841L74.5687 316.284C75.1466 316.668 75.8248 316.873 76.5184 316.873C77.212 316.873 77.8902 316.668 78.4681 316.284Z" fill="white"/>
<path d="M60.0891 306.659L63.379 308.848L60.1698 303.379L60.0891 303.435C59.8209 303.609 59.6005 303.848 59.4479 304.13C59.2953 304.411 59.2153 304.726 59.2153 305.047C59.2153 305.367 59.2953 305.682 59.4479 305.964C59.6005 306.245 59.8209 306.484 60.0891 306.659Z" fill="white"/>
</g>
<defs>
<clipPath id="clip0_980_6746">
<rect width="209" height="340" fill="white"/>
</clipPath>
</defs>
</svg>
