<svg width="160" height="266" viewBox="0 0 160 266" fill="none" xmlns="http://www.w3.org/2000/svg">
<g clip-path="url(#clip0_753_6908)">
<path d="M32.9917 114.438C44.2891 114.438 53.4475 105.231 53.4475 93.8735C53.4475 82.516 44.2891 73.309 32.9917 73.309C21.6943 73.309 12.5359 82.516 12.5359 93.8735C12.5359 105.231 21.6943 114.438 32.9917 114.438Z" fill="#E06C71"/>
<path d="M32.9916 114.527C28.9284 114.527 24.9564 113.315 21.5779 111.046C18.1995 108.777 15.5663 105.551 14.0113 101.777C12.4564 98.0033 12.0496 93.8506 12.8423 89.8442C13.635 85.8379 15.5916 82.1578 18.4648 79.2694C21.3379 76.381 24.9985 74.414 28.9837 73.6171C32.9688 72.8202 37.0996 73.2292 40.8535 74.7924C44.6075 76.3556 47.816 79.0027 50.0734 82.3992C52.3308 85.7956 53.5357 89.7887 53.5357 93.8735C53.5297 99.3492 51.3632 104.599 47.5118 108.471C43.6603 112.343 38.4384 114.521 32.9916 114.527ZM32.9916 73.3978C28.9633 73.3978 25.0255 74.5986 21.676 76.8485C18.3266 79.0984 15.7161 82.2963 14.1745 86.0378C12.6329 89.7792 12.2296 93.8962 13.0155 97.8681C13.8014 101.84 15.7412 105.488 18.5896 108.352C21.4381 111.216 25.0672 113.166 29.0181 113.956C32.969 114.746 37.0643 114.34 40.7859 112.791C44.5076 111.241 47.6886 108.616 49.9266 105.249C52.1646 101.882 53.3591 97.9232 53.3591 93.8735C53.3531 88.4449 51.2053 83.2403 47.3869 79.4017C43.5686 75.5631 38.3916 73.4039 32.9916 73.3978Z" fill="#272425"/>
<path d="M159.566 105.319L159.329 105.643L148.709 120.225C153.24 114.012 148.857 105.24 141.188 105.184L159.566 105.319Z" fill="#272425"/>
<path d="M148.887 120.357L148.534 120.094C149.534 118.722 150.138 117.1 150.279 115.405C150.42 113.711 150.092 112.01 149.332 110.491C148.573 108.971 147.41 107.693 145.974 106.795C144.537 105.898 142.881 105.417 141.19 105.406V104.96L160 105.098L148.891 120.353L148.887 120.357ZM144.135 105.429C146.563 106.244 148.572 107.993 149.722 110.292C150.871 112.592 151.069 115.255 150.272 117.701L159.131 105.539L144.135 105.429Z" fill="#272425"/>
<path d="M148.709 120.225L124.955 152.842L95.4646 193.33C86.9521 191.352 78.074 191.637 69.7041 194.156L81.9928 161.136H0.637451L54.1715 90.2662L121.32 1.3634L87.2639 91.4272L82.2259 104.742H82.828L105.973 104.919L141.188 105.178C148.857 105.24 153.24 114.005 148.709 120.225Z" fill="#C6C5C2"/>
<path d="M69.4021 194.447L81.7279 161.324H0.266602L0.49087 161.028L54.0249 90.1543L121.953 0.230782L82.4925 104.566H82.8298L105.975 104.743L141.19 105.003C142.955 105.016 144.683 105.519 146.183 106.456C147.682 107.393 148.895 108.728 149.688 110.314C150.481 111.9 150.823 113.675 150.676 115.444C150.53 117.213 149.9 118.907 148.857 120.339L125.105 152.952L95.5458 193.538L95.4275 193.511C86.945 191.538 78.0974 191.821 69.757 194.333L69.4021 194.447ZM1.00827 160.958H82.2576L70.006 193.88C78.2662 191.46 87.0042 191.2 95.3922 193.126L124.808 152.735L148.561 120.119C149.563 118.741 150.168 117.113 150.309 115.412C150.449 113.711 150.12 112.004 149.358 110.479C148.595 108.954 147.429 107.67 145.987 106.769C144.545 105.868 142.884 105.385 141.186 105.372L105.971 105.109L81.9557 104.932L120.69 2.49955L54.3198 90.378L1.00827 160.958Z" fill="#272425"/>
<path d="M103.755 104.908L81.991 161.14H0.635742L54.1716 90.2662L87.2639 91.4254L82.2259 104.749L82.8263 104.752L103.755 104.908Z" fill="#5793B7"/>
<path d="M82.1446 161.361H0.190674L0.460851 161.006L54.0638 90.0407L87.5817 91.2141L82.5472 104.529L104.08 104.688L82.1446 161.361ZM1.09127 160.916H81.8409L103.434 105.129L81.9062 104.969L86.946 91.6384L54.2774 90.4934L1.09127 160.916Z" fill="#272425"/>
<path d="M52.2008 161.136C52.2008 161.136 75.1571 160.69 90.167 104.951H71.1821L0.637451 161.136H52.2008Z" fill="black"/>
<path d="M52.2008 161.361H0L71.1062 104.731H90.4584L90.3824 105.011C86.9549 117.742 82.8227 128.622 78.1008 137.353C74.3166 144.347 70.1544 149.986 65.7062 154.113C58.1129 161.168 52.4392 161.36 52.2008 161.363V161.361ZM1.27672 160.916H52.2008C52.3262 160.916 58.0282 160.669 65.4572 153.742C72.3441 147.319 82.1711 133.682 89.8862 105.175H71.2598L1.27672 160.916Z" fill="#272425"/>
<path d="M99.0087 60.371L82.2329 104.752C82.2329 104.752 64.0921 134.507 50.8711 145.677C36.1914 158.079 19.5322 161.136 1.46035 161.136H0.637451L12.603 145.295L121.32 1.3634L99.0087 60.371Z" fill="#F6ECDE"/>
<path d="M1.46033 161.361H0.190674L12.4281 145.164L122.074 0L82.4148 104.86C82.2382 105.157 64.1116 134.779 51.0141 145.842C44.0601 151.716 36.368 155.784 27.4945 158.269C19.9772 160.38 11.7041 161.361 1.46033 161.361ZM1.0842 160.916H1.46033C15.9051 160.916 34.5598 159.165 50.728 145.507C63.6418 134.599 81.4965 105.516 82.0263 104.649L98.8021 60.2928L120.566 2.73211L12.7795 145.434L1.0842 160.916Z" fill="#272425"/>
<path d="M75.7098 130.957C75.7093 133.657 74.651 136.248 72.764 138.17C70.8771 140.091 68.3133 141.188 65.6276 141.224C62.9419 141.259 60.3505 140.229 58.4143 138.358C56.478 136.487 55.3528 133.924 55.2822 131.225C55.2822 131.136 55.2822 131.047 55.2822 130.957C55.2822 128.233 56.3585 125.621 58.2743 123.695C60.1901 121.769 62.7884 120.687 65.4978 120.687C68.2071 120.687 70.8055 121.769 72.7213 123.695C74.637 125.621 75.7133 128.233 75.7133 130.957H75.7098Z" fill="#F6ECDE"/>
<path d="M65.4943 141.443C62.7734 141.444 60.1597 140.377 58.2106 138.468C56.2616 136.56 55.1315 133.961 55.0615 131.227V131.205C55.0615 131.122 55.0615 131.037 55.0615 130.951C55.0612 128.876 55.6731 126.847 56.8198 125.121C57.9665 123.395 59.5966 122.05 61.5039 121.255C63.4112 120.461 65.5099 120.253 67.5348 120.657C69.5597 121.062 71.4198 122.061 72.8798 123.529C74.3397 124.996 75.334 126.866 75.7369 128.902C76.1398 130.937 75.9332 133.047 75.1432 134.965C74.3532 136.882 73.0154 138.521 71.2988 139.674C69.5823 140.828 67.5641 141.443 65.4996 141.443H65.4943ZM65.4943 120.903C62.8443 120.906 60.3037 121.966 58.43 123.85C56.5562 125.733 55.5023 128.287 55.4995 130.951C55.4995 131.033 55.4995 131.115 55.4995 131.196V131.214C55.5512 133.189 56.1811 135.105 57.3102 136.722C58.4394 138.339 60.0178 139.585 61.8479 140.305C63.6781 141.025 65.6787 141.186 67.5997 140.769C69.5206 140.352 71.2764 139.374 72.6476 137.959C74.0188 136.544 74.9445 134.753 75.3089 132.812C75.6732 130.871 75.46 128.864 74.696 127.044C73.932 125.224 72.6511 123.67 71.0135 122.578C69.3758 121.486 67.4542 120.903 65.489 120.903H65.4943Z" fill="#272425"/>
<path d="M148.709 120.225L124.955 152.842C118.723 149.638 113.465 144.805 109.736 138.85C106.007 132.895 103.944 126.04 103.764 119.006C103.764 118.665 103.747 118.322 103.747 117.981C103.742 113.534 104.492 109.118 105.965 104.924L141.179 105.184C148.857 105.24 153.24 114.005 148.709 120.225Z" fill="#A1CDE2"/>
<path d="M125.013 153.078L124.872 153.007C118.611 149.788 113.33 144.931 109.584 138.948C105.839 132.965 103.767 126.078 103.588 119.011C103.588 118.674 103.57 118.326 103.57 117.981C103.564 113.513 104.318 109.076 105.798 104.862L105.841 104.738L141.188 104.999C142.954 105.012 144.681 105.515 146.181 106.452C147.68 107.389 148.893 108.724 149.686 110.31C150.479 111.896 150.821 113.672 150.675 115.44C150.528 117.209 149.898 118.903 148.856 120.335L125.013 153.078ZM106.104 105.111C104.666 109.248 103.934 113.599 103.939 117.981C103.939 118.322 103.939 118.667 103.957 119C104.134 125.974 106.171 132.772 109.855 138.683C113.539 144.594 118.735 149.402 124.9 152.604L148.562 120.117C149.565 118.74 150.17 117.111 150.31 115.41C150.451 113.709 150.122 112.002 149.359 110.477C148.597 108.952 147.431 107.669 145.989 106.768C144.547 105.866 142.886 105.383 141.188 105.37L106.104 105.111Z" fill="#272425"/>
<path d="M75.157 134.275C74.381 136.553 72.8331 138.485 70.784 139.733C68.7349 140.981 66.3148 141.465 63.9466 141.101C61.5784 140.737 59.4127 139.548 57.828 137.742C56.2433 135.936 55.3403 133.627 55.2769 131.219C57.8656 130.225 62.252 130.199 69.6846 133.044C71.4398 133.719 73.2832 134.133 75.157 134.275Z" fill="#5793B7"/>
<path d="M65.4943 141.443C62.7734 141.444 60.1597 140.377 58.2106 138.468C56.2616 136.56 55.1315 133.961 55.0615 131.227V131.069L55.2063 131.012C58.4502 129.769 63.3523 130.378 69.773 132.837C71.5084 133.501 73.3301 133.911 75.1818 134.053L75.4679 134.074L75.3743 134.347C74.6702 136.419 73.3389 138.217 71.5671 139.489C69.7953 140.762 67.6718 141.445 65.4943 141.443ZM55.5101 131.374C55.6078 133.689 56.4988 135.9 58.0319 137.63C59.5651 139.361 61.6462 140.506 63.9228 140.87C66.1993 141.235 68.5312 140.798 70.5236 139.632C72.516 138.466 74.0462 136.644 74.8551 134.473C73.0603 134.309 71.2963 133.898 69.6123 133.252C63.3929 130.871 58.6498 130.247 55.5101 131.374Z" fill="#272425"/>
<path d="M95.4645 193.33L43.4138 264.811L69.7041 194.156C78.0751 191.634 86.9552 191.348 95.4698 193.325L95.4645 193.33Z" fill="#00415A"/>
<path d="M42.7729 266L69.5629 194.01L69.6495 193.983C78.0513 191.45 86.9648 191.163 95.5106 193.151L95.7825 193.213L95.6183 193.44L42.7729 266ZM69.8437 194.312L44.062 263.614L95.1557 193.446C86.7841 191.549 78.0683 191.846 69.8437 194.308V194.312Z" fill="#272425"/>
<path d="M121.319 1.36694L112.844 23.7759L99.0087 60.3709L12.5342 145.476L12.6013 145.299L79.9056 56.1938L121.319 1.36694Z" fill="#C6C5C2"/>
<path d="M12.0662 146.197L12.4564 145.187L79.7607 56.0819L121.953 0.230782L99.1729 60.4792L99.1446 60.5076L12.0662 146.197ZM120.694 2.5031L13.938 143.836L98.8515 60.268L112.675 23.7102L120.694 2.5031Z" fill="#272425"/>
<path d="M121.319 1.36694L112.844 23.7759L79.9055 56.1938L121.319 1.36694Z" fill="#00415A"/>
<path d="M80.0362 56.3269L79.7607 56.0819L121.953 0.230782L113.008 23.8789L112.98 23.9091L80.0362 56.3269ZM120.694 2.5031L81.5708 54.296L112.689 23.673L120.694 2.5031Z" fill="#272425"/>
<path d="M3.46283 6.60038C4.03144 6.60038 4.03144 5.71275 3.46283 5.71275C2.89422 5.71275 2.89422 6.60038 3.46283 6.60038Z" fill="#272425"/>
<path d="M127.148 128.194C131.275 128.194 134.621 124.831 134.621 120.682C134.621 116.532 131.275 113.169 127.148 113.169C123.02 113.169 119.675 116.532 119.675 120.682C119.675 124.831 123.02 128.194 127.148 128.194Z" fill="#F6ECDE"/>
<path d="M127.15 128.416C125.627 128.417 124.139 127.963 122.873 127.113C121.608 126.263 120.621 125.055 120.038 123.641C119.456 122.227 119.303 120.672 119.6 119.171C119.897 117.67 120.63 116.291 121.706 115.209C122.783 114.127 124.154 113.39 125.647 113.092C127.14 112.793 128.687 112.947 130.094 113.532C131.5 114.118 132.702 115.11 133.547 116.383C134.393 117.655 134.844 119.151 134.843 120.682C134.841 122.732 134.03 124.698 132.587 126.148C131.145 127.598 129.189 128.414 127.15 128.416ZM127.15 113.391C125.715 113.39 124.313 113.818 123.12 114.618C121.927 115.419 120.997 116.558 120.448 117.89C119.899 119.222 119.755 120.688 120.035 122.103C120.314 123.517 121.005 124.817 122.019 125.836C123.033 126.856 124.325 127.551 125.732 127.832C127.139 128.114 128.597 127.969 129.923 127.418C131.248 126.866 132.381 125.931 133.178 124.732C133.975 123.533 134.4 122.124 134.4 120.682C134.398 118.749 133.634 116.896 132.275 115.529C130.915 114.162 129.072 113.393 127.15 113.391Z" fill="#272425"/>
<path d="M124.856 108.15C122.875 110.144 120.278 111.401 117.493 111.713C114.707 112.025 111.898 111.374 109.53 109.867C108.75 109.379 108.028 108.803 107.379 108.15C106.231 106.996 105.321 105.626 104.699 104.118C104.078 102.611 103.758 100.995 103.758 99.3626C103.758 97.7306 104.078 96.1146 104.699 94.6068C105.321 93.099 106.231 91.7291 107.379 90.5751C108.527 89.4211 109.89 88.5057 111.389 87.8811C112.889 87.2566 114.497 86.9352 116.12 86.9352C117.743 86.9352 119.351 87.2566 120.851 87.8811C122.35 88.5057 123.713 89.4211 124.861 90.5751C125.386 91.096 125.859 91.6674 126.274 92.2811C127.927 94.6732 128.69 97.5734 128.431 100.474C128.172 103.375 126.906 106.092 124.856 108.15Z" fill="#5793B7"/>
<path d="M116.125 111.974C113.749 111.977 111.422 111.3 109.415 110.021C108.624 109.526 107.892 108.942 107.232 108.28C106.068 107.109 105.144 105.719 104.514 104.189C103.883 102.66 103.559 101.02 103.559 99.3643C103.559 97.7086 103.883 96.0691 104.514 94.5394C105.144 93.0097 106.068 91.6198 107.232 90.449C108.397 89.2782 109.78 88.3495 111.301 87.7159C112.823 87.0823 114.454 86.7562 116.101 86.7562C117.748 86.7562 119.378 87.0823 120.9 87.7159C122.422 88.3495 123.804 89.2782 124.969 90.449C125.501 90.9781 125.981 91.5584 126.401 92.1817C127.643 93.98 128.397 96.0726 128.59 98.2532C128.783 100.434 128.408 102.628 127.501 104.618C126.594 106.608 125.188 108.327 123.419 109.605C121.651 110.883 119.582 111.675 117.416 111.905C116.987 111.95 116.557 111.974 116.125 111.974ZM116.125 87.1328C113.718 87.1316 111.364 87.8484 109.361 89.1926C107.359 90.5368 105.798 92.4481 104.877 94.6843C103.955 96.9206 103.714 99.3814 104.185 101.755C104.655 104.129 105.815 106.31 107.518 108.02C108.159 108.662 108.87 109.229 109.638 109.71C114.389 112.75 120.738 112.038 124.736 108.02L124.866 108.15L124.736 108.02C126.759 105.997 128.007 103.321 128.261 100.464C128.514 97.6061 127.758 94.7501 126.124 92.3982C125.716 91.7943 125.251 91.2313 124.736 90.7171C123.606 89.5789 122.264 88.6763 120.786 88.0612C119.309 87.4461 117.725 87.1306 116.125 87.1328Z" fill="#272425"/>
<path d="M124.856 108.15C122.875 110.144 120.278 111.401 117.493 111.713C114.707 112.025 111.898 111.374 109.53 109.867C112.064 106.902 111.338 101.488 115.839 96.6943C119.853 92.4337 124.012 92.068 126.258 92.2793C127.913 94.6698 128.68 97.5693 128.424 100.471C128.167 103.372 126.904 106.09 124.856 108.15Z" fill="#231F20"/>
<path d="M104.926 199.796C104.081 200.647 103.003 201.228 101.829 201.463C100.655 201.699 99.4381 201.579 98.3321 201.118C97.2262 200.658 96.2811 199.878 95.6166 198.877C94.9521 197.876 94.5981 196.699 94.5994 195.496V175.626C94.5992 174.807 94.7635 173.997 95.0822 173.244C95.4009 172.491 95.8676 171.81 96.4543 171.243C97.041 170.675 97.7356 170.233 98.4965 169.942C99.2573 169.651 100.069 169.517 100.882 169.549C102.445 169.609 103.924 170.276 105.008 171.409C106.092 172.542 106.698 174.053 106.697 175.626V195.496C106.699 196.295 106.543 197.086 106.239 197.824C105.935 198.562 105.489 199.232 104.926 199.796Z" fill="#EBCB41"/>
<path d="M100.658 201.667H100.649C99.8429 201.668 99.0442 201.509 98.299 201.199C97.5537 200.89 96.8766 200.435 96.3064 199.862C95.7362 199.289 95.2841 198.608 94.976 197.859C94.668 197.11 94.51 196.307 94.5111 195.496V175.626C94.4973 174.806 94.6459 173.993 94.9481 173.232C95.2503 172.471 95.7002 171.779 96.2714 171.195C96.8427 170.611 97.5239 170.147 98.2754 169.83C99.0269 169.513 99.8336 169.35 100.648 169.35C101.463 169.35 102.27 169.513 103.021 169.83C103.773 170.147 104.454 170.611 105.025 171.195C105.597 171.779 106.047 172.471 106.349 173.232C106.651 173.993 106.8 174.806 106.786 175.626V195.496C106.788 196.306 106.63 197.109 106.321 197.858C106.013 198.607 105.56 199.286 104.988 199.858C104.421 200.432 103.746 200.887 103.003 201.198C102.26 201.508 101.463 201.668 100.658 201.667ZM100.642 169.632C99.0622 169.634 97.5474 170.266 96.4308 171.39C95.3142 172.514 94.6873 174.037 94.6877 175.626V195.496C94.6879 196.681 95.0376 197.84 95.6927 198.825C96.3477 199.811 97.2788 200.579 98.368 201.032C99.4573 201.486 100.656 201.605 101.812 201.373C102.968 201.142 104.031 200.571 104.864 199.733C105.419 199.178 105.859 198.517 106.158 197.79C106.457 197.063 106.611 196.283 106.609 195.496V175.626C106.614 174.075 106.019 172.583 104.95 171.465C103.88 170.348 102.42 169.692 100.879 169.638L100.642 169.632Z" fill="#272425"/>
<path d="M104.919 216.985C103.944 217.968 102.665 218.587 101.293 218.741C99.9214 218.894 98.5382 218.574 97.3717 217.832C96.987 217.592 96.6314 217.308 96.3122 216.985C95.1711 215.838 94.5301 214.282 94.5303 212.659C94.5304 211.037 95.1717 209.481 96.3131 208.334C97.4544 207.187 99.0023 206.542 100.616 206.542C102.23 206.542 103.778 207.187 104.919 208.335C105.177 208.591 105.409 208.872 105.611 209.174C106.425 210.351 106.801 211.778 106.675 213.206C106.548 214.634 105.927 215.971 104.919 216.985Z" fill="#A1CDE2"/>
<path d="M100.602 218.954C99.5718 218.952 98.5585 218.694 97.6513 218.204C96.7441 217.714 95.9711 217.007 95.4005 216.145C94.83 215.283 94.4796 214.293 94.3803 213.263C94.281 212.232 94.4359 211.193 94.8312 210.237C95.2266 209.281 95.8502 208.438 96.647 207.782C97.4437 207.126 98.389 206.678 99.3992 206.477C100.409 206.276 101.453 206.328 102.439 206.629C103.424 206.93 104.32 207.471 105.048 208.203C105.315 208.468 105.555 208.759 105.765 209.071C106.607 210.283 106.996 211.754 106.865 213.225C106.734 214.697 106.091 216.075 105.048 217.117C104.463 217.701 103.77 218.165 103.007 218.48C102.244 218.795 101.426 218.956 100.602 218.954ZM100.616 206.728C99.45 206.729 98.3107 207.077 97.3417 207.728C96.3726 208.38 95.6172 209.305 95.1708 210.388C94.7244 211.47 94.607 212.661 94.8334 213.811C95.0598 214.961 95.6199 216.017 96.443 216.847C96.7527 217.158 97.0969 217.433 97.4689 217.665C98.6018 218.379 99.9416 218.687 101.271 218.538C102.599 218.39 103.839 217.794 104.788 216.847C105.77 215.866 106.375 214.568 106.498 213.183C106.622 211.797 106.254 210.412 105.461 209.272C105.265 208.978 105.039 208.704 104.788 208.455C104.241 207.904 103.59 207.468 102.874 207.172C102.158 206.875 101.39 206.724 100.616 206.728Z" fill="#272425"/>
<path d="M104.919 216.985C103.944 217.968 102.665 218.587 101.293 218.741C99.9215 218.894 98.5384 218.574 97.3718 217.832C98.6079 216.371 98.2548 213.708 100.478 211.347C102.456 209.251 104.504 209.069 105.611 209.174C106.425 210.351 106.802 211.778 106.675 213.206C106.549 214.634 105.927 215.971 104.919 216.985Z" fill="#231F20"/>
</g>
<defs>
<clipPath id="clip0_753_6908">
<rect width="160" height="266" fill="white"/>
</clipPath>
</defs>
</svg>
