<svg width="196" height="247" viewBox="0 0 196 247" fill="none" xmlns="http://www.w3.org/2000/svg">
<g clip-path="url(#clip0_753_6944)">
<path d="M79.038 37.9041C89.4362 37.9041 97.8657 29.4706 97.8657 19.0674C97.8657 8.66421 89.4362 0.230743 79.038 0.230743C68.6399 0.230743 60.2104 8.66421 60.2104 19.0674C60.2104 29.4706 68.6399 37.9041 79.038 37.9041Z" fill="#A1CDE2"/>
<path d="M79.0381 38.137C75.2678 38.1388 71.5817 37.0218 68.446 34.9274C65.3103 32.833 62.8659 29.8552 61.422 26.3707C59.978 22.8862 59.5995 19.0515 60.3341 15.3517C61.0687 11.6519 62.8836 8.25324 65.5491 5.5855C68.2146 2.91777 71.611 1.10085 75.3088 0.364577C79.0065 -0.371698 82.8395 0.00574548 86.3228 1.44916C89.8061 2.89257 92.7833 5.33712 94.8779 8.47358C96.9724 11.6101 98.0901 15.2975 98.0897 19.0696C98.0861 24.1244 96.078 28.9712 92.5061 32.5461C88.9342 36.121 84.0904 38.1317 79.0381 38.137ZM79.0381 0.463703C75.3599 0.463264 71.7641 1.55411 68.7055 3.59829C65.647 5.64247 63.263 8.54817 61.8551 11.9479C60.4472 15.3477 60.0786 19.0888 60.796 22.6981C61.5133 26.3075 63.2843 29.6229 65.885 32.2252C68.4858 34.8275 71.7994 36.5998 75.407 37.3179C79.0145 38.036 82.7538 37.6677 86.1521 36.2595C89.5504 34.8513 92.455 32.4665 94.4985 29.4068C96.5421 26.347 97.6328 22.7496 97.6328 19.0696C97.6246 14.1379 95.663 9.41055 92.1776 5.92311C88.6923 2.43566 83.9674 0.472502 79.0381 0.463703Z" fill="#272425"/>
<path d="M44.665 104.201L44.3656 104.187C41.2131 104.044 38.0851 103.562 35.0361 102.747C32.5636 102.091 30.1511 101.226 27.8244 100.163L57.2212 70.6963C57.766 70.2673 58.2844 69.8057 58.7735 69.3141C59.2406 68.8432 59.6797 68.3453 60.0886 67.8231C62.3639 64.9351 63.5985 61.3633 63.5924 57.6859V57.5905C63.5924 57.1468 63.5702 56.7186 63.5325 56.2881C63.5148 56.0552 63.4904 55.8244 63.4615 55.5937C62.9846 51.9163 61.3026 48.5008 58.6788 45.8817C56.0549 43.2626 52.6372 41.5877 48.9605 41.119C48.7388 41.0879 48.4993 41.0657 48.2642 41.0458C47.8207 41.0058 47.3771 40.9881 46.9114 40.9881C43.1088 40.975 39.4175 42.2716 36.4576 44.66C35.9774 45.0461 35.5184 45.4579 35.0827 45.8936C34.6779 46.2964 34.2952 46.7208 33.9361 47.1649C33.9029 47.2026 33.874 47.2425 33.843 47.2825L4.4063 76.791C3.43707 74.6735 2.63193 72.4846 1.99797 70.2437C1.55833 68.6895 1.20299 67.1127 0.93351 65.5201C0.880287 65.2073 0.83149 64.8922 0.784919 64.5772C0.448505 62.2933 0.279522 59.9878 0.279309 57.6793C0.274748 51.324 1.57056 45.0351 4.08696 39.1998L4.26659 38.7916C6.29279 34.2181 9.04324 30.0017 12.4119 26.3048C13.4468 25.1644 14.5312 24.0839 15.6652 23.0633C18.3716 20.6174 21.3563 18.4988 24.5578 16.7511C25.6208 16.1728 26.7037 15.6351 27.8066 15.1381C33.3358 12.661 39.2933 11.2821 45.348 11.0779C46.717 11.0321 48.0934 11.0439 49.4772 11.1134C51.2383 11.205 52.9925 11.3998 54.7308 11.6969C58.591 12.3535 62.3515 13.501 65.9209 15.1115C66.8464 15.5286 67.7578 15.976 68.6552 16.4538C68.8393 16.5514 69.0211 16.6513 69.203 16.7511C69.3848 16.851 69.5378 16.9353 69.7019 17.0284C69.968 17.1771 70.2297 17.3302 70.4914 17.4855C70.6045 17.5498 70.7132 17.6186 70.8285 17.6852C71.068 17.8294 71.3075 17.9758 71.5448 18.1289C71.7377 18.2487 71.9284 18.3707 72.1169 18.4928L72.1679 18.5261C72.3365 18.6348 72.5028 18.7479 72.6691 18.8566L72.9374 19.0364L73.004 19.083L73.1437 19.1806L73.1947 19.2161C73.3654 19.3337 73.5362 19.4512 73.7047 19.5711C73.7824 19.6243 73.8578 19.6798 73.9265 19.7375C74.0529 19.824 74.1771 19.915 74.3013 20.0081C74.3389 20.0328 74.3752 20.0594 74.4099 20.088C74.4543 20.1191 74.4986 20.1501 74.5408 20.1834L74.7071 20.3077C74.9488 20.4874 75.1883 20.6693 75.4256 20.8557C75.4995 20.9119 75.5735 20.9696 75.6474 21.0287C75.7915 21.1397 75.9357 21.2506 76.0909 21.3726L76.1375 21.4104L76.1951 21.4569L76.7762 21.9384C76.8205 21.9739 76.8649 22.0094 76.9092 22.0493C76.9536 22.0893 76.9912 22.1181 77.0312 22.1536C77.0711 22.1891 77.1421 22.2468 77.1975 22.2956C77.2906 22.3733 77.3816 22.4531 77.4725 22.533C77.5634 22.6129 77.6033 22.6462 77.6698 22.7061L77.814 22.8348C77.9537 22.9568 78.0912 23.081 78.2287 23.2075C78.293 23.263 78.3551 23.3206 78.4194 23.3806L78.4482 23.4072L78.5037 23.4582C78.7254 23.6601 78.9472 23.8642 79.1534 24.0706C79.659 24.5572 80.1521 25.0527 80.6326 25.5571L80.7368 25.6658C80.9586 25.9032 81.1803 26.1406 81.4021 26.3802C81.4709 26.4579 81.5418 26.5377 81.6239 26.6154C81.9284 26.9541 82.2241 27.2973 82.5109 27.6449L82.7016 27.8667L82.7194 27.8889L83.0321 28.2661L83.429 28.7587L83.6752 29.0737L83.6973 29.1003C83.8038 29.2357 83.908 29.3732 84.0123 29.5108C84.5267 30.1853 85.0205 30.8716 85.4936 31.5697L85.5535 31.6563L85.7752 31.9957L85.8041 32.0379L86.0525 32.415C86.0525 32.415 86.0525 32.415 86.0525 32.4261C86.0635 32.4404 86.0739 32.4552 86.0835 32.4705L86.1279 32.5415L86.2831 32.7856C86.3171 32.8344 86.3481 32.8832 86.3762 32.932L86.4938 33.1206C86.7288 33.4978 86.9595 33.8749 87.1812 34.2588C87.25 34.3764 87.3187 34.494 87.3852 34.6116L87.4185 34.6692L87.5316 34.8689L87.6381 35.0575C87.7312 35.2261 87.8266 35.397 87.9175 35.5678C88.0084 35.7386 88.0794 35.8673 88.1592 36.0115L88.3521 36.3776L88.3632 36.3998C88.4408 36.5507 88.5185 36.7016 88.585 36.8546C88.585 36.8768 88.6094 36.9012 88.6205 36.9256C88.6848 37.0543 88.7491 37.183 88.8112 37.3117L88.8444 37.3805C89.0174 37.7332 89.1837 38.086 89.3456 38.4432C91.4356 43.0261 92.7508 47.9242 93.2375 52.9379C93.2375 52.9645 93.2508 52.9912 93.2597 53.02C93.3152 53.2419 93.3728 53.4638 93.4216 53.6745L93.5835 54.3867V60.5991L93.4948 61.136C93.3884 61.7661 93.2908 62.394 93.1932 63.0241C92.9714 64.5084 92.7253 66.0415 92.386 67.619C91.4713 71.9209 89.9338 76.0663 87.8221 79.9238L87.6004 80.3254C84.5717 85.712 80.507 90.4452 75.6407 94.2521C74.4122 95.2136 73.1422 96.1092 71.8309 96.939C69.8853 98.1703 67.8514 99.256 65.7457 100.187L65.3443 100.362L65.3111 100.376C58.8 103.174 51.7459 104.481 44.665 104.201Z" fill="#5791BB"/>
<path d="M46.4769 104.514C45.8693 104.514 45.2616 104.5 44.6562 104.478L44.3568 104.465C41.1842 104.32 38.0363 103.834 34.9674 103.016C32.4801 102.354 30.0529 101.485 27.7114 100.416L27.3477 100.249L27.6315 99.9653L55.7953 71.7347L57.0527 70.4767C57.5871 70.054 58.0959 69.5998 58.5762 69.1166C59.0362 68.6541 59.4679 68.1644 59.8691 67.6501C62.1119 64.8146 63.3268 61.3018 63.3153 57.6859V57.5905C63.3153 57.1623 63.2931 56.7319 63.2554 56.3103C63.2399 56.0885 63.2177 55.8666 63.1867 55.627C62.7169 52.0113 61.0626 48.6532 58.4826 46.078C55.9027 43.5029 52.5424 41.8557 48.9274 41.3941C48.6856 41.3608 48.4461 41.3386 48.2421 41.3231C47.7932 41.2809 47.3424 41.2617 46.8916 41.2654C43.1586 41.2484 39.5342 42.5212 36.6306 44.8685C36.1582 45.2484 35.7067 45.6536 35.2779 46.0822C34.8811 46.4788 34.5051 46.8958 34.1513 47.3313C34.1225 47.3646 34.1048 47.389 34.087 47.4134L34.0382 47.4711L24.2807 57.2599C17.7092 63.8479 11.1509 70.4219 4.60599 76.9819L4.32213 77.2659L4.1558 76.902C3.18135 74.7714 2.37176 72.5692 1.73417 70.3147C1.2906 68.7506 0.933026 67.1633 0.663051 65.56C0.607611 65.2472 0.558825 64.9299 0.512255 64.6127C0.174996 62.3154 0.0052744 59.9967 0.00442452 57.6748C-0.0028217 51.2856 1.30304 44.963 3.84091 39.1L4.02053 38.6895C6.06196 34.0876 8.83268 29.8456 12.2257 26.1273C13.2525 24.998 14.3524 23.9086 15.4967 22.8658C18.22 20.4062 21.2226 18.275 24.4426 16.5159C25.5159 15.9324 26.6137 15.3866 27.7114 14.8941C33.2718 12.3974 39.2656 11.0099 45.357 10.8095C46.7364 10.7629 48.1334 10.774 49.5106 10.845C55.2265 11.1489 60.8362 12.5129 66.054 14.8674C66.9699 15.2801 67.8947 15.7349 68.8039 16.2186C68.988 16.314 69.1676 16.4139 69.3472 16.5115C69.5268 16.6091 69.6932 16.7023 69.8573 16.7955C70.1256 16.9441 70.3895 17.0994 70.6512 17.257C70.7199 17.2947 70.7909 17.3368 70.8729 17.3812L70.9971 17.4544C71.2411 17.6009 71.4828 17.7495 71.7223 17.8982C71.913 18.0158 72.1059 18.14 72.2966 18.262L72.3565 18.302C72.5162 18.404 72.6847 18.5238 72.8511 18.6281L73.0906 18.7879L73.1194 18.8078H73.146L73.217 18.8722L73.3456 18.9631L73.4032 19.0031C73.5651 19.114 73.7381 19.2249 73.9066 19.3536C73.9843 19.4069 74.0619 19.4646 74.1417 19.5245C74.2637 19.6066 74.3901 19.6997 74.5187 19.7951C74.5475 19.8151 74.5919 19.8462 74.6362 19.8817C74.6806 19.9172 74.7161 19.9371 74.7626 19.9749L74.9245 20.0969C75.1662 20.2744 75.408 20.4585 75.6475 20.6471C75.7184 20.7004 75.796 20.7603 75.8692 20.8224C76.0089 20.9311 76.1553 21.0443 76.3128 21.1663L76.3638 21.2084L76.4125 21.2484C76.6121 21.4126 76.8073 21.5723 77.0002 21.7343C77.0446 21.7698 77.0934 21.8097 77.1399 21.8519C77.1865 21.894 77.2175 21.9162 77.2619 21.9561L77.426 22.0959C77.5147 22.1691 77.6056 22.249 77.6965 22.3178C77.7875 22.3866 77.8318 22.4354 77.9006 22.4975L78.0469 22.6284C78.1844 22.7482 78.3241 22.8725 78.4616 23.0012C78.5237 23.0522 78.588 23.1143 78.6546 23.1764L78.69 23.2097L78.7455 23.2585C78.9562 23.456 79.1757 23.6601 79.3908 23.8687C79.8986 24.3545 80.3998 24.8582 80.8788 25.3641L80.9343 25.4195L80.9786 25.4683C81.2004 25.7124 81.4222 25.9498 81.6439 26.1916C81.7149 26.2693 81.7836 26.3469 81.8546 26.4135C82.1407 26.733 82.4334 27.0791 82.7572 27.4541C82.8259 27.5339 82.888 27.6072 82.9457 27.6759L82.9745 27.7092L83.2805 28.082L83.6819 28.5767L83.9303 28.8962L83.9502 28.9206C84.0567 29.056 84.1609 29.1935 84.2674 29.3311C84.7952 30.0233 85.2963 30.7222 85.7576 31.4055L86.0459 31.8338L86.0747 31.8759L86.3253 32.2553L86.3364 32.2775L86.3675 32.3241L86.4029 32.3796L86.5626 32.6303C86.5937 32.6746 86.6269 32.7279 86.6602 32.7834L86.7001 32.8477C86.7267 32.8876 86.7511 32.9276 86.7755 32.9675C87.0571 33.4112 87.27 33.7751 87.4652 34.1124L87.6714 34.4673L87.973 35.002C88.0506 35.144 88.1305 35.286 88.1948 35.428C88.2591 35.57 88.3567 35.7298 88.4387 35.8829L88.6449 36.2822C88.7203 36.4331 88.798 36.5817 88.8667 36.726L88.9066 36.8058L89.0752 37.1453L89.1217 37.1941V37.254C89.2947 37.609 89.4655 37.9706 89.6274 38.3279C91.7296 42.9309 93.0516 47.8519 93.5392 52.8891L93.5525 52.9379L93.588 53.0733C93.6346 53.2508 93.6812 53.4327 93.7211 53.6124L93.8763 54.4089V60.6412L93.7876 61.1781C93.6812 61.8082 93.5836 62.4339 93.486 63.064V63.1084C93.2642 64.5816 93.0203 66.1058 92.6832 67.6744C91.7559 72.002 90.2012 76.1706 88.0684 80.0481L87.9952 80.1812C87.9442 80.2722 87.8954 80.3631 87.8444 80.4519C82.8652 89.3126 75.1519 96.322 65.8589 100.431C65.7591 100.478 65.6549 100.522 65.5506 100.567L65.4553 100.609C65.4395 100.616 65.4232 100.623 65.4065 100.629C59.4243 103.191 52.9845 104.513 46.4769 104.514ZM44.6762 103.921C51.715 104.189 58.7253 102.888 65.2003 100.114L65.3289 100.061L65.6305 99.9275C67.7237 99.0011 69.7458 97.9213 71.6801 96.6971C78.193 92.5777 83.58 86.9029 87.3565 80.1834L87.5073 79.915L87.5805 79.7818C89.6861 75.952 91.2213 71.8351 92.1377 67.5613C92.4703 66.0082 92.7054 64.4929 92.9338 63.0285V62.9819C93.0314 62.3518 93.129 61.7217 93.2376 61.0916L93.3219 60.5769V54.4422L93.1667 53.7588C93.1268 53.5836 93.0824 53.4083 93.038 53.2352L93.007 53.1132C93.007 53.091 92.9915 53.06 92.9848 53.0289V52.9889C92.5041 48.0054 91.1971 43.1368 89.1173 38.583C88.9576 38.2302 88.7913 37.8752 88.6205 37.5269L88.605 37.4959L88.5562 37.4493V37.396C88.503 37.2873 88.4498 37.1741 88.3944 37.0699L88.3589 36.9989C88.285 36.851 88.211 36.703 88.1371 36.5551L88.1194 36.5196L87.9309 36.1624C87.8533 36.0093 87.7734 35.8607 87.6914 35.7187C87.6093 35.5767 87.5383 35.4347 87.4696 35.2971L87.168 34.7624C87.1059 34.6515 87.0394 34.5406 86.9751 34.4252C86.7755 34.0835 86.567 33.7352 86.2854 33.2848L86.2144 33.1694L86.1679 33.0962C86.139 33.0474 86.1102 33.003 86.0814 32.9586C86.0237 32.8699 85.9749 32.79 85.9217 32.7101L85.802 32.5215L85.5957 32.2087L85.283 31.745C84.824 31.0661 84.3295 30.3783 83.8105 29.6972L83.5045 29.2978C83.4916 29.2853 83.4804 29.2711 83.4712 29.2556L83.2495 28.9628C83.1076 28.7853 82.9767 28.6211 82.8437 28.4591L82.5332 28.0842L82.5132 28.0598C82.4556 27.9888 82.3957 27.9148 82.3336 27.8379C82.0054 27.4496 81.7149 27.1146 81.4465 26.804C81.3756 26.7308 81.3024 26.6487 81.2248 26.5688C81.003 26.3336 80.7813 26.0962 80.5595 25.861L80.5085 25.8056L80.4619 25.7568C79.9807 25.2531 79.4862 24.7561 78.985 24.2747C78.7632 24.0706 78.5548 23.8664 78.3397 23.6645L78.2909 23.6202L78.2687 23.6002C78.1933 23.5314 78.1334 23.476 78.0713 23.4227C77.9294 23.2918 77.7941 23.1676 77.6566 23.0477L77.5125 22.9213C77.446 22.8592 77.3839 22.8037 77.3196 22.7504C77.222 22.6639 77.1333 22.5885 77.0446 22.513L76.8827 22.3733L76.7629 22.2712L76.6276 22.1603C76.4303 21.9939 76.2396 21.8341 76.0444 21.6766L75.9912 21.6344L75.9535 21.6012C75.7983 21.4769 75.6563 21.3615 75.51 21.2528L75.2882 21.082C75.0487 20.8934 74.8114 20.7137 74.5697 20.534L74.4012 20.4097C74.3629 20.378 74.3229 20.3484 74.2814 20.321C74.249 20.2938 74.2149 20.2686 74.1794 20.2455C74.0441 20.1435 73.9221 20.0547 73.8002 19.9704C73.7159 19.9083 73.6427 19.8551 73.5784 19.804C73.4077 19.682 73.2391 19.5666 73.0684 19.449L73.0285 19.4202L72.9442 19.3603H72.9109L72.8511 19.2982L72.7712 19.2449L72.5339 19.0852L72.035 18.7568L71.9884 18.7257C71.7977 18.6015 71.6092 18.4817 71.4162 18.3619C71.179 18.211 70.9417 18.0668 70.7044 17.9181L70.5758 17.8427C70.5092 17.8028 70.4405 17.7606 70.3717 17.7229C70.1079 17.5654 69.8484 17.4145 69.5845 17.2658L69.09 16.9907L68.5245 16.6912C67.6241 16.2142 66.7104 15.766 65.8057 15.36C62.2572 13.7597 58.5192 12.619 54.6821 11.9654C52.9547 11.6714 51.2116 11.478 49.4618 11.3863C48.1002 11.3175 46.7186 11.3042 45.357 11.3508C39.3375 11.5483 33.4144 12.9192 27.9198 15.3866C26.8354 15.8725 25.7488 16.4116 24.6888 16.9907C21.507 18.7278 18.5408 20.8338 15.8515 23.2652C14.7205 24.2858 13.6339 25.3707 12.616 26.4867C9.26785 30.1615 6.53391 34.3524 4.5195 38.8981L4.33987 39.3063C1.83307 45.1048 0.545297 51.3572 0.55661 57.6748C0.557003 59.9693 0.725257 62.2607 1.06001 64.5306C1.10437 64.8427 1.15315 65.1555 1.20637 65.4691C1.84041 69.2047 2.9447 72.8449 4.49289 76.3029L23.8815 56.8672L33.6391 47.0739C33.6657 47.0406 33.6923 47.0051 33.7211 46.9719C34.0852 46.5245 34.4723 46.0964 34.8809 45.6895C36.4565 44.1103 38.3275 42.857 40.3871 42.0012C42.4468 41.1454 44.6547 40.7039 46.8849 40.7018C47.3728 40.7018 47.8407 40.7218 48.2842 40.7595C48.4927 40.7773 48.7433 40.8017 48.9917 40.835C52.0951 41.224 55.0299 42.4667 57.4696 44.4248C58.4585 45.2167 59.357 46.1156 60.1485 47.105C62.1021 49.5362 63.3441 52.4614 63.7366 55.556C63.7677 55.8089 63.7921 56.0419 63.8098 56.2637C63.8475 56.7075 63.8675 57.1512 63.8697 57.5949V57.6926C63.8804 61.4328 62.6242 65.0663 60.306 68.0006C59.8927 68.5316 59.4484 69.0376 58.9754 69.516C58.4817 70.0111 57.9597 70.477 57.412 70.9115L56.1768 72.1274C46.9278 81.3985 37.6352 90.717 28.299 100.083C30.5016 101.062 32.779 101.862 35.1094 102.477C38.1391 103.285 41.2468 103.764 44.379 103.908L44.6762 103.921ZM88.4675 36.3643L88.3744 36.4198L88.5407 36.3399L88.4675 36.3643Z" fill="#272425"/>
<path d="M184.047 38.6562C184.049 40.5618 183.675 42.449 182.946 44.2096C182.217 45.9702 181.148 47.5694 179.8 48.9154L148.128 80.5894L27.7311 201.047C26.3845 202.394 24.7858 203.462 23.0264 204.192C21.267 204.921 19.3812 205.296 17.4768 205.296C15.5724 205.296 13.6867 204.921 11.9273 204.192C10.1678 203.462 8.56918 202.394 7.22256 201.047C5.87595 199.699 4.80776 198.1 4.07898 196.34C3.3502 194.579 2.9751 192.693 2.9751 190.787C2.9751 188.882 3.3502 186.995 4.07898 185.235C4.80776 183.475 5.87595 181.875 7.22256 180.528L113.906 73.7958L159.296 28.3881C161.325 26.3599 163.909 24.9792 166.722 24.4205C169.535 23.8617 172.451 24.1501 175.1 25.2492C177.749 26.3483 180.013 28.2087 181.606 30.5951C183.198 32.9815 184.048 35.7868 184.047 38.6562Z" fill="#5791BB"/>
<path d="M17.4769 205.568C14.5537 205.57 11.6957 204.704 9.26462 203.079C6.83358 201.455 4.93878 199.146 3.82004 196.444C2.7013 193.742 2.4089 190.769 2.97985 187.9C3.5508 185.032 4.95943 182.398 7.02747 180.331L113.711 73.6117L159.096 28.1907C161.875 25.4499 165.624 23.9195 169.526 23.9335C173.428 23.9474 177.166 25.5045 179.925 28.2651C182.684 31.0257 184.24 34.7658 184.254 38.6697C184.267 42.5735 182.737 46.3244 179.997 49.104L148.325 80.7891L27.9285 201.244C26.5569 202.618 24.9275 203.707 23.1339 204.449C21.3403 205.191 19.4178 205.572 17.4769 205.568ZM169.537 24.3945C167.669 24.3971 165.82 24.7687 164.095 25.4879C162.371 26.2071 160.806 27.2598 159.489 28.5856L114.103 73.9933L7.41999 180.726C4.78639 183.401 3.31671 187.01 3.33128 190.766C3.34585 194.521 4.8435 198.118 7.49779 200.773C10.1521 203.429 13.7478 204.927 17.5013 204.941C21.2548 204.955 24.8618 203.484 27.536 200.849L147.933 80.3942L179.605 48.7091C182.271 46.0401 183.769 42.421 183.769 38.6474C183.769 34.8737 182.271 31.2546 179.605 28.5856C176.934 25.9133 173.314 24.4066 169.537 24.3945Z" fill="#272425"/>
<path d="M57.2214 70.6963C54.2875 73.013 50.6581 74.2716 46.9205 74.2684C45.1978 74.2733 43.4844 74.0144 41.84 73.5007C38.4648 72.4432 35.5156 70.3344 33.4228 67.4818C31.33 64.6293 30.2031 61.1823 30.2063 57.6438V57.6216C30.1984 53.8604 31.4815 50.2106 33.841 47.2825L4.4043 76.791C8.9724 86.71 16.8098 94.7564 26.6027 99.5814C27.0063 99.7826 27.4136 99.9763 27.8246 100.163L57.2214 70.6963Z" fill="#5794BB"/>
<path d="M27.8867 100.496L27.7093 100.416C27.2657 100.214 26.8643 100.021 26.4785 99.8299C22.4677 97.8587 18.755 95.3311 15.4502 92.3219C10.6858 87.9945 6.83957 82.7529 4.14038 76.9086L4.06055 76.7334L4.19804 76.5958L23.8706 56.8739L33.6281 47.085L34.0406 47.4555C31.7154 50.3317 30.4535 53.9225 30.468 57.6216V57.6438C30.4646 61.1229 31.5727 64.5121 33.6304 67.3168C35.6881 70.1215 38.5879 72.1949 41.9065 73.2345C43.5232 73.7418 45.2085 73.9962 46.9028 73.9888C50.578 73.9903 54.1466 72.753 57.0329 70.4767L57.401 70.8916L56.1769 72.1274L28.0131 100.358L27.8867 100.496ZM4.73914 76.851C9.29283 86.6328 17.0506 94.5641 26.7269 99.3307C27.0551 99.4949 27.3921 99.6569 27.7647 99.8277L55.068 72.4513C54.6046 72.7087 54.1278 72.9416 53.6421 73.1524C51.5188 74.0741 49.2284 74.5484 46.9139 74.5457H46.8917C45.1522 74.5477 43.4225 74.2844 41.7623 73.7648C38.3304 72.6904 35.3315 70.5467 33.2035 67.6465C31.0755 64.7463 29.9297 61.2415 29.9335 57.6438V57.6216C29.9236 54.7912 30.6366 52.0052 32.0048 49.5278L24.2786 57.2755L4.73914 76.851Z" fill="#272425"/>
<path d="M27.8246 100.163C27.4151 99.9763 27.0078 99.7826 26.6027 99.5814C16.8102 94.757 8.97282 86.7114 4.4043 76.7933L33.841 47.2847C31.4815 50.2128 30.1984 53.8626 30.2063 57.6238V57.646C30.2031 61.1845 31.33 64.6315 33.4228 67.484C35.5156 70.3366 38.4648 72.4455 41.84 73.5029C43.4844 74.0166 45.1978 74.2755 46.9205 74.2706C50.6581 74.2738 54.2875 73.0153 57.2214 70.6985L27.8246 100.163Z" fill="#C6C5C2"/>
<path d="M27.8755 100.438L27.7291 100.373C27.2856 100.172 26.8842 99.9786 26.5005 99.7878C16.66 94.9408 8.78477 86.8557 4.1957 76.8887L4.12695 76.7422L4.24227 76.6291L23.9148 56.9072L33.6723 47.1183L34.0161 47.4267C31.6816 50.3139 30.4157 53.9192 30.4324 57.6327V57.6549C30.4289 61.1437 31.5399 64.5424 33.6032 67.3551C35.6665 70.1677 38.5741 72.2471 41.9019 73.2899C43.5179 73.794 45.2011 74.0491 46.8938 74.0465H46.9137C50.5997 74.0504 54.179 72.8098 57.0727 70.5255L57.3787 70.8694L56.1457 72.1052L27.9886 100.336L27.8755 100.438ZM4.68136 76.8421C7.34652 82.5645 11.1242 87.6986 15.7939 91.9447C19.0633 94.9221 22.7364 97.4228 26.7046 99.3729C27.0438 99.5415 27.3942 99.7101 27.7757 99.8854L55.3518 72.2427C52.7894 73.7218 49.8831 74.5 46.9248 74.4991H46.9026C45.159 74.5004 43.4255 74.2348 41.7622 73.7115C38.3402 72.6394 35.3501 70.5013 33.2282 67.6093C31.1063 64.7172 29.9635 61.2225 29.9667 57.6349V57.6127C29.9631 54.6696 30.7431 51.7787 32.2264 49.2371L24.243 57.2244L4.68136 76.8421Z" fill="#272425"/>
<path d="M138.779 151.383C141.233 149.439 144.186 148.225 147.298 147.881C150.41 147.538 153.556 148.078 156.376 149.441C159.195 150.803 161.574 152.932 163.239 155.585C164.905 158.237 165.79 161.306 165.794 164.438V164.46C165.801 168.222 164.517 171.872 162.157 174.799C171.996 164.935 181.808 155.099 191.594 145.291C186.828 134.949 178.517 126.657 168.167 121.917L138.779 151.383Z" fill="#5794BB"/>
<path d="M162.354 174.997L161.939 174.624C164.263 171.747 165.523 168.155 165.505 164.456C165.509 162.301 165.087 160.167 164.263 158.176C163.439 156.185 162.23 154.377 160.704 152.855C159.179 151.334 157.368 150.129 155.376 149.311C153.383 148.492 151.249 148.076 149.095 148.086H149.066C145.391 148.084 141.822 149.321 138.936 151.599L138.568 151.184L140.187 149.56L167.965 121.715L168.1 121.58L168.277 121.66C172.758 123.706 176.894 126.436 180.536 129.753C185.296 134.082 189.137 139.324 191.833 145.167L191.915 145.344L191.777 145.479L172.449 164.857L162.354 174.997ZM149.108 147.534C151.333 147.524 153.538 147.954 155.596 148.8C157.654 149.645 159.524 150.889 161.101 152.459C162.677 154.03 163.927 155.897 164.78 157.953C165.633 160.008 166.072 162.212 166.071 164.438V164.46C166.082 167.293 165.367 170.082 163.995 172.561L172.067 164.469C178.476 158.044 184.874 151.63 191.261 145.229C188.599 139.524 184.83 134.405 180.173 130.17C176.621 126.936 172.594 124.265 168.233 122.252L140.923 149.626C141.386 149.37 141.86 149.137 142.344 148.927C144.469 148.006 146.76 147.532 149.075 147.534H149.108Z" fill="#272425"/>
<path d="M151.333 117.881H151.632C157.353 118.149 162.97 119.516 168.176 121.906L138.779 151.372C137.71 152.215 136.747 153.183 135.911 154.257C133.637 157.145 132.403 160.717 132.408 164.394V164.489C132.408 164.933 132.43 165.361 132.467 165.792C132.485 166.013 132.51 166.257 132.541 166.486C133.017 170.163 134.699 173.578 137.322 176.197C139.946 178.816 143.363 180.492 147.039 180.961C147.261 180.992 147.501 181.016 147.736 181.034C148.179 181.074 148.634 181.092 149.088 181.092C152.891 181.106 156.583 179.809 159.542 177.42C160.022 177.034 160.481 176.622 160.917 176.186C161.322 175.783 161.705 175.359 162.064 174.915C162.097 174.877 162.128 174.837 162.157 174.799C171.996 164.934 181.808 155.097 191.594 145.291C193.373 149.17 194.593 153.282 195.215 157.505C195.228 157.6 195.244 157.696 195.255 157.791C195.565 159.981 195.72 162.191 195.721 164.403C195.725 170.758 194.429 177.047 191.913 182.882C191.855 183.017 191.795 183.155 191.733 183.29C189.707 187.863 186.957 192.08 183.59 195.777C182.555 196.918 181.47 197.998 180.335 199.019C175.767 203.146 170.427 206.326 164.624 208.378C158.82 210.429 152.668 211.309 146.523 210.968C145.019 210.892 143.526 210.739 142.043 210.511C137.909 209.878 133.88 208.684 130.068 206.962C119.687 202.269 111.356 193.972 106.619 183.608C106.152 182.572 105.721 181.527 105.328 180.473C103.986 176.813 103.118 172.996 102.747 169.115C102.747 169.089 102.734 169.062 102.725 169.033C102.669 168.811 102.612 168.589 102.563 168.367L102.401 167.655V161.467L102.49 160.93C102.596 160.3 102.696 159.672 102.791 159.042C103.013 157.56 103.259 156.027 103.598 154.447C104.521 150.146 106.067 146.003 108.187 142.149C108.26 142.014 108.333 141.881 108.408 141.748C111.437 136.36 115.503 131.627 120.37 127.821C123.405 125.447 126.722 123.459 130.245 121.901C130.378 121.839 130.514 121.782 130.649 121.724L130.68 121.711C137.192 118.909 144.249 117.6 151.333 117.881Z" fill="#262324"/>
<path d="M148.991 211.308C148.163 211.308 147.336 211.286 146.509 211.244C145.008 211.166 143.491 211.011 142.001 210.782C137.846 210.151 133.796 208.956 129.964 207.232C119.521 202.511 111.142 194.165 106.377 183.739C105.907 182.707 105.47 181.646 105.077 180.586C103.724 176.91 102.845 173.076 102.463 169.177L102.45 169.128L102.414 168.991C102.368 168.813 102.323 168.634 102.281 168.454L102.115 167.68V161.447L102.203 160.91C102.305 160.307 102.403 159.692 102.505 159.027V158.962C102.727 157.496 102.971 155.98 103.306 154.414C104.234 150.086 105.789 145.918 107.923 142.04C107.996 141.905 108.069 141.77 108.144 141.634C111.186 136.212 115.276 131.449 120.177 127.626C121.412 126.658 122.701 125.751 124.009 124.923C125.966 123.685 128.011 122.594 130.128 121.657C130.259 121.597 130.398 121.538 130.536 121.48L130.571 121.464C137.12 118.658 144.21 117.343 151.328 117.615H151.619C157.381 117.878 163.037 119.253 168.277 121.664L168.643 121.83L168.36 122.114L141.429 149.109L138.938 151.603C137.887 152.428 136.94 153.377 136.118 154.43C133.878 157.267 132.665 160.779 132.674 164.394V164.489C132.674 164.917 132.696 165.348 132.731 165.767C132.749 166.002 132.773 166.229 132.802 166.448C133.259 170.07 134.909 173.435 137.491 176.014C140.074 178.592 143.441 180.236 147.061 180.686C147.283 180.717 147.505 180.739 147.745 180.757C148.175 180.797 148.632 180.81 149.104 180.814C152.834 180.828 156.455 179.553 159.354 177.204C159.825 176.823 160.277 176.418 160.707 175.991C161.104 175.595 161.48 175.178 161.833 174.742C161.871 174.697 161.897 174.664 161.922 174.631L161.946 174.604L162.345 174.205C172.051 164.471 181.73 154.766 191.383 145.091L191.667 144.807L191.833 145.171C193.624 149.074 194.851 153.212 195.477 157.46L195.49 157.556C195.49 157.622 195.51 157.689 195.519 157.755C195.83 159.956 195.986 162.176 195.987 164.398C195.997 170.792 194.693 177.12 192.155 182.989C192.097 183.126 192.037 183.266 191.973 183.403C189.936 188.003 187.17 192.243 183.783 195.961C182.75 197.095 181.647 198.193 180.508 199.223C171.865 207.033 160.624 211.342 148.978 211.308H148.991ZM102.671 167.637L102.827 168.321C102.864 168.496 102.909 168.669 102.953 168.842L102.986 168.966C102.986 168.989 103 169.02 103.008 169.051V169.091C103.384 172.95 104.253 176.744 105.594 180.382C105.982 181.429 106.412 182.478 106.876 183.488C111.586 193.792 119.867 202.04 130.188 206.704C133.973 208.412 137.974 209.596 142.078 210.223C143.551 210.445 145.048 210.6 146.531 210.667C152.639 211.008 158.753 210.136 164.522 208.1C170.291 206.065 175.599 202.907 180.142 198.808C181.268 197.792 182.359 196.707 183.377 195.586C186.726 191.908 189.459 187.712 191.472 183.162C191.534 183.026 191.594 182.891 191.651 182.758C194.158 176.958 195.445 170.705 195.434 164.387C195.434 162.188 195.28 159.993 194.973 157.815C194.973 157.747 194.955 157.687 194.947 157.625L194.933 157.529C194.333 153.471 193.178 149.514 191.5 145.77C181.942 155.349 172.358 164.958 162.747 174.598L162.361 174.984C162.33 175.023 162.299 175.063 162.265 175.101C161.903 175.549 161.516 175.977 161.108 176.384C160.665 176.827 160.199 177.245 159.711 177.637C156.714 180.066 152.97 181.386 149.113 181.371C148.616 181.371 148.148 181.351 147.705 181.311C147.467 181.294 147.234 181.269 146.995 181.238C143.253 180.773 139.772 179.074 137.103 176.409C134.434 173.743 132.729 170.265 132.257 166.521C132.226 166.3 132.201 166.056 132.183 165.814C132.146 165.381 132.126 164.926 132.121 164.483V164.385C132.112 160.645 133.368 157.012 135.685 154.077C136.533 152.995 137.507 152.018 138.586 151.166L141.041 148.708L167.688 121.997C162.618 119.719 157.164 118.418 151.612 118.163H151.319C144.281 117.893 137.271 119.194 130.797 121.97L130.764 121.984C130.633 122.039 130.5 122.097 130.369 122.157C128.276 123.082 126.253 124.161 124.318 125.385C117.808 129.51 112.422 135.184 108.641 141.901C108.566 142.034 108.493 142.165 108.419 142.298C106.311 146.129 104.774 150.247 103.858 154.523C103.525 156.076 103.29 157.58 103.064 159.04V159.102C102.964 159.768 102.864 160.389 102.762 160.993L102.678 161.507L102.671 167.637Z" fill="#272425"/>
<path d="M191.594 145.289C181.81 155.094 171.997 164.93 162.157 174.797C164.517 171.869 165.801 168.22 165.794 164.458V164.436C165.783 161.307 164.893 158.243 163.226 155.596C161.558 152.948 159.181 150.823 156.364 149.462C153.548 148.101 150.406 147.559 147.296 147.898C144.187 148.238 141.236 149.444 138.779 151.381L168.167 121.917C178.513 126.658 186.82 134.949 191.585 145.289H191.594Z" fill="#5791BB"/>
<path d="M162.354 174.997L161.939 174.624C164.263 171.747 165.523 168.155 165.505 164.456C165.509 162.301 165.087 160.167 164.263 158.176C163.439 156.185 162.23 154.377 160.704 152.855C159.179 151.334 157.368 150.129 155.376 149.311C153.383 148.492 151.249 148.076 149.095 148.086H149.066C145.391 148.084 141.822 149.321 138.936 151.599L138.568 151.184L140.187 149.56L167.965 121.715L168.1 121.58L168.277 121.66C172.758 123.706 176.894 126.436 180.536 129.753C185.296 134.082 189.137 139.324 191.833 145.167L191.915 145.344L191.777 145.479L172.449 164.857L162.354 174.997ZM149.108 147.534C151.333 147.524 153.538 147.954 155.596 148.8C157.654 149.645 159.524 150.889 161.101 152.459C162.677 154.03 163.927 155.897 164.78 157.953C165.633 160.008 166.072 162.212 166.071 164.438V164.46C166.082 167.293 165.367 170.082 163.995 172.561L172.067 164.469C178.476 158.044 184.874 151.63 191.261 145.229C188.599 139.524 184.83 134.405 180.173 130.17C176.621 126.936 172.594 124.265 168.233 122.252L140.923 149.626C141.386 149.37 141.86 149.137 142.344 148.927C144.469 148.006 146.76 147.532 149.075 147.534H149.108Z" fill="#272425"/>
<path d="M44.6651 104.201L44.3657 104.187C41.2131 104.044 38.0852 103.562 35.0361 102.747L70.7531 67.0133C74.0173 63.7474 75.8511 59.3181 75.8511 54.6996C75.8511 50.081 74.0173 45.6517 70.7531 42.3858L67.4267 39.0578C66.0236 37.6545 64.9105 35.9884 64.1511 34.1546C63.3917 32.3208 63.0008 30.3553 63.0008 28.3704C63.0008 26.3854 63.3917 24.4199 64.1511 22.5862C64.9105 20.7524 66.0236 19.0862 67.4267 17.6829L68.6531 16.456C68.8371 16.5536 69.019 16.6535 69.2008 16.7533C69.3826 16.8532 69.5357 16.9375 69.6998 17.0307C69.9659 17.1793 70.2276 17.3324 70.4892 17.4877C70.6023 17.5521 70.711 17.6208 70.8263 17.6874C71.0658 17.8316 71.3053 17.978 71.5426 18.1311C71.7355 18.2509 71.9263 18.373 72.1148 18.495L72.1658 18.5283C72.3343 18.637 72.5006 18.7501 72.6669 18.8589L72.9353 19.0386L73.0018 19.0852L73.1415 19.1828L73.1925 19.2183C73.3633 19.3359 73.534 19.4535 73.7026 19.5733C73.7802 19.6265 73.8556 19.682 73.9243 19.7397C74.0507 19.8262 74.1749 19.9172 74.2991 20.0104C74.3368 20.035 74.373 20.0617 74.4078 20.0902C74.4521 20.1213 74.4965 20.1524 74.5386 20.1856L74.7049 20.3099C74.9467 20.4896 75.1862 20.6715 75.4234 20.8579C75.4974 20.9141 75.5713 20.9718 75.6452 21.031C75.7894 21.1419 75.9335 21.2528 76.0887 21.3748L76.1353 21.4126L76.193 21.4592L76.774 21.9406C76.8183 21.9761 76.8627 22.0116 76.907 22.0515L77.0046 22.1359C77.2064 22.3067 77.4082 22.4798 77.6056 22.655L77.6677 22.7083L77.8118 22.837C77.9515 22.959 78.089 23.0832 78.2265 23.2097C78.2908 23.2652 78.3529 23.3229 78.4172 23.3828L78.4461 23.4094L78.5015 23.4604C78.7233 23.6623 78.945 23.8664 79.1513 24.0728C79.6569 24.5594 80.1499 25.0549 80.6304 25.5593L80.7346 25.668C80.9564 25.9054 81.1782 26.1428 81.3999 26.3824C81.4687 26.4601 81.5396 26.54 81.6217 26.6176C81.9263 26.9563 82.2219 27.2995 82.5087 27.6471L82.6995 27.869L82.7172 27.8911L83.0299 28.2683L83.4268 28.7609L83.673 29.0759L83.6952 29.1025C83.8016 29.2379 83.9058 29.3754 84.0101 29.513C84.5246 30.1875 85.0184 30.8738 85.4914 31.5719L85.5513 31.6585L85.7731 31.9979L85.8019 32.0401L86.0503 32.4173L86.0858 32.4727L86.1301 32.5437L86.2854 32.7878C86.3194 32.8366 86.3504 32.8854 86.3785 32.9342L86.496 33.1228C86.7311 33.5 86.9617 33.8772 87.1835 34.261C87.2522 34.3786 87.321 34.4962 87.3875 34.6138L87.4208 34.6714L87.5339 34.8711L87.6403 35.0597C87.7335 35.2283 87.8288 35.3992 87.9197 35.57C88.0107 35.7409 88.0816 35.8696 88.1615 36.0138L88.3655 36.402C88.4431 36.5529 88.5207 36.7038 88.5873 36.8569C88.5873 36.8791 88.6116 36.9035 88.6227 36.9279C88.687 37.0565 88.7513 37.1852 88.8134 37.3139L88.8467 37.3827C89.0197 37.7355 89.186 38.0882 89.3479 38.4454C91.4379 43.0283 92.7531 47.9264 93.2398 52.9401C93.2398 52.9668 93.2531 52.9934 93.262 53.0222C93.3174 53.2441 93.3751 53.466 93.4239 53.6767L93.5858 54.3889V60.5991L93.4971 61.136C93.3906 61.7661 93.293 62.394 93.1955 63.0241C92.9737 64.5084 92.7275 66.0415 92.3882 67.619C91.4728 71.9211 89.9346 76.0664 87.8222 79.9238L87.6004 80.3254C84.5718 85.712 80.5071 90.4452 75.6408 94.2521C74.4122 95.2136 73.1423 96.1092 71.8309 96.939C69.8853 98.1703 67.8514 99.256 65.7458 100.187L65.3444 100.362L65.3111 100.376C58.8 103.174 51.746 104.481 44.6651 104.201Z" fill="#A1CDE2"/>
<path d="M46.4768 104.465C45.8692 104.465 45.2637 104.454 44.6561 104.431L44.3567 104.418C41.1877 104.273 38.0435 103.788 34.9784 102.969L34.5903 102.867L70.5912 66.8491C73.8067 63.6237 75.6125 59.254 75.6125 54.6985C75.6125 50.1429 73.8067 45.7732 70.5912 42.5478L67.2648 39.2198C64.3921 36.3401 62.7787 32.4378 62.7787 28.3693C62.7787 24.3008 64.3921 20.3985 67.2648 17.5188L68.6109 16.1698L68.7617 16.2497C68.9457 16.3473 69.1254 16.4472 69.305 16.5448C69.4846 16.6424 69.6487 16.7334 69.815 16.8288C70.0811 16.9774 70.345 17.1305 70.6089 17.288L70.8196 17.4123L70.9438 17.4877C71.1877 17.6342 71.4295 17.7806 71.6667 17.9315C71.8597 18.0513 72.0526 18.1755 72.2411 18.2975L72.301 18.3375C72.4607 18.4395 72.6292 18.5593 72.7955 18.6636L73.035 18.8234L73.0749 18.85H73.0993L73.157 18.9054L73.29 18.9986L73.3455 19.0364C73.5096 19.1495 73.6803 19.2582 73.8511 19.3891C73.9265 19.4402 74.0063 19.4978 74.0862 19.5577C74.2081 19.6398 74.3345 19.733 74.4609 19.8284C74.5011 19.8549 74.5396 19.8838 74.5763 19.915C74.6209 19.9435 74.6638 19.9746 74.7049 20.0081L74.8668 20.1279C75.1085 20.3077 75.3502 20.4918 75.5897 20.6804C75.6607 20.7336 75.7361 20.7936 75.8115 20.8557C75.9534 20.9622 76.0998 21.0776 76.255 21.1996L76.306 21.2395L76.357 21.2794C76.5566 21.4436 76.7495 21.6034 76.9425 21.7676C76.9868 21.8031 77.0356 21.8408 77.0822 21.8829C77.1287 21.9251 77.1221 21.9162 77.1465 21.9384L77.1775 21.965C77.3771 22.1337 77.5811 22.3089 77.7807 22.4864L77.8384 22.5352L77.9892 22.6684C78.1267 22.7904 78.2642 22.9146 78.4039 23.0433C78.466 23.0943 78.5281 23.1542 78.5946 23.2164C78.6076 23.2261 78.6195 23.2373 78.6301 23.2496C78.6499 23.2651 78.6684 23.2822 78.6855 23.3007C78.9073 23.4959 79.1157 23.7023 79.3331 23.9086C79.8387 24.3967 80.3376 24.8981 80.8189 25.404L80.8721 25.4595L80.9187 25.5083C81.1404 25.7501 81.3622 25.9897 81.5839 26.2293C81.6549 26.3092 81.7237 26.3869 81.8057 26.4512C82.0918 26.7685 82.3845 27.1168 82.7083 27.4896C82.777 27.5716 82.8413 27.6449 82.9012 27.7114L82.9234 27.7403L83.2316 28.1108L83.6308 28.6056L83.8792 28.9251L83.8991 28.9495C84.0056 29.0848 84.1209 29.2224 84.2163 29.3599C84.7418 30.0521 85.243 30.7488 85.7065 31.4322L85.9926 31.8604C86.0032 31.8737 86.0129 31.8878 86.0214 31.9025C86.1057 32.029 86.1899 32.1532 86.272 32.2819L86.3496 32.404C86.4051 32.4905 86.4583 32.5726 86.5093 32.6569C86.5403 32.7013 86.5736 32.7545 86.6046 32.8078L86.6468 32.8743L86.7222 32.9919C87.0038 33.4467 87.2167 33.7995 87.4118 34.1345C87.4828 34.2588 87.5516 34.3741 87.6159 34.4895L87.9197 35.0242C87.9973 35.1662 88.0749 35.3082 88.1415 35.4502C88.208 35.5922 88.3033 35.752 88.3854 35.894C88.4674 36.0359 88.5229 36.1535 88.5894 36.2844C88.6559 36.4153 88.7469 36.5906 88.8112 36.7415L88.8489 36.8191C88.9065 36.9323 88.9642 37.041 89.0218 37.1675L89.0618 37.2074L89.0729 37.2695C89.2458 37.6245 89.4144 37.984 89.5762 38.3412C91.6774 42.9414 92.9987 47.8593 93.4859 52.8935C93.4859 52.9113 93.4859 52.9268 93.5014 52.9468L93.5369 53.0799C93.5813 53.2596 93.6278 53.4371 93.6678 53.6191L93.8363 54.3823V60.6079L93.7476 61.1449C93.6411 61.7727 93.5436 62.4006 93.446 63.0285V63.0751C93.2242 64.5483 92.9803 66.0703 92.6432 67.6367C91.7182 71.9604 90.1656 76.1254 88.035 79.9993L87.9618 80.1302L87.8088 80.4031C84.7714 85.8201 80.6862 90.5778 75.7915 94.3986C74.5541 95.3637 73.2656 96.2734 71.9617 97.0987C70.0068 98.3357 67.9632 99.4266 65.8477 100.362L65.5395 100.498L65.4441 100.538L65.3975 100.558C59.4199 103.128 52.983 104.457 46.4768 104.465ZM44.6739 103.968C51.7196 104.237 58.737 102.935 65.2179 100.156L65.3465 100.101C65.4485 100.058 65.5483 100.014 65.6503 99.9675C67.7437 99.0404 69.7657 97.9599 71.7 96.7348C72.9907 95.9184 74.2658 95.0198 75.4899 94.0724C80.3379 90.2905 84.3833 85.5793 87.3897 80.2145C87.4407 80.1257 87.4917 80.037 87.5405 79.946L87.6137 79.8151C89.7223 75.9815 91.2591 71.8599 92.1753 67.5813C92.5102 66.0282 92.7452 64.5106 92.9736 63.044V62.9997C93.0712 62.3673 93.1688 61.7395 93.2775 61.1071L93.3617 60.5902V54.4355L93.2109 53.7433C93.171 53.5658 93.1267 53.3905 93.0823 53.2175L93.049 53.0932C93.049 53.071 93.0357 53.04 93.0269 53.0111V52.9779C92.5439 47.989 91.2346 43.1153 89.1527 38.5564C88.993 38.2036 88.8267 37.8464 88.6559 37.4981L88.6382 37.4626L88.5983 37.4226V37.3783C88.5451 37.2651 88.4874 37.1564 88.432 37.041C88.4253 37.0248 88.4171 37.0092 88.4076 36.9944L88.3965 36.9722C88.3233 36.8191 88.2457 36.6727 88.1747 36.5285C88.1037 36.3843 88.0372 36.2645 87.9685 36.138C87.8997 36.0116 87.811 35.8341 87.729 35.6943C87.6469 35.5545 87.576 35.4103 87.5072 35.2727L87.2056 34.738C87.1435 34.6271 87.077 34.5162 87.0105 34.4008C86.8131 34.0569 86.6024 33.7085 86.3208 33.2581L86.2498 33.1428L86.2033 33.0696C86.1744 33.0185 86.1456 32.9742 86.1145 32.9298L85.9571 32.6813L85.8795 32.557L85.6311 32.1799L85.3184 31.7162C84.8594 31.0372 84.3626 30.3472 83.8437 29.6661C83.7395 29.5285 83.6397 29.3976 83.5354 29.2667L83.5044 29.2268L83.2826 28.9295L82.8768 28.4259C82.7748 28.3016 82.6706 28.1751 82.5664 28.0531L82.553 28.0331L82.3668 27.8113C82.0386 27.423 81.748 27.088 81.4797 26.7774C81.4087 26.7019 81.3356 26.6221 81.2579 26.5422C81.0362 26.3048 80.8144 26.0696 80.5927 25.8322L80.5394 25.779L80.4929 25.7279C80.0117 25.2243 79.5171 24.7273 79.0159 24.2458C78.7942 24.0395 78.5857 23.8376 78.3684 23.6357L78.3196 23.5891L78.446 23.3916L78.2974 23.5691C78.222 23.5004 78.1622 23.4449 78.1001 23.3916C77.9581 23.2607 77.8229 23.1365 77.6854 23.0167L77.5412 22.888L77.4858 22.8414C77.2818 22.6595 77.08 22.4886 76.8804 22.3178L76.8449 22.2867L76.7872 22.2379L76.6542 22.127C76.459 21.9628 76.2661 21.8031 76.0709 21.6433L76.0177 21.6012C76.0053 21.5891 75.9919 21.5779 75.9778 21.5679C75.8248 21.4436 75.6828 21.3305 75.5343 21.2195L75.3125 21.0487C75.0752 20.8601 74.8357 20.6804 74.5962 20.5007L74.4277 20.3764L74.3057 20.2855C74.2614 20.2522 74.2347 20.23 74.2037 20.21C74.0684 20.1102 73.9465 20.0215 73.8245 19.9371C73.7402 19.875 73.667 19.8218 73.6027 19.7707C73.432 19.6487 73.2634 19.5311 73.0927 19.4135L73.0505 19.3847L72.9552 19.3181H72.9286L72.8776 19.2671L72.7955 19.2094L72.5582 19.0519L72.0593 18.7213L72.0105 18.6902C71.8198 18.566 71.6313 18.4462 71.4383 18.3264C71.2003 18.1785 70.963 18.0305 70.7265 17.8826L70.5912 17.8005C70.5247 17.7584 70.4559 17.7185 70.3872 17.6785C70.1233 17.5232 69.8638 17.3701 69.5999 17.2348L69.1032 16.9574L68.7062 16.7356L67.5974 17.8449C64.8122 20.6387 63.2481 24.4234 63.2481 28.3693C63.2481 32.3151 64.8122 36.0999 67.5974 38.8936L70.9238 42.2217C74.2269 45.5331 76.0819 50.0202 76.0819 54.6985C76.0819 59.3767 74.2269 63.8638 70.9238 67.1752L35.4863 102.625C38.3962 103.374 41.3754 103.82 44.3767 103.957L44.6761 103.97L44.6739 103.968Z" fill="#272425"/>
<path d="M74.5211 38.3345L72.8712 36.6838C71.7166 35.5299 70.8006 34.1596 70.1756 32.6513C69.5507 31.1429 69.229 29.5261 69.229 27.8934C69.229 26.2606 69.5507 24.6438 70.1756 23.1355C70.8006 21.6271 71.7166 20.2568 72.8712 19.1029C72.882 19.0921 72.8948 19.0836 72.9089 19.0779C72.923 19.0722 72.9381 19.0694 72.9533 19.0696C72.9712 19.0695 72.9887 19.0741 73.0043 19.083L73.144 19.1806L73.195 19.2161C73.3658 19.3314 73.5365 19.449 73.7051 19.5711C73.7827 19.6243 73.8581 19.6798 73.9268 19.7375C74.0532 19.824 74.1774 19.915 74.3016 20.0081C74.3392 20.0328 74.3755 20.0594 74.4103 20.088C74.4546 20.1191 74.499 20.1501 74.5411 20.1834L74.7074 20.3077C74.9491 20.4874 75.1886 20.6693 75.4259 20.8557C75.4999 20.9119 75.5738 20.9696 75.6477 21.0287C75.7918 21.1397 75.936 21.2506 76.0912 21.3726L76.1378 21.4104L76.1955 21.4569L76.7765 21.9384C76.8208 21.9739 76.8652 22.0094 76.9095 22.0493C77.0071 22.1292 77.1024 22.2113 77.1978 22.2956C77.2932 22.3799 77.3819 22.4531 77.4728 22.533C77.5637 22.6129 77.6036 22.6462 77.6702 22.7061L77.8143 22.8347C77.954 22.9568 78.0915 23.081 78.229 23.2075C78.2933 23.263 78.3554 23.3206 78.4197 23.3806L78.4485 23.4072L78.504 23.4582C78.7258 23.6601 78.9475 23.8642 79.1538 24.0706C79.6594 24.5572 80.1524 25.0527 80.6329 25.5571L80.7371 25.6658C80.9589 25.9032 81.1807 26.1406 81.4024 26.3802C81.4712 26.4579 81.5421 26.5377 81.6242 26.6154C81.9287 26.9541 82.2244 27.2973 82.5112 27.6449L82.7019 27.8667L82.7197 27.8889L83.0324 28.2661L83.4293 28.7587L83.6755 29.0737L83.6977 29.1003C83.8041 29.2357 83.9083 29.3732 84.0126 29.5108C84.5271 30.1853 85.0208 30.8716 85.4939 31.5697L85.5538 31.6563L85.7756 31.9957L85.8044 32.0379L86.0572 32.4261C86.0838 32.4639 86.1082 32.5016 86.1326 32.5415L86.2878 32.7856C86.3218 32.8344 86.3529 32.8832 86.381 32.932L86.4985 33.1206C86.7336 33.4978 86.9642 33.8749 87.186 34.2588C87.2547 34.3764 87.3235 34.494 87.39 34.6116L87.4233 34.6692L87.5364 34.8689L87.6428 35.0575C87.736 35.2261 87.8313 35.397 87.9222 35.5678C88.0132 35.7386 88.0841 35.8673 88.1639 36.0115L88.3569 36.3776L88.368 36.3998C88.4456 36.5507 88.5232 36.7016 88.5897 36.8546C88.5897 36.8768 88.6141 36.9012 88.6252 36.9256C88.6895 37.0543 88.7538 37.183 88.8159 37.3117C88.8249 37.3328 88.8274 37.3561 88.823 37.3786C88.8187 37.4012 88.8077 37.4219 88.7915 37.4382L87.92 38.3101C86.1451 40.0885 83.7376 41.0898 81.2256 41.0944C78.7137 41.0989 76.3025 40.1064 74.5211 38.3345Z" fill="#00415A"/>
<path d="M81.2358 41.3408C79.959 41.3439 78.6943 41.0941 77.5144 40.6059C76.3345 40.1178 75.2629 39.4009 74.3612 38.4965L72.7113 36.8458C70.3415 34.4692 69.0107 31.2492 69.0107 27.8923C69.0107 24.5353 70.3415 21.3154 72.7113 18.9387C72.7549 18.8952 72.8093 18.8641 72.8689 18.8485C72.9285 18.8329 72.9912 18.8334 73.0506 18.85H73.1038L73.1614 18.9054L73.2945 18.9986L73.3499 19.0364C73.514 19.1473 73.687 19.2582 73.8578 19.3891L74.0795 19.5577C74.2015 19.6398 74.3279 19.733 74.4543 19.8284C74.4945 19.8549 74.533 19.8838 74.5696 19.915C74.6143 19.9435 74.6572 19.9746 74.6983 20.0081L74.8601 20.1279C75.1019 20.3077 75.3436 20.4918 75.5831 20.6804C75.654 20.7336 75.7294 20.7936 75.8048 20.8557C75.9468 20.9622 76.0931 21.0776 76.2484 21.1996L76.2994 21.2395L76.3504 21.2794C76.55 21.4436 76.7429 21.6034 76.9358 21.7676C76.9802 21.8031 77.029 21.8408 77.0755 21.8829C77.1665 21.9584 77.264 22.0405 77.3616 22.127C77.4592 22.2135 77.5412 22.2801 77.6322 22.3489C77.7231 22.4176 77.7674 22.4664 77.8362 22.5286L77.9826 22.6573C78.12 22.7793 78.2575 22.9035 78.3972 23.0322C78.4593 23.0832 78.5214 23.1431 78.588 23.2053C78.601 23.215 78.6129 23.2262 78.6234 23.2386C78.6433 23.254 78.6618 23.2711 78.6789 23.2896C78.9006 23.4848 79.1091 23.6912 79.3264 23.8975C79.832 24.3856 80.331 24.887 80.8122 25.3929L80.8655 25.4484L80.912 25.4972C81.1338 25.739 81.3555 25.9786 81.5773 26.2183C81.6483 26.2981 81.717 26.3758 81.7991 26.4401C82.0851 26.7574 82.3779 27.1057 82.7016 27.4785C82.7704 27.5606 82.8347 27.6338 82.8946 27.7003L82.9168 27.7292L83.225 28.0997L83.6242 28.5945L83.8726 28.914L83.8925 28.9384C83.9989 29.0737 84.1143 29.2113 84.2096 29.3488C84.7352 30.0411 85.2364 30.7377 85.6999 31.4211L85.9859 31.8493C85.9966 31.8626 86.0062 31.8767 86.0148 31.8914L86.2698 32.2819C86.2942 32.3152 86.3208 32.3574 86.3474 32.4017C86.374 32.4461 86.4516 32.5615 86.5026 32.6458C86.5337 32.6902 86.567 32.7434 86.598 32.7967L86.6401 32.8632L86.7155 32.9808C86.9972 33.4356 87.2101 33.7884 87.4052 34.1234C87.4762 34.2477 87.5449 34.3631 87.6092 34.4784L87.913 35.0131C87.9907 35.1551 88.0683 35.2971 88.1348 35.4391C88.2013 35.5811 88.2967 35.7409 88.3788 35.8829L88.585 36.28C88.6626 36.4287 88.738 36.5795 88.8068 36.7237L88.8445 36.8014C88.9021 36.9146 88.9598 37.0233 89.0174 37.1497L89.0574 37.1897V37.254C89.0709 37.3115 89.0695 37.3714 89.0532 37.4282C89.0369 37.4849 89.0062 37.5365 88.9642 37.5779L88.1104 38.4965C87.2086 39.4008 86.137 40.1176 84.9571 40.6058C83.7773 41.0939 82.5126 41.3437 81.2358 41.3408ZM74.6916 38.1703C76.429 39.9018 78.7813 40.874 81.2336 40.874C83.6858 40.874 86.0382 39.9018 87.7756 38.1703L88.5872 37.3561L88.4342 37.0477C88.4275 37.0314 88.4193 37.0158 88.4098 37.0011L88.3987 36.9789C88.3255 36.8258 88.2479 36.6794 88.1769 36.5352L88.1592 36.5019L87.9707 36.1424C87.8909 35.9894 87.8133 35.8407 87.7312 35.6987C87.6492 35.5567 87.5782 35.4147 87.5094 35.2772L87.2078 34.7425C87.1458 34.6315 87.0792 34.5206 87.0127 34.4052C86.8153 34.0613 86.6047 33.713 86.323 33.2626L86.2521 33.1472L86.2055 33.074C86.1767 33.023 86.1478 32.9786 86.1168 32.9342L85.9593 32.6857C85.9349 32.6458 85.9128 32.6125 85.8884 32.5792C85.7997 32.4395 85.7154 32.3108 85.6311 32.1843L85.3207 31.7206C84.8616 31.0417 84.3649 30.3517 83.8459 29.6705C83.7417 29.533 83.6419 29.4021 83.5377 29.2712L83.5066 29.2312L83.2849 28.9339L82.879 28.4303C82.777 28.306 82.6728 28.1796 82.5686 28.0575L82.5553 28.0376L82.369 27.8157C82.0408 27.4274 81.7503 27.0924 81.4819 26.7818C81.411 26.7064 81.3378 26.6265 81.2602 26.5466C81.0384 26.3092 80.8167 26.074 80.5949 25.8366L80.5417 25.7834L80.4951 25.7324C80.0139 25.2287 79.5194 24.7317 79.0182 24.2503C78.7964 24.0439 78.588 23.842 78.3706 23.6401L78.3218 23.5935L78.4482 23.3961L78.2997 23.5736C78.2243 23.5048 78.1644 23.4493 78.1023 23.3961C77.9604 23.2652 77.8251 23.1409 77.6876 23.0211L77.5435 22.8924C77.4769 22.8325 77.4148 22.7771 77.3505 22.7238C77.2507 22.6373 77.1642 22.5596 77.0755 22.4864C76.9868 22.4132 76.8826 22.3178 76.7873 22.2401L76.6564 22.1314C76.4613 21.9672 76.2683 21.8075 76.0732 21.6478L76.0199 21.6056C76.0075 21.5935 75.9942 21.5824 75.98 21.5723C75.827 21.4481 75.6851 21.3349 75.5365 21.224L75.3147 21.0531C75.0775 20.8645 74.838 20.6848 74.5985 20.5051L74.4299 20.3809L74.308 20.2899C74.2636 20.2566 74.237 20.2344 74.2059 20.2145C74.0707 20.1146 73.9487 20.0259 73.8267 19.9416C73.7425 19.8795 73.6693 19.8262 73.605 19.7752C73.4342 19.6509 73.2657 19.5333 73.0971 19.4202L73.0528 19.3891L72.984 19.3403C70.7316 21.6371 69.4756 24.7302 69.4889 27.9479C69.5022 31.1656 70.7836 34.2482 73.055 36.5263L74.7049 38.177L74.6916 38.1703ZM88.4697 36.3643L88.381 36.4198L88.5539 36.3377L88.4697 36.3643Z" fill="#272425"/>
<path d="M150.439 188.604L150.574 188.469C152.12 186.923 154.216 186.054 156.402 186.054C158.588 186.054 160.684 186.923 162.23 188.469L163.15 189.389L142.043 210.507C137.909 209.873 133.88 208.679 130.068 206.957C119.687 202.264 111.356 193.968 106.619 183.603C106.152 182.568 105.721 181.523 105.328 180.468C105.666 180.13 106.066 179.863 106.507 179.68C106.948 179.497 107.421 179.403 107.898 179.403C108.376 179.403 108.848 179.497 109.289 179.68C109.73 179.863 110.131 180.13 110.469 180.468L118.02 188.012C118.685 188.676 119.587 189.049 120.527 189.049C121.467 189.049 122.368 188.676 123.034 188.012L123.093 187.95C123.717 187.325 124.458 186.83 125.273 186.492C126.088 186.155 126.961 185.981 127.844 185.981C128.726 185.981 129.599 186.155 130.414 186.492C131.229 186.83 131.97 187.325 132.594 187.95L133.228 188.584C134.356 189.717 135.697 190.616 137.173 191.231C138.648 191.845 140.231 192.162 141.829 192.164C143.428 192.166 145.011 191.852 146.488 191.241C147.966 190.631 149.308 189.734 150.439 188.604Z" fill="#C6C5C2"/>
<path d="M142.123 210.753L142.008 210.736C137.857 210.104 133.812 208.91 129.984 207.186C119.551 202.471 111.18 194.134 106.419 183.719C105.951 182.687 105.514 181.626 105.122 180.568L105.071 180.428L105.175 180.324C105.901 179.599 106.884 179.192 107.909 179.192C108.935 179.192 109.918 179.599 110.644 180.324L118.184 187.867C118.491 188.176 118.857 188.42 119.259 188.587C119.661 188.754 120.092 188.84 120.528 188.84C120.963 188.84 121.394 188.754 121.796 188.587C122.199 188.42 122.564 188.176 122.872 187.867L122.934 187.805C124.237 186.503 126.004 185.771 127.847 185.771C129.689 185.771 131.456 186.503 132.76 187.805L133.394 188.442C135.634 190.677 138.667 191.931 141.83 191.931C144.993 191.931 148.027 190.677 150.266 188.442L150.43 188.604L150.266 188.442L150.403 188.305C151.994 186.72 154.147 185.83 156.391 185.83C158.635 185.83 160.788 186.72 162.379 188.305L163.463 189.39L142.123 210.753ZM105.61 180.539C105.984 181.542 106.397 182.536 106.84 183.517C111.554 193.831 119.844 202.086 130.174 206.755C133.929 208.448 137.894 209.628 141.963 210.261L162.824 189.39L162.066 188.633C160.562 187.133 158.525 186.29 156.402 186.29C154.279 186.29 152.242 187.133 150.738 188.633L150.603 188.768C148.276 191.085 145.126 192.386 141.843 192.386C138.56 192.386 135.411 191.085 133.084 188.768L132.45 188.134C131.847 187.531 131.132 187.053 130.346 186.727C129.559 186.401 128.715 186.233 127.864 186.233C127.012 186.233 126.168 186.401 125.381 186.727C124.595 187.053 123.88 187.531 123.277 188.134L123.215 188.196C122.865 188.547 122.449 188.826 121.991 189.017C121.533 189.207 121.041 189.305 120.545 189.305C120.049 189.305 119.558 189.207 119.1 189.017C118.642 188.826 118.226 188.547 117.875 188.196L110.335 180.652C109.715 180.025 108.877 179.663 107.995 179.642C107.114 179.621 106.259 179.943 105.61 180.539Z" fill="#272425"/>
<path d="M195.255 157.786C195.565 159.977 195.72 162.186 195.72 164.398C195.725 170.753 194.429 177.042 191.913 182.878C191.855 183.013 191.795 183.151 191.733 183.286C189.707 187.859 186.957 192.075 183.59 195.773C182.555 196.913 181.47 197.994 180.335 199.014C175.767 203.141 170.427 206.322 164.623 208.373C158.82 210.424 152.668 211.305 146.523 210.964C145.019 210.887 143.526 210.735 142.043 210.507L195.255 157.786Z" fill="#A1CDE2"/>
<path d="M148.991 211.27C148.166 211.27 147.339 211.25 146.511 211.208C145.012 211.13 143.498 210.975 142.007 210.747L141.564 210.678L195.43 157.31L195.494 157.767C195.805 159.967 195.962 162.187 195.962 164.409C195.974 170.797 194.672 177.119 192.137 182.982C192.079 183.117 192.017 183.257 191.955 183.395C189.919 187.99 187.156 192.226 183.772 195.941C182.741 197.073 181.641 198.16 180.501 199.198C171.869 206.998 160.642 211.302 149.011 211.27H148.991ZM142.535 210.358C143.866 210.547 145.196 210.676 146.527 210.744C152.644 211.084 158.767 210.207 164.543 208.165C170.32 206.122 175.634 202.955 180.179 198.846C181.308 197.827 182.397 196.742 183.419 195.62C186.771 191.941 189.507 187.745 191.523 183.195C191.585 183.06 191.642 182.924 191.7 182.789C194.211 176.984 195.501 170.725 195.49 164.4C195.489 162.354 195.355 160.31 195.088 158.281L142.535 210.358Z" fill="#272425"/>
<path d="M117.984 220.318L118.321 220.933C121.162 226.109 125.426 230.362 130.609 233.189L131.225 233.524L130.611 233.861C125.437 236.703 121.186 240.97 118.361 246.155L118.026 246.769L117.689 246.157C114.85 240.982 110.588 236.728 105.408 233.901L104.793 233.566L105.408 233.235C110.582 230.393 114.833 226.127 117.658 220.941L117.984 220.318Z" fill="#E06C71"/>
<path d="M118.029 247.002L117.585 246.21C114.755 241.053 110.505 236.818 105.339 234.007L104.545 233.564L105.337 233.12C110.492 230.29 114.725 226.038 117.534 220.87L117.978 220.076L118.421 220.868C121.25 226.025 125.5 230.26 130.665 233.071L131.458 233.501L130.667 233.945C125.513 236.777 121.28 241.029 118.47 246.197L118.029 247.002ZM105.018 233.566L105.461 233.803C110.665 236.637 114.945 240.907 117.793 246.104L118.033 246.547L118.27 246.104C121.103 240.898 125.37 236.615 130.565 233.766L131.008 233.526L130.565 233.288C125.36 230.455 121.079 226.186 118.23 220.988L117.991 220.544L117.754 220.988C114.922 226.195 110.654 230.478 105.459 233.328L105.018 233.566Z" fill="#272425"/>
<path d="M184.481 127.213C178.656 132.822 169.364 132.74 163.58 127.027C162.153 125.621 161.021 123.944 160.251 122.094C159.481 120.244 159.088 118.259 159.096 116.255C159.101 114.266 159.506 112.297 160.286 110.468C161.067 108.638 162.207 106.985 163.64 105.605C169.373 100.081 178.982 100.116 184.639 105.683C187.775 108.773 189.214 113.082 188.961 117.298C188.764 121.048 187.165 124.587 184.481 127.213Z" fill="#EBCB3F"/>
<path d="M174.154 131.588H174.017C169.981 131.551 166.123 129.918 163.286 127.045C160.45 124.172 158.865 120.293 158.877 116.255C158.876 114.234 159.284 112.234 160.076 110.375C160.869 108.516 162.029 106.837 163.487 105.439C169.3 99.8366 179.057 99.8721 184.794 105.519C187.85 108.529 189.451 112.825 189.183 117.304C188.989 121.115 187.366 124.712 184.637 127.377C181.822 130.09 178.063 131.6 174.154 131.588ZM174.11 101.696C170.277 101.664 166.581 103.119 163.796 105.754C162.38 107.111 161.253 108.742 160.484 110.546C159.715 112.351 159.319 114.293 159.321 116.255C159.308 118.23 159.693 120.187 160.452 122.01C161.211 123.833 162.328 125.485 163.738 126.867C169.395 132.456 178.634 132.538 184.331 127.053C186.979 124.466 188.554 120.974 188.742 117.275C189.003 112.922 187.451 108.751 184.486 105.831C181.694 103.076 177.898 101.696 174.108 101.696H174.11Z" fill="#272425"/>
<path d="M184.481 127.213C178.656 132.822 169.364 132.74 163.58 127.027C162.153 125.621 161.021 123.944 160.251 122.094C159.481 120.244 159.088 118.259 159.096 116.255C162.327 115.387 166.414 115.731 170.247 120.217C176.431 127.47 185.266 120.728 188.961 117.287C188.766 121.041 187.167 124.584 184.481 127.213Z" fill="#F7EDDE"/>
<path d="M174.154 131.588H174.017C169.981 131.551 166.123 129.918 163.286 127.045C160.45 124.172 158.865 120.293 158.877 116.255V116.088L159.039 116.044C161.988 115.254 166.357 115.312 170.415 120.078C172.081 122.03 174.074 123.086 176.339 123.217C181.2 123.499 186.24 119.523 188.81 117.129L189.216 116.752L189.183 117.304C188.989 121.115 187.366 124.712 184.637 127.377C181.822 130.09 178.063 131.6 174.154 131.588ZM159.321 116.426C159.331 118.372 159.726 120.297 160.485 122.089C161.243 123.881 162.349 125.505 163.738 126.867C169.395 132.456 178.634 132.538 184.331 127.053C186.843 124.601 188.393 121.328 188.7 117.83C186.072 120.202 181.439 123.67 176.831 123.67C176.658 123.67 176.487 123.67 176.314 123.654C173.926 123.517 171.828 122.41 170.08 120.359C166.98 116.725 163.361 115.403 159.318 116.426H159.321Z" fill="#272425"/>
<path d="M36.3315 169.1C33.1108 172.327 28.8874 174.361 24.3569 174.866C19.8265 175.371 15.2592 174.317 11.4076 171.877C10.1392 171.088 8.96509 170.156 7.90822 169.1C6.03686 167.234 4.55162 165.017 3.53749 162.576C2.52336 160.135 2.00024 157.518 1.99805 154.874C1.99587 152.231 2.51467 149.613 3.52477 147.17C4.53486 144.728 6.01642 142.508 7.8847 140.639C9.75297 138.77 11.9713 137.288 14.4127 136.277C16.8542 135.267 19.4708 134.747 22.113 134.75C24.7551 134.752 27.3709 135.275 29.8107 136.29C32.2504 137.304 34.4663 138.79 36.3315 140.663C37.1842 141.505 37.9516 142.429 38.6223 143.423C41.3097 147.292 42.5527 151.984 42.134 156.677C41.7152 161.37 39.6615 165.767 36.3315 169.1Z" fill="#5793B7"/>
<path d="M22.1451 175.219C18.298 175.223 14.529 174.132 11.2788 172.073C9.99312 171.274 8.80269 170.332 7.73061 169.264C3.91734 165.448 1.77554 160.272 1.77637 154.876C1.7772 149.48 3.9206 144.305 7.73505 140.49C11.5495 136.674 16.7225 134.532 22.1161 134.533C27.5097 134.533 32.6821 136.678 36.4954 140.494C37.358 141.348 38.1349 142.284 38.815 143.29C40.936 146.336 42.1818 149.906 42.4172 153.611C42.6527 157.317 41.8686 161.015 40.1503 164.306C38.432 167.597 35.8452 170.354 32.6708 172.277C29.4965 174.2 25.8561 175.216 22.1451 175.214V175.219ZM22.1208 135.007C18.1908 135.005 14.3484 136.169 11.0801 138.352C7.81172 140.536 5.26428 143.64 3.76017 147.273C2.25606 150.905 1.8629 154.903 2.63047 158.759C3.39804 162.615 5.29183 166.157 8.07213 168.935C9.1167 169.979 10.2766 170.901 11.5294 171.682C19.2911 176.619 29.6429 175.454 36.1672 168.935C39.4711 165.649 41.51 161.302 41.925 156.659C42.34 152.017 41.1044 147.377 38.4358 143.556C37.7714 142.574 37.0123 141.66 36.1694 140.827C34.3286 138.976 32.1392 137.508 29.7277 136.509C27.3163 135.51 24.7307 135 22.1208 135.007Z" fill="#272425"/>
<path d="M36.3311 169.1C33.1104 172.327 28.887 174.361 24.3565 174.866C19.8261 175.371 15.2588 174.317 11.4072 171.877C15.5187 167.078 14.3478 158.328 21.6682 150.578C28.1968 143.685 34.9606 143.09 38.6219 143.432C41.307 147.3 42.5486 151.99 42.1299 156.681C41.7112 161.373 39.6588 165.768 36.3311 169.1Z" fill="#231F20"/>
<path d="M146.878 88.2173C144.592 90.5085 141.594 91.9524 138.379 92.3109C135.163 92.6694 131.921 91.9213 129.188 90.1897C128.286 89.6305 127.453 88.9686 126.704 88.2173C124.028 85.5399 122.524 81.9086 122.524 78.1223C122.524 74.3359 124.028 70.7046 126.704 68.0272C129.38 65.3499 133.01 63.8457 136.794 63.8457C140.579 63.8457 144.208 65.3499 146.884 68.0272C147.491 68.6254 148.036 69.2824 148.512 69.9885C150.42 72.7362 151.302 76.0675 151.003 79.3998C150.704 82.7321 149.244 85.8532 146.878 88.2173Z" fill="#C6C5C2"/>
<path d="M136.816 92.6303C134.073 92.6323 131.385 91.8536 129.068 90.385C128.154 89.8171 127.309 89.1472 126.546 88.3882C123.828 85.6681 122.3 81.979 122.3 78.1323C122.3 74.2855 123.828 70.5964 126.546 67.8764C129.265 65.1563 132.952 63.6282 136.797 63.6282C140.642 63.6282 144.33 65.1563 147.048 67.8764C147.664 68.4859 148.218 69.1547 148.703 69.8732C150.65 72.6606 151.552 76.0462 151.249 79.4335C150.946 82.8208 149.459 85.9926 147.048 88.3904C144.7 90.7374 141.618 92.2087 138.318 92.5593C137.819 92.6095 137.318 92.6332 136.816 92.6303ZM136.796 64.0846C133.75 64.076 130.784 65.0603 128.347 66.8886C125.91 68.7168 124.135 71.2895 123.29 74.2173C122.444 77.1451 122.575 80.2687 123.663 83.1153C124.75 85.962 126.735 88.3769 129.316 89.9945C132.011 91.6836 135.197 92.4111 138.357 92.0586C141.518 91.7061 144.466 90.2945 146.722 88.0531C149.057 85.7319 150.498 82.6604 150.79 79.3803C151.083 76.1001 150.208 72.822 148.321 70.1239C147.852 69.4305 147.317 68.7847 146.722 68.1959C145.422 66.8879 143.875 65.851 142.171 65.1453C140.467 64.4396 138.64 64.0791 136.796 64.0846Z" fill="#272425"/>
<path d="M146.877 88.2173C144.592 90.5085 141.594 91.9524 138.379 92.3109C135.163 92.6694 131.921 91.9213 129.188 90.1897C132.106 86.784 131.272 80.5717 136.47 75.0649C141.105 70.1705 145.906 69.74 148.505 69.993C150.413 72.7395 151.295 76.0694 150.997 79.4007C150.7 82.732 149.242 85.8527 146.877 88.2173Z" fill="#231F20"/>
<path d="M160.848 47.0606C160.169 47.7405 159.362 48.2799 158.474 48.6478C157.586 49.0158 156.635 49.2052 155.674 49.2052C154.713 49.2052 153.761 49.0158 152.873 48.6478C151.985 48.2799 151.178 47.7405 150.499 47.0606C149.042 45.6029 146.03 43.1202 141.003 46.2086C142.906 44.356 147.674 39.5526 149.776 37.4337L154.433 32.7745L171.637 15.5619C174.382 12.8163 178.104 11.2738 181.986 11.2738C185.867 11.2738 189.589 12.8163 192.334 15.5619L160.848 47.0606Z" fill="black"/>
<path d="M155.679 49.4368C154.687 49.4389 153.704 49.2438 152.788 48.863C151.872 48.4821 151.04 47.923 150.342 47.2181C148.618 45.4942 145.789 43.5351 141.13 46.3994L139.355 47.4888L140.85 46.0356C142.471 44.4559 146.121 40.7839 148.536 38.3545L149.619 37.2651L154.276 32.6059L171.48 15.3933C174.268 12.6043 178.05 11.0375 181.993 11.0375C185.935 11.0375 189.717 12.6043 192.505 15.3933L192.669 15.5575L192.505 15.7216L161.015 47.227C160.316 47.9298 159.484 48.487 158.568 48.8663C157.652 49.2456 156.671 49.4395 155.679 49.4368ZM145.569 44.5003C148.273 44.5003 149.958 46.1865 150.67 46.8964C152 48.2235 153.802 48.9687 155.68 48.9687C157.559 48.9687 159.361 48.2235 160.691 46.8964L192.013 15.5597C189.298 12.9277 185.658 11.4694 181.877 11.4998C178.097 11.5301 174.48 13.0465 171.808 15.7216L154.602 32.9342L149.945 37.5935L148.862 38.6828C146.909 40.6486 144.148 43.4264 142.303 45.2524C143.326 44.7737 144.44 44.5174 145.569 44.5003Z" fill="#272425"/>
</g>
<defs>
<clipPath id="clip0_753_6944">
<rect width="196" height="247" fill="white"/>
</clipPath>
</defs>
</svg>
