<?xml version="1.0" encoding="utf-8"?>
<!-- Generator: Adobe Illustrator 23.0.1, SVG Export Plug-In . SVG Version: 6.00 Build 0)  -->
<svg version="1.1" id="Capa_1" xmlns="http://www.w3.org/2000/svg" xmlns:xlink="http://www.w3.org/1999/xlink" x="0px" y="0px"
	 viewBox="0 0 710 710" style="enable-background:new 0 0 710 710;" xml:space="preserve">
<style type="text/css">
	.st0{opacity:0.3;fill:#141414;}
	.st1{opacity:0.1;}
	.st2{fill:#FFFFFF;}
	.st3{fill:none;stroke:#1A2E35;stroke-linecap:round;stroke-linejoin:round;stroke-miterlimit:10;}
	.st4{fill:#0092FF;}
	.st5{fill:#1A2E35;}
	.st6{opacity:0.3;}
	.st7{opacity:0.8;fill:#FFFFFF;}
	.st8{fill:none;stroke:#1A2E35;stroke-linecap:round;stroke-linejoin:round;}
	.st9{fill:none;stroke:#1A2E35;stroke-linecap:round;stroke-linejoin:round;stroke-dasharray:3.9716,3.9716;}
	.st10{fill:none;stroke:#1A2E35;stroke-linecap:round;stroke-linejoin:round;stroke-dasharray:3.9873,3.9873;}
	.st11{fill:none;stroke:#1A2E35;stroke-linecap:round;stroke-linejoin:round;stroke-dasharray:4.0406,4.0406;}
	.st12{fill:none;stroke:#1A2E35;stroke-linecap:round;stroke-linejoin:round;stroke-miterlimit:10;stroke-dasharray:4,4;}
	.st13{fill:#FFFFFF;stroke:#1A2E35;stroke-linecap:round;stroke-linejoin:round;stroke-miterlimit:10;}
</style>
<path class="st0" d="M552.8,623.4H149.1c-47.5,0-86-38.5-86-86V133.8c0-47.5,38.5-86,86-86h403.6c47.5,0,86,38.5,86,86v403.6
	C638.8,584.9,600.3,623.4,552.8,623.4z"/>
<g>
	<path class="st1" d="M510.7,305.8c-0.5-13.3-1.3-27.4-2.8-42c-1.9-29.2-5.6-56.5-12.2-73.6c0,0,0,0,0,0c0,0,0,0,0,0c0,0,0,0,0,0
		l0,0c-36.5-7.5-226.2,6.4-226.3,6.4l-1.2-5.3c-0.2-0.7-0.3-1.4-0.5-2.1l-0.8-3.7l-0.2-0.8c-1.2-5-2.6-9.9-4.2-14.7c0,0,0,0,0,0l0,0
		c0,0-143.8-12.8-191.5-0.4v0c0,0,0,0,0,0c0,0.4,0,0.8,0,1.2l0.1,11.8c0.1,22.8-0.4,44.1,0.8,67.6l0,0.2c0,0,0,0,0,0
		c-0.1,0-0.3,0-0.7,0.1c-3.9,0.5-7,3.2-8.2,6.7l0,0v0c-0.5,1.3-0.7,2.8-0.5,4.3l0.7,7.3c0,0.1,0,0.2,0,0.3
		c1.8,18.7,3.5,37.2,3.5,37.2l0,0c0.1,0,0.9,0.1,2.4,0.2l7.9,0.5c-16.8,1.6-35.1,23.8-34.4,42.8c0.8,19.1-17.6,55-13,75.7
		c3.6,16.1,21.6,42,30.4,61.7c-0.2,1.2-0.4,2.5-0.7,3.9l-39.4,79.1c2.6-3.9,26.3,99.4,136.7,77.5l78.5-127.8c-9.7,7.5,0,0,0,0
		c7.6-5.9,16.5-13.6,23.9-22.5c3.4-3.6,6-7,7.4-10.2c0,0,0,0,0,0c2.8-4.6,5.1-9.5,6.4-14.4c0.3-1.3,0.7-2.7,1.1-4
		c6.4-16.3,15-38.6,21.2-54c82.6-2.4,169.5-7.5,213.1-17.8c0,0,0.1,0,0.1,0C512.4,368.3,512.5,336.1,510.7,305.8z M86.1,378.1
		c0,0-1-6.7-1.2-14.4c1,5.1,2,10.1,3.1,15.2C87.4,378.6,86.8,378.3,86.1,378.1z"/>
	<g>
		<path class="st2" d="M10.9,565.1c0,0,35.3,104.4,145.7,82.6c0,0,24.5-114.9,45-131.9c13.2-10.9,42.5-30.5,48.7-44.6
			c6.4-14.4,31.3-81.4,36.2-89.5c4.9-8.1-52.6-101.2-52.6-101.2L112.7,343L45.4,462.6C45.4,462.6,32.4,539.9,10.9,565.1z"/>
		<path class="st3" d="M44.2,471.8c0,0-8.6,64.6-37.2,98.3"/>
		<path class="st3" d="M156.6,647.7c0,0,24.4-111.2,45-131.9c0,0,46.6-27.1,55.1-59.1c5.8-22.1,16.4-47.6,21.5-59.2"/>
		<path class="st3" d="M166.4,401.1c-1.8-1.1,28.2,22.9,29.4,55.7"/>
	</g>
	<path class="st4" d="M492.1,381c-97.2,22.9-410.4,19.9-410.4,19.9c-2.6-5.6-5.8-19.6-8.9-35.8C66.6,332.5,60.9,291,60.9,291
		l-10.4-0.7c0,0-1.7-18.5-3.5-37.2c-1.7-18.7,8.7-18.7,8.7-18.7L55,169.8l-0.2-16.1c47.7-12.5,191.5,0.4,191.5,0.4l4.5,15.6l2.5,11
		l226.4-6.4C500.5,227.9,492.1,381,492.1,381z"/>
	<g>
		<path class="st5" d="M455.6,277.1l-148.3,7.1c-6.1,0.3-11.3-4.4-11.6-10.5l-1.4-30.1c-0.3-6.1,4.4-11.3,10.5-11.6l148.3-7.1
			c6.1-0.3,11.3,4.4,11.6,10.5l1.4,30.1C466.4,271.6,461.7,276.8,455.6,277.1z"/>
		<polygon class="st5" points="466.8,296.1 467.3,301.1 296.4,307.8 296.2,303.3 		"/>
		<polygon class="st5" points="467.7,313.6 467.8,318.1 296.9,324.4 296.8,319.9 		"/>
	</g>
	<path class="st6" d="M479.7,174.3c0,0,25.2,119.6,12.4,206.7c0,0-159.5,18.7-214.1,15.7l-2.2-29.1l4.6-0.7c0,0-22.1-166.2-27-186.2
		C253.3,180.6,443.3,166.8,479.7,174.3z"/>
	<path class="st7" d="M270.5,367.1l1.9,22c0,0-160.8,7-174.9,1.9s0.8-13.3,38.1-16.2C173,371.9,270.5,367.1,270.5,367.1z"/>
	<ellipse class="st5" cx="174.5" cy="260.5" rx="14.7" ry="13.3"/>
	<path class="st3" d="M60.9,291c3.7,38.7,9.9,72.5,20.8,109.8c68.2-0.6,136.4-1.3,204.5-3.5c68.2-2.2,138.3-6.8,205.9-16.3
		c0,0,12.1-106.9-12.4-206.7c-27.1-5.6-225.6,6.4-225.6,6.4"/>
	<path class="st3" d="M270.5,367.1l1.9,22l-153,3.5c-6.3,0.5-16.1,1.4-21.9-1.6c-2.7-1.4-4.6-4.7-3.3-7.4c1.1-2.4,4.1-3.3,6.7-3.8
		c18.7-3.8,37.8-5.5,56.9-6.9c40.8-3,81.7-5.1,122.5-6.1c-0.8,0-10.8-82.3-11.9-89.9c-4.3-29.7-8.4-59.6-13.8-89.2
		c-2.1-11.4-4.6-22.7-8.3-33.8c-63-4.5-128.9-8.7-191.5-0.4c0.6,27.9-0.5,52.8,1,80.8"/>
	<g>
		<g>
			<path class="st8" d="M79.4,392.6c0,0-0.3-0.7-0.5-1.9"/>
			<path class="st9" d="M78.7,386.7c0.5-6.4,5.5-16.2,29.4-18.9c35.6-4,114.2-11.1,158.2-12.6"/>
			<path class="st8" d="M268.3,355.1c0.7,0,1.3,0,2-0.1c-0.1-0.7-0.2-1.3-0.3-2"/>
			<path class="st10" d="M269.5,349.1c-8.3-60-17.5-119.6-28.1-179.2"/>
			<path class="st8" d="M241,167.9c-0.1-0.7-0.2-1.3-0.4-2c0,0-0.7-0.1-2-0.1"/>
			<path class="st11" d="M234.6,165.5c-24.3-1.7-116.9-7.6-175.6-3.1"/>
			<path class="st8" d="M57,162.6c-0.7,0.1-1.3,0.1-2,0.2"/>
		</g>
	</g>
	<path class="st3" d="M50.5,290.3l-4.2-44.9c-0.5-5.7,3.7-10.7,9.4-11c25.9-1.5,92.7-5,118.4-3c12.3,1,25.7,4.9,31.7,16.7
		c4.9,9.7,5.7,24.3-2.6,32.3c-12.7,12.1-36.7,11.2-53,11.8C119.8,293.3,50.6,290.5,50.5,290.3z"/>
	<path class="st5" d="M209.6,262.9c0.1-1.3,6.4,25.8-17,34.7c-23.4,8.9-131.7,6.1-131.7,6.1V291c0,0,76.6,1.6,89.3,1.3
		C163,291.9,208.2,296.2,209.6,262.9z"/>
	<path class="st3" d="M187.1,413.8c0,0,19.1,11.2,26.3,32.3"/>
	<path class="st12" d="M46.9,241.2c0,0,93.9-4.4,117.7-3.6c23.9,0.8,35.6,6,38,21c2.4,15-12.1,24.4-23.6,26
		c-11.5,1.6-128.4,2.3-128.4,2.3"/>
	<g>
		<g>
			<path class="st13" d="M111.4,422.5c0,0-14.5-50.5-41.3-60.4c0,0-5.4-34.4,6.1-36.3c11.5-1.9,43.6-23.1,35.2-49.6
				c-8.4-26.5-33.6,13.3-50.5,14.8c-16.8,1.5-35.2,23.7-34.4,42.8c0.8,19.1-17.6,55-13,75.7s32.9,57.3,35.2,76.5"/>
			<path class="st13" d="M76.2,283.2c0,0,20.1,3.7,31.1-9.1c11-12.8-1.7-13.6-1.7-13.6L76.2,283.2z"/>
		</g>
		<path class="st3" d="M40.2,311.7c3.7,0.2,7.3,1.4,10.4,3.4"/>
		<path class="st3" d="M39.6,319c3.6,0.3,7.2,1.7,10.1,4"/>
	</g>
	<path class="st3" d="M93.9,386.7c0,0,86.2-4.5,108.9-3.2"/>
	<path class="st3" d="M181.9,376.9c0,0,21.7-1.7,35.2,0"/>
	<line class="st3" x1="236.8" y1="383.3" x2="271.9" y2="383.3"/>
	<path class="st12" d="M258,190.5c0,0,154.1-13.8,216.1-5.9c0,0,16.7,30.7,13.1,188.2c0,0-100.3,13.8-209.8,15.6"/>
	<g>
		<g class="st1">
			<path d="M675.3,408.4c-4.4-18.6-10.8-25.6-17.2-31c0,0-0.2-10.6-8.4-16.6c-2.1-1.9-4.5-3.6-7.1-5.2c-7.7-5.8-16.3-12.4-16.3-12.4
				c-4-11.6-9.4-25.7-15.3-39.5l0.3,3.1c-6-14.7-11.9-29.3-13.6-34.2c0,0,0-0.1,0-0.1c1.7,4.7,3.5,9.2,5.5,13.4l-22-77.8
				c-0.5-3.1-1.1-6.2-1.6-9.2c-1-8.8-3.9-25.4-10.8-26.5c-0.3-0.1-0.5-0.1-0.8-0.1c0,0-8.1-3.5-8.1,10.9
				c-9.7,3.2-13.4,10.5-14.4,19.2c-0.5,2.5-0.6,5.2-0.2,8.3c0.2,3.2,0.5,6.4,1,9.7l-31.1-40.9l-3-4l-38.5-50.7l-51.8-68.2
				c-8.1-10.7-23.3-12.7-34-4.6l-64.2,48.8l-25.1,19c-19.2,10-14.2,29.8-8.9,36.8l112,147.4c-1.1-0.1-1.7-0.1-1.7-0.1
				c0,0-3.2-7.6-11.1-6.4c-1.6,0.1-3.2,0.5-4.7,1.6c-1.3,0.6-2.3,1.6-3.1,2.9c-0.8,1-1.6,2.1-2.4,3.4c-4,6.9-0.3,23.8,5.5,44.4
				c0.4,1.3,0.7,2.6,1.1,3.8c0,0.1,0,0.1,0.1,0.2c0.5,1.7,1,3.4,1.5,5.1c5.7,19.8,16.4,58.6,18.3,77.6c0.1,1.8,0.2,3.6,0.3,5.4
				c0.1,21.9-9.6,58.6-5.4,73.8c0.5,2,1.1,3.9,1.7,5.8c3.1,10.1,5.9,19.7,10.8,29.2c5.9,11.6,13,22.7,19.7,34
				c12.2,20.7,24.8,41.1,37.8,61.2c6,9.3,13,17.7,19.8,26.4c3.1,4,9.9,10,11.1,15.1c0,0,60.2,5,93.9-16.4l-3.2-47.9l22.6-129.9
				c6.5-9.8,26.3-28.9,30.4-35c2-3,4.1-6,6-8.9c14.9-13.9,22.3-24.7,25.6-37.1C676.1,412.2,675.9,410.8,675.3,408.4z M464.5,433.9
				C464.5,433.9,464.4,433.8,464.5,433.9C464.4,433.8,464.5,433.9,464.5,433.9C464.5,433.9,464.5,433.9,464.5,433.9z M466.9,436.8
				l-0.3-0.6c2.8,1.3,9.4,4.1,19.3,5.6C478.9,441.1,471,440,466.9,436.8z M492.2,442.6C492.2,442.6,492.2,442.6,492.2,442.6
				c1,0.1,2.1,0.2,3.2,0.2C494.5,442.9,493.4,442.8,492.2,442.6z M466.2,435.5l-4-8c-5.6-16.1-18.4-54.2-18.4-54.4c0,0,0,0,0,0
				c0,0-3.3-15.7-9.9-32.1c5.9,2.1,12.6,1.2,18-2.8l30.8-23.4c3.2,1.9,6.4,3.6,9.6,5.2l28.8,22.5l-22.9,94L466.2,435.5z M582.9,219
				C582.9,219,582.9,219,582.9,219c2.4,11.2,6.2,27.4,11.2,43C590.3,250.8,585.6,235.5,582.9,219z"/>
			<path d="M452.2,670.6l0.2,0.8C452.4,671.5,452.4,671.2,452.2,670.6z"/>
		</g>
		<g>
			<g>
				<path class="st2" d="M559.1,222.5c1.8-1.2,27.5-15.2,40.4,26.9s28.1,113.7,28.1,113.7l-30.7,6c0,0-28.4-15.1-53.9-53
					c0,0-35.7-9.3-51.3-31.2c-14.1-20,29.3-93.3,29.3-93.3L559.1,222.5z"/>
				<path class="st3" d="M548.1,274.9c7.6,11.4,22,35.4,41.4,42.9"/>
				<path class="st3" d="M526.6,287.1c3.6,1.4,12.4,6.5,16.5,6.7c0,0,17.9,35.5,47.5,47"/>
				<path class="st3" d="M510.1,300.2c11,9.2,24.1,15.5,32.9,15.9c0,0,17.9,35.5,47.5,47"/>
			</g>
			<g>
				<path class="st5" d="M575.9,251.5l-97.3,73.9c-8.4,6.4-20.5,4.8-26.9-3.7L316.7,143.9c-6.4-8.4-4.8-20.5,3.7-26.9l97.3-73.9
					c8.4-6.4,20.5-4.8,26.9,3.7l135.1,177.9C586,233,584.4,245.1,575.9,251.5z"/>
				<path class="st4" d="M573.1,247.7l-89.3,67.8c-10.7,8.1-25.9,6-34-4.6L320.9,141c-2.2-2.8-3.6-6-4.3-9.3c-2.1-9,1.2-18.7,9-24.6
					l25.1-19l64.2-48.8c10.7-8.1,25.9-6,34,4.6l51.8,68.2l38.5,50.7l38.8,51C585.9,224.4,583.8,239.6,573.1,247.7z"/>
				<path class="st1" d="M500.5,112L350.6,88l64.2-48.8c10.7-8.1,25.9-6,34,4.6L500.5,112z"/>
				<path class="st1" d="M573.1,247.7l-89.3,67.8c-10.7,8.1-25.9,6-34-4.6L320.9,141c-2.2-2.8-3.6-6-4.3-9.3l225.5,35l35.7,47.1
					C585.9,224.4,583.8,239.6,573.1,247.7z"/>
				<path class="st13" d="M455.3,93l-15.8,12c-3.2,2.4-7.6,1.8-10-1.4l-19.1-25.1c-2.4-3.2-1.8-7.7,1.4-10l15.8-12
					c3.2-2.4,7.6-1.8,10,1.4L456.7,83C459.1,86.1,458.5,90.6,455.3,93z"/>
				<line class="st13" x1="420" y1="62.2" x2="447.2" y2="99.2"/>
				<line class="st13" x1="420" y1="91.1" x2="447.2" y2="70.5"/>
				<polygon class="st5" points="472.7,304.4 468,307.8 411.4,233.3 416,229.8 				"/>
				<polygon class="st5" points="480.5,298.6 475.9,302.1 419.2,227.4 423.8,223.9 				"/>
				<polygon class="st5" points="488.4,292.8 483.8,296.2 427,221.5 431.5,218 				"/>
				<polygon class="st5" points="496.3,287 491.6,290.4 435.6,216.6 440.1,213.1 				"/>
				<polygon class="st5" points="504.7,280.7 500.1,284.2 443.9,210.2 448.5,206.8 				"/>
				<polygon class="st5" points="504.7,193.8 500.1,197.2 443.9,123.3 448.5,119.8 				"/>
				
					<rect x="453.5" y="40.1" transform="matrix(0.7963 -0.6049 0.6049 0.7963 -10.101 311.8458)" class="st5" width="9" height="261.6"/>
				<path class="st3" d="M573.1,247.7l-89.3,67.8c-10.7,8.1-25.9,6-34-4.6L320.9,141c-2.2-2.8-3.6-6-4.3-9.3c-2.1-9,1.2-18.7,9-24.6
					l25.1-19l64.2-48.8c10.7-8.1,25.9-6,34,4.6l51.8,68.2l38.5,50.7l38.8,51C585.9,224.4,583.8,239.6,573.1,247.7z"/>
			</g>
			<path class="st2" d="M500.8,687.5c0,0,103.9,37,135.3-43.5c0,0-49.2-59.8-22.3-108.7c16.9-30.8,63.6-98.7,63.6-98.7
				s19.5-18.5,25.6-37.1c0,0-3.3-20.7-18.1-34.8c0,0-0.1-10.6-8.4-16.6c-8.3-6-23.4-17.6-23.4-17.6s-24.9-59.7-28.6-70.5
				c-3.7-10.8-11.1-31.2-14.8-53.7c-3.7-22.5-7.1-46.8-15-46.7c0,0-8.1-3.5-8.1,10.9c0,0-17.1,8.8-14.5,27.4s4.8,28.2,4.2,38.7
				c-0.7,10.5,2.7,46.8,11.1,58.2c0,0,2.8,51,7,64.3c0.1,0.4,0.3,0.8,0.4,1.1c4.4,11.2-39.9,54.6-63.8,66.2c0,0-2.5,4.7-11.8,3.4
				c-9.3-1.3-25.1-1.9-27.8-8.8c-2.7-6.9-20.7-60.8-20.7-60.8s-14.6-69.1-43.7-69.1c0,0-4.4-10.6-15.8-4.8
				c-11.4,5.8-3.9,37.2,1.1,54.4c5,17.2,17.8,62.4,19.9,83.2c2.1,20.8-9.7,62.5-5.2,78.9c4.5,16.4,9.3,27.5,23.5,54.3
				C464.5,584.1,495.9,664.1,500.8,687.5z"/>
			<path class="st3" d="M500.8,687.5c0,0-22.2-83.7-54.9-137.8c-32.7-54.1-13.5-73.3-13.5-118.4s-36.7-121.7-26.8-138.7
				c9.9-16.9,23.4-3.4,29.1,12.4c5.6,15.8-2.3,24.8-18,25.9"/>
			<path class="st3" d="M426.9,291.2c0,0,19-1.1,30.6,29.2c11.7,30.3,30.3,107.4,49.8,130.7"/>
			<path class="st3" d="M492,422.7c0.1,0.2,27.2,15.3,69.2,2.1"/>
			<path class="st3" d="M430.5,380.3c4.1-5.2,11.2-7.9,17.8-6.7"/>
			<path class="st3" d="M434.1,389.8c3.6-4.4,9.8-6.4,15.3-5"/>
			<path class="st3" d="M586.6,170.5c-27.6,9.2-7.1,50.9-10.4,66.1c-3.3,15.2,5.3,44.4,11.9,60.2c0,18.5,6.6,63.5,6.6,63.5
				c-4.1,14.3-38.1,56.4-71.2,69.6"/>
			<path class="st3" d="M606.9,191.5c0,0-2-31.9-12.1-31.9c-10.1,0-9.5,21.5-5.3,37.5C593.7,213,609.9,210.7,606.9,191.5z"/>
			<path class="st3" d="M606.9,191.5c0,0,8.6,50.2,23.1,81.7"/>
			<path class="st3" d="M647.2,390.7c7-11.4,10.2-22.2,12.8-35.9c-0.7-8.6-10.5-36.7-22.1-63.9"/>
			<path class="st3" d="M654.1,333.1c11.4,8.6,31.3,15.2,29,30c-2.2,13.9-7.5,28.5-15.3,42"/>
			<path class="st3" d="M638.7,647.7c0,0-39.8-55.2-31.8-93.4c5.9-28.1,43.5-77.1,70.5-117.7c14.9-13.9,22.3-24.7,25.6-37.1
				c-4.8-23.5-12.5-30.3-20-36.3"/>
			<path class="st3" d="M649.3,342.2c-8.8-2.5-18.7-1.2-26.5,3.6"/>
			<path class="st3" d="M647.1,351.7c-5.4-0.8-11,0.2-15.7,2.8"/>
		</g>
	</g>
</g>
</svg>
