<svg width="57" height="77" viewBox="0 0 57 77" fill="none" xmlns="http://www.w3.org/2000/svg">
<path d="M3.19116 64.1013V43.669" stroke="#0092FF" stroke-width="5.02722" stroke-linecap="round" stroke-linejoin="round"/>
<path d="M54.2771 64.1013V43.6668" stroke="#0092FF" stroke-width="5.02722" stroke-linecap="round" stroke-linejoin="round"/>
<path d="M13.4082 74.3186H44.0597" stroke="#0092FF" stroke-width="5.02722" stroke-linecap="round" stroke-linejoin="round"/>
<path d="M54.2771 64.1013C54.2771 65.4428 54.0125 66.7714 53.4991 68.0111C52.9857 69.2508 52.2329 70.3772 51.2843 71.3258C50.3357 72.2744 49.2093 73.0273 47.9696 73.5406C46.7299 74.054 45.4013 74.3186 44.0598 74.3186" stroke="#0092FF" stroke-width="5.02722" stroke-linecap="round" stroke-linejoin="round"/>
<path d="M3.19116 64.1013C3.19116 66.8109 4.26759 69.41 6.1837 71.3258C8.09974 73.2416 10.6986 74.3186 13.4083 74.3186" stroke="#0092FF" stroke-width="5.02722" stroke-linecap="round" stroke-linejoin="round"/>
<path d="M28.7341 64.1013V53.8841" stroke="#0092FF" stroke-width="5.02722" stroke-linecap="round" stroke-linejoin="round"/>
<path d="M3.18896 43.669C3.18896 42.3141 3.72722 41.0147 4.68527 40.0566C5.64333 39.0986 6.94268 38.5603 8.29759 38.5603" stroke="#0092FF" stroke-width="5.02722" stroke-linecap="round" stroke-linejoin="round"/>
<path d="M54.2771 43.6668C54.2771 42.3119 53.7386 41.0125 52.7807 40.0544C51.8228 39.0964 50.5236 38.5582 49.1685 38.5582" stroke="#0092FF" stroke-width="5.02722" stroke-linecap="round" stroke-linejoin="round"/>
<path d="M44.0599 18.1238C44.0599 14.0592 42.4453 10.161 39.5708 7.28688C36.6971 4.41272 32.7988 2.79803 28.7341 2.79803" stroke="#0092FF" stroke-width="5.02722" stroke-linecap="round" stroke-linejoin="round"/>
<path d="M13.4082 18.1238C13.4082 14.0592 15.0229 10.161 17.8971 7.28688C20.7712 4.41272 24.6693 2.79803 28.734 2.79803" stroke="#0092FF" stroke-width="5.02722" stroke-linecap="round" stroke-linejoin="round"/>
<path d="M13.4082 38.5582V18.0942" stroke="#0092FF" stroke-width="5.02722" stroke-linecap="round" stroke-linejoin="round"/>
<path d="M44.0598 18.1238V38.5582" stroke="#0092FF" stroke-width="5.02722" stroke-linecap="round" stroke-linejoin="round"/>
<path d="M8.2998 38.5582H49.1686" stroke="#0092FF" stroke-width="5.02722" stroke-linecap="round" stroke-linejoin="round"/>
</svg>
