<svg width="60" height="59" viewBox="0 0 60 59" fill="none" xmlns="http://www.w3.org/2000/svg">
<path d="M42.4424 0C44.8874 0 47.2322 0.971206 48.961 2.70005C50.6898 4.4289 51.661 6.77374 51.661 9.21869V24.3374C50.4822 23.7344 49.2475 23.249 47.9734 22.8883V14.7499H3.72357V42.4062C3.72357 43.8729 4.30632 45.2802 5.34363 46.3172C6.38093 47.355 7.78786 47.9372 9.2548 47.9372H22.9243C23.2894 49.2242 23.7724 50.456 24.3735 51.6248H9.2548C6.80985 51.6248 4.46503 50.6537 2.73618 48.9248C1.00734 47.196 0.0361328 44.8512 0.0361328 42.4062V9.21869C0.0361328 6.77374 1.00734 4.4289 2.73618 2.70005C4.46503 0.971206 6.80985 0 9.2548 0H42.4424ZM42.4424 3.68745H9.2548C7.78786 3.68745 6.38093 4.2702 5.34363 5.30751C4.30632 6.34482 3.72357 7.75174 3.72357 9.21869V11.0625H47.9734V9.21869C47.9734 7.75174 47.3904 6.34482 46.3534 5.30751C45.3164 4.2702 43.9091 3.68745 42.4424 3.68745ZM59.0361 42.4062C59.0361 46.8071 57.288 51.0275 54.1755 54.14C51.0637 57.2518 46.8433 59 42.4424 59C38.0415 59 33.8204 57.2518 30.7087 54.14C27.5967 51.0275 25.8485 46.8071 25.8485 42.4062C25.8485 38.0053 27.5967 33.7849 30.7087 30.6724C33.8204 27.5607 38.0415 25.8124 42.4424 25.8124C46.8433 25.8124 51.0637 27.5607 54.1755 30.6724C57.288 33.7849 59.0361 38.0053 59.0361 42.4062ZM42.4424 45.0131L46.6678 49.2428C46.8397 49.414 47.0431 49.5501 47.2672 49.6432C47.4907 49.7355 47.7313 49.7835 47.9734 49.7835C48.2162 49.7835 48.4561 49.7355 48.6795 49.6432C48.9037 49.5501 49.1071 49.414 49.279 49.2428C49.4501 49.0717 49.5862 48.8675 49.6793 48.6441C49.7717 48.4199 49.8197 48.18 49.8197 47.9372C49.8197 47.6952 49.7717 47.4552 49.6793 47.2311C49.5862 47.0069 49.4501 46.8035 49.279 46.6324L45.0493 42.4062L49.279 38.1801C49.6249 37.8341 49.8197 37.3643 49.8197 36.8752C49.8197 36.3853 49.6249 35.9155 49.279 35.5696C48.9324 35.2237 48.4633 35.0289 47.9734 35.0289C47.4835 35.0289 47.0144 35.2237 46.6678 35.5696L42.4424 39.7993L38.2162 35.5696C37.8703 35.2237 37.4005 35.0289 36.9107 35.0289C36.4215 35.0289 35.9517 35.2237 35.6058 35.5696C35.2592 35.9155 35.0651 36.3853 35.0651 36.8752C35.0651 37.3643 35.2592 37.8341 35.6058 38.1801L39.8348 42.4062L35.6058 46.6324C35.4339 46.8035 35.2985 47.0069 35.2054 47.2311C35.1123 47.4552 35.0651 47.6952 35.0651 47.9372C35.0651 48.18 35.1123 48.4199 35.2054 48.6441C35.2985 48.8675 35.4339 49.0717 35.6058 49.2428C35.7769 49.414 35.9803 49.5501 36.2045 49.6432C36.4287 49.7355 36.6686 49.7835 36.9107 49.7835C37.1534 49.7835 37.3934 49.7355 37.6175 49.6432C37.8417 49.5501 38.0451 49.414 38.2162 49.2428L42.4424 45.0131Z" fill="#0092FF"/>
</svg>
