<svg width="73" height="60" viewBox="0 0 73 60" fill="none" xmlns="http://www.w3.org/2000/svg">
<path d="M70.1146 28.2934V9.53537C70.1146 7.5454 69.3238 5.6369 67.917 4.22978C66.5095 2.82267 64.6009 2.0321 62.6112 2.0321H10.0882C8.09826 2.0321 6.18975 2.82267 4.78264 4.22978C3.37545 5.6369 2.58496 7.5454 2.58496 9.53537V32.0454C2.58496 34.0351 3.37545 35.9438 4.78264 37.3505C6.18975 38.758 8.09826 39.5481 10.0882 39.5481H36.3496" stroke="#0092FF" stroke-width="4" stroke-linecap="round" stroke-linejoin="round"/>
<path d="M69.6607 42.989C71.5135 44.129 71.3973 46.9017 69.4915 47.1189L59.8615 48.2109L55.543 56.8845C54.6876 58.6067 52.0426 57.7628 51.6038 55.6319L46.8953 32.6864C46.5239 30.886 48.145 29.7532 49.7095 30.7168L69.6607 42.989Z" stroke="#0092FF" stroke-width="4"/>
<path d="M36.3495 20.8278L36.3871 20.7865M51.3564 20.8278L51.3936 20.7865M21.343 20.8278L21.3806 20.7865" stroke="#0092FF" stroke-width="4" stroke-linecap="round" stroke-linejoin="round"/>
</svg>
