<svg width="76" height="65" viewBox="0 0 76 65" fill="none" xmlns="http://www.w3.org/2000/svg">
<path d="M39.8989 40.0447L35.4191 42.3496C35.1425 42.4919 34.8399 42.5777 34.5292 42.6027C34.2185 42.6277 33.9058 42.5912 33.6097 42.4947L33.2635 42.3496L4.71558 27.6503V54.9659C4.71558 57.799 6.91809 60.1252 9.72574 60.3511L10.1719 60.369H58.5109C59.8805 60.369 61.2008 59.8593 62.2089 58.9399C63.2163 58.0206 63.8385 56.7602 63.9516 55.4077L63.9702 54.9659V30.9682L68.6492 26.328V54.9659C68.6485 57.5295 67.6576 59.9958 65.8791 61.8588C64.1006 63.7218 61.6698 64.8406 59.0844 64.985L58.5109 65H10.175C7.58682 65 5.09684 64.0192 3.21524 62.2591C1.33371 60.4991 0.203028 58.0935 0.0548911 55.5342L0.0361328 54.9659V19.4512C0.0359896 16.8875 1.02648 14.4209 2.80448 12.5574C4.58241 10.6938 7.0131 9.57466 9.59787 9.42946L10.1719 9.41402H45.3361L40.657 14.048H10.175C8.80535 14.048 7.48579 14.5578 6.47797 15.4762C5.47016 16.3947 4.84782 17.6547 4.73434 19.0064L4.71873 19.4512V22.4263L34.346 37.6875L37.7401 35.9359C38.1082 37.4188 38.8257 38.8306 39.9021 40.0447H39.8989ZM59.166 6.63677C60.3903 5.47722 62.0242 4.83855 63.7182 4.85735C65.4122 4.87608 67.0318 5.55086 68.2296 6.73721C69.4282 7.92349 70.1091 9.52712 70.1284 11.2047C70.147 12.8823 69.5019 14.5006 68.3313 15.7132L48.8709 35.0152L48.8243 35.0616C48.4277 35.4335 47.9 35.6374 47.3544 35.63C46.8081 35.6227 46.2862 35.4046 45.9003 35.0222C45.5144 34.6398 45.2938 34.1232 45.2867 33.5825C45.2788 33.0417 45.485 32.5194 45.8602 32.1268L61.7206 16.4577C61.944 16.244 62.123 15.9885 62.2454 15.7059C62.3679 15.4232 62.433 15.1192 62.4359 14.8116C62.4388 14.5039 62.3793 14.1988 62.2619 13.914C62.1445 13.6292 61.9712 13.3704 61.7514 13.1528C61.5316 12.9351 61.2703 12.763 60.9832 12.6463C60.6953 12.5297 60.3875 12.4709 60.0767 12.4734C59.766 12.4759 59.4588 12.5397 59.1739 12.661C58.8882 12.7823 58.6297 12.9587 58.4142 13.1799L42.5566 28.8489C41.8994 29.4655 41.3731 30.2062 41.0094 31.0275C40.6456 31.8487 40.4519 32.7339 40.4395 33.6306C40.4272 34.5273 40.5964 35.4173 40.9371 36.2481C41.2779 37.0789 41.7841 37.8336 42.4242 38.4676C43.065 39.1016 43.8268 39.6021 44.6659 39.9394C45.505 40.2767 46.4036 40.444 47.3093 40.4315C48.215 40.419 49.1086 40.2268 49.9377 39.8664C50.7668 39.506 51.515 38.9846 52.1372 38.3332L71.6413 18.9878C72.7045 17.9679 73.5522 16.7486 74.135 15.401C74.7179 14.0534 75.0243 12.6044 75.0358 11.1385C75.0479 9.67252 74.7651 8.21895 74.2038 6.86231C73.6425 5.50568 72.8148 4.27322 71.768 3.23656C70.7212 2.19998 69.4769 1.38001 68.1065 0.824399C66.7368 0.268791 65.269 -0.0113708 63.7884 0.000353322C62.3085 0.0120059 60.845 0.315259 59.4839 0.892385C58.1235 1.46951 56.892 2.30907 55.8625 3.36203L38.1488 20.9001C37.9189 21.1122 37.7346 21.368 37.6067 21.6523C37.4787 21.9365 37.41 22.2433 37.4045 22.5544C37.3989 22.8655 37.4567 23.1745 37.5744 23.463C37.692 23.7515 37.8672 24.0136 38.0894 24.2336C38.3116 24.4537 38.5762 24.6271 38.8675 24.7436C39.1589 24.8602 39.471 24.9174 39.7851 24.9119C40.0992 24.9064 40.4091 24.8383 40.6961 24.7117C40.9829 24.585 41.2414 24.4024 41.4554 24.1748L59.166 6.63677Z" fill="#0092FF"/>
</svg>
