<svg width="51" height="50" viewBox="0 0 51 50" fill="none" xmlns="http://www.w3.org/2000/svg">
<path d="M3.59781 36.434V49.9993H0.0361328V0.00108075H3.59781V32.4295L5.15951 33.227L10.6393 35.9055C14.5292 37.8067 19.2202 36.1881 21.118 32.29L27.8316 18.4948L25.3649 17.2888C21.475 15.3875 16.784 17.0066 14.8867 20.9042L13.5917 23.5654L10.39 22.0007L11.685 19.3395C14.4449 13.6697 21.2687 11.3152 26.9266 14.0805L35.0613 18.057C38.9515 19.9583 43.6421 18.3392 45.5397 14.441L46.8348 11.7804L50.0361 13.3451L48.7411 16.0063C45.9812 21.6761 39.1586 24.0306 33.5002 21.2653L31.0337 20.0593L26.395 29.5899L30.7511 31.7191C34.632 33.6153 37.1092 37.5457 37.1516 41.8724L37.2315 50H33.6684L33.59 41.9076C33.5606 38.9335 31.8571 36.2313 29.1893 34.9269L24.8333 32.7977L24.3191 33.8547C21.5598 39.5239 14.736 41.8788 9.07807 39.1133L3.59781 36.434ZM35.753 12.598C32.2813 12.598 29.4675 9.77769 29.4675 6.29869C29.4675 2.82012 32.282 0 35.753 0C39.2248 0 42.0385 2.82026 42.0385 6.29869C42.0385 9.77769 39.224 12.598 35.753 12.598ZM35.753 9.02806C37.2574 9.02806 38.4769 7.80593 38.4769 6.29869C38.4769 4.79138 37.2574 3.56932 35.753 3.56932C34.2487 3.56932 33.0292 4.79145 33.0292 6.29869C33.0292 7.80593 34.2487 9.02806 35.753 9.02806Z" fill="#0092FF"/>
</svg>
