<svg width="74" height="74" viewBox="0 0 74 74" fill="none" xmlns="http://www.w3.org/2000/svg">
<path fill-rule="evenodd" clip-rule="evenodd" d="M16.5986 7.09694C22.58 3.10031 29.6121 0.967163 36.8058 0.967163C46.4465 0.98602 55.6865 4.82405 62.5038 11.6411C69.321 18.458 73.1591 27.6984 73.1777 37.3391C73.1777 43.5057 71.6104 49.5539 68.6449 54.9228C67.6403 53.8774 66.4723 52.9905 65.1825 52.3036C67.5952 47.732 68.8929 42.6028 68.8987 37.3391C68.8987 30.9917 67.0165 24.7868 63.4903 19.5092C59.9634 14.2316 54.9516 10.1182 49.0872 7.68911C43.223 5.26006 36.7702 4.62451 30.5448 5.86284C24.3193 7.10117 18.601 10.1577 14.1127 14.6459C9.62442 19.1342 6.56785 24.8527 5.32959 31.0781C4.09126 37.3034 4.72681 43.7563 7.15587 49.6206C9.58485 55.4849 13.6983 60.4968 18.976 64.023C24.2536 67.5499 30.4584 69.432 36.8058 69.432C39.7704 69.4284 42.6924 69.0154 45.4958 68.2246C45.8995 69.6414 46.524 70.965 47.3306 72.1552C41.6339 73.8774 35.5827 74.18 29.71 73.012C22.6545 71.6088 16.1736 68.1443 11.087 63.0579C6.00028 57.9715 2.53616 51.4905 1.13271 44.4352C-0.270679 37.3794 0.449619 30.0663 3.20247 23.4201C5.95539 16.774 10.6173 11.0935 16.5986 7.09694ZM47.6303 51.0166C49.3669 49.2793 50.347 46.9268 50.3563 44.4711C50.347 42.0148 49.3669 39.6621 47.6303 37.9254C45.8937 36.1887 43.5405 35.2089 41.0848 35.1995H32.5267C31.2027 35.1995 29.933 34.6736 28.9967 33.7374C28.0604 32.8011 27.5345 31.5313 27.5345 30.2073C27.5345 28.8833 28.0604 27.6135 28.9967 26.6773C29.933 25.741 31.2027 25.2151 32.5267 25.2151H45.3639C45.931 25.2151 46.4752 24.9897 46.8767 24.5884C47.2783 24.1872 47.5034 23.643 47.5034 23.0756C47.5034 22.5081 47.2783 21.9639 46.8767 21.5627C46.4752 21.1615 45.931 20.9361 45.3639 20.9361H38.9453V17.3702C38.9453 16.8028 38.7199 16.2586 38.3186 15.8573C37.9174 15.456 37.3732 15.2307 36.8058 15.2307C36.2383 15.2307 35.6941 15.456 35.2929 15.8573C34.8916 16.2586 34.6662 16.8028 34.6662 17.3702V20.9361H32.5267C30.0678 20.9361 27.7097 21.9128 25.971 23.6515C24.2322 25.3902 23.2555 27.7484 23.2555 30.2073C23.2555 32.6662 24.2322 35.0244 25.971 36.7631C27.7097 38.5018 30.0678 39.4786 32.5267 39.4786H41.0848C42.4088 39.4786 43.6789 40.0045 44.6146 40.9408C45.551 41.877 46.0773 43.1468 46.0773 44.4711C46.0773 45.7947 45.551 47.0645 44.6146 48.0009C43.6789 48.9373 42.4088 49.4628 41.0848 49.4628H28.2477C27.6802 49.4628 27.1361 49.6887 26.7348 50.0895C26.3335 50.491 26.1082 51.0352 26.1082 51.6024C26.1082 52.1702 26.3335 52.7144 26.7348 53.1152C27.1361 53.5167 27.6802 53.7419 28.2477 53.7419H34.6662V57.3083C34.6662 57.8754 34.8916 58.4196 35.2929 58.8211C35.6941 59.2219 36.2383 59.4478 36.8058 59.4478C37.3732 59.4478 37.9174 59.2219 38.3186 58.8211C38.7199 58.4196 38.9453 57.8754 38.9453 57.3083V53.7419H41.0848C43.5405 53.7326 45.8937 52.7531 47.6303 51.0166Z" fill="#0092FF"/>
<path d="M67.0698 58.1027L63.512 54.545C63.3478 54.3808 63.1464 54.2603 62.9277 54.1951V54.1356H50.6741C50.287 54.1356 49.9736 54.4489 49.9736 54.8361V70.9406C49.9736 71.3278 50.287 71.6411 50.6741 71.6411H66.7787C67.1659 71.6411 67.4792 71.3278 67.4792 70.9406V59.0915C67.4792 58.7201 67.3322 58.3651 67.0698 58.1027ZM55.9255 55.7108H61.5274V57.9866H55.9255V55.7108ZM65.9032 70.0652H51.5489V55.7108H54.5251V58.6871C54.5251 59.0743 54.8378 59.3869 55.2249 59.3869H62.2272C62.6143 59.3869 62.9277 59.0743 62.9277 58.6871V56.1883L65.9032 59.1639V70.0652ZM58.7261 61.3565C56.9866 61.3565 55.5756 62.7675 55.5756 64.5077C55.5756 66.2471 56.9866 67.6582 58.7261 67.6582C60.4662 67.6582 61.8773 66.2471 61.8773 64.5077C61.8773 62.7675 60.4662 61.3565 58.7261 61.3565ZM58.7261 66.2579C57.7588 66.2579 56.9759 65.4749 56.9759 64.5077C56.9759 63.5404 57.7588 62.7568 58.7261 62.7568C59.6933 62.7568 60.477 63.5404 60.477 64.5077C60.477 65.4749 59.6933 66.2579 58.7261 66.2579Z" fill="#0092FF"/>
</svg>
