<svg width="79" height="78" viewBox="0 0 79 78" fill="none" xmlns="http://www.w3.org/2000/svg">
<path d="M76.6005 38.9991C76.6005 59.6766 59.8363 76.4407 39.1586 76.4407C35.7887 76.4407 32.5158 75.994 29.3999 75.1487C32.7334 73.9047 35.6565 71.8268 37.903 69.1704C37.9266 69.1453 37.9387 69.1331 37.9509 69.1094C38.3856 68.6018 38.7839 68.0712 39.1586 67.527C41.4415 64.2302 42.77 60.2193 42.77 55.908C42.77 55.0863 42.7214 54.2775 42.6251 53.4924C42.2268 50.0867 41.0069 46.9577 39.1587 44.277C37.7332 42.2119 35.9457 40.4245 33.8806 38.9989C30.6078 36.7404 26.6459 35.4119 22.3702 35.3876H22.2496C17.9259 35.3876 13.9277 36.7161 10.6185 38.9989C10.0509 39.3851 9.5071 39.8084 8.98807 40.2552C6.31911 42.5017 4.24124 45.4247 3.00972 48.7581C2.16387 45.642 1.71704 42.3689 1.71704 38.9989C1.71704 18.3214 18.4812 1.55725 39.1587 1.55725C59.8363 1.55725 76.6005 18.3214 76.6005 38.9989V38.9991Z" stroke="#0092FF" stroke-width="3.09612" stroke-miterlimit="10" stroke-linecap="round" stroke-linejoin="round"/>
<path d="M69.3537 38.999C69.3537 39.8085 69.3171 40.6294 69.2569 41.4631C68.0853 56.0772 56.2491 67.9263 41.6227 69.0972C40.8011 69.1581 39.9802 69.194 39.1708 69.194H39.1465C38.7361 69.194 38.3135 69.1818 37.9024 69.1696C37.9267 69.1452 37.9388 69.133 37.9509 69.1094C38.3856 68.6025 38.784 68.0712 39.1587 67.527C41.4415 64.2302 42.77 60.22 42.77 55.908C42.77 55.0863 42.7215 54.2775 42.6251 53.4924C42.2268 50.0866 41.0069 46.9584 39.1588 44.277C37.7333 42.2119 35.9457 40.4245 33.8806 38.999C30.6077 36.7404 26.646 35.412 22.3703 35.3876H22.2496C17.9259 35.3876 13.9277 36.7161 10.6185 38.999C10.051 39.3851 9.50707 39.8085 8.9881 40.2553C8.97599 39.832 8.96387 39.4216 8.96387 38.999C8.96387 38.1895 9.00022 37.3686 9.06023 36.5348C10.2317 21.9084 22.0682 10.072 36.6946 8.90044C37.5283 8.84043 38.3493 8.80408 39.1588 8.80408C55.8146 8.80408 69.3415 22.3435 69.3537 38.999V38.999Z" stroke="#0092FF" stroke-width="3.09612" stroke-miterlimit="10" stroke-linecap="round" stroke-linejoin="round"/>
<path d="M56.0679 38.999C56.0679 44.2528 55.3193 49.1925 53.9907 53.4924C51.1284 62.8406 45.5603 69.1818 39.171 69.194H39.1467C38.7484 69.194 38.3494 69.1696 37.951 69.1094C38.3857 68.6025 38.7841 68.0712 39.1588 67.527C41.4416 64.2302 42.7701 60.22 42.7701 55.908C42.7701 55.0863 42.7216 54.2775 42.6252 53.4924C42.2269 50.0866 41.007 46.9584 39.1588 44.277C37.7334 42.2119 35.9458 40.4245 33.8808 38.999C30.6079 36.7404 26.646 35.412 22.3704 35.3876C23.3732 20.4109 30.5109 8.80408 39.1587 8.80408C48.4949 8.80408 56.0679 22.3193 56.0679 38.999V38.999Z" stroke="#0092FF" stroke-width="3.09612" stroke-miterlimit="10" stroke-linecap="round" stroke-linejoin="round"/>
<path d="M39.1587 69.194V67.527" stroke="#0092FF" stroke-width="3.09612" stroke-miterlimit="10" stroke-linecap="round" stroke-linejoin="round"/>
<path d="M39.1587 44.2771V8.8042" stroke="#0092FF" stroke-width="3.09612" stroke-miterlimit="10" stroke-linecap="round" stroke-linejoin="round"/>
<path d="M69.3538 38.9991H33.8806" stroke="#0092FF" stroke-width="3.09612" stroke-miterlimit="10" stroke-linecap="round" stroke-linejoin="round"/>
<path d="M10.6186 38.9991H8.96387" stroke="#0092FF" stroke-width="3.09612" stroke-miterlimit="10" stroke-linecap="round" stroke-linejoin="round"/>
<path d="M13.1899 24.5043H65.125" stroke="#0092FF" stroke-width="3.09612" stroke-miterlimit="10" stroke-linecap="round" stroke-linejoin="round"/>
<path d="M65.1263 53.4924H42.625" stroke="#0092FF" stroke-width="3.09612" stroke-miterlimit="10" stroke-linecap="round" stroke-linejoin="round"/>
<path d="M42.7699 55.908C42.7699 60.22 41.4414 64.2302 39.1586 67.527C38.7839 68.0705 38.3855 68.6025 37.9508 69.1101C37.9387 69.1338 37.9265 69.146 37.9022 69.1704C35.6559 71.8276 32.7327 73.9054 29.3991 75.1487C27.1771 75.9819 24.7614 76.4285 22.2495 76.4285C10.9204 76.4285 1.729 67.2373 1.729 55.908C1.729 53.3964 2.17584 50.9808 3.00964 48.7581C4.24173 45.4243 6.31902 42.5012 8.98798 40.2547C9.50767 39.8079 10.0509 39.3853 10.6184 38.9984C13.9278 36.7163 17.9258 35.3878 22.2495 35.3878H22.3701C26.646 35.4121 30.607 36.7405 33.8805 38.9991C35.9456 40.4245 37.733 42.2121 39.1586 44.2772C41.0066 46.9584 42.2266 50.0867 42.625 53.4924C42.7213 54.2775 42.7699 55.087 42.7699 55.908Z" stroke="#0092FF" stroke-width="3.09612" stroke-miterlimit="10" stroke-linecap="round" stroke-linejoin="round"/>
<path d="M22.2483 55.908C18.9141 55.908 16.2107 53.2049 16.2107 49.8709C16.2107 46.5361 18.9141 43.8329 22.2483 43.8329C25.5826 43.8329 28.286 46.5361 28.286 49.8709" stroke="#0092FF" stroke-width="3.09612" stroke-miterlimit="10" stroke-linecap="round" stroke-linejoin="round"/>
<path d="M22.2483 55.908C25.5826 55.908 28.286 58.6118 28.286 61.9459C28.286 65.2799 25.5826 67.9837 22.2483 67.9837C18.9141 67.9837 16.2107 65.2799 16.2107 61.9459" stroke="#0092FF" stroke-width="3.09612" stroke-miterlimit="10" stroke-linecap="round" stroke-linejoin="round"/>
<path d="M22.2483 40.208V71.6081" stroke="#0092FF" stroke-width="3.09612" stroke-miterlimit="10" stroke-linecap="round" stroke-linejoin="round"/>
</svg>
