<svg width="69" height="52" viewBox="0 0 69 52" fill="none" xmlns="http://www.w3.org/2000/svg">
<path d="M35.2245 1.17662C37.1488 1.17662 38.8422 2.26789 39.6122 3.90511C40.3048 3.51529 41.0745 3.35923 41.8439 3.35923C44.5384 3.35923 46.7704 5.61947 46.7704 8.34804V9.51701C47.3093 9.28324 47.8482 9.20547 48.4635 9.20547C51.158 9.20547 53.39 11.4657 53.39 14.1942V16.3768C53.467 17.7796 54.1601 43.8153 48.2329 51.3762C47.9253 51.7658 47.4628 52 47.001 52C46.6162 52 46.3086 51.8439 46.0002 51.6097C45.3079 51.0639 45.2301 50.0512 45.7697 49.2713C50.1573 43.7365 50.4649 23.7039 50.2336 16.3767V14.1941C50.2336 13.2589 49.4642 12.4791 48.5406 12.4791C47.6169 12.4791 46.8468 13.2589 46.8468 14.1941V25.8087C46.8468 26.7439 46.1544 27.4459 45.2301 27.4459C44.3072 27.4459 43.6134 26.7445 43.6134 25.8087V8.27004C43.6134 7.33483 42.8439 6.55511 41.9203 6.55511C40.9967 6.55511 40.2269 7.33483 40.2269 8.27004V12.9473L40.2274 24.4837C40.2274 25.4189 39.5348 26.1209 38.6107 26.1209C37.6872 26.1209 36.994 25.4194 36.994 24.4837V6.24349C36.994 5.30828 36.2241 4.52856 35.3007 4.52856C34.3772 4.52856 33.6073 5.30828 33.6073 6.24349V27.2119C33.6073 28.1471 32.9146 28.8491 31.9906 28.8491C31.067 28.8491 30.3739 28.1477 30.3739 27.2119V8.42603C30.3739 7.49082 29.6039 6.71117 28.6805 6.71117C27.757 6.71117 26.9871 7.49089 26.9871 8.42603V35.4745C26.9871 36.2544 26.5254 36.8775 25.7554 37.0336C25.0628 37.1898 24.2928 36.8775 23.9079 36.2537L19.0585 27.7573C18.8276 27.2897 18.5195 27.0559 18.0578 26.8998C17.6728 26.8221 17.2878 26.8999 16.9802 27.0559C16.4411 27.3675 16.4411 28.6147 16.8261 29.9399C17.0569 30.4858 21.5214 43.1915 26.4476 48.1798C27.0635 48.8036 27.0635 49.817 26.4476 50.5189C26.1399 50.8305 25.755 50.9866 25.2932 50.9866C24.9082 50.9866 24.4465 50.8305 24.1388 50.5189C18.5969 44.9061 13.9782 31.577 13.7473 31.0313C12.8239 28.1474 13.4397 25.575 15.2099 24.3277C16.2875 23.6262 17.5959 23.3925 18.8276 23.704C20.0593 24.0155 21.1369 24.8731 21.8296 26.1203L23.5998 29.238V8.26961C23.5998 5.54105 25.8317 3.2808 28.526 3.2808C29.3728 3.2808 30.1427 3.51464 30.7579 3.82669C31.6068 2.34667 33.3002 1.17712 35.2246 1.17712L35.2245 1.17662ZM29.9901 33.5257C29.3742 34.1495 29.3742 35.2403 29.9901 35.8641C30.0669 35.9422 35.6089 41.6331 34.9164 49.3494C34.8396 50.2847 35.5322 51.0646 36.379 51.142H36.5331C37.3797 51.142 38.0723 50.5182 38.1498 49.6609C38.9964 40.3847 32.5309 33.8373 32.3 33.6031C31.6068 32.9019 30.606 32.9019 29.9901 33.5257ZM58.2386 14.8178C58.3157 15.6753 59.0088 16.2206 59.8554 16.2206H60.0866C60.9331 16.0646 61.6255 15.2854 61.4721 14.3497C60.779 9.12704 57.7775 6.4769 57.6997 6.39869C57.0074 5.85281 56.0067 5.93109 55.4678 6.55475C54.8525 7.25619 54.9289 8.26961 55.6219 8.89335C55.6219 8.9717 57.7005 10.8427 58.2394 14.8178H58.2386ZM64.7818 16.455C64.8589 17.3125 65.552 17.8578 66.3985 17.8578H66.6298C67.4763 17.7018 68.1687 16.9226 68.0145 15.9869C66.552 5.61962 60.9331 0.630876 60.7026 0.396966C60.0095 -0.226698 59.0088 -0.0706393 58.3928 0.553025C57.7775 1.25447 57.8539 2.26796 58.547 2.89169C58.547 2.9694 63.4735 7.41275 64.7818 16.455ZM11.44 20.664C10.7474 20.1181 9.74667 20.2741 9.20813 20.9756C6.0521 25.1846 6.283 29.1604 6.3603 29.3165C6.43704 30.1739 7.13018 30.7976 7.97693 30.7976H8.13104C9.05459 30.7199 9.67037 29.9401 9.5937 29.0049C9.5937 29.0049 9.4396 26.121 11.8256 22.9249C12.2863 22.3012 12.1327 21.21 11.4401 20.664H11.44ZM7.97587 14.896C7.28322 14.3501 6.28251 14.5062 5.74396 15.2076C-0.490662 23.5484 0.0478154 31.1093 0.0478154 31.4211C0.124619 32.2786 0.817763 32.9026 1.66452 32.9026H1.81862C2.74217 32.8246 3.35795 32.0448 3.28129 31.1874C3.28129 31.1096 2.89628 24.4837 8.28415 17.1565C8.82269 16.455 8.66916 15.4416 7.97601 14.8962L7.97587 14.896Z" fill="#0092FF"/>
</svg>
