<svg width="85" height="65" viewBox="0 0 85 65" fill="none" xmlns="http://www.w3.org/2000/svg">
<rect width="85" height="65" rx="15" fill="white"/>
<path d="M72.3995 17.8097L61.668 10.6372C61.0423 10.2214 60.3093 9.99976 59.5598 9.99976C58.8104 9.99976 58.0773 10.2214 57.4516 10.6372L44.6093 19.2175C43.9836 19.6334 43.2506 19.855 42.5011 19.855C41.7517 19.855 41.0187 19.6334 40.3929 19.2175L27.5506 10.6372C26.9249 10.2214 26.1919 9.99976 25.4424 9.99976C24.693 9.99976 23.96 10.2214 23.3342 10.6372L12.6001 17.8097C12.1092 18.127 11.7053 18.5636 11.4256 19.0794C11.1458 19.5951 10.9992 20.1735 10.9992 20.7614C10.9992 21.3492 11.1458 21.9276 11.4256 22.4433C11.7053 22.9591 12.1092 23.3957 12.6001 23.713L37.0944 40.0817C38.6998 41.1464 40.5794 41.7137 42.5011 41.7137C44.4228 41.7137 46.3024 41.1464 47.9079 40.0817L72.3995 23.713C72.8904 23.3957 73.2943 22.9591 73.574 22.4433C73.8538 21.9276 74.0004 21.3492 74.0004 20.7614C74.0004 20.1735 73.8538 19.5951 73.574 19.0794C73.2943 18.5636 72.8904 18.127 72.3995 17.8097Z" fill="#0092FF"/>
<g opacity="0.75">
<path d="M72.3997 30.4163L69.8259 28.6938L49.4846 42.2922C47.4107 43.6665 44.9832 44.3987 42.5013 44.3987C40.0195 44.3987 37.5919 43.6665 35.5181 42.2922L15.1767 28.6938L12.6003 30.4163C12.1094 30.7336 11.7055 31.1702 11.4258 31.686C11.146 32.2017 10.9994 32.7801 10.9994 33.368C10.9994 33.9558 11.146 34.5342 11.4258 35.05C11.7055 35.5657 12.1094 36.0023 12.6003 36.3196L38.9515 53.9308C40.0054 54.6289 41.2389 55.0008 42.5 55.0008C43.7611 55.0008 44.9946 54.6289 46.0485 53.9308L72.3997 36.3196C72.8906 36.0023 73.2945 35.5657 73.5742 35.05C73.854 34.5342 74.0006 33.9558 74.0006 33.368C74.0006 32.7801 73.854 32.2017 73.5742 31.686C73.2945 31.1702 72.8906 30.7336 72.3997 30.4163Z" fill="#0092FF"/>
</g>
</svg>
