<?xml version="1.0" encoding="utf-8"?>
<!-- Generator: Adobe Illustrator 23.0.5, SVG Export Plug-In . SVG Version: 6.00 Build 0)  -->
<svg version="1.1" id="Layer_1" xmlns="http://www.w3.org/2000/svg" xmlns:xlink="http://www.w3.org/1999/xlink" x="0px" y="0px"
	 viewBox="0 0 30 30" style="enable-background:new 0 0 30 30;" xml:space="preserve">
<style type="text/css">
	.st0{fill:#A4A6A8;}
</style>
<g id="XMLID_2_">
	<g id="XMLID_3_">
		<g id="XMLID_4_">
			<rect id="XMLID_9_" y="27.6" class="st0" width="30.1" height="2.4"/>
			<path id="XMLID_8_" class="st0" d="M2,26.6h5c0.3,0,0.5-0.2,0.5-0.5v-8.6C7.5,17.2,7.3,17,7,17H2c-0.3,0-0.5,0.2-0.5,0.5v8.6
				C1.5,26.4,1.7,26.6,2,26.6z"/>
			<path id="XMLID_7_" class="st0" d="M16,26.6h5c0.3,0,0.5-0.2,0.5-0.5V11.9c0-0.3-0.2-0.5-0.5-0.5h-5c-0.3,0-0.5,0.2-0.5,0.5v14.3
				C15.5,26.4,15.8,26.6,16,26.6z"/>
			<path id="XMLID_6_" class="st0" d="M9,26.6h5c0.3,0,0.5-0.2,0.5-0.5v-20c0-0.3-0.2-0.5-0.5-0.5H9c-0.3,0-0.5,0.2-0.5,0.5v20
				C8.5,26.4,8.8,26.6,9,26.6z"/>
			<path id="XMLID_5_" class="st0" d="M23.1,26.6h5c0.3,0,0.5-0.2,0.5-0.5V0.5c0-0.3-0.2-0.5-0.5-0.5h-5c-0.3,0-0.5,0.2-0.5,0.5
				v25.7C22.6,26.4,22.8,26.6,23.1,26.6z"/>
		</g>
	</g>
</g>
</svg>
