<svg version="1.1" id="Layer_1" xmlns="http://www.w3.org/2000/svg" xmlns:xlink="http://www.w3.org/1999/xlink" x="0px" y="0px"
	 width="100%" viewBox="0 0 208 240" enable-background="new 0 0 208 240" xml:space="preserve">
<path fill="#000000" opacity="1.000000" stroke="none" 
	d="
M58.733585,56.050987 
	C59.721668,43.651241 60.856239,31.731346 61.569996,19.786310 
	C61.802090,15.902070 63.119694,14.364172 66.973618,14.656455 
	C77.583656,15.461128 88.208740,16.069582 98.816818,16.897213 
	C109.420845,17.724531 119.997688,19.029932 130.614258,19.508451 
	C135.430115,19.725515 136.718887,21.588123 136.329636,25.913240 
	C135.707382,32.827408 135.277359,39.758869 135.820389,47.483063 
	C141.057281,42.004490 146.432648,36.649673 151.480301,31.001982 
	C154.621552,27.487316 156.960617,27.310575 160.404251,30.821911 
	C175.219208,45.928143 190.195328,60.879154 205.294418,75.701637 
	C208.527664,78.875656 208.432800,81.125679 205.034607,83.756149 
	C202.193008,85.955788 201.162643,88.441383 202.093842,92.384613 
	C203.026978,96.335991 202.409775,100.659187 202.429688,104.819611 
	C202.585266,137.305557 202.759506,169.791443 202.854248,202.277588 
	C202.872696,208.603745 202.588242,214.931366 202.411011,221.257385 
	C202.112564,231.910721 194.677597,239.258072 183.868744,239.304901 
	C162.707458,239.396576 141.545578,239.357147 120.383949,239.356171 
	C93.057259,239.354919 65.730568,239.338593 38.403873,239.327896 
	C25.907412,239.323013 18.657932,232.033752 18.654734,219.406662 
	C18.644436,178.749634 18.644293,138.092621 18.658108,97.435600 
	C18.662445,84.676300 25.654236,77.699051 38.399311,77.665962 
	C43.231472,77.653419 48.065884,77.565201 52.895050,77.683563 
	C55.946869,77.758369 57.543507,76.707611 57.672756,73.444214 
	C57.896366,67.798241 58.355942,62.161617 58.733585,56.050987 
M186.420029,190.153397 
	C175.774429,189.864700 165.082397,190.917725 154.484802,189.453079 
	C142.603058,187.810959 134.870483,178.108200 135.716568,166.357330 
	C136.526199,155.112701 145.799881,146.751114 157.633621,146.682953 
	C168.629303,146.619629 179.631485,146.414307 190.618759,146.713882 
	C195.863480,146.856873 197.709045,144.753159 197.655197,139.803787 
	C197.551880,130.309036 197.748428,120.811325 197.686081,111.315720 
	C197.632248,103.118439 192.130432,97.359833 183.967529,97.346336 
	C134.818924,97.265099 85.670082,97.263748 36.521461,97.335602 
	C29.298721,97.346161 23.501228,103.353371 23.483801,110.464371 
	C23.396439,146.110641 23.346300,181.757034 23.310415,217.403412 
	C23.298273,229.465424 28.460239,234.607697 40.692795,234.619598 
	C87.675819,234.665268 134.658890,234.666428 181.641937,234.680634 
	C182.807724,234.680984 183.983276,234.729660 185.137695,234.603790 
	C192.079407,233.846909 197.431702,228.541946 197.580292,221.828461 
	C197.771957,213.169373 197.580246,204.502457 197.656113,195.839813 
	C197.691177,191.836868 195.875259,189.991302 191.886902,190.174805 
	C190.391266,190.243607 188.888809,190.164169 186.420029,190.153397 
M85.109726,33.409077 
	C82.458084,35.688396 79.951736,38.171295 77.117111,40.194210 
	C73.764702,42.586639 71.875153,45.453915 71.755898,49.687866 
	C71.629829,54.163460 70.987320,58.622223 70.659836,63.094887 
	C69.960007,72.652901 69.317924,82.215141 68.620605,92.229141 
	C74.418114,92.229141 79.875069,91.977371 85.294014,92.322464 
	C88.607689,92.533478 91.048042,91.632027 93.323021,89.337112 
	C100.943924,81.649498 108.693268,74.089294 116.325317,66.412590 
	C123.526558,59.169212 123.814148,50.348019 117.211884,42.645256 
	C115.044273,40.116333 112.860771,37.601021 110.695763,35.069885 
	C109.481430,33.650196 108.193268,32.452885 106.150688,32.326618 
	C101.172607,32.018883 96.198662,31.638870 91.226219,31.247702 
	C89.145370,31.084005 87.239670,31.371031 85.109726,33.409077 
M140.035263,60.469002 
	C129.632675,70.750328 119.230095,81.031654 108.050514,92.080917 
	C110.868347,92.304283 112.454689,92.536415 114.041481,92.539528 
	C131.866776,92.574532 149.692123,92.575714 167.517471,92.583084 
	C179.665207,92.588104 179.566849,92.584908 179.706619,80.579636 
	C179.771667,74.992508 178.933685,70.498688 174.802719,65.730431 
	C167.813187,57.662594 159.937653,55.005444 149.778931,56.142441 
	C146.120453,56.551910 142.911285,56.915134 140.035263,60.469002 
M194.938721,151.372131 
	C182.111130,151.357834 169.281067,151.184296 156.456833,151.384674 
	C147.760574,151.520538 140.430984,159.375793 140.367783,168.047424 
	C140.304245,176.761978 147.513916,184.618500 156.254440,184.777054 
	C168.578201,185.000580 180.909317,184.788757 193.236557,184.871201 
	C196.306763,184.891724 197.817719,183.962204 197.759430,180.588028 
	C197.615555,172.260971 197.743240,163.929443 197.727661,155.599777 
	C197.724594,153.961578 197.927444,152.154388 194.938721,151.372131 
M66.402611,22.196831 
	C64.580368,45.397800 62.758133,68.598770 60.935894,91.799736 
	C61.619289,91.880203 62.302681,91.960670 62.986073,92.041145 
	C64.094002,88.398964 64.404350,84.599510 64.684158,80.759911 
	C65.554451,68.817497 66.526131,56.882504 67.425888,44.942181 
	C67.584190,42.841480 68.310371,41.174706 69.996513,39.780933 
	C74.619278,35.959736 79.125603,31.997988 83.700516,28.118402 
	C85.246597,26.807302 86.884148,25.794363 89.108688,26.013521 
	C92.914261,26.388441 96.800156,26.255489 100.534363,26.960548 
	C104.242455,27.660681 109.206474,25.989458 111.494514,29.015572 
	C117.488632,36.943264 128.901154,41.817631 126.471207,54.791519 
	C129.405548,54.037086 129.530945,52.086800 129.665207,50.042442 
	C130.144760,42.740448 130.561493,35.430328 131.272507,28.149702 
	C131.520325,25.612345 131.071747,24.474001 128.342102,24.265398 
	C108.770477,22.769732 89.206627,21.172400 69.640182,19.608917 
	C68.192085,19.493204 66.975922,19.795301 66.402611,22.196831 
M158.969803,36.616657 
	C156.572067,33.519627 154.717575,34.914902 152.540344,37.104252 
	C135.384323,54.355682 118.140671,71.519936 100.956207,88.743156 
	C100.033920,89.667519 98.412598,90.411957 99.066566,92.293961 
	C101.652122,92.562958 102.761444,90.670990 104.120842,89.321770 
	C111.926270,81.574799 119.686752,73.782539 127.462517,66.005676 
	C142.463409,51.002686 142.462387,51.041882 163.738937,51.600395 
	C166.279831,51.667095 167.997894,52.726700 169.934250,54.197704 
	C180.866302,62.502552 187.201324,72.705566 184.329025,87.018082 
	C184.232773,87.497643 184.314224,88.015785 184.333817,88.515121 
	C184.392075,90.000938 184.177216,91.698708 185.942017,92.360435 
	C187.609116,92.985542 189.255157,92.700638 190.548294,91.353539 
	C194.207962,87.541100 197.844910,83.706863 202.027435,79.318153 
	C187.579468,64.988060 173.521515,51.044811 158.969803,36.616657 
z"/>
<path fill="#000000" opacity="1.000000" stroke="none" 
	d="
M127.000000,213.845276 
	C141.995132,213.838684 156.490250,213.828842 170.985382,213.830933 
	C172.316223,213.831116 173.658463,213.813950 174.974762,213.974411 
	C176.361938,214.143478 177.696106,214.731277 177.765244,216.332886 
	C177.837402,218.003983 176.438461,218.550598 175.093170,218.756989 
	C173.620819,218.982849 172.110062,219.031998 170.616028,219.032227 
	C130.629333,219.038162 90.642609,219.050400 50.656075,218.968460 
	C48.051830,218.963120 43.665787,220.160400 43.612278,216.474960 
	C43.556141,212.608017 47.959164,213.929993 50.525639,213.919830 
	C75.850128,213.819611 101.175140,213.851105 127.000000,213.845276 
z"/>
<path fill="#000000" opacity="1.000000" stroke="none" 
	d="
M163.989319,117.395241 
	C125.865692,117.395294 88.239517,117.430267 50.613823,117.312508 
	C48.178204,117.304893 43.682987,118.986938 43.795433,115.001587 
	C43.900276,111.285706 48.362499,112.822075 50.901722,112.815804 
	C90.858360,112.717155 130.815369,112.722443 170.772079,112.806999 
	C173.168549,112.812080 177.308029,111.471695 177.376022,115.081589 
	C177.449905,119.005104 173.284561,116.992203 170.969955,117.332329 
	C168.851624,117.643616 166.651154,117.396049 163.989319,117.395241 
z"/>
<path fill="#000000" opacity="1.000000" stroke="none" 
	d="
M103.404968,49.223095 
	C100.123627,52.308128 96.756256,52.979671 93.187019,50.789566 
	C90.247192,48.985668 89.021873,46.213486 89.506004,42.744453 
	C89.999443,39.208733 92.181198,37.167980 95.440315,36.173649 
	C98.685143,35.183685 101.382530,36.436779 103.390427,38.840961 
	C106.040215,42.013741 105.908569,45.494778 103.404968,49.223095 
M99.237396,46.049603 
	C100.932617,44.497093 100.806229,42.936157 99.123276,41.523029 
	C98.188744,40.738338 97.066666,40.631416 95.951469,41.303379 
	C94.699059,42.058022 94.078209,43.182037 94.448891,44.579994 
	C95.051979,46.854477 96.705627,47.062027 99.237396,46.049603 
z"/>
<path fill="#000000" opacity="1.000000" stroke="none" 
	d="
M156.117737,75.266663 
	C155.545151,72.216080 155.276398,69.587219 157.156738,67.260277 
	C159.983597,63.762020 165.376938,63.198456 168.781754,66.085365 
	C171.956924,68.777573 172.316803,74.082283 169.545837,77.348106 
	C166.560516,80.866554 161.929367,81.330330 158.456985,78.355789 
	C157.592255,77.615044 156.997192,76.559494 156.117737,75.266663 
M166.393463,71.000046 
	C164.442245,68.432770 162.410019,68.740837 160.847351,71.214127 
	C159.733765,72.976654 160.819778,74.651192 162.564041,75.162209 
	C165.367737,75.983612 166.470352,74.265465 166.393463,71.000046 
z"/>
<path fill="#000000" opacity="1.000000" stroke="none" 
	d="
M156.941742,161.178970 
	C160.960983,156.986923 165.401169,155.865234 170.318085,158.237839 
	C174.834564,160.417206 176.695221,164.281662 176.349350,169.275589 
	C176.007782,174.207245 173.202087,177.227081 168.778519,178.747055 
	C164.192856,180.322708 160.237549,178.788162 157.069122,175.359116 
	C153.840332,171.864700 153.806458,166.926498 156.941742,161.178970 
M159.391815,167.624359 
	C159.651108,171.935745 161.835220,174.610596 166.243149,174.404541 
	C169.756348,174.240326 171.877579,170.263062 171.045120,166.474182 
	C170.461166,163.816391 168.750107,162.497864 166.178833,162.272293 
	C162.722961,161.969101 160.456924,163.534256 159.391815,167.624359 
z"/>
</svg>