<svg width="75" height="76" viewBox="0 0 75 76" fill="none" xmlns="http://www.w3.org/2000/svg">
<path d="M42.54 70.82H12C11.0899 70.8292 10.187 70.6591 9.34263 70.3194C8.4983 69.9796 7.72917 69.4769 7.07915 68.8399C6.42913 68.2028 5.91096 67.444 5.55421 66.6067C5.19747 65.7694 5.00915 64.8701 5 63.96V53.46C5.00682 51.962 5.38377 50.4888 6.09733 49.1716C6.81088 47.8544 7.83892 46.734 9.09 45.91L26.47 34.44M70.4 53.44C70.3958 51.9415 70.02 50.4673 69.3062 49.1497C68.5925 47.8321 67.563 46.712 66.31 45.89L48.91 34.44M52.91 20.26C52.9395 23.8602 52.0699 27.4109 50.38 30.59C50.11 31.08 49.83 31.59 49.52 32C49.52 32 49.52 32 49.52 32.06C48.0419 34.3443 45.967 36.1806 43.52 37.37C41.9588 38.117 40.2507 38.5064 38.52 38.51C30.52 38.51 24.1 30.34 24.1 20.26C24.0918 18.1077 24.3949 15.9655 25 13.9C25.7927 11.0846 27.2308 8.49268 29.2 6.33C29.57 5.94 29.95 5.56001 30.35 5.21001C32.5874 3.17401 35.4951 2.03155 38.52 2H38.6C41.5959 2.05737 44.4698 3.19767 46.69 5.21001C48.1915 6.54813 49.4471 8.13881 50.4 9.91C51.7535 12.4484 52.58 15.2342 52.83 18.1C52.89 18.8 52.93 19.52 52.93 20.25L52.91 20.26Z" stroke="#0092FF" stroke-width="4" stroke-linecap="round" stroke-linejoin="round"/>
<path d="M56.9699 73.54C62.5149 73.54 67.0099 69.0449 67.0099 63.5C67.0099 57.955 62.5149 53.46 56.9699 53.46C51.425 53.46 46.9299 57.955 46.9299 63.5C46.9299 69.0449 51.425 73.54 56.9699 73.54Z" stroke="#0092FF" stroke-width="3.5"/>
<path d="M49.6001 71.31L63.7801 57.13" stroke="#0092FF" stroke-width="3.5"/>
</svg>
