<svg width="75" height="76" viewBox="0 0 75 76" fill="none" xmlns="http://www.w3.org/2000/svg">
<path d="M9.00002 39.22V62.11C8.99738 63.6131 9.2915 65.1019 9.86548 66.491C10.4395 67.8802 11.282 69.1424 12.3449 70.2052C13.4077 71.268 14.6699 72.1106 16.059 72.6846C17.4482 73.2585 18.937 73.5526 20.44 73.55H54.77M54.77 73.55C56.2732 73.5524 57.7619 73.2567 59.15 72.68C60.5385 72.1104 61.8023 71.2747 62.87 70.22C63.934 69.1596 64.777 67.8986 65.35 66.51C65.9188 65.1198 66.2109 63.632 66.21 62.13V39.22C66.21 37.703 65.6074 36.2481 64.5347 35.1754C63.462 34.1026 62.0071 33.5 60.49 33.5M37.61 62.11V50.69M9.00002 39.22C9.00002 37.703 9.60266 36.2481 10.6754 35.1754C11.7481 34.1026 13.203 33.5 14.72 33.5H60.5M37.61 2C39.8682 2.00131 42.1039 2.44805 44.1892 3.31464C46.2745 4.18122 48.1683 5.45064 49.7623 7.05019C51.3563 8.64974 52.6191 10.548 53.4784 12.6363C54.3377 14.7246 54.7766 16.9618 54.77 19.22V33.56M20.44 19.22C20.4427 14.6697 22.2515 10.3065 25.469 7.08897C28.6866 3.87142 33.0497 2.06265 37.6 2.06M20.44 33.56V19.15" stroke="#0092FF" stroke-width="4" stroke-linecap="round" stroke-linejoin="round"/>
</svg>
