<svg width="75" height="76" viewBox="0 0 75 76" fill="none" xmlns="http://www.w3.org/2000/svg">
<path d="M4.34985 22.84H67.4298" stroke="#0092FF" stroke-width="3" stroke-linecap="round" stroke-linejoin="round"/>
<path d="M31.96 67.88H15.31C12.0469 67.88 8.91732 66.5844 6.60904 64.278C4.30075 61.9716 3.00265 58.8431 3 55.58V14.31C3 11.0452 4.29693 7.91409 6.6055 5.60551C8.91407 3.29694 12.0452 2 15.31 2H56.53C59.7931 2.00265 62.9216 3.30077 65.228 5.60905C67.5344 7.91734 68.83 11.0469 68.83 14.31V37.54" stroke="#0092FF" stroke-width="4" stroke-linecap="round" stroke-linejoin="round"/>
<path d="M54.5599 39.9C51.0706 39.898 47.6591 40.9309 44.7569 42.868C41.8547 44.8051 39.5922 47.5594 38.2556 50.7825C36.9189 54.0057 36.5681 57.5528 37.2477 60.9753C37.9272 64.3978 39.6064 67.5418 42.073 70.0098C44.5396 72.4778 47.6827 74.1589 51.1048 74.8403C54.5269 75.5218 58.0743 75.173 61.2981 73.8382C64.522 72.5034 67.2776 70.2424 69.2163 67.3413C71.1551 64.4402 72.1899 61.0293 72.1899 57.54C72.1899 52.8633 70.3328 48.378 67.0268 45.0702C63.7208 41.7623 59.2366 39.9027 54.5599 39.9ZM61.0599 60.55C61.2827 60.7704 61.4597 61.0328 61.5804 61.3221C61.7011 61.6113 61.7633 61.9216 61.7633 62.235C61.7633 62.5484 61.7011 62.8588 61.5804 63.148C61.4597 63.4372 61.2827 63.6996 61.0599 63.92C60.8408 64.143 60.5793 64.3198 60.2907 64.4401C60.0022 64.5603 59.6925 64.6215 59.3799 64.62C59.066 64.6206 58.755 64.559 58.465 64.4389C58.1749 64.3187 57.9115 64.1424 57.6899 63.92L54.6899 60.92L51.6899 63.92C51.4688 64.1416 51.2062 64.3175 50.9171 64.4375C50.6279 64.5574 50.318 64.6192 50.0049 64.6192C49.6919 64.6192 49.3819 64.5574 49.0927 64.4375C48.8036 64.3175 48.541 64.1416 48.3199 63.92C48.0983 63.6989 47.9224 63.4363 47.8025 63.1472C47.6825 62.858 47.6207 62.5481 47.6207 62.235C47.6207 61.922 47.6825 61.612 47.8025 61.3229C47.9224 61.0337 48.0983 60.7711 48.3199 60.55L51.3199 57.55L48.3199 54.55C47.9672 54.091 47.7931 53.5196 47.8299 52.9419C47.8667 52.3642 48.1119 51.8195 48.5201 51.4089C48.9282 50.9984 49.4714 50.7499 50.0489 50.7096C50.6263 50.6694 51.1988 50.8401 51.6599 51.19L54.6599 54.19L57.6599 51.19C58.1145 50.7811 58.7085 50.5618 59.3197 50.5775C59.9309 50.5932 60.513 50.8425 60.946 51.2742C61.379 51.706 61.63 52.2872 61.6475 52.8984C61.665 53.5096 61.4475 54.1043 61.0399 54.56L58.0399 57.56L61.0399 60.56L61.0599 60.55Z" fill="#0092FF"/>
</svg>
