<svg width="75" height="75" viewBox="0 0 75 75" fill="none" xmlns="http://www.w3.org/2000/svg">
<path d="M72.55 39.64V19.91C72.5514 17.8161 71.7246 15.8066 70.25 14.32C69.5267 13.585 68.6644 13.0014 67.7132 12.6031C66.7621 12.2047 65.7412 11.9997 64.71 12H9.83001C8.799 12.0009 7.77841 12.2064 6.82742 12.6046C5.87643 13.0029 5.01396 13.5859 4.29 14.32C2.81812 15.8076 1.99486 17.8173 2.00002 19.91V43.64C1.99703 45.7323 2.81997 47.7412 4.29 49.23C5.01579 49.9609 5.87883 50.5413 6.82955 50.9377C7.78028 51.3341 8.79995 51.5388 9.83001 51.54H37.27M47.07 55.92L54.91 63.82L70.59 48.01M37.2698 31.3999V31.3499M53.0798 31.3999V31.3499M21.3298 31.3999V31.3499" stroke="#0092FF" stroke-width="4" stroke-linecap="round" stroke-linejoin="round"/>
</svg>
