<svg width="75" height="75" viewBox="0 0 75 75" fill="none" xmlns="http://www.w3.org/2000/svg">
<path d="M67.31 43.8701V67.1301C67.2299 68.5796 66.5789 69.9384 65.4995 70.9092C64.42 71.88 62.9999 72.3837 61.55 72.3101H7.76001C6.3101 72.3837 4.89008 71.88 3.81061 70.9092C2.73114 69.9384 2.08011 68.5796 2 67.1301V28.1301C2.08011 26.6805 2.73114 25.3217 3.81061 24.3509C4.89008 23.3801 6.3101 22.8765 7.76001 22.9501H32.64M2.07001 27.8601L34.49 50.03M41.28 45.5L34.66 50.03" stroke="#0092FF" stroke-width="4" stroke-linecap="round" stroke-linejoin="round"/>
<path d="M55.43 39.8401C51.7455 39.7138 48.1786 38.5109 45.1701 36.3801C42.1867 34.2574 39.8975 31.3001 38.5901 27.8801C37.2983 24.464 37.0623 20.7386 37.9128 17.1868C38.7633 13.635 40.661 10.4206 43.36 7.96007C46.0677 5.46278 49.4526 3.82077 53.0901 3.24007C56.7525 2.6523 60.5068 3.1494 63.89 4.67006C67.2409 6.17291 70.0729 8.63261 72.0301 11.7401C74.3025 15.3583 75.231 19.6601 74.6534 23.8936C74.0758 28.127 72.0287 32.0228 68.87 34.9001C65.2148 38.2514 60.3856 40.0264 55.43 39.8401ZM56.5901 7.24007C53.7399 7.14319 50.9238 7.88371 48.49 9.37007C46.0685 10.8405 44.1398 12.999 42.95 15.5701C41.7643 18.1262 41.3774 20.9806 41.8401 23.7601C42.3014 26.5464 43.5866 29.1308 45.5301 31.1801C46.9954 32.7226 48.7811 33.925 50.7614 34.7025C52.7418 35.4801 54.8686 35.8139 56.992 35.6804C59.1153 35.5469 61.1835 34.9494 63.0509 33.93C64.9183 32.9105 66.5394 31.4939 67.8 29.7801C69.7441 27.1184 70.6928 23.8591 70.4808 20.5699C70.2688 17.2807 68.9096 14.1702 66.64 11.7801C64.0143 9.00842 60.4055 7.37819 56.5901 7.24007Z" fill="#0092FF"/>
<path d="M63.2701 13.4701C62.9384 13.2237 62.533 13.0968 62.1201 13.1101H62.0201L51.0801 14.2401C50.84 14.2584 50.6057 14.3229 50.3901 14.4301C50.1737 14.5351 49.9774 14.6773 49.8101 14.8501C49.6504 15.0177 49.5247 15.2146 49.4401 15.4301C49.3593 15.6404 49.3218 15.8649 49.3301 16.0901C49.3405 16.3097 49.3955 16.525 49.4918 16.7227C49.588 16.9204 49.7236 17.0964 49.8901 17.2401C50.0741 17.3777 50.2804 17.4826 50.5001 17.5501C50.7317 17.61 50.9717 17.6303 51.2101 17.6101L57.6601 16.9601L48.2101 27.0701C48.0504 27.2377 47.9248 27.4346 47.8401 27.6501C47.7624 27.8576 47.7283 28.0788 47.7401 28.3001C47.7517 28.5197 47.8097 28.7344 47.9101 28.9301C48.0196 29.1231 48.1657 29.2929 48.3401 29.4301C48.7179 29.7144 49.1903 29.8432 49.6601 29.7901C50.1448 29.7449 50.5963 29.5244 50.9301 29.1701L60.3901 19.0701L60.7101 24.9701C60.7287 25.1866 60.7898 25.3973 60.8901 25.5901C60.9964 25.7853 61.143 25.9557 61.3201 26.0901C61.707 26.3522 62.1769 26.4626 62.6401 26.4001C63.1168 26.34 63.5582 26.1175 63.8901 25.7701C64.0498 25.6025 64.1754 25.4055 64.2601 25.1901C64.3419 24.9802 64.376 24.7548 64.3601 24.5301L63.8101 14.6101C63.805 14.3928 63.7543 14.1791 63.6613 13.9827C63.5683 13.7863 63.435 13.6116 63.2701 13.4701Z" fill="#0092FF"/>
</svg>
