<svg width="84" height="84" viewBox="0 0 84 84" fill="none" xmlns="http://www.w3.org/2000/svg">
<g clip-path="url(#clip0_712_9029)">
<path d="M46.0852 32.0073H43.4034V31.6526C43.4121 31.4631 43.3824 31.274 43.3158 31.0963C43.2493 30.9186 43.1475 30.7561 43.0164 30.6188C42.8854 30.4816 42.7278 30.3725 42.5534 30.2979C42.3789 30.2233 42.1912 30.1847 42.0014 30.1847C41.8117 30.1847 41.6239 30.2233 41.4494 30.2979C41.275 30.3725 41.1175 30.4816 40.9864 30.6188C40.8554 30.7561 40.7535 30.9186 40.687 31.0963C40.6205 31.274 40.5907 31.4631 40.5994 31.6526V32.0073H37.9176C37.2108 32.0057 36.5323 32.2846 36.0312 32.783C35.53 33.2813 35.2471 33.9581 35.2448 34.6648V40.7396C35.2463 41.4448 35.5272 42.1206 36.0259 42.6192C36.5245 43.1178 37.2004 43.3988 37.9057 43.4004H40.5875V49.1921H38.0457V47.3419C38.0291 46.9813 37.8741 46.641 37.613 46.3917C37.3519 46.1424 37.0048 46.0033 36.6438 46.0033C36.2828 46.0033 35.9356 46.1424 35.6745 46.3917C35.4134 46.641 35.2584 46.9813 35.2418 47.3419V49.3353C35.2441 50.0399 35.5254 50.7148 36.024 51.2128C36.5226 51.7108 37.198 51.9913 37.9027 51.9928H40.5845V52.3472C40.6011 52.7078 40.7561 53.0482 41.0172 53.2975C41.2783 53.5468 41.6255 53.6859 41.9865 53.6859C42.3475 53.6859 42.6947 53.5468 42.9558 53.2975C43.2169 53.0482 43.3719 52.7078 43.3885 52.3472V51.9928H46.0703C46.775 51.992 47.4506 51.7119 47.9489 51.2137C48.4472 50.7154 48.7275 50.0399 48.7283 49.3353V43.2573C48.7283 42.5521 48.4483 41.876 47.9499 41.3771C47.4516 40.8783 46.7755 40.5976 46.0703 40.5968H43.3885V34.808H45.9303V36.655C45.9303 37.0263 46.0778 37.3825 46.3404 37.6451C46.6031 37.9077 46.9593 38.0553 47.3308 38.0553C47.7022 38.0553 48.0584 37.9077 48.321 37.6451C48.5837 37.3825 48.7313 37.0263 48.7313 36.655V34.6648C48.7313 33.9597 48.4513 33.2836 47.9529 32.7847C47.4545 32.2858 46.7785 32.0052 46.0733 32.0044L46.0852 32.0073ZM45.9421 43.4033V49.1921H43.4005V43.4033H45.9421ZM40.5964 40.5997H38.0547V34.8109H40.6084L40.5964 40.5997ZM41.9969 24.1239C37.8599 24.1203 33.8496 25.5511 30.6496 28.1728C27.4496 30.7945 25.258 34.4449 24.4483 38.5013C23.6386 42.5578 24.2609 46.7694 26.2092 50.4185C28.1576 54.0675 31.3112 56.9283 35.1327 58.5128C38.9543 60.0973 43.2071 60.3074 47.1664 59.1078C51.1256 57.9081 54.5462 55.3728 56.8452 51.9338C59.1442 48.4948 60.1792 44.3651 59.7738 40.2485C59.3685 36.1319 57.5479 32.2834 54.6223 29.3587C51.2744 26.0091 46.7331 24.1261 41.9969 24.1239ZM41.9969 57.0339C38.5094 57.0374 35.1287 55.8316 32.4309 53.6219C29.733 51.4122 27.8851 48.3354 27.202 44.916C26.5189 41.4965 27.0429 37.946 28.6848 34.8697C30.3267 31.7933 32.9848 29.3814 36.206 28.0451C39.4272 26.7088 43.0123 26.5308 46.35 27.5414C49.6878 28.5521 52.5718 30.6888 54.5104 33.5874C56.449 36.486 57.3222 39.9671 56.9813 43.4374C56.6404 46.9076 55.1063 50.1523 52.6407 52.6184C51.2435 54.0172 49.5844 55.1273 47.7581 55.8849C45.9318 56.6425 43.9741 57.0329 41.9969 57.0339ZM41.9969 19.059C36.6878 19.0539 31.5412 20.8896 27.4343 24.2537C23.3274 27.6177 20.5144 32.3019 19.4747 37.5074C18.435 42.713 19.233 48.1179 21.7326 52.8011C24.2322 57.4843 28.2788 61.1557 33.1827 63.1899C38.0866 65.224 43.5441 65.4949 48.6253 63.9562C53.7065 62.4176 58.0968 59.1647 61.0479 54.7519C63.999 50.3392 65.3282 45.0397 64.8091 39.7568C64.29 34.4739 61.9546 29.5344 58.201 25.7803C53.9047 21.4802 48.076 19.0626 41.9969 19.059ZM41.9969 62.0988C37.3358 62.1037 32.8172 60.4922 29.2114 57.539C25.6055 54.5857 23.1357 50.4734 22.2227 45.9032C21.3097 41.333 22.0102 36.5876 24.2047 32.476C26.3993 28.3644 29.9521 25.1407 34.2575 23.3549C38.5629 21.5691 43.3544 21.3317 47.8154 22.6828C52.2764 24.0339 56.1307 26.89 58.7214 30.7643C61.312 34.6387 62.4786 39.2915 62.0224 43.9296C61.5662 48.5678 59.5153 52.9042 56.2194 56.1997C52.4483 59.9736 47.3325 62.0955 41.9969 62.0988ZM40.5964 12.5966V10.3563C40.5877 10.1668 40.6175 9.9774 40.684 9.79971C40.7505 9.62203 40.8524 9.45976 40.9835 9.32255C41.1145 9.18534 41.272 9.07596 41.4464 9.00134C41.6209 8.92672 41.8087 8.88845 41.9984 8.88845C42.1882 8.88845 42.3759 8.92672 42.5504 9.00134C42.7248 9.07596 42.8824 9.18534 43.0134 9.32255C43.1445 9.45976 43.2464 9.62203 43.3129 9.79971C43.3794 9.9774 43.4092 10.1668 43.4005 10.3563V12.5966C43.3838 12.9572 43.2289 13.2976 42.9677 13.5469C42.7066 13.7962 42.3595 13.9353 41.9984 13.9353C41.6374 13.9353 41.2902 13.7962 41.0291 13.5469C40.768 13.2976 40.6131 12.9572 40.5964 12.5966ZM40.5964 3.65857V1.41824C40.5877 1.22871 40.6175 1.03933 40.684 0.861643C40.7505 0.683957 40.8524 0.52169 40.9835 0.38448C41.1145 0.24727 41.272 0.137887 41.4464 0.0632681C41.6209 -0.0113504 41.8087 -0.0496216 41.9984 -0.0496216C42.1882 -0.0496216 42.3759 -0.0113504 42.5504 0.0632681C42.7248 0.137887 42.8824 0.24727 43.0134 0.38448C43.1445 0.52169 43.2464 0.683957 43.3129 0.861643C43.3794 1.03933 43.4092 1.22871 43.4005 1.41824V3.65857C43.3838 4.01917 43.2289 4.35952 42.9677 4.60882C42.7066 4.85813 42.3595 4.99725 41.9984 4.99725C41.6374 4.99725 41.2902 4.85813 41.0291 4.60882C40.768 4.35952 40.6131 4.01917 40.5964 3.65857ZM55.4953 15.8501L56.6157 13.9077C56.7066 13.7463 56.8286 13.6047 56.9746 13.4907C57.1206 13.3768 57.2878 13.2929 57.4664 13.244C57.645 13.1951 57.8315 13.1822 58.0152 13.2059C58.1989 13.2296 58.376 13.2893 58.5364 13.3819C58.6968 13.4745 58.8372 13.5981 58.9495 13.7453C59.0618 13.8925 59.1439 14.0605 59.1908 14.2397C59.2378 14.4188 59.2488 14.6053 59.2231 14.7887C59.1974 14.9721 59.1357 15.1487 59.0413 15.308L57.9209 17.2504C57.8292 17.4103 57.7068 17.5505 57.5607 17.663C57.4147 17.7755 57.2479 17.8581 57.0699 17.906C56.8919 17.9538 56.7062 17.9661 56.5234 17.942C56.3407 17.918 56.1644 17.8583 56.0049 17.766C55.8452 17.6741 55.7053 17.5515 55.5933 17.4052C55.4813 17.259 55.3994 17.0919 55.3523 16.9138C55.2569 16.5547 55.3072 16.1723 55.4924 15.8501H55.4953ZM59.965 8.10375L61.0854 6.16135C61.1763 6 61.2983 5.85832 61.4443 5.74441C61.5903 5.6305 61.7574 5.54657 61.9361 5.49769C62.1147 5.4488 62.3012 5.43589 62.4849 5.45957C62.6685 5.48325 62.8457 5.54301 63.006 5.6356C63.1664 5.72819 63.3068 5.85178 63.4192 5.999C63.5315 6.14621 63.6135 6.31421 63.6605 6.49333C63.7074 6.67244 63.7185 6.85897 63.6928 7.04235C63.6671 7.22573 63.6053 7.40236 63.511 7.56171L62.3906 9.50411C62.2986 9.66354 62.1762 9.8034 62.0302 9.91551C61.8842 10.0276 61.7176 10.1099 61.5398 10.1576C61.362 10.2053 61.1765 10.2176 60.994 10.1937C60.8115 10.1697 60.6355 10.1102 60.4761 10.0182C60.3166 9.92628 60.1768 9.80369 60.0647 9.65773C59.9525 9.51177 59.8703 9.34523 59.8226 9.16747C59.7748 8.98972 59.7625 8.80413 59.7865 8.62165C59.8104 8.43916 59.8701 8.26319 59.962 8.10375H59.965ZM66.2524 28.018C66.0667 27.6964 66.0164 27.3142 66.1125 26.9555C66.2086 26.5968 66.4433 26.2907 66.7649 26.105L68.7077 24.9819C68.8671 24.8887 69.0433 24.828 69.2263 24.803C69.4092 24.778 69.5952 24.7894 69.7738 24.8364C69.9523 24.8835 70.1198 24.9652 70.2667 25.0771C70.4136 25.189 70.5369 25.3288 70.6297 25.4885C70.7223 25.6483 70.7824 25.8249 70.8064 26.0081C70.8305 26.1913 70.8181 26.3773 70.7699 26.5557C70.7217 26.734 70.6387 26.901 70.5256 27.0471C70.4126 27.1932 70.2717 27.3156 70.1112 27.407L68.1684 28.5275C67.8467 28.7131 67.4645 28.7632 67.1057 28.6671C66.747 28.571 66.4411 28.3364 66.2554 28.0148L66.2524 28.018ZM78.3741 21.0194C78.5598 21.341 78.6101 21.7233 78.514 22.082C78.4179 22.4407 78.1832 22.7465 77.8616 22.9322L75.9188 24.0552C75.6787 24.1958 75.4022 24.2618 75.1246 24.2447C74.8469 24.2275 74.5807 24.128 74.3598 23.9589C74.1389 23.7899 73.9733 23.5588 73.8843 23.2953C73.7952 23.0318 73.7867 22.7475 73.8598 22.4791C73.9074 22.3009 73.9902 22.1341 74.1033 21.9883C74.2164 21.8425 74.3575 21.7207 74.5183 21.6301L76.4581 20.5071C76.7802 20.3213 77.1629 20.2708 77.5221 20.3668C77.8814 20.4629 78.1878 20.6977 78.3741 21.0194ZM73.6481 43.4211H71.4044C71.2205 43.4211 71.0383 43.3849 70.8684 43.3146C70.6985 43.2442 70.5441 43.1411 70.4141 43.0111C70.284 42.8811 70.1809 42.7265 70.1105 42.5566C70.0401 42.3867 70.0039 42.2049 70.0039 42.021C70.0039 41.8371 70.0401 41.655 70.1105 41.4851C70.1809 41.3152 70.284 41.1606 70.4141 41.0306C70.5441 40.9006 70.6985 40.7975 70.8684 40.7271C71.0383 40.6568 71.2205 40.6206 71.4044 40.6206H73.6481C74.0196 40.6206 74.3758 40.768 74.6385 41.0306C74.9011 41.2932 75.0487 41.6496 75.0487 42.021C75.0487 42.3924 74.9011 42.7485 74.6385 43.0111C74.3758 43.2737 74.0196 43.4211 73.6481 43.4211ZM84 42.0178C84.0004 42.2018 83.9644 42.3842 83.8941 42.5543C83.8239 42.7244 83.7207 42.8787 83.5906 43.0088C83.4605 43.1389 83.3059 43.2423 83.1359 43.3125C82.9658 43.3828 82.7834 43.4185 82.5994 43.4182H80.3556C79.9842 43.4182 79.628 43.2705 79.3654 43.0079C79.1027 42.7453 78.9551 42.3892 78.9551 42.0178C78.9551 41.6464 79.1027 41.2903 79.3654 41.0277C79.628 40.7651 79.9842 40.6177 80.3556 40.6177H82.5994C82.7834 40.6173 82.9658 40.6531 83.1359 40.7233C83.3059 40.7936 83.4605 40.8967 83.5906 41.0268C83.7207 41.1569 83.8239 41.3115 83.8941 41.4816C83.9644 41.6516 84.0004 41.8338 84 42.0178ZM70.6207 58.5413C70.4344 58.8631 70.128 59.0978 69.7687 59.1939C69.4095 59.29 69.0268 59.2398 68.7047 59.054L66.7649 57.9335C66.4428 57.7478 66.2078 57.442 66.1114 57.083C66.015 56.7241 66.0651 56.3413 66.2508 56.0193C66.4366 55.6973 66.7426 55.4622 67.1016 55.3658C67.4607 55.2695 67.8433 55.3198 68.1654 55.5055L70.1082 56.6286C70.2676 56.7201 70.4072 56.8425 70.5192 56.9882C70.6312 57.1339 70.7133 57.3003 70.7607 57.4779C70.8561 57.837 70.8058 58.2191 70.6207 58.5413ZM78.3681 63.0103C78.1818 63.3321 77.8754 63.5669 77.5162 63.6629C77.1569 63.759 76.7743 63.7088 76.4522 63.523L74.5093 62.4025C74.3423 62.3144 74.1949 62.1935 74.0758 62.047C73.9566 61.9005 73.8682 61.7318 73.816 61.5503C73.7637 61.3689 73.7486 61.1788 73.7715 60.9914C73.7944 60.804 73.855 60.623 73.9495 60.4596C74.0439 60.2961 74.1704 60.1534 74.3214 60.04C74.4723 59.9266 74.6446 59.8447 74.8279 59.7994C75.0112 59.7541 75.2018 59.7463 75.3882 59.7764C75.5746 59.8065 75.753 59.8739 75.9128 59.9745L77.8556 61.0976C78.1772 61.2833 78.4119 61.5894 78.508 61.9481C78.6041 62.3068 78.5538 62.6887 78.3681 63.0103ZM59.0294 68.7159C59.1237 68.8753 59.1855 69.0516 59.2112 69.235C59.2369 69.4184 59.2259 69.6052 59.179 69.7843C59.132 69.9634 59.05 70.1314 58.9377 70.2786C58.8253 70.4258 58.6849 70.5494 58.5245 70.642C58.3641 70.7346 58.1869 70.7944 58.0033 70.8181C57.8196 70.8417 57.6331 70.8288 57.4545 70.7799C57.2758 70.7311 57.1087 70.6471 56.9627 70.5332C56.8167 70.4193 56.6947 70.2776 56.6038 70.1163L55.4804 68.1768C55.2947 67.8548 55.2446 67.4721 55.341 67.1131C55.4374 66.7541 55.6724 66.448 55.9945 66.2623C56.3165 66.0766 56.6992 66.0266 57.0582 66.1229C57.4172 66.2193 57.7233 66.4544 57.909 66.7764L59.0294 68.7159ZM63.4991 76.4622C63.5921 76.6213 63.6524 76.7972 63.6765 76.9799C63.7005 77.1625 63.6878 77.3483 63.6391 77.526C63.5425 77.8849 63.308 78.191 62.9865 78.3779C62.6643 78.5625 62.2821 78.6121 61.9235 78.5155C61.565 78.4189 61.2593 78.1841 61.0735 77.8626L59.9501 75.9231C59.7806 75.6022 59.7422 75.2279 59.8426 74.8792C59.9431 74.5305 60.1748 74.2344 60.489 74.0529C60.8032 73.8713 61.1756 73.8183 61.5279 73.9054C61.8803 73.9924 62.1852 74.2125 62.3787 74.5196L63.4991 76.4622ZM43.3885 71.3973V73.6377C43.3973 73.8272 43.3675 74.0166 43.3009 74.1943C43.2344 74.372 43.1325 74.5345 43.0015 74.6717C42.8705 74.8089 42.713 74.918 42.5385 74.9926C42.3641 75.0673 42.1763 75.1058 41.9865 75.1058C41.7968 75.1058 41.609 75.0673 41.4345 74.9926C41.26 74.918 41.1026 74.8089 40.9715 74.6717C40.8405 74.5345 40.7386 74.372 40.6721 74.1943C40.6056 74.0166 40.5758 73.8272 40.5845 73.6377V71.3973C40.6011 71.0367 40.7561 70.6964 41.0172 70.4471C41.2783 70.1978 41.6255 70.0587 41.9865 70.0587C42.3475 70.0587 42.6947 70.1978 42.9558 70.4471C43.2169 70.6964 43.3719 71.0367 43.3885 71.3973ZM43.3885 80.3354V82.5789C43.3973 82.7685 43.3675 82.9576 43.3009 83.1353C43.2344 83.3129 43.1325 83.4755 43.0015 83.6127C42.8705 83.7499 42.713 83.859 42.5385 83.9336C42.3641 84.0082 42.1763 84.0468 41.9865 84.0468C41.7968 84.0468 41.609 84.0082 41.4345 83.9336C41.26 83.859 41.1026 83.7499 40.9715 83.6127C40.8405 83.4755 40.7386 83.3129 40.6721 83.1353C40.6056 82.9576 40.5758 82.7685 40.5845 82.5789V80.3354C40.6011 79.9748 40.7561 79.6345 41.0172 79.3852C41.2783 79.1359 41.6255 78.9967 41.9865 78.9967C42.3475 78.9967 42.6947 79.1359 42.9558 79.3852C43.2169 79.6345 43.3719 79.9748 43.3885 80.3354ZM28.4896 68.1468L27.3692 70.0863C27.1835 70.4083 26.8775 70.6434 26.5184 70.7398C26.1594 70.8362 25.7767 70.7861 25.4547 70.6004C25.1327 70.4147 24.8976 70.1087 24.8012 69.7497C24.7048 69.3907 24.7549 69.0082 24.9407 68.6862L26.064 66.7465C26.1549 66.5851 26.2769 66.4434 26.4229 66.3295C26.5689 66.2156 26.7361 66.1317 26.9147 66.0828C27.0933 66.0339 27.2798 66.021 27.4635 66.0447C27.6472 66.0684 27.8244 66.1284 27.9848 66.221C28.1451 66.3136 28.2856 66.4369 28.3979 66.5841C28.5102 66.7313 28.5922 66.8993 28.6392 67.0784C28.6861 67.2576 28.6971 67.4444 28.6714 67.6278C28.6458 67.8111 28.584 67.9875 28.4896 68.1468ZM24.02 75.8932L22.8996 77.8326C22.8076 77.9921 22.6851 78.1319 22.5392 78.244C22.3932 78.3562 22.2265 78.4384 22.0488 78.4861C21.871 78.5338 21.6855 78.5461 21.503 78.5222C21.3205 78.4983 21.1445 78.4387 20.985 78.3468C20.8256 78.2548 20.6858 78.1322 20.5736 77.9863C20.4615 77.8403 20.3793 77.6738 20.3315 77.496C20.2838 77.3183 20.2715 77.133 20.2954 76.9505C20.3194 76.768 20.379 76.592 20.471 76.4326L21.5944 74.4899C21.6852 74.3285 21.8072 74.1869 21.9532 74.0729C22.0992 73.959 22.2664 73.8751 22.445 73.8262C22.6236 73.7773 22.8102 73.7644 22.9938 73.7881C23.1775 73.8118 23.3547 73.8715 23.5151 73.9641C23.6755 74.0567 23.8159 74.1803 23.9282 74.3275C24.0406 74.4747 24.1226 74.6427 24.1695 74.8219C24.2165 75.001 24.2274 75.1875 24.2018 75.3709C24.1761 75.5543 24.1143 75.7309 24.02 75.8902V75.8932ZM17.7326 55.9763C17.9184 56.2983 17.9689 56.6808 17.8728 57.04C17.7767 57.3992 17.5419 57.7056 17.2201 57.8919L15.2773 59.0121C15.1179 59.1064 14.9414 59.1682 14.758 59.1939C14.5746 59.2196 14.3879 59.2086 14.2088 59.1616C14.0297 59.1147 13.8616 59.0327 13.7143 58.9204C13.5671 58.8081 13.4436 58.6676 13.351 58.5073C13.2584 58.3469 13.1985 58.1698 13.1748 57.9862C13.1511 57.8025 13.1641 57.616 13.213 57.4374C13.2619 57.2588 13.3458 57.0917 13.4597 56.9457C13.5736 56.7997 13.7154 56.6778 13.8768 56.587L15.8196 55.4636C16.143 55.2787 16.5261 55.2284 16.8863 55.3237C17.0639 55.3711 17.2304 55.4532 17.3761 55.5651C17.5219 55.6771 17.644 55.8169 17.7356 55.9763H17.7326ZM9.98516 60.4453C10.0781 60.6044 10.1383 60.7803 10.1623 60.9629C10.1864 61.1455 10.1738 61.331 10.1252 61.5087C10.0778 61.6867 9.9958 61.8536 9.88382 61.9999C9.77184 62.1461 9.63212 62.2688 9.47265 62.3609L7.52983 63.4811C7.37046 63.5754 7.19395 63.6373 7.01055 63.6629C6.82714 63.6886 6.64051 63.6776 6.46137 63.6306C6.28222 63.5837 6.11413 63.5018 5.9669 63.3894C5.81966 63.2771 5.69619 63.1367 5.60359 62.9763C5.51099 62.8159 5.45107 62.6388 5.42739 62.4552C5.40371 62.2715 5.41669 62.0851 5.46559 61.9065C5.51448 61.7279 5.59835 61.5607 5.71228 61.4148C5.8262 61.2688 5.96797 61.1469 6.12934 61.056L8.07217 59.9326C8.39443 59.7476 8.7767 59.6973 9.13589 59.7927C9.31347 59.8401 9.47997 59.9222 9.62571 60.0342C9.77145 60.1462 9.8936 60.2859 9.98516 60.4453ZM12.5865 43.3704H10.3427C9.97128 43.3704 9.61511 43.2231 9.35247 42.9605C9.08982 42.6979 8.94224 42.3415 8.94224 41.9701C8.94224 41.5987 9.08982 41.2426 9.35247 40.98C9.61511 40.7174 9.97128 40.57 10.3427 40.57H12.5984C12.9699 40.57 13.3261 40.7174 13.5888 40.98C13.8514 41.2426 13.9989 41.5987 13.9989 41.9701C13.9989 42.3415 13.8514 42.6979 13.5888 42.9605C13.3261 43.2231 12.9699 43.3704 12.5984 43.3704H12.5865ZM5.03579 41.9701C5.035 42.3417 4.88678 42.698 4.62367 42.9605C4.36055 43.223 4.00396 43.3704 3.63225 43.3704H1.39145C1.02001 43.3704 0.66384 43.2231 0.401196 42.9605C0.138552 42.6979 -0.0090332 42.3415 -0.0090332 41.9701C-0.0090332 41.5987 0.138552 41.2426 0.401196 40.98C0.66384 40.7174 1.02001 40.57 1.39145 40.57H3.63225C3.81653 40.5692 3.99913 40.6047 4.16957 40.6748C4.34001 40.7448 4.49497 40.8481 4.62541 40.9782C4.75586 41.1084 4.85922 41.263 4.92965 41.4333C5.00008 41.6035 5.03618 41.7858 5.03579 41.9701ZM17.7386 27.9671C17.6467 28.1268 17.524 28.2668 17.3777 28.3788C17.2314 28.4908 17.0644 28.5726 16.8863 28.6197C16.5271 28.7148 16.1449 28.6645 15.8226 28.4798L13.8827 27.3596C13.7233 27.2676 13.5835 27.1451 13.4713 26.9991C13.3592 26.8531 13.277 26.6866 13.2292 26.5088C13.1815 26.3311 13.1692 26.1455 13.1932 25.963C13.2171 25.7805 13.2767 25.6046 13.3687 25.4451C13.4607 25.2857 13.5831 25.1461 13.7291 25.034C13.8751 24.9219 14.0417 24.8397 14.2195 24.7919C14.3973 24.7442 14.5827 24.7319 14.7652 24.7559C14.9478 24.7798 15.1238 24.8394 15.2832 24.9313L17.226 26.0544C17.3854 26.1459 17.5251 26.2683 17.6371 26.414C17.7491 26.5597 17.8312 26.7261 17.8786 26.9037C17.974 27.2628 17.9237 27.6449 17.7386 27.9671ZM5.61683 20.9688C5.80267 20.6472 6.10774 20.4116 6.46602 20.3133C6.644 20.2657 6.82963 20.2538 7.01222 20.2784C7.19481 20.3029 7.37075 20.3632 7.52983 20.4562L9.47265 21.5766C9.63402 21.6675 9.77579 21.7894 9.88972 21.9354C10.0036 22.0813 10.0874 22.2485 10.1363 22.4271C10.1852 22.6057 10.1982 22.7922 10.1745 22.9758C10.1508 23.1595 10.091 23.3365 9.9984 23.4969C9.9058 23.6573 9.78233 23.7977 9.63509 23.9101C9.48786 24.0224 9.31977 24.1043 9.14062 24.1513C8.96148 24.1982 8.77485 24.2092 8.59144 24.1835C8.40804 24.1579 8.23153 24.096 8.07217 24.0017L6.12934 22.8815C5.80771 22.6958 5.57305 22.3901 5.47693 22.0314C5.38082 21.6727 5.43113 21.2904 5.61683 20.9688ZM24.9526 15.2632C24.7831 14.9423 24.7446 14.5683 24.8451 14.2196C24.9455 13.8709 25.1772 13.5746 25.4914 13.393C25.8057 13.2114 26.178 13.1587 26.5304 13.2458C26.8827 13.3328 27.1877 13.5529 27.3812 13.86L28.5016 15.8027C28.6877 16.1243 28.7384 16.5065 28.6425 16.8655C28.5467 17.2245 28.3121 17.5307 27.9905 17.7168C27.6688 17.9029 27.2865 17.9535 26.9274 17.8577C26.5684 17.7618 26.2621 17.5275 26.076 17.2059L24.9526 15.2632ZM20.4829 7.5169C20.3901 7.35763 20.3297 7.1817 20.3053 6.999C20.2808 6.8163 20.2928 6.63037 20.3404 6.4523C20.388 6.27423 20.4705 6.10755 20.5829 5.96146C20.6953 5.81538 20.8355 5.69293 20.9954 5.60126C21.155 5.50899 21.3312 5.44898 21.514 5.42495C21.6967 5.40091 21.8825 5.41314 22.0605 5.46103C22.2385 5.50891 22.4053 5.59149 22.5513 5.70397C22.6973 5.81645 22.8198 5.95667 22.9115 6.11654L24.0319 8.05923C24.2176 8.38123 24.2677 8.76368 24.1713 9.12267C24.0749 9.48166 23.8399 9.78772 23.5178 9.97341C23.1958 10.1591 22.8132 10.2092 22.4541 10.1128C22.0951 10.0164 21.789 9.78159 21.6033 9.45959L20.4829 7.5169Z" fill="#0092FF"/>
</g>
<defs>
<clipPath id="clip0_712_9029">
<rect width="84" height="84" fill="white"/>
</clipPath>
</defs>
</svg>
