<svg width="77" height="77" viewBox="0 0 77 77" fill="none" xmlns="http://www.w3.org/2000/svg">
<path d="M38.2201 22C34.4675 22.0003 30.8311 23.3018 27.9306 25.6827C25.03 28.0635 23.0447 31.3764 22.3129 35.057C21.5811 38.7375 22.1482 42.5579 23.9174 45.8672C25.6866 49.1765 28.5485 51.77 32.0155 53.2058C35.4825 54.6416 39.3401 54.8308 42.931 53.7412C46.5219 52.6517 49.624 50.3507 51.7086 47.2304C53.7932 44.1101 54.7314 40.3636 54.3633 36.6291C53.9952 32.8946 52.3437 29.4033 49.6901 26.75C46.6455 23.712 42.5212 22.004 38.2201 22ZM38.2201 25.68C41.0059 25.681 43.7104 26.6178 45.9 28.34L28.3401 45.89C26.8963 44.0412 26.0012 41.8238 25.7573 39.4907C25.5134 37.1577 25.9305 34.8031 26.9607 32.6957C27.991 30.5883 29.593 28.813 31.5839 27.5724C33.5748 26.3319 35.8744 25.6761 38.2201 25.68V25.68ZM38.2201 50.75C35.5208 50.745 32.896 49.8642 30.74 48.24L48.25 30.73C49.2927 32.1215 50.0342 33.7149 50.4271 35.4087C50.8201 37.1026 50.8559 38.8597 50.5322 40.5681C50.2086 42.2766 49.5327 43.8988 48.5475 45.3316C47.5623 46.7644 46.2895 47.9763 44.8101 48.89C42.8293 50.1124 40.5477 50.7598 38.2201 50.76V50.75Z" fill="#0092FF"/>
<path d="M3 24.16L23.54 3.25999L52.8401 3L73.74 23.54L74 52.85L53.4601 73.75L24.16 74L3.26001 53.46L3 24.16Z" stroke="#0092FF" stroke-width="4"/>
</svg>
