<svg width="76" height="75" viewBox="0 0 76 75" fill="none" xmlns="http://www.w3.org/2000/svg">
<path d="M66.52 43.4892V66.7492C66.45 68.1898 65.8118 69.544 64.7453 70.5149C63.6788 71.4859 62.2708 71.9944 60.83 71.9292H7.69C6.24986 71.9918 4.84341 71.4823 3.77747 70.5119C2.71152 69.5415 2.07257 68.1889 2 66.7492V27.7492C2.07257 26.3096 2.71152 24.957 3.77747 23.9866C4.84341 23.0162 6.24986 22.5067 7.69 22.5692H32.28M2.07001 27.4792L34.07 49.6592M40.78 45.1192L34.24 49.6592" stroke="#0092FF" stroke-width="4" stroke-linecap="round" stroke-linejoin="round"/>
<path d="M55.9501 40.0893C51.6619 39.9436 47.5568 38.316 44.3339 35.4834C41.1111 32.6509 38.9698 28.7887 38.2748 24.5547C37.5798 20.3207 38.3741 15.9767 40.5223 12.2625C42.6705 8.54835 46.0398 5.69373 50.0565 4.18486C54.0731 2.67598 58.4887 2.60615 62.551 3.98729C66.6133 5.36842 70.0712 8.11511 72.3358 11.7595C74.6003 15.4039 75.5316 19.7206 74.9708 23.9745C74.41 28.2284 72.3918 32.1563 69.2601 35.0893C67.4796 36.7575 65.3875 38.0579 63.1035 38.9159C60.8194 39.7739 58.3886 40.1727 55.9501 40.0893ZM57.1002 7.22932C53.7823 7.11589 50.5277 8.15633 47.8909 10.1734C45.2542 12.1904 43.3984 15.0593 42.6397 18.2912C41.8809 21.5231 42.2662 24.9181 43.7299 27.8978C45.1936 30.8775 47.6451 33.2576 50.6668 34.6325C53.6885 36.0073 57.0934 36.292 60.3015 35.4379C63.5095 34.5839 66.3223 32.6439 68.2604 29.9487C70.1986 27.2534 71.1422 23.9695 70.9306 20.6564C70.719 17.3434 69.3654 14.2062 67.1002 11.7793C65.8146 10.4004 64.2695 9.28869 62.5535 8.50792C60.8375 7.72714 58.9844 7.29265 57.1002 7.22932Z" fill="#0092FF"/>
<path d="M49.3101 14.3292L63.7401 28.7592" stroke="#0092FF" stroke-width="3" stroke-miterlimit="10" stroke-linecap="round"/>
<path d="M63.9 14.3292L49.47 28.7592" stroke="#0092FF" stroke-width="3" stroke-miterlimit="10" stroke-linecap="round"/>
</svg>
