<svg width="75" height="76" viewBox="0 0 75 76" fill="none" xmlns="http://www.w3.org/2000/svg">
<path d="M5 70.52V2.01001M5 48.09L17.09 53.3C20.1481 54.6216 23.5889 54.7566 26.7412 53.6788C29.8935 52.6009 32.5313 50.3874 34.14 47.47L45.53 26.83M17.63 34.29L22.09 26.72C23.7072 23.9695 26.3225 21.9482 29.3918 21.0765C32.4612 20.2049 35.7485 20.5499 38.5699 22.04L49.5699 27.85C52.1824 29.2292 55.2014 29.6305 58.0834 28.9815C60.9653 28.3325 63.5209 26.6759 65.2899 24.31L70.14 17.84M34.14 47.47L40.02 51.18C42.6051 52.6655 44.7524 54.807 46.2449 57.3881C47.7373 59.9692 48.5222 62.8985 48.52 65.88V73.01" stroke="#0092FF" stroke-width="4" stroke-linecap="round" stroke-linejoin="round"/>
<path d="M54.7201 19.74C56.4748 19.74 58.1902 19.2195 59.6491 18.2444C61.1079 17.2694 62.2448 15.8835 62.9159 14.2621C63.587 12.6407 63.762 10.8568 63.419 9.13588C63.0759 7.415 62.23 5.83453 60.9885 4.59444C59.747 3.35434 58.1657 2.51034 56.4445 2.16922C54.7232 1.8281 52.9393 2.00519 51.3187 2.67807C49.6981 3.35095 48.3135 4.48941 47.3401 5.94939C46.3666 7.40937 45.8481 9.12526 45.8501 10.88C45.8501 12.0444 46.0796 13.1973 46.5255 14.2729C46.9714 15.3485 47.6248 16.3257 48.4486 17.1485C49.2724 17.9714 50.2503 18.6238 51.3264 19.0685C52.4025 19.5131 53.5557 19.7413 54.7201 19.74Z" fill="#0092FF"/>
</svg>
