<svg width="78" height="75" viewBox="0 0 78 75" fill="none" xmlns="http://www.w3.org/2000/svg">
<path d="M72.55 35.64V15.91C72.5514 13.8161 71.7246 11.8066 70.25 10.32C69.5267 9.58502 68.6644 9.00137 67.7132 8.60306C66.7621 8.20475 65.7412 7.99975 64.71 8H9.83C8.79899 8.00086 7.7784 8.20637 6.82741 8.60461C5.87642 9.00286 5.01395 9.58592 4.28999 10.32C2.81811 11.8076 1.99486 13.8173 2.00002 15.91V39.64C1.99703 41.7323 2.81996 43.7412 4.28999 45.23C5.01578 45.9609 5.87882 46.5413 6.82955 46.9377C7.78027 47.3341 8.79994 47.5388 9.83 47.54H37.27M37.2698 27.3999V27.3499M53.0798 27.3999V27.3499M21.3298 27.3999V27.3499" stroke="#0092FF" stroke-width="4" stroke-linecap="round" stroke-linejoin="round"/>
<path d="M73.6999 51.06C75.6299 52.24 75.4999 55.12 73.5299 55.34L63.5299 56.48L59.05 65.48C58.16 67.27 55.4199 66.39 54.9699 64.18L50.0799 40.39C49.9753 40.0142 49.9909 39.615 50.1245 39.2485C50.258 38.8819 50.5029 38.5663 50.8247 38.3459C51.1466 38.1254 51.5294 38.0111 51.9195 38.0191C52.3095 38.027 52.6873 38.1567 53 38.39L73.6999 51.06Z" stroke="#0092FF" stroke-width="4"/>
</svg>
