<svg width="75" height="75" viewBox="0 0 75 75" fill="none" xmlns="http://www.w3.org/2000/svg">
<path d="M66.359 58.2196L62.8091 54.6596C62.6464 54.4934 62.4429 54.3727 62.219 54.3096V54.2496H49.969C49.7833 54.2496 49.6054 54.3234 49.4741 54.4547C49.3428 54.5859 49.269 54.764 49.269 54.9496V71.0496C49.269 71.2353 49.3428 71.4133 49.4741 71.5446C49.6054 71.6759 49.7833 71.7496 49.969 71.7496H66.0691C66.2547 71.7496 66.4327 71.6759 66.564 71.5446C66.6952 71.4133 66.769 71.2353 66.769 71.0496V59.1996C66.7711 59.017 66.7358 58.8358 66.6653 58.6673C66.5948 58.4988 66.4905 58.3464 66.359 58.2196ZM55.219 55.8196H60.8191V58.0996H55.219V55.8196ZM65.219 70.1796H50.839V55.8196H53.839V58.8196C53.839 59.0053 53.9128 59.1833 54.0441 59.3146C54.1753 59.4459 54.3534 59.5196 54.5391 59.5196H61.5391C61.7247 59.5196 61.9028 59.4459 62.0341 59.3146C62.1653 59.1833 62.239 59.0053 62.239 58.8196V56.3196L65.239 59.3196L65.219 70.1796ZM58.0391 61.4696C57.4161 61.4696 56.807 61.6544 56.2889 62.0005C55.7709 62.3466 55.3672 62.8386 55.1288 63.4142C54.8904 63.9898 54.828 64.6231 54.9496 65.2342C55.0711 65.8452 55.3711 66.4065 55.8116 66.847C56.2522 67.2876 56.8135 67.5876 57.4246 67.7091C58.0356 67.8307 58.6689 67.7683 59.2445 67.5299C59.8201 67.2914 60.3121 66.8877 60.6582 66.3697C61.0043 65.8517 61.1891 65.2427 61.1891 64.6196C61.1891 64.2043 61.1069 63.793 60.9474 63.4095C60.7878 63.0261 60.554 62.6779 60.2594 62.3851C59.9648 62.0924 59.6151 61.8608 59.2306 61.7037C58.8461 61.5465 58.4344 61.467 58.019 61.4696H58.0391ZM58.0391 66.3696C57.6929 66.3696 57.3546 66.267 57.0668 66.0747C56.779 65.8824 56.5547 65.6091 56.4222 65.2893C56.2898 64.9696 56.2551 64.6177 56.3226 64.2782C56.3902 63.9388 56.5569 63.6269 56.8016 63.3822C57.0464 63.1375 57.3582 62.9708 57.6976 62.9033C58.0371 62.8357 58.389 62.8704 58.7087 63.0029C59.0285 63.1353 59.3018 63.3596 59.4941 63.6474C59.6864 63.9352 59.7891 64.2735 59.7891 64.6196C59.7891 64.8512 59.7431 65.0804 59.6539 65.294C59.5647 65.5076 59.434 65.7014 59.2694 65.8642C59.1048 66.027 58.9095 66.1555 58.6948 66.2422C58.4802 66.329 58.2505 66.3723 58.019 66.3696H58.0391Z" fill="#0092FF" stroke="#0092FF" stroke-miterlimit="10"/>
<path fill-rule="evenodd" clip-rule="evenodd" d="M48.5192 51.4396C49.8382 50.1126 50.7354 48.4253 51.0983 46.5898C51.4611 44.7542 51.2733 42.8524 50.5583 41.1234C49.8434 39.3943 48.6333 37.9152 47.0802 36.8719C45.5271 35.8286 43.7001 35.2676 41.8291 35.2596H33.0791C31.7643 35.2014 30.5226 34.6381 29.6128 33.6871C28.703 32.7361 28.1952 31.4707 28.1952 30.1546C28.1952 28.8385 28.703 27.5731 29.6128 26.6221C30.5226 25.6711 31.7643 25.1078 33.0791 25.0496H46.1992C46.78 25.0496 47.337 24.8189 47.7477 24.4082C48.1584 23.9975 48.3892 23.4404 48.3892 22.8596C48.3893 22.5734 48.3329 22.29 48.223 22.0257C48.1132 21.7614 47.9521 21.5214 47.7491 21.3196C47.3372 20.91 46.7801 20.6799 46.1992 20.6796H39.6392V17.0296C39.6392 16.742 39.5825 16.4572 39.4724 16.1915C39.3624 15.9258 39.201 15.6844 38.9977 15.481C38.7943 15.2777 38.5529 15.1164 38.2872 15.0063C38.0215 14.8962 37.7368 14.8396 37.4492 14.8396C36.8692 14.8422 36.3136 15.0738 35.9034 15.4839C35.4933 15.8941 35.2618 16.4496 35.2592 17.0296V20.6796H33.0791C30.5595 20.6796 28.1433 21.6805 26.3617 23.4621C24.5801 25.2437 23.5791 27.66 23.5791 30.1796C23.5791 32.6992 24.5801 35.1155 26.3617 36.8971C28.1433 38.6787 30.5595 39.6796 33.0791 39.6796H41.8291C42.5185 39.6491 43.2071 39.7585 43.853 40.0013C44.499 40.2441 45.089 40.6152 45.5876 41.0922C46.0863 41.5693 46.4832 42.1424 46.7543 42.777C47.0254 43.4116 47.1652 44.0945 47.1652 44.7846C47.1652 45.4747 47.0254 46.1576 46.7543 46.7922C46.4832 47.4268 46.0863 47.9999 45.5876 48.4769C45.089 48.954 44.499 49.3251 43.853 49.5679C43.2071 49.8107 42.5185 49.9201 41.8291 49.8896H28.6992C28.1184 49.8896 27.5613 50.1203 27.1506 50.531C26.7399 50.9417 26.5092 51.4988 26.5092 52.0796C26.5092 52.6604 26.7399 53.2175 27.1506 53.6282C27.5613 54.0389 28.1184 54.2696 28.6992 54.2696H35.2592V57.9096C35.2618 58.4896 35.4933 59.0451 35.9034 59.4552C36.3136 59.8654 36.8692 60.097 37.4492 60.0996C38.03 60.0996 38.587 59.8689 38.9977 59.4582C39.4084 59.0475 39.6392 58.4904 39.6392 57.9096V54.2696H41.8291C43.0754 54.2603 44.3078 54.0056 45.4557 53.52C46.6036 53.0344 47.6445 52.3275 48.5192 51.4396Z" fill="#0092FF"/>
<path d="M44.8692 72.1597C36.9923 73.8398 28.7783 72.7891 21.5779 69.1806C14.3775 65.572 8.61955 59.6204 5.25111 52.3046C1.88268 44.9889 1.10439 36.7445 3.04408 28.9276C4.98377 21.1106 9.52595 14.1865 15.9237 9.29414C22.3215 4.40173 30.1938 1.83231 38.2459 2.00849C46.2979 2.18467 54.0504 5.09595 60.228 10.2635C66.4057 15.4311 70.6408 22.5472 72.2367 30.4415C73.8326 38.3358 72.6944 46.5382 69.0092 53.6997" stroke="#0092FF" stroke-width="4" stroke-miterlimit="10" stroke-linecap="round"/>
</svg>
