<svg width="75" height="75" viewBox="0 0 75 75" fill="none" xmlns="http://www.w3.org/2000/svg">
<path d="M72.734 33.6H35.604M44.904 51.29C44.9141 55.6341 43.5951 59.8772 41.124 63.45C40.7337 64.0253 40.3131 64.5794 39.864 65.11C40.278 65.1698 40.6957 65.1999 41.114 65.2C47.804 65.2 53.634 58.55 56.624 48.76C58.1047 43.8441 58.8395 38.7339 58.8039 33.6V33.6C58.8039 16.15 50.884 2 41.114 2M44.884 51.3C44.8848 50.4544 44.8346 49.6096 44.734 48.77M44.884 51.3C44.8941 55.6441 43.575 59.8872 41.104 63.46M44.724 48.77C44.3207 45.3097 43.078 42.0004 41.104 39.13M44.724 48.77C44.3251 45.3087 43.082 41.9983 41.104 39.13M41.104 39.13C39.6105 36.97 37.7366 35.0996 35.5739 33.61M41.104 39.13V2.02M35.5739 33.63C32.0433 31.1955 27.8624 29.8785 23.5739 29.85M35.5739 33.63C32.0455 31.191 27.8632 29.8736 23.5739 29.85M23.5739 29.85C24.6239 14.17 32.094 2.02 41.144 2.02M23.5739 29.85H23.484C19.1371 29.8417 14.8912 31.1605 11.3139 33.63M41.1839 65.23V63.48M41.1839 63.48C40.7939 64.05 40.3739 64.6 39.9239 65.14L39.864 65.2C37.4825 68.0146 34.4179 70.1702 30.9639 71.46C26.2267 73.2245 21.0187 73.2608 16.2573 71.5625C11.4959 69.8642 7.48636 66.5403 4.93502 62.1761C2.38367 57.8119 1.45411 52.6874 2.31002 47.7052C3.16593 42.7229 5.75243 38.2025 9.61397 34.94C10.1564 34.4728 10.7239 34.0354 11.3139 33.63M11.3139 33.63H9.58394M14.004 18.46H68.354M68.354 48.79H44.8039M30.394 46.35C30.394 43.6 27.2339 41.35 23.3339 41.35C19.4339 41.35 16.274 43.58 16.274 46.35C16.274 49.12 19.4339 51.35 23.3339 51.35C27.2339 51.35 30.394 53.58 30.394 56.35C30.394 59.12 27.2339 61.35 23.3339 61.35C19.4339 61.35 16.274 59.12 16.274 56.35M23.3339 38.43V64.32M72.734 33.6C72.734 34.45 72.734 35.3 72.624 36.18C71.9863 43.6363 68.7346 50.6274 63.443 55.919C58.1513 61.2106 51.1602 64.4623 43.7039 65.1C42.8439 65.17 41.984 65.2 41.134 65.2H39.8339L39.884 65.14C40.3355 64.6113 40.7562 64.0571 41.144 63.48C43.6149 59.9109 44.9339 55.6709 44.9239 51.33C44.9253 50.4844 44.8753 49.6395 44.774 48.8C44.3739 45.339 43.1309 42.0289 41.154 39.16C39.6582 36.9991 37.7849 35.1258 35.624 33.63C32.0934 31.1955 27.9125 29.8785 23.624 29.85H23.484C19.1369 29.8404 14.8906 31.1593 11.3139 33.63C10.7237 34.0389 10.1563 34.4795 9.61397 34.95C9.61397 34.5 9.61397 34.08 9.61397 33.63C9.61397 32.79 9.64394 31.93 9.70394 31.05C10.3416 23.5938 13.5934 16.6026 18.885 11.311C24.1766 6.01939 31.1677 2.76767 38.624 2.13C39.494 2.07 40.3639 2.04001 41.2039 2.04001C49.5822 2.04266 57.6168 5.3714 63.5421 11.2948C69.4674 17.2182 72.7986 25.2517 72.8039 33.63L72.734 33.6Z" stroke="#0092FF" stroke-width="3.5" stroke-linecap="round" stroke-linejoin="round"/>
</svg>
