<svg width="76" height="75" viewBox="0 0 76 75" fill="none" xmlns="http://www.w3.org/2000/svg">
<path d="M52.0514 67.42C52.0514 67.42 56.5914 61.42 56.5914 48.42V27.93C56.5837 27.0934 56.2485 26.2931 55.6579 25.7006C55.0672 25.1081 54.268 24.7704 53.4314 24.76H53.2614C52.4118 24.76 51.5969 25.0968 50.9952 25.6967C50.3935 26.2965 50.0541 42.1104 50.0514 42.96V23.38C50.0057 22.5609 49.6481 21.7905 49.052 21.2268C48.456 20.6632 47.6668 20.3491 46.8464 20.3491C46.0261 20.3491 45.2369 20.6632 44.6408 21.2268C44.0448 21.7905 43.6872 39.5609 43.6414 40.38V19.46C43.6388 18.6104 43.2994 17.7965 42.6977 17.1967C42.096 16.5968 41.281 16.26 40.4314 16.26H39.6014C38.7527 16.26 37.9388 16.5971 37.3387 17.1973C36.7386 17.7974 36.4014 18.6113 36.4014 19.46V24.22C36.4014 23.3687 36.0632 22.5522 35.4613 21.9502C34.8593 21.3482 34.0428 21.01 33.1914 21.01H32.9414C32.0918 21.0127 31.2779 21.352 30.6781 21.9537C30.0782 22.5554 29.7414 23.3704 29.7414 24.22V48.76C29.7404 48.9014 29.694 49.0387 29.6091 49.1517C29.5241 49.2647 29.4052 49.3475 29.2697 49.3878C29.1342 49.4281 28.9893 49.4239 28.8564 49.3756C28.7235 49.3274 28.6096 49.2378 28.5314 49.12L24.5314 42.92C24.113 42.2827 23.4833 41.8134 22.753 41.5945C22.0227 41.3757 21.2387 41.4214 20.5387 41.7236C19.8388 42.0258 19.2679 42.5651 18.9263 43.2467C18.5848 43.9283 18.4945 44.7085 18.6714 45.45C19.9714 50.75 23.5014 62.63 29.8314 66.98M36.4114 24.2V40.32M36.1914 53.76C36.1914 53.76 41.1914 58.88 39.7414 64.49M63.3114 15.67C63.3114 15.67 68.3114 20.79 66.8614 26.4M67.1114 8C67.1114 8 75.6614 16.83 73.2414 26.52M12.3514 35.52C12.3514 35.52 7.40143 40.64 8.80143 46.25M8.56144 27.84C8.56144 27.84 0.0114329 36.67 2.43143 46.36" stroke="#0092FF" stroke-width="4" stroke-linecap="round" stroke-linejoin="round"/>
</svg>
